<?xml version="1.0" encoding="utf-8"?>
<!-- Generator: Adobe Illustrator 27.6.1, SVG Export Plug-In . SVG Version: 6.00 Build 0)  -->
<svg version="1.1" id="Layer_1" xmlns="http://www.w3.org/2000/svg" xmlns:xlink="http://www.w3.org/1999/xlink" x="0px" y="0px"
	 viewBox="0 0 452 523" style="enable-background:new 0 0 452 523;" xml:space="preserve">
<style type="text/css">
	.st0{fill:#FFFFFF;}
	.st1{fill:#080808;}
	.st2{fill:#ED2C28;}
</style>
<g>
	<g>
		<path class="st0" d="M-83.3-82.3c204.6,0,409.2,0,613.9,0c0,230.9,0,461.9,0,692.9c-204.7,0-409.3,0-613.9,0
			C-83.3,379.7-83.3,148.7-83.3-82.3z M227.7,430.5c1.9,1.7,3.1,4,4.6,5.9c0.7,0.9,1.5,1.8,1.9,2.9c0.7,2,1.7,3.9,2,6.1
			c0.3,2.5,0.8,5,1.2,7.5c0.1,0.5,0.2,1,0,1.4c-0.5,1.8-0.1,3.4,0.6,5.1c0.4,0.9,0.6,1.8,0.9,2.8c0.5,1.9,1.7,3.3,3.4,4.1
			c1.1,0.5,2.1,0.9,3.3,1c1.8,0.1,3.7,0.1,5.5-0.3c2.9-0.7,5.9-1.1,8.9-0.2c1.5,0.5,3,0.9,4.5,1.2c2.1,0.4,4,1.4,6,2.3
			c1,0.5,1.8,1.1,2.5,2c0.8,1.1,1.9,2,2.7,3c1.4,1.7,3.2,1.8,5,1.7c2.5-0.2,4.7-1.3,6.6-2.9c3.3-2.8,6.4-5.7,9.5-8.7
			c1.7-1.6,3.2-3.3,4.7-5.2c1.7-2.2,2-4.4,0.5-6.7c-0.2-0.2-0.3-0.5-0.4-0.8c-1.8-2.7-3.5-3.4-6.7-2.8c-1,0.2-1.9,0.5-2.9,0.6
			c-3.7,0.1-7.4,0.1-11.1-0.2c-0.8-0.1-1.6-0.2-2.2-0.7c-1.5-1-3.2-1.3-4.9-1.8c-3.3-0.9-6.4-2.3-9.2-4.3c-3.9-2.6-6.9-6.3-10.6-9.2
			c-0.2-0.1-0.3-0.3-0.4-0.4c-2.1-2.8-4.5-5.4-6.3-8.4c-1.1-1.8-2.4-3.5-3.9-5.1c-0.1-0.5-0.2-0.9-0.4-1.4c-0.9-2-2-4-2.6-6.2
			c-0.1-0.6-0.4-1.1-0.8-1.6c-0.8-0.9-1-1.8-0.7-3c0.2-0.7,0.2-1.5,0.2-2.3c0.1-1.3,0-2.5,0.1-3.8c0.1-1,0-2.2,0.7-3
			c2.4-2.6,5-5.2,8.9-5.4c0.2,0,0.4,0,0.7,0c0.3,0.8,0.6,1.6,0.9,2.4c2.4,6.1,6.7,10.4,13,12.5c0.6,0.2,1.3,0.3,1.9,0.7
			c4.3,2.4,8.9,3.8,13.6,5.1c0.6,0.2,1.3,0.4,1.9,0.8c3.2,2.5,6.9,4.3,9.5,7.6c1.3,1.7,2.7,3.3,4,5c1.1,1.4,2.1,2.9,3.8,3.5
			c1.9,0.7,3.4,2.4,5.6,2.3c1.1,0.9,2.2,0.5,3.2-0.1c1.2-0.7,2.4-1.3,3-2.6c0.3-0.7,0.9-1.2,1.4-1.9c1.2-1.8,2.6-3.5,3.3-5.4
			c1-2.5,2.2-4.8,3.4-7.1c3.1-5.7,2-4.5,7.4-7.2c2-1,3.9-2.1,5.2-4c0.6-1,1.3-2,1.5-3.1c0.3-1.3,0.5-2.7,1-4
			c0.5-1.5,1.1-2.8,2.6-3.6c3.2-1.6,4.5-4.4,4-8c-0.1-0.9-0.4-1.7-0.5-2.6c-0.1-0.6-0.5-1-1.1-1.2c-1.6-0.6-3.2-0.8-4.8,0
			c-0.4,0.2-0.9,0.4-1.4,0.1c-1.2-0.8-2.2-0.4-3.3,0.3c-0.7,0.4-1.4,0.6-2.2,0c-0.1-0.1-0.4-0.2-0.5-0.2c-1.3,0.1-2.5,0.6-3.6,1.1
			c-0.8,0.4-1.3,1.1-1.6,2c-0.7,2.5-2.1,4.6-3.8,6.5c-0.5,0.6-0.9,1.2-1.3,1.9c-1.4,2.5-3.2,4.6-5.6,6.3c-1.3,0.9-2.7,1.9-3.9,3
			c-2.4,2.2-5.7,2.7-8.3,0.9c-2.8-2-6.1-3.5-8.2-6.4c-0.3-0.4-0.9-0.7-1.4-1.1c-2.1-1.7-4.2-3.4-6.1-5.4c-1.8-1.8-3.4-3.7-5.3-5.4
			c-2.6-2.4-5.1-4.7-7.6-7.2c-0.5-0.6-1.1-1.1-1.7-1.5c-1.5-1-2.7-2.2-3.7-3.7c-1.5-2.2-3.3-4.1-5.3-5.8c-0.7-0.6-1.4-1.3-2.1-2
			c-2.1-2.2-5-2.9-7.6-4.2c-0.1,0-0.2,0-0.3,0c-3.9,0-7.6,0.2-10.3,3.6l0,0c-0.2-0.2-0.4-0.5-0.2-0.8c0.5-0.6,1-1.2,1.5-1.8
			c1.2-1.5,2.8-2.7,3.8-4.4c1.2-2,2.4-4,3.7-5.9c1.2-2,2.9-3.6,4.2-5.5c1-1.6,2.7-2.8,4-4.2c1.8-1.9,4-3,6.6-3.4
			c2.9-0.5,5.7-1.2,8.3-2.6c3.3-1.7,6.5-3.5,8.5-6.9c0.7-1.1,1.2-2.2,1.7-3.4c1.4-3.4,2.8-6.8,3.5-10.5c0.1-0.7,0.5-1.4,0.9-2.1
			c1.5-2.2,2.8-4.4,4.2-6.7c0.8-1.2,0.8-2.6,0.6-4c-0.1-0.9-0.7-1.3-1.6-1.4c-0.7,0-1.3,0.2-1.9,0.7c-1,0.8-1.8,1.8-2.5,2.8
			c-0.5,0.7-0.7,1.6-1.5,2c-0.7-0.9-0.9-2-1.2-3c-0.3-0.8-0.6-1.4-1-2.1c-1.1-1.5-2.9-1.4-3.7,0.4c-1.1,2.4-2.8,4.4-4.4,6.5
			c-0.5-0.3-0.8-0.6-1.2-0.9c-1.5-0.9-2.6-0.6-3.3,0.9c-0.2,0.5-0.4,1.1-0.4,1.7c0,1,0.5,1.9,0.4,2.9c-0.1,1.2-1.8,1.1-2.3,2.1
			c-0.1,0.3-0.4,0.4-0.6,0.7c-1.3,1.6-3,2.5-5,2.7c-0.7,0.1-1.4,0.1-2,0.3c-2.4,0.5-4.4-0.2-6.3-1.6c-0.8-0.6-1.3-1.3-1.3-2.4
			c0-1.6,0-3.1-0.5-4.6c-0.6-1.6-1.6-2.9-3.2-3.6c-0.8-0.4-1.6-0.1-1.9,0.7c-0.4,1.1-0.7,2.2-1.1,3.3c-0.7,1.9-1,3.7-0.5,5.7
			c0.2,0.7,0.2,1.5,0.2,2.3c0,2.3,0.2,4.5,0.8,6.6c0.3,1.2,0.4,2.5,0.5,3.8c0.1,1.4-0.3,2.8-1.1,3.9c-2,2.9-4.2,5.6-6.7,8.1
			c-1.4,1.4-3.2,2.2-4.6,3.5c-3.9,3.5-8.1,6.7-12.6,9.5c-1.4,0.9-2.9,1.6-4,2.9c-0.5,0.6-1.2,1-2.1,1c-0.5,0-1-0.1-1.2-0.6
			c-0.9-2.5-2.7-4.4-4.2-6.5c-1.5-2-1.5-2,0-4.2c0.3-0.4,0.6-0.8,0.8-1.2c1.2-2.3,1.5-4.6,0.3-6.9c-1.8-3.6-4-6.9-6.4-10.1
			c-2-2.8-4.3-5.3-7-7.4c-3.4-2.6-7.3-4.5-10.8-7c-0.8-0.5-1.7-0.7-2.5-0.5c-2.9,0.7-6.1,0.8-8.1,3.4c-1.5-0.5-2.7-1.7-4.3-1.8
			c-0.4,0-0.6-0.4-0.7-0.8c-0.2-2.5-0.4-5,0.4-7.5c0.7-2.2,2.1-3.4,4.3-3.7c1.7-0.2,3.5-0.5,5.2-0.7c2.4-0.3,4.6-1.1,6-3.2
			c0.8-1.2,1.4-2.6,1.8-4c0.7-2.4,1.1-4.9,1.5-7.4c0.4-2.4,0.5-4.8-0.3-7.2c-0.3-0.8-0.3-1.7-0.3-2.6c-0.1-1.3,0.4-2.5,1.5-3.3
			c0.5-0.4,0.9-0.7,1.4-1.1c1.4-1.2,2.1-2.8,2.4-4.6c0.4-2.5-0.8-4.8-3-5.8c-0.7-0.4-1.5-0.4-2.2-0.1c-1.1,0.5-2.1,0.9-3.2,1.4
			c-0.2-0.3-0.4-0.6-0.5-0.9c0.5-0.9,0.8-1.9,1.9-2.5c1.8-0.9,2.3-3.1,1.1-4.6c-0.6-0.8-1-1.6-2-2.1c-0.5-0.2-0.2-1,0.4-1.8
			c0.4-0.5,0.6-0.2,0.9,0.1c0.5,0.4,0.9,0.6,1.6,0.4c1-0.3,2.1-0.5,3.1-0.7c0.8-0.2,1.5-0.5,1.6-1.4c0.1-0.8-0.5-1.2-1.2-1.5
			s-0.7-0.8-0.4-1.4c0.3-0.7,0.8-1.1,1.4-1.4c1.1-0.6,1.2-1.7,1.2-2.8c0-0.8-0.4-1.5-0.8-2.2c-0.8-1.2-2.3-2.3-3.9-0.7
			c-0.6,0.6-1.3,0.9-2.1,0.7c-2.5-0.6-5.1-1.3-7.7-1.3c-1.3,0-2.5-0.6-2.8-2.1c-0.3-1.1-0.8-2-1.4-2.8c-0.9-1.2-2-2.1-3.6-2.1
			c-5.5,0-10.5,1.1-13.8,6c-0.1,0.2-0.2,0.3-0.3,0.5c-0.7,0.9-2.2,1.3-3.3,0.8c-1.5-0.7-3.2-0.9-4.8-1.1c-4.6-0.5-8.1,1.5-10.1,5.7
			c-0.1,0.2-0.1,0.4-0.2,0.5c-0.4,0.9-1,1.4-1.9,1.7c-1.1,0.4-2.2,0.8-3.4,0.5c-3-0.8-5.8-0.1-8.5,1.2c-1.4,0.7-2.9,1-4.5,1.3
			c-5,0.8-9.5,2.7-13,6.6c-1.4,1.6-2.5,3.2-3.2,5.1c-0.8,2.2-0.2,3.5,2.1,4.2c0.7,0.2,1.5,0.3,2.3,0.4c0.4,0.1,0.8,0.1,1.1,0.2
			c0.4,0.2,0.6,0.6,0.4,1c-0.1,0.3-0.3,0.5-0.7,0.3c-1.7-0.6-3.2-0.1-4.8,0.7c-0.9,0.5-1.7,1-1.7,2.1c0,1,0.9,1.8,2.2,2
			c0.4,0.1,0.8,0.1,1.2,0.1c0.6,0.1,0.8,0.5,0.5,1c-0.6,0.8-1.3,1.5-1.8,2.3c-0.7,1.1-0.5,2.1,0.2,3c0.4,0.5,1,0.7,1.6,0.6
			s1.3-0.8,1.1-1.5c-0.3-1,0-1.7,0.7-2.3c1.8-1.6,2.5-3.9,3.9-5.8c0.2-0.2,0.3-0.5,0.4-0.8c1.1-2.9-0.2-5-3.2-5.5
			c-0.7-0.1-1.3-0.2-2-0.4c-0.3-0.1-0.5-0.2-0.7-0.4c-0.1-0.1-0.1-0.4-0.1-0.5c0-0.2,0.2-0.3,0.4-0.4c0.4-0.2,0.7,0.1,1.1,0.2
			c3,0.9,6.9-2.6,6.5-5.6c0-0.2-0.1-0.4-0.2-0.6c-0.2-0.5-0.8-0.8-0.6-1.5c1.3-0.9,2.8-1.3,4.4-1.6c0.4-0.1,0.8,0.1,0.7,0.6
			c0,0.8-0.2,1.5-0.8,2.1c-1.6,1.7-2.2,3.9-2,6.2c0.1,1.6,0,3-0.7,4.5c-0.5,1-0.7,2.2-0.7,3.4c0,1.2-0.1,2.3-0.1,3.5
			c0,0.8-0.2,1.5-0.7,2.1c-1.9,2.4-2.1,5-0.1,7.5c0.1,0.1,0.1,0.1,0.2,0.2c0.6,0.9,0.4,1.7-0.5,2.2c-1,0.5-2,0.8-3,1.2
			c-1.5,0.6-2.5,1.8-3.1,3.3c-0.7,1.7-0.3,3,1,4.2c1.5,1.4,3.6,1.2,4.8-0.5c0.3-0.5,0.6-1,0.9-1.5c0.4-0.6,0.9-1.3,1.5-1.8
			c0.8-0.7,1.9-0.3,2.2,0.7c0.2,0.8,0.4,1.7,0.7,2.5c0.2,0.6-0.1,1-0.5,1.2c-1.2,0.6-2.5,1-3.7,1.6c-1.9,1-2.8,2.7-2.7,4.8
			c0.1,1.7,1.2,2.9,3,3c1.5,0.1,2.9,0.1,4.2-0.8c0.6-0.4,1.4-0.1,1.6,0.5c0.1,0.4,0.2,0.7,0.2,1.1c0,1.1,0.6,2,1.2,2.9
			c1.4,1.7,2.8,1.9,4.6,0.7c0.6-0.4,1-1.2,1.9-1.3c0.6,1.3,1.6,2.2,2.8,3c0.2,0.1,0.3,0.5,0.2,0.8c-0.1,0.2-0.4,0.5-0.6,0.5
			c-0.7,0.1-1.4,0.1-2,0.2c-1.1,0.2-2.1,0.6-2.8,1.4c-0.5,0.6-0.3,1.7,0.4,2c0.5,0.2,0.9,0.2,1.4,0c0.7-0.3,1.3-1,2.1-1
			c1.6,0.2,2.4-1,3.5-1.8c1.3-1,1.3-2.6,0.1-3.8c-0.5-0.5-1.1-0.8-1.6-1.3c-0.3-0.2-0.6-0.6-0.7-0.9c-0.1-0.2-0.1-0.6,0.3-0.7
			c0.3,0,0.6,0.1,0.8,0c1.1-0.1,1.9,0.1,2.7,1.2c1.2,1.6,2.9,2.6,5.1,2.2c0.3,0,0.5,0,0.7,0.3c-1.3,2.4-1.3,2.5-3.4,3.1
			c-1.6,0.4-2.7,1.4-3.8,2.5c-1.1,1.1-2.1,2.3-2.9,3.6c-0.5,0.7-0.9,1.7-1.6,2c-1.1,0.5-1.2,1.4-1.5,2.3c-0.3,0.8-0.6,1.6-0.9,2.5
			c-0.8,2.9-1.9,5.8-2.3,8.7c-0.4,3.1-1,6.1-1.7,9.2c-0.5,2.2-0.8,4.4-0.7,6.7c0.1,3.9-0.1,7.8-0.3,11.7c-0.2,5-0.5,9.9-0.1,14.9
			c0.3,3.7,0.5,7.4,0.7,11.1c0.3,4.3,0.5,8.6,0.9,12.8c0.2,2,0.4,4.1,0.8,6.1c0.6,3,1.2,6.1,2.3,9c0.9,2.5,1.8,4.9,2.8,7.3
			c0.5,1.1,1,2.1,2,2.8c0.5,0.3,0.6,0.7,0.6,1.2c0,0.6,0.1,1.2,0.1,1.7c0.2,2.9-0.4,3.8-3.1,4.7c-0.4,0.1-1,0.1-1.4,0.1
			c-0.7,0-1.4-0.2-2-0.2c-3.7,0.2-7.4-0.3-11-0.9c-2.2-0.4-4.3,0-6.2,1c-1.6,0.8-1.7,2.2-0.4,3.2c0.3,0.2,0.7,0.4,1,0.6
			c0.6,0.3,1.2,0.6,1.8,1c0.2,0.1,0.3,0.3,0.3,0.4c-0.1,0.3-0.2,0.5-0.6,0.6c-2.5,0.5-4.9,1.1-7.3,1.8c-1.2,0.4-2.1,1-2.8,2
			c-0.7,1-0.5,2.8,0.5,3.1c1,0.3,2,0.9,3.1,0.5c1.4-0.5,2.9-0.2,4.3,0c0.2,0.2,0.3,0.4,0.5,0.6c-1.6,0.8-3.1,1.5-4.7,2.3
			c-0.5,0.3-1,0.5-1.5,0.9c-0.9,0.7-1,1.5-0.5,2.6c1.1,2,3.8,3.4,6.2,2.6c1.2-0.4,2.4-0.7,3.6-1.2c0.8-0.3,1.5-0.4,2.3,0
			c0.2,0.1,0.3,0.2,0.4,0.4c0,0.1-0.1,0.4-0.2,0.4c-1.1,0.4-2.1,1.1-2.9,2c-1,1.1-1,2.9,0,4c1.2,1.2,4,1.5,5.4,0.7
			c0.4-0.2,0.8-0.5,1.2-0.8c1.2-0.9,2.5-1.4,4-1.6c2.1-0.3,4.2-0.7,6.3-1c0.8-0.1,1.5-0.4,2.1-0.8c2.1-1.3,4.2-2.7,6.1-4.4
			c2.5-2.2,5.5-3.1,8.9-3.1c1.3,0,2.5,0.3,3.6,0.9c2.2,1.2,4.7,1.7,7,2.7c0.7,0.3,1.5,0.3,2.3,0.4c1.3,0.1,2.5-0.3,3.4-1.2
			c1.1-1.1,1.2-2.5,0.2-3.6c-0.4-0.5-1-0.9-1.5-1.3c-0.9-0.7-1.8-1.5-2.7-2.2c-0.1-0.1-0.2-0.3-0.2-0.5c0-0.4,0.4-0.3,0.6-0.3
			c4.1,0.7,8.2,1.5,12.3,2.2c4.1,0.6,8.3,1.2,12.4,1.5c3.3,0.2,6.6,0.4,9.9,0.8c0.9,0.1,1.7,0,2.5-0.5c1.2-0.8,2.5-1.6,3.7-2.3
			c4-2.6,8-5.1,11.7-8.1c3.6-2.9,7.6-5.3,11.5-7.9C224,430.6,225.7,430,227.7,430.5z M242.9,172.8c0.5-1.3,0.9-2.7,1.5-4
			c1.4-3.2,1.9-6.5,1.9-10c0.1-4.7-0.8-9.3-2.1-13.8c-0.7-2.3-1.7-4.4-3-6.3c-4.3-6.3-10.3-10.5-17.6-12.9
			c-5.7-1.8-11.5-2.9-17.4-3.9c-3.5-0.6-7.1-0.8-10.8-0.4c-5.3,0.5-10.6,1.4-15.9,2.2c-1.2,0.2-2.3,0.2-3.5,0.2
			c-1.4-0.1-2.7-0.2-4.1-0.2c-8.9-0.1-17.7-0.1-26.6-0.6c-5.6-0.4-11.3-0.8-16.9-1.5c-6-0.7-12-1.4-17.8-3.2
			c-3.4-1.1-6.9-2-10.2-3.5c-2.2-0.9-4.2-2.1-6.1-3.5c-2.6-1.9-4-4.4-3.7-7.8c0.2-2,1.2-3.7,2.5-5.2c1.6-1.7,3.3-3.4,5.1-4.8
			c3.9-3,8-5.6,12.3-7.7c3.6-1.8,7.2-3.5,10.8-5.1c4.2-1.8,8.4-3.5,12.9-4.7c4.3-1.1,8.6-2.3,13-3.4c3.4-0.8,6.8-1.6,10.2-2.3
			c4-0.8,8.1-1.3,12-2.2c5.4-1.1,10.9-1.8,16.4-2.5c7.7-1,15.5-1.7,23.3-2c9-0.3,17.9,0.4,26.6,3c6.9,2,13.6,4.7,20.1,7.9
			c2.1,1,4.1,2.3,6,3.7c0.9,0.6,1.6,1.4,2.4,2.1c0.3,0.3,0.6,0.5,0.4,1s-0.6,0.4-1,0.3c-2.5-0.3-5-0.7-7.5-1c-2.9-0.4-5.8-0.9-8.7-1
			c-6.3-0.3-12.7-0.3-19-0.4c-7.6-0.1-15.2,0.7-22.7,1.7c-3.2,0.4-6.3,1-9.3,2.4c-1.3,0.6-2.4,1.6-3.5,2.5c-3,2.7-2.2,7.6,0.3,9.6
			c0.7,0.6,1.5,1.2,2.3,1.8c4.1,2.8,8.7,4.3,13.4,5.6c6.4,1.8,12.9,3.1,19.5,3.6c8.4,0.6,16.7,0.4,25-1.3c5.4-1.1,10.8-2.6,15.7-5.3
			c4.1-2.2,7.3-5.1,9.1-9.5c0.2-0.4,0.4-0.9,0.6-1.3c0.2-0.3,0.5-0.6,1-0.5c1.1,0.2,2.3,0.4,3.4,0.7c4.4,1,8.7,2.1,13.1,3
			c6,1.2,12,2.6,17.9,4.1c4.7,1.2,9.4,2.5,14.1,3.7c4.9,1.2,9.8,2.6,14.2,5.2c1.6,0.9,3.4,1.5,5.2,1.9c2,0.5,4,1,5.9,1.7
			c4.8,1.8,8.9,4.7,12.9,7.9c0.5,0.4,1.3,0.8,1.5,1.3c0.7,1.6,2.1,2.2,3.4,3c1.8,1.1,3.3,2.4,4.2,4.4c0.7,1.6,1.4,3.2,2,4.8
			c0.2,0.5,0.5,1.1,0.5,1.7c0.2,3-0.8,5.6-3,7.6c-0.5,0.5-1.1,1-1.8,0.7c-0.5-0.2-0.4-0.8-0.4-1.3c0-0.2-0.1-0.4-0.2-0.6
			c-1.1-3.2-4.4-5.1-7.6-3c-0.9,0.6-1.9,1-2.9,1.3c-3,0.9-6,1.4-9.1,1.8c-3.5,0.5-7,0.7-10.5,0.7c-3.8,0.1-7.6,0.2-11.4-0.2
			c-4.5-0.5-9.1-0.8-13.6-1.5c-5.2-0.8-10.3-2.1-15-4.6c-2.1-1.2-4.5-1.9-6.7-2.8c-1.6-0.6-2.6,0.1-2.9,1.8c-0.4,2.5-0.6,5-0.6,7.6
			c0,2.1-0.1,4.3,0,6.4c0.1,1.4-0.5,2.1-1.7,2.7c-0.7,0.3-1.5,0.4-2.3,0.4c-1.3,0-2.5,0-3.8,0.3c-5.7,1.1-10.8-0.6-15.8-3.1
			c-0.8-0.4-1.4-1-1.9-1.7c-1.8-2.7-3.2-5.5-3.6-8.8c-0.3-2.3,0.4-4.4,1.6-6.4c1.1-1.8,2.8-2.5,4.8-3c3.1-0.9,6.3-1.2,9.5-1.4
			c4.1-0.3,8.2-0.5,12.2,0.1c2.3,0.4,4.6,0.8,6.9,1c4.1,0.5,8.2,0.5,12-1.6c2.2-1.1,4.2-2.5,6.1-4c2.2-1.8,2.8-4.8,1.7-7.4
			c-1-2.3-2.5-3.9-4.9-4.8c-2-0.7-4.1-1.3-6.2-1.8c-0.8-0.2-1.7-0.2-2.6-0.1c-1.8,0.1-3.1,1-4.1,2.4c-0.6,0.8-0.5,1.7,0.1,2.4
			c0.6,0.8,1.4,1.1,2.3,0.5c0.8-0.6,1.8-0.7,2.7-1c1.9-0.7,3.4,0,4.8,1.2c1.5,1.3,1.3,3.4-0.3,4.4c-0.5,0.3-1,0.5-1.6,0.7
			c-2.1,0.6-4.2,1-6.3,1c-2.6,0.1-5.3,0.2-7.9,0.1c-6.2-0.2-12.3,0.5-18.3,1.7c-3,0.6-6,1.2-8.6,2.8c-3,1.8-5.8,3.9-8.6,6
			c-2.5,1.9-3,4.6-2.3,7.6c0.8,3.5,2.8,6.2,5.4,8.5c0.9,0.8,1.9,1.4,2.6,2.3c2.8,3.3,6.6,4.7,10.6,5.7c3.4,0.8,6.8,0.6,10.2,0.2
			c1.9-0.2,3.9-0.3,5.8-0.3c0.8,0,1.3,0.4,1.5,1.2s0.3,1.5,0.4,2.3c0.2,3.3,0.4,6.6,0.7,9.9c0.3,4,1.2,7.9,2.6,11.6
			c1.9,5,4.1,9.9,6.4,14.7c1,2.2,2.3,4.3,4,6.1c1.5,1.6,2.8,3.2,4.3,4.8c1.6,1.6,3.5,2.9,5.6,3.5c4,1.1,8.1,1.2,12.1,0
			c5.3-1.5,9.9-4.5,14.4-7.5c3.8-2.6,6.9-6,10.5-8.8c1.1-0.8,1.8-2.3,2.7-3.4c0.1-0.2,0.3-0.3,0.4-0.4c4.4-4.5,7.5-9.9,10-15.7
			c1.2-2.8,2.2-5.6,3.3-8.4c0.6-1.5,1-3,1.3-4.5c0.7-3.9,1.6-7.8,1.9-11.8c0.1-1.2,0.6-2.1,1.7-2.5c2.5-0.9,3.8-2.9,5.2-4.9
			c1.2-1.6,1.8-3.4,1.8-5.5c0-0.8,0-1.5,0.3-2.3c1.3-2.5,1.5-5.2,1-7.9c-0.2-1-0.2-1.9-0.3-2.9c-0.1-0.9-0.2-1.8-0.5-2.6
			c-1.1-2.9-2.3-5.7-4.1-8.3c-2.1-3-4.6-5.2-8-6.6c-2.2-0.9-4.4-2-6.5-3.2c-4.2-2.6-8.7-4.5-13.4-5.7c-8.1-2.2-16-4.8-24.2-6.6
			c-6.3-1.4-12.6-2.6-19-3.2c-2.3-0.2-4.6-0.4-7-0.7c-6.1-0.7-12.2-1.3-18.3-1.4c-1.2,0-2.5,0.4-3.4-0.2c-1.1-0.7-0.9-2.3-1.3-3.5
			c-0.9-3.1-2.3-6-4.6-8.3c-4.8-5-10.3-8.8-16.7-11.5c-2.5-1-5.2-1.4-7.9-2c-5.9-1.2-11.8-1.2-17.7-1.4c-1.6,0-3.3,0.2-4.9,0.3
			c-4.9,0.3-9.7,0.5-14.6,0.8c-0.5,0-1,0.1-1.4,0.2c-4.8,0.5-9.7,0.9-14.5,1.5c-5,0.6-10.1,1.2-15,2.2c-4.4,0.9-8.8,1.8-13.1,2.7
			c-4.7,1-9.5,2.2-14.2,3.2c-6.2,1.4-12.3,2.9-18.5,4.3c-2.7,0.6-5.3,1.1-8,1.7c-6.5,1.4-12.7,3.8-18.9,5.9c-4.4,1.5-8.8,3.2-13,5.1
			c-7.1,3.2-13.3,7.8-18.7,13.3c-2.5,2.6-4.8,5.4-5.9,8.9c-1.4,4.4-0.9,8.5,1.8,12.2c1.4,1.9,3.1,3.5,5.1,4.7
			c2.8,1.6,5.6,3.1,8.6,4.4c5.8,2.5,11.9,4.3,18,5.8c6.2,1.5,12.5,2.2,18.8,2.5c9.8,0.4,19.5-0.8,28.9-3.1
			c5.7-1.4,11.4-2.7,17.2-3.5c2.3-0.3,4.6-1,6.9-1c4.6,0.1,9.2,0.2,13.7,0.1c7.8-0.1,15.6,0.6,23.3,1.9c3.2,0.6,6.3,1.4,9.3,2.5
			c6.1,2.4,11.2,6.2,15.8,10.8c2.4,2.5,4.1,5.4,4.8,8.9c1.2,5.8,0.3,11.2-3.2,16.1c-1.5,2.1-1.6,2.2-4,1.3
			c-3.5-1.4-7.1-2.7-10.9-3.1c-4.1-0.5-8.2-0.6-12.2,0.6c-5.3,1.6-9.4,4.7-11.4,10c-0.3,0.7-0.5,1.5-0.9,2.2c-1,2-1.2,4.1-1,6.3
			c0.1,2.3,0.7,4.4,1.5,6.5s2,4.1,4.2,5c5.8,2.5,11.5,2.6,16.9-1.2c4.8-3.5,9.3-7.4,13.5-11.6c1.4-1.4,2.8-2.9,4.2-4.4
			c0.4,0.2,0.8,0.3,1.1,0.5c6,3.8,11.8,7.9,16.5,13.4c1.5,1.8,3.2,3.4,4.8,5.1c1.1,1.2,2.4,2.4,3.3,3.7c2,3.1,4,6.2,5.8,9.4
			c2,3.5,3.7,7.1,4.8,10.9c1.3,4.4,2.3,8.8,3.4,13.3c1.1,4.6,1.7,9.2,1.6,13.9c-0.2,5.2-0.8,10.3-2.2,15.3c-1,3.6-2.2,7.3-3.5,10.8
			c-1,2.8-1.9,5.7-3.3,8.4c-0.9,1.8-1.5,3.8-2.1,5.7c-0.5,1.5-0.3,2.3,0.5,2.6c0.8,0.4,1.5,0.1,2.2-1.3c1.4-2.5,2.8-4.9,4.1-7.4
			c1.3-2.6,2.9-5,3.8-7.8c0.9-2.5,1.7-5,2.2-7.5c1.2-6.1,2.3-12.2,4-18.2c0.8-2.7,0.9-5.6,1.1-8.4c0.1-0.9,0-1.8-0.1-2.6
			c-0.4-3.1-0.8-6.2-1.6-9.2c-1-3.5-1.8-7-3.2-10.3c-2.3-5.4-5.9-9.8-9.6-14.2c-1.6-1.8-3.5-3.4-4.8-5.5c-2.1-3.6-4.4-7.1-7-10.4
			c-4.7-6.3-9.9-12-16.8-16C243.4,173.3,243.2,173.1,242.9,172.8z M370,166.7c1.3,0.2,1.8-0.4,2.5-0.8c3.9-1.8,7.7-1.8,11.5,0
			c1.9,0.9,2,1.8,0.4,3.2c-0.5,0.4-1,0.5-1.6,0.4c-1.4-0.1-2.7-0.1-4.1-0.2c-2.1-0.2-4,0.5-5.8,1.6c-0.7,0.4-1.3,0.8-2.1,1
			c-1.7,0.4-2.9,1.5-3.7,3.1c-1.4,2.9-3.3,5.5-5.2,8.1c-1.4,1.9-2.8,3.7-4.3,5.5c-1,1.2-1.4,2.5-1.7,3.9c-0.4,1.9,0.2,3.7,0.8,5.4
			c1.3,3.7,3.4,7,5.8,10.1c1.1,1.4,1.9,3,3.3,4.1c3.9,2.8,7.8,5.5,12.4,6.9c1.2,0.3,2.5,0.5,3.7,0.8c2,0.5,4,0.4,6.1,0.1
			c3.9-0.6,7.2-2.5,10.2-4.8c5.2-3.8,9.8-8.3,13.8-13.4c3.2-4.2,6-8.6,8.3-13.4c0.2-0.3,0.5-0.8,0.7-0.8c0.8,0,1.8-0.3,2.5,0.4
			c1.1,1.1,2.3,2.2,2.8,3.7c2,5.1,3,10.3,1.3,15.7c-1.3,4.1-3.3,7.7-6.7,10.4c-2,1.6-3.9,3.2-6,4.7c-0.7,0.5-1.4,1-2.2,1.4
			c-2.7,1.2-5.5,1.9-8.4,2.3c-5.3,0.8-10.7,0.9-16,0.5c-6.6-0.5-13.2-0.7-19.8-0.4c-4.3,0.2-8.5,0.9-12.8,1.4
			c-2.6,0.3-5.1,1.2-7.8,0.9c-2.3-0.3-4.7-0.1-7,0c-8.1,0.2-14.6,3.5-19.5,10c-0.6,0.8-1.3,1.4-2.1,2c-4.4,2.9-7,6.9-7.5,12.2
			c-0.1,1.1-0.1,2.1,0.1,3.2c0.8,3.9,3,7,5.8,9.6c4.6,4.3,10,7.1,16.3,7.9c4.6,0.5,9.2,0.6,13.6-1c3-1.1,6-2.3,9-3.4
			c1.3-0.5,2.4-1.2,3.5-2c2.9-2.2,4.7-5.3,5.9-8.6c1.1-2.9,0.3-5.2-2.3-6.9c-2.8-1.8-5.9-2.4-9.2-1.4c-0.4,0.1-0.7,0.3-1.1,0.5
			c-1.4,0.7-2.5,1.9-2.5,3.4c-0.1,1.7,1.5,2.4,2.8,3c0.4,0.2,0.7,0.3,1.1,0.3c0.8,0.2,1.6-0.2,1.9-1c0.2-0.3,0.2-0.7,0.3-1.1
			c0.1-0.6,0.4-0.8,0.9-1c0.9-0.2,1.7-0.3,2.6-0.1c2.1,0.6,2.8,2.2,1.5,4c-0.6,0.9-1.5,1.5-2.4,2.1c-5.6,3.6-11.9,4.1-18.3,3.7
			c-5-0.4-9.4-2.4-13.4-5.3c-2-1.5-3.7-3.2-4.5-5.6c-1.1-3.5-1.3-7.1,0-10.6c0.3-0.8,0.8-1.4,1.7-1.9c2.7-1.5,5.6-2.7,8.5-3.9
			c4-1.8,8.2-3,12.4-4.1c0.8-0.2,1.5-0.3,2.3-0.3c1.6,0.1,3.3,0.2,4.9,0.4c2.8,0.2,5.6,0.5,8.4,0.6c9.1,0.1,18.1,0.2,27.2,0.2
			c4.3,0,8.6-0.3,12.7-1.4c5.9-1.6,11.8-3.4,16.7-7.3c0.5-0.4,1-0.6,1.5-0.9c5.4-3.3,9.4-7.8,11.8-13.7c0.9-2.1,1.6-4.3,1.4-6.5
			c-0.3-3-0.6-6-1.5-8.9c-1.1-3.3-2.6-6.3-5.1-8.8c-1.1-1.1-2.3-2.1-3.5-3.1c0.1-0.3,0.3-0.7,0.4-1c1.9-3.9,3.6-8,4.9-12.2
			c1.7-5.4,2.1-11.1,2.5-16.7c0.1-0.9-0.4-1.5-1.1-1.9c-1.2-0.7-2.2-0.9-3.5-0.1c-3.9,2.5-8.3,3.4-12.8,3.5
			c-5.8,0.2-11.6,0-17.4-1.3c-6-1.3-11.8-3.3-17.4-5.8c-0.7-0.3-1.4-0.7-2.1-1c-0.5-0.2-1,0-1.1,0.5c-0.3,1.7-0.5,3.5-0.8,5.2
			c-0.4,3.3-1,6.5-2.3,9.6C371.5,162.9,370.8,164.7,370,166.7z"/>
		<path class="st1" d="M184.7,265.7c1.1-0.5,2.1-0.9,3.2-1.4c0.8-0.4,1.5-0.3,2.2,0.1c2.1,1,3.3,3.3,3,5.8c-0.3,1.8-1,3.3-2.4,4.6
			c-0.4,0.4-0.9,0.8-1.4,1.1c-1.1,0.8-1.5,2-1.5,3.3c0,0.9,0,1.8,0.3,2.6c0.8,2.4,0.7,4.8,0.3,7.2c-0.4,2.5-0.9,5-1.5,7.4
			c-0.4,1.4-1,2.8-1.8,4c-1.4,2.1-3.6,2.9-6,3.2c-1.7,0.2-3.5,0.4-5.2,0.7c-2.2,0.3-3.6,1.5-4.3,3.7c-0.8,2.5-0.6,5-0.4,7.5
			c0,0.4,0.2,0.8,0.7,0.8c1.6,0.1,2.8,1.3,4.3,1.8c2-2.6,5.2-2.7,8.1-3.4c0.8-0.2,1.7,0,2.5,0.5c3.5,2.4,7.4,4.3,10.8,7
			c2.7,2.1,5,4.6,7,7.4c2.4,3.2,4.6,6.5,6.4,10.1c1.2,2.4,1,4.7-0.3,6.9c-0.2,0.4-0.5,0.8-0.8,1.2c-1.5,2.2-1.5,2.2,0,4.2
			c1.6,2.1,3.3,4,4.2,6.5c0.2,0.5,0.7,0.6,1.2,0.6c0.8,0,1.6-0.3,2.1-1c1.1-1.4,2.6-2.1,4-2.9c4.5-2.8,8.7-5.9,12.6-9.5
			c1.4-1.3,3.2-2.1,4.6-3.5c2.5-2.5,4.7-5.2,6.7-8.1c0.8-1.1,1.2-2.5,1.1-3.9c-0.1-1.3-0.1-2.5-0.5-3.8c-0.6-2.2-0.8-4.4-0.8-6.6
			c0-0.8,0-1.6-0.2-2.3c-0.5-2-0.2-3.8,0.5-5.7c0.4-1.1,0.7-2.2,1.1-3.3c0.3-0.8,1.1-1.1,1.9-0.7c1.6,0.7,2.6,1.9,3.2,3.6
			c0.5,1.5,0.6,3.1,0.5,4.6c0,1.1,0.5,1.7,1.3,2.4c1.9,1.4,3.9,2.1,6.3,1.6c0.7-0.1,1.3-0.2,2-0.3c2-0.2,3.7-1.1,5-2.7
			c0.2-0.2,0.4-0.4,0.6-0.7c0.5-1,2.1-0.9,2.3-2.1c0.1-0.9-0.3-1.9-0.4-2.9c0-0.6,0.2-1.2,0.4-1.7c0.7-1.5,1.8-1.8,3.3-0.9
			c0.4,0.2,0.8,0.5,1.2,0.9c1.7-2.1,3.4-4.1,4.4-6.5c0.8-1.8,2.5-1.9,3.7-0.4c0.5,0.6,0.8,1.3,1,2.1c0.3,1,0.5,2.1,1.2,3
			c0.9-0.4,1-1.4,1.5-2c0.8-1,1.5-2,2.5-2.8c0.6-0.4,1.2-0.7,1.9-0.7c0.9,0.1,1.5,0.5,1.6,1.4c0.2,1.4,0.2,2.7-0.6,4
			c-1.4,2.2-2.7,4.5-4.2,6.7c-0.5,0.7-0.8,1.4-0.9,2.1c-0.7,3.6-2.1,7.1-3.5,10.5c-0.5,1.2-1,2.3-1.7,3.4c-2,3.3-5.2,5.2-8.5,6.9
			c-2.6,1.3-5.5,2-8.3,2.6c-2.6,0.5-4.8,1.6-6.6,3.4c-1.4,1.4-3,2.6-4,4.2c-1.3,2-2.9,3.6-4.2,5.5c-1.3,2-2.5,3.9-3.7,5.9
			c-1,1.7-2.5,2.9-3.8,4.4c-0.5,0.6-1,1.2-1.5,1.8c-0.2,0.2,0,0.5,0.2,0.8c-0.2,0-0.3,0-0.5,0c0.2,0,0.3,0.1,0.5,0.1
			c2.6-3.4,6.4-3.6,10.3-3.6c0.1,0,0.2,0,0.3,0c2.6,1.4,5.5,2.1,7.6,4.2c0.7,0.7,1.4,1.4,2.1,2c2,1.7,3.9,3.5,5.3,5.8
			c1,1.5,2.2,2.7,3.7,3.7c0.6,0.4,1.2,1,1.7,1.5c2.5,2.5,5,4.9,7.6,7.2c1.9,1.7,3.5,3.6,5.3,5.4c1.9,2,4,3.7,6.1,5.4
			c0.5,0.4,1.1,0.6,1.4,1.1c2.1,2.9,5.4,4.4,8.2,6.4c2.6,1.8,5.8,1.3,8.3-0.9c1.2-1.1,2.6-2,3.9-3c2.4-1.7,4.2-3.8,5.6-6.3
			c0.4-0.7,0.8-1.4,1.3-1.9c1.7-1.9,3.1-4,3.8-6.5c0.3-0.9,0.7-1.7,1.6-2c1.1-0.5,2.3-1,3.6-1.1c0.2,0,0.4,0.1,0.5,0.2
			c0.7,0.6,1.5,0.4,2.2,0c1-0.7,2.1-1.1,3.3-0.3c0.5,0.3,1,0.1,1.4-0.1c1.6-0.8,3.2-0.7,4.8,0c0.6,0.2,1,0.6,1.1,1.2
			c0.2,0.9,0.4,1.7,0.5,2.6c0.5,3.5-0.8,6.4-4,8c-1.6,0.8-2.2,2.1-2.6,3.6c-0.4,1.3-0.6,2.6-1,4c-0.3,1.2-0.9,2.1-1.5,3.1
			c-1.3,1.9-3.2,3-5.2,4c-5.4,2.7-4.3,1.5-7.4,7.2c-1.3,2.3-2.5,4.6-3.4,7.1c-0.8,1.9-2.2,3.6-3.3,5.4c-0.4,0.7-1,1.2-1.4,1.9
			c-0.6,1.3-1.9,1.9-3,2.6c-1,0.6-2.1,1-3.2,0.1c-2.2,0-3.7-1.6-5.6-2.3c-1.7-0.6-2.8-2.1-3.8-3.5c-1.3-1.7-2.7-3.3-4-5
			c-2.6-3.3-6.3-5.1-9.5-7.6c-0.5-0.4-1.2-0.6-1.9-0.8c-4.7-1.3-9.3-2.7-13.6-5.1c-0.6-0.3-1.3-0.4-1.9-0.7
			c-6.3-2.1-10.5-6.4-13-12.5c-0.3-0.8-0.6-1.6-0.9-2.4c-0.3,0-0.5,0-0.7,0c-3.9,0.2-6.5,2.7-8.9,5.4c-0.8,0.8-0.6,2-0.7,3
			c-0.1,1.3,0,2.5-0.1,3.8c0,0.8,0,1.6-0.2,2.3c-0.3,1.1-0.2,2.1,0.7,3c0.4,0.4,0.6,1,0.8,1.6c0.6,2.2,1.7,4.1,2.6,6.2
			c0.2,0.4,0.3,0.9,0.4,1.4c-0.9,0.2-1.7,0.3-2.6,0.5c-0.5-1.4-1-2.7-1.6-4.1c-1.5-3.4-3-6.7-4.4-10.2c-0.7-1.7-1.4-3.4-2.4-5
			c-1.2-2.1-2.4-4.2-3.3-6.5c-0.6-1.5-1.4-3-2.2-4.5c-1.2-2.1-2.4-4.2-3.1-6.6c-0.2-0.5-0.5-1.1-0.8-1.5c-1.4-2.1-2.8-4.2-4.3-6.2
			c-0.3-0.5-0.8-0.9-1.2-1.2c-1.4-1.2-2.9-2.3-4.3-3.5c-1.8-1.6-4-1.9-6.2-2.3c-0.7-0.1-1.3,0.1-1.9,0.4c-1.8,1.1-3.6,2.2-4.4,4.4
			c-0.2,0.6-0.7,1.2-1,1.8c-1.4,2.3-2.2,4.7-2.5,7.4c-0.1,1-0.2,1.9-0.8,2.7c-0.3,0.4-0.3,0.9-0.4,1.4c-0.5,2.1-0.7,4.2-0.7,6.4
			c0,5.4,0,10.7,0,16.1c0,1.1-0.1,2.1-0.2,3.2c-0.1,1.9-0.2,3.9-0.3,5.8c0,2.3-0.1,4.7-0.4,7c-0.2,1.8-0.1,3.7-0.2,5.5
			c0,0.1,0,0.2,0.1,0.3c0.1,0.1,0.2,0.1,0.3,0.1c0.2-0.1,0.4-0.1,0.5-0.2c5.7-5.9,9.6-12.9,11.9-20.8c0.2-0.8,0.1-1.5-0.3-2.3
			c-0.6-1.1-1-2.3-1.2-3.6c-0.5-3.3-0.9-6.6-0.7-9.9c0-0.6,0.1-1.2,0.1-1.7c0-0.7-0.6-1.2-1.4-1.1c-0.6,0-0.9,0.3-1.2,0.7
			c-0.3,0.3-0.7,0.3-1,0s-0.5-0.7-0.4-1.1c0.3-1.1,1-1.9,2-2.4s2.1-0.1,2.9,0.6c1.3,1.2,1.9,2.6,1.9,4.4c0.1,3.8,0.3,7.6,1.1,11.3
			c0.3,1.4,0.6,2.6,1.7,3.6c0.5,0.5,0.8,1.1,1.1,1.7c0.9,1.8,2,3.6,3.7,4.8c0.5,0.4,0.8,1.1,1.2,1.6c2,3.1,4.5,5.6,7.4,7.8
			c1.4,1.1,2.7,2.2,4.1,3.3c-0.3,0.5-0.5,1-0.4,1.5c-2-0.4-3.8,0.2-5.5,1.3c-3.9,2.6-7.9,5-11.5,7.9c-3.7,3-7.7,5.6-11.7,8.1
			c-1.2,0.8-2.5,1.6-3.7,2.3c-0.8,0.5-1.5,0.6-2.5,0.5c-3.3-0.4-6.6-0.5-9.9-0.8c-4.2-0.3-8.3-0.9-12.4-1.5s-8.2-1.4-12.3-2.2
			c-0.3,0-0.6-0.1-0.6,0.3c0,0.2,0.1,0.4,0.2,0.5c0.9,0.8,1.8,1.5,2.7,2.2c0.5,0.4,1.1,0.8,1.5,1.3c1,1.1,0.9,2.6-0.2,3.6
			c-1,0.9-2.1,1.4-3.4,1.2c-0.8-0.1-1.6-0.1-2.3-0.4c-2.3-1-4.8-1.4-7-2.7c-1.1-0.6-2.3-0.9-3.6-0.9c-3.3,0-6.4,0.9-8.9,3.1
			c-1.9,1.7-4,3.1-6.1,4.4c-0.7,0.4-1.4,0.7-2.1,0.8c-2.1,0.3-4.2,0.8-6.3,1c-1.5,0.2-2.8,0.7-4,1.6c-0.4,0.3-0.8,0.6-1.2,0.8
			c-1.4,0.8-4.2,0.4-5.4-0.7c-1-1-1.1-2.9,0-4c0.8-0.8,1.7-1.5,2.9-2c0.1,0,0.2-0.3,0.2-0.4c0-0.1-0.2-0.3-0.4-0.4
			c-0.8-0.3-1.5-0.2-2.3,0c-1.2,0.4-2.4,0.7-3.6,1.2c-2.4,0.9-5.1-0.6-6.2-2.6c-0.6-1-0.4-1.9,0.5-2.6c0.5-0.3,1-0.6,1.5-0.9
			c1.6-0.8,3.1-1.5,4.7-2.3c0.4-0.1,0.9-0.2,1.3-0.3c0.1,0,0.2-0.2,0.2-0.2c-0.1-0.1-0.2-0.3-0.3-0.3c-0.5,0-1.1,0.1-1.6,0.2
			c-1.4-0.2-2.9-0.4-4.3,0c-1.1,0.4-2.1-0.2-3.1-0.5s-1.2-2.1-0.5-3.1s1.6-1.6,2.8-2c2.4-0.8,4.9-1.4,7.3-1.8
			c0.3-0.1,0.5-0.3,0.6-0.6c0-0.1-0.2-0.4-0.3-0.4c-0.6-0.3-1.2-0.6-1.8-1c-0.3-0.2-0.7-0.3-1-0.6c-1.3-1-1.2-2.4,0.4-3.2
			c2-1,4.1-1.4,6.2-1c3.6,0.6,7.3,1.1,11,0.9c0.7,0,1.4,0.1,2,0.2c0.5,0,1,0.1,1.4-0.1c2.7-0.8,3.3-1.8,3.1-4.7
			c0-0.6-0.1-1.2-0.1-1.7s-0.1-0.9-0.6-1.2c-1-0.7-1.6-1.7-2-2.8c-1-2.4-1.9-4.9-2.8-7.3c-1.1-2.9-1.8-6-2.3-9c-0.4-2-0.6-4-0.8-6.1
			c-0.3-4.3-0.6-8.5-0.9-12.8c-0.2-3.7-0.4-7.4-0.7-11.1c-0.4-5-0.2-9.9,0.1-14.9c0.2-3.9,0.3-7.8,0.3-11.7c0-2.2,0.3-4.5,0.7-6.7
			c0.6-3,1.3-6.1,1.7-9.2c0.4-3,1.5-5.8,2.3-8.7c0.2-0.8,0.6-1.6,0.9-2.5s0.4-1.8,1.5-2.3c0.7-0.3,1.1-1.3,1.6-2
			c0.8-1.3,1.8-2.5,2.9-3.6s2.3-2.1,3.8-2.5c2.1-0.6,2.1-0.7,3.4-3.1c-0.2-0.3-0.4-0.3-0.7-0.3c-2.2,0.3-3.9-0.6-5.1-2.2
			c-0.8-1.1-1.6-1.3-2.7-1.2c-0.3,0-0.6-0.1-0.8,0c-0.4,0-0.4,0.5-0.3,0.7c0.2,0.3,0.4,0.6,0.7,0.9c0.5,0.4,1.1,0.8,1.6,1.3
			c1.2,1.3,1.2,2.9-0.1,3.8c-1.1,0.8-1.9,2-3.5,1.8c-0.8-0.1-1.4,0.7-2.1,1c-0.5,0.2-1,0.2-1.4,0c-0.7-0.3-0.9-1.4-0.4-2
			c0.7-0.9,1.7-1.2,2.8-1.4c0.7-0.1,1.4-0.1,2-0.2c0.2,0,0.5-0.3,0.6-0.5s-0.1-0.6-0.2-0.8c-1.1-0.8-2.1-1.7-2.8-3
			c-0.9,0.2-1.3,0.9-1.9,1.3c-1.8,1.2-3.2,1-4.6-0.7c-0.7-0.8-1.2-1.7-1.2-2.9c0-0.4-0.1-0.8-0.2-1.1c-0.2-0.6-1-0.9-1.6-0.5
			c-1.3,0.9-2.8,0.9-4.2,0.8c-1.7-0.2-2.9-1.3-3-3c-0.1-2.1,0.7-3.8,2.7-4.8c1.2-0.6,2.5-1.1,3.7-1.6c0.5-0.2,0.7-0.6,0.5-1.2
			c-0.2-0.8-0.4-1.7-0.7-2.5c-0.3-1.1-1.4-1.5-2.2-0.7c-0.6,0.5-1,1.2-1.5,1.8c-0.3,0.5-0.6,1-0.9,1.5c-1.2,1.7-3.3,1.8-4.8,0.5
			c-1.3-1.2-1.6-2.5-1-4.2c0.6-1.5,1.6-2.7,3.1-3.3c1-0.4,2-0.8,3-1.2c0.9-0.4,1.1-1.2,0.5-2.2c-0.1-0.1-0.1-0.1-0.2-0.2
			c-2-2.5-1.8-5,0.1-7.5c0.5-0.7,0.7-1.3,0.7-2.1c0-1.2,0.1-2.3,0.1-3.5s0.2-2.4,0.7-3.4c0.8-1.5,0.9-2.9,0.7-4.5
			c-0.2-2.3,0.4-4.5,2-6.2c0.6-0.6,0.8-1.3,0.8-2.1c0-0.5-0.3-0.7-0.7-0.6c-1.5,0.4-3,0.7-4.4,1.6c-0.3,0.7,0.4,1,0.6,1.5
			c0.1,0.2,0.1,0.4,0.2,0.6c0.5,3.1-3.5,6.5-6.5,5.6c-0.4-0.1-0.7-0.4-1.1-0.2c-0.2,0.1-0.3,0.2-0.4,0.4c0,0.2,0,0.4,0.1,0.5
			c0.2,0.2,0.5,0.3,0.7,0.4c0.7,0.2,1.3,0.3,2,0.4c3,0.5,4.3,2.6,3.2,5.5c-0.1,0.3-0.2,0.6-0.4,0.8c-1.4,1.9-2.1,4.2-3.9,5.8
			c-0.7,0.6-1,1.3-0.7,2.3c0.2,0.7-0.5,1.4-1.1,1.5s-1.2-0.1-1.6-0.6c-0.7-0.9-0.8-1.9-0.2-3c0.5-0.8,1.2-1.5,1.8-2.3
			c0.3-0.5,0.1-0.9-0.5-1c-0.4-0.1-0.8-0.1-1.2-0.1c-1.2-0.3-2.1-1-2.2-2c0-1.1,0.8-1.7,1.7-2.1c1.5-0.7,3.1-1.3,4.8-0.7
			c0.4,0.1,0.6-0.1,0.7-0.3c0.1-0.4-0.1-0.8-0.4-1s-0.8-0.1-1.1-0.2c-0.8-0.1-1.6-0.2-2.3-0.4c-2.3-0.7-2.9-2-2.1-4.2
			c0.7-1.9,1.9-3.6,3.2-5.1c3.5-3.9,7.9-5.8,13-6.6c1.5-0.2,3-0.6,4.5-1.3c2.7-1.3,5.5-2,8.5-1.2c1.2,0.3,2.3-0.1,3.4-0.5
			c0.9-0.3,1.5-0.9,1.9-1.7c0.1-0.2,0.1-0.4,0.2-0.5c2-4.2,5.6-6.2,10.1-5.7c1.6,0.2,3.3,0.4,4.8,1.1c1.1,0.5,2.6,0.1,3.3-0.8
			c0.1-0.1,0.2-0.3,0.3-0.5c3.3-4.9,8.3-6,13.8-6c1.6,0,2.7,0.9,3.6,2.1c0.6,0.9,1.2,1.8,1.4,2.8c0.4,1.5,1.5,2.1,2.8,2.1
			c2.7,0,5.2,0.7,7.7,1.3c0.8,0.2,1.5-0.1,2.1-0.7c1.6-1.5,3.1-0.5,3.9,0.7c0.4,0.6,0.8,1.3,0.8,2.2c0.1,1.1-0.1,2.2-1.2,2.8
			c-0.6,0.3-1.1,0.8-1.4,1.4s-0.3,1.1,0.4,1.4c0.6,0.3,1.3,0.6,1.2,1.5c-0.1,0.9-0.8,1.3-1.6,1.4c-1,0.2-2.1,0.4-3.1,0.7
			c-0.7,0.2-1.1,0-1.6-0.4c-0.3-0.3-0.5-0.6-0.9-0.1c-0.6,0.7-0.9,1.5-0.4,1.8c0.9,0.5,1.4,1.4,2,2.1c1.1,1.5,0.6,3.7-1.1,4.6
			c-1.1,0.6-1.3,1.6-1.9,2.5c-0.3,0.3-0.5,0.6-0.2,0.9C184.2,265.9,184.5,265.9,184.7,265.7z M138.9,276.7c0.1-0.1,0.1-0.2,0.2-0.4
			C139,276.5,139,276.6,138.9,276.7c-0.1,0.2-0.2,0.3-0.3,0.5c0,0.1-0.1,0.2-0.1,0.3c0,0.1,0.1,0.1,0.1,0.2c0.1-0.1,0.1-0.2,0.1-0.4
			C138.8,277.1,138.8,276.9,138.9,276.7z M147,278.3c3-0.9,3.3-1,4-2c-1.5,0.1-2.8,0.4-3.8,1.6C146.8,277.9,147,278.1,147,278.3z
			 M113.4,290.5c-1.8,0.1-2.8,0.7-3.2,2.1c-0.1,0.3,0,0.6,0,0.8c0,0.1,0.2,0.3,0.4,0.4c0.2,0,0.4,0,0.5-0.1c0.7-1,1.4-2,2.1-3h0.1
			L113.4,290.5z M117.4,284.3c0,0.1-0.1,0.2-0.1,0.2c0,0.2,0.1,0.3,0.2,0.5c0.1,1.2-0.3,2.2-0.9,3.4c0.7,0.3,1.3,0.6,1.9,0.8
			c0.1,0.1,0.4,0,0.5-0.1c0.2-0.2,0.3-0.4,0.1-0.7c-0.6-1.1-1.6-1.9-1.5-3.3c0-0.2,0-0.5,0-0.7c-0.2-1.7-0.1-3.5-1.9-4.6
			c-0.6,1.4-0.3,2.6,0.7,3.5C116.8,283.6,117.1,284,117.4,284.3z M179.5,244.2c-1.5,0-2.8-0.5-4-1.4c-0.3-0.2-0.6-0.6-0.8,0
			c-0.1,0.2,0,0.6,0.2,0.8c1.3,1.2,2.7,2.2,4.7,1.5c0.1,0,0.2,0,0.3,0c0.7,0.1,1.4,0,2.2-0.8C180.9,244.1,180.2,243.9,179.5,244.2z
			 M145.8,253.5c0.1,0.1,0.1,0.1,0.2,0.2s0.1,0.6,0.3,0.2c0.1-0.3-0.2-0.6-0.6-0.3c0.4-0.4,0.3-0.9,0.3-1.4
			c-0.2-1.9,0.4-3.4,2.1-4.4c0.3-0.2,0.7-0.3,0.6-0.8c-0.1-0.3-0.7-0.5-1.2-0.4c-0.9,0.3-1.8,0.7-2.6,1.3c-0.9,0.6-1.1,1.5-1.2,2.5
			c0,0.8,0.3,1.5,1.1,1.9C145.2,252.7,145.5,253.1,145.8,253.5z M151.7,253.4c-0.3-0.4,0-0.7,0.1-1.1c0.3-1.2,0.1-1.6-1.1-1.8
			c-0.3-0.1-0.6-0.1-0.9-0.1c-0.9-0.1-1.4,0.5-1.3,1.4c0.2,1,0.8,1.5,1.8,1.6C150.9,253.4,151.4,253.3,151.7,253.4
			c0.2,0.2,0.2,0.4,0,0.7c-0.3,0.4-0.5,0.8-0.6,1.3c-0.4,1.5,0.4,2.9,2.2,3.6c1.4,0.5,1.1-1,1.7-1.5c0.4-0.4,1.2-0.7,1.1-1.5
			c-0.6-0.6-1.5-0.9-1.9-1.7C153.7,253.1,152.7,253.3,151.7,253.4z M127.2,259.2c-1.7,1.2-2.3,3-2.7,5c-0.2,1.2,0.2,2.1,1.3,2.7
			c0.9,0.5,1.7,0.9,2.6,1.3c1.5,0.7,2.2,1.8,2.4,3.4c0.1,0.7,0.1,1.5,0.1,2.2c0.3,0,0.5,0.1,0.7,0c0.6-0.3,1.2-0.6,1.8-1
			c1.1-0.8,1.4-1.5,0.7-2.7c-0.3-0.6-0.8-1.2-1.3-1.6c-1.2-0.9-2.2-2.2-3.8-2.5c-0.7-0.2-1.1-0.8-1.4-1.4c-0.5-1-0.4-2.1-0.5-3.1
			C127.1,260.6,127.7,259.9,127.2,259.2c0.1,0.1,0.3,0.2,0.4,0c0-0.1-0.1-0.3-0.1-0.4C127.4,258.9,127.3,259,127.2,259.2z
			 M330.6,386.3c-0.8-0.5-1.4-0.1-1.9,0.4c-1,0.8-1.6,1.9-2.1,3.1c-0.2,0.5-0.4,1.1-0.7,1.6s-0.7,0.6-1.2,0.5
			c-0.8-0.2-1.2-0.9-0.8-1.5c0.6-1,1.3-1.9,2-2.9c0.2-0.3,0.2-0.8-0.1-1.1c-0.4-0.3-0.7-0.1-1,0.2c-1.3,1.3-2.4,2.8-3,4.6
			c-0.3,1-0.9,1.7-1.5,2.4c-1.7,1.9-3.6,3.6-4.5,6.1c-0.2,0.6-0.8,0.8-1.2,1.2c-2,1.7-4.1,3.2-5.9,5.1c-2.3,2.4-5.1,3.6-8.5,2.3
			c-1.5-0.5-2.8-1.2-4.1-2.2c-2.6-1.9-5.1-3.9-7.8-5.6c-2.5-1.6-4.6-3.6-6.7-5.5c-2.9-2.7-5.5-5.7-8.5-8.4c-2.8-2.5-5.2-5.3-8.1-7.6
			c-1-0.8-1.9-1.7-2.6-2.8c-1.5-2.2-3.2-4.1-5.3-5.7c-0.4-0.3-0.8-0.6-1.1-1c-1.4-1.9-3.4-2.8-5.5-3.8c-2.2-1-4.3-0.8-6.5-0.4
			c-1.1,0.2-2.1,0.8-2.7,1.7c-1.1,1.6-2.7,2-4.4,2.4c-0.6,0.1-1.2,0.2-1.6,0.5c-0.9,0.7-1.9,0.8-3,0.9c-1.7,0.2-3.5,0.4-5.2,0.8
			c-2.2,0.4-4.5,0.9-6.7,1.8c0.2,0.4,0.3,0.6,0.5,0.9c1,1.3,2,2.6,2.9,4c0.9,1.3,1.8,2.6,2.3,4c0.6,1.6,1.2,3,2.5,4.1
			c0.3,0.2,0.3,0.7,0.5,1.1s0.4,0.9,0.7,1.2c1.1,1,1.7,2.4,2.2,3.7c0.8,2.1,1.6,4.2,2.4,6.3c0.3,0.7,0.8,0.8,1.4,0.4
			c1.9-1.4,3.9-2.6,5.5-4.3c1.5-1.6,3.2-2.8,5-4c1-0.7,2.3-0.6,3.4-0.5c1,0.1,1.1,1.2,1.4,2c0.3,0.6,0.5,1.3,0.8,1.9
			c1,2.3,2,4.7,3.6,6.7c2.5,3.1,5.4,5.6,9.7,5.8c0.5,0,1,0.2,1.4,0.4c1.7,0.9,3.5,1.7,5.2,2.6c1.3,0.7,2.7,1.2,4.1,1.5
			c2.8,0.8,5.6,1.7,8,3.4c0.4,0.3,0.8,0.5,1.3,0.6c1.9,0.6,3.5,1.8,4.8,3.1c2.3,2.3,4.8,4.5,6.6,7.4c0.6,1,1.5,1.8,2.2,2.7
			c1.1,1.4,2.7,1.9,4.3,2.3c1.8,0.4,3.5,0.1,4.9-1.2c1.5-1.4,3-2.8,3.7-4.8c0.8-2.4,2-4.6,3.4-6.7c0.3-0.5,0.6-1,0.8-1.5
			c0.5-0.9,0.8-1.8,1.4-2.6c1.5-1.8,2.7-3.8,4-5.8c0.3-0.5,0.6-0.9,1.3-1c5.2-1.4,7.8-5.2,9.2-10c0.1-0.4,0.2-1,0.1-1.4
			c-0.5-1.6,0.1-2.5,1.4-3.3c1.5-0.9,2.7-2.2,3.7-3.7c0.7-1,0.7-2,0.1-3c-0.5-0.9-1.2-0.9-1.8-0.2c-1,1.1-1.9,2.2-3.3,2.9
			c-0.6,0.3-1,1-1.3,1.5c-0.4,0.6-0.6,1.2-1,1.8c-0.2,0.4-0.6,0.5-1,0.4c-0.5-0.2-0.7-0.6-0.7-1.1c0-0.7,0.4-1.3,0.8-1.9
			C329.1,388.1,329.9,387.2,330.6,386.3z M185.2,295.5c-2.1,0.1-3.7,0.1-5.4-0.1c-2.3-0.4-4.5-1-6.5-2.4c-2.8-2-5-4.5-6.8-7.5
			c-0.4-0.7-0.3-1.1,0.4-1.3c1.7-0.6,3.5-1.3,5.3-1.7c4.3-1.1,8.4-3,13-3c0.1,0,0.3-0.2,0.4-0.3c0-0.1,0.1-0.2,0.1-0.3
			c0.1-2.6,0.9-4.6,3.2-6.1c1.5-1,1.8-2.7,1.4-4.5c-0.2-1.1-1.2-1.6-2.2-1.1c-1.1,0.5-2.1,1.1-3.1,1.5c-1,0.5-1.9,0.3-2.6-0.5
			c-0.4-0.5-0.8-1.1-1.1-1.7c-0.7-1.4-1.1-2.9-1.3-4.5c-0.2-1.8-0.9-3.4-1.8-4.9c-1.7-2.9-3.9-5.3-7.5-6c-3.2-0.6-6.3-1-9.6-1.1
			c-0.7,0-1.3,0.2-1.8,0.8c-0.4,0.5-0.8,0.8-1.2,1.3c-0.5,0.6-0.6,1,0,1.5s1.2,0.9,1.8,1.4c0.7,0.6,1.3,1.2,1.5,2.1
			c0.2,1,0.6,1.8,1.1,2.6c1.1,1.9,0.4,3.9-1.5,4.6c-0.6,0.2-1.1,0.1-1.7,0.1s-1.1,0.1-1.3,0.8c-0.1,0.9-0.6,1.6-1.1,2.4
			c-0.7,1-0.8,2.1-0.1,3.2c0.5,0.8,1,1.7,1.4,2.6c1.1,2.5,1.1,4.9-0.9,7c-0.5,0.5-0.8,1.1-1.2,1.6c-0.4,0.5-0.4,1.1,0.1,1.6
			c1.1,1.2,2.1,2.5,2.6,4.1c0.5,1.5-0.3,2.8-1.8,2.9c-0.7,0.1-1.5,0.1-2.3,0.2c0,1.7,0,3.2,0,4.8c0,1.6-0.7,3-1.6,4.3
			c-0.3,0.4-1.1,0.4-0.9,1.2c0.5,0,1,0,1.5,0.1c1.8,0.4,2.5,1.3,2.4,3.1c-0.1,0.9-0.2,1.7-0.4,2.6c-0.1,0.7-0.9,1.2-1.5,1.1
			s-1.1-0.8-1.1-1.5s0.2-1.3,0.2-2c0-0.4-0.2-0.6-0.5-0.6c-0.7-0.1-1.3-0.2-2-0.3c-0.4-0.1-0.7,0.1-1,0.5s0,0.7,0.2,1
			c0.9,1.5,1,1.9-0.3,3c-0.9,0.7-0.7,1.3-0.4,2.2c0.3,0.9-0.7,1.7-1.6,1.3c-0.6-0.2-1.2-0.6-1.8-0.9c-0.7,0.6-0.9,1.5-1.4,2.2
			c-0.4,0.7-0.3,1.3,0,1.9s0.6,1.2,1,1.8c0.8,1,1.6,1.9,2.3,3c0.7,1.2,2.3,0.8,3.4,1.5c0.4,0.3,0.8,0.5,1.3,0.8
			c2.5,1.7,4.8,3.6,6.6,6.1c1.8,2.6,3.3,5.3,4.1,8.3c0.4,1.2,1,2.1,2,2.8c1.1,0.7,2.3,1.4,3.6,2c1.7,0.8,3.6,0.6,5.4,0.5
			c1.1-0.1,2.2-0.9,2.6-2.1c0.8-2.5,1.1-5.2,0.1-7.7s-2.2-5-3.3-7.4c-1-2.2-2.3-4.1-4.9-4.6c-0.7-0.2-1.2-0.5-1.5-1.2
			c-1.6-4.5-1.6-9,0.3-13.4c0.2-0.6,0.7-1,1.2-1.2c2.7-0.9,5.2-2,8.2-1.9c2.2,0.1,4.2-0.6,5.8-2.2
			C183.9,298.5,184.4,297.2,185.2,295.5z M115.5,445.8c1.7,0,3.3,0,5,0c0.7,0,1.4,0,1.9,0.5c0.5,0.4,0.8,0.9,0.6,1.5
			c-0.2,0.5-0.6,0.8-1.1,0.8c-2.2-0.1-4.3,0.5-6.4,0.7c-3.7,0.3-6.8,2.1-9.9,4c-0.4,0.2-0.7,0.5-0.4,0.9c0.1,0.2,0.5,0.3,0.7,0.4
			c0.6,0.2,1.1-0.2,1.7-0.2c2.7-0.4,5.4-1,8.1-1.2c3.2-0.1,6.3-0.5,9.2-2.2c0.7-0.4,1.4-0.7,2.2-0.7c0.6,0,1.2,0.1,1.4,0.8
			c0.2,0.6,0,1.3-0.6,1.5c-2.1,0.8-4,2.1-6.2,2.6c-2.8,0.7-5.2,2.3-7.4,4c-0.4,0.3-0.7,0.7-1,1.1c-0.2,0.2-0.3,0.5-0.1,0.8
			c0.2,0.2,0.5,0.4,0.7,0.4c1,0.1,1.9-0.3,2.7-0.9c1.7-1.5,3.7-2.5,6-2.7c0.8-0.1,1.5-0.3,2.3-0.4c1.3-0.3,2.8-0.3,3.9-0.9
			c1.8-1,3.7-1.8,5.2-3.2c2.8-2.6,6.1-4,10-4.4c2.1-0.2,4.1,0.1,5.9,1c2.1,1.1,4.4,1.6,6.5,2.5c0.9,0.4,1.9,0.5,2.9,0.3
			c0.4-0.1,0.6-0.5,0.5-0.9c-0.2-0.8-0.8-1.3-1.5-1.7c-3.2-2.4-6.5-4.7-9.5-7.2c-2.7-2.3-4-5.4-3.6-9.1c0.4-3.6,0.8-7.2,0.4-10.8
			c-0.1-0.9-0.1-1.8,0-2.6c0.5-5.8,0.5-11.7,0.7-17.5c0.1-1.7,0.1-3.5,0.1-5.3c0-4.5,0.7-8.9,0.5-13.4c-0.1-1.7,0-3.3,0-5
			c0-1.9,0.5-3.7,1.5-5.3c0.6-1,1-2.1,1.4-3.2c1-2.7,1.2-5.5,1.8-8.2c0.4-1.8,0.6-3.6,0.7-5.5c0-1.1-0.2-1.3-1.1-1.2
			c-2.6,0.3-5.2,0.6-7.6,1.9c-1.1,0.6-2.3,1-3.5,1.6s-2.9,0.6-3.5,1.8c-0.7,1.3-0.2,2.9-0.2,4.3c0,0.6,0.2,1.2,0.2,1.7
			c0.1,1.1,0.3,2.1,0.3,3.2c0.1,2.2,0.1,4.5,0.3,6.7c0.8,9.2,0.4,18.3-0.3,27.4c-0.5,6.4-1.4,12.8-2.1,19.2
			c-0.1,1.2-0.3,2.4-0.2,3.5c0.2,1.6,0.1,3.1,0.1,4.7c0,3.5-2.8,6-6.2,5.9c-2.8-0.1-5.6-0.3-8.4-0.5c-2.6-0.2-5.2-0.5-7.8-0.9
			c-0.6-0.1-1.1-0.2-1.7,0c-0.4,0.1-0.8,0.2-0.9,0.6s0.2,0.7,0.6,0.9c0.7,0.3,1.4,0.6,2.2,0.8c2.2,0.5,4.4,1,6.5,1.5
			c0.4,0.1,0.8,0.1,1.1,0.3c0.4,0.2,0.9,0.5,0.7,1.1c-0.1,0.5-0.5,0.6-0.9,0.7c-2.1,0.2-4.3,0.6-6.4,0.5c-3.8-0.2-7.3,1-10.8,2
			c-0.4,0.1-0.7,0.3-0.9,0.6c-0.2,0.3-0.5,0.7-0.3,1.1c0.1,0.2,0.5,0.3,0.7,0.3c1.8-0.1,3.7,0,5.5-0.4
			C110.5,445.5,113,445.8,115.5,445.8z M196.6,372.3c1.3-0.5,2.9-1,3.7-2.1c1.1-1.5,2.6-1.9,4-2.8c1-0.6,2.1-0.7,3.1-0.5
			c2.8,0.5,5.6,0.9,8,2.4c1.2,0.7,2.3,0.9,3.5,0.2c0.4-0.2,0.9-0.2,1.4-0.3c3.1-0.5,6.1-1,9.2-1.3c2-0.2,3.8-0.6,4.8-2.6
			c0.3-0.5,0.8-0.8,1.2-1.3c1.3-1.5,2.8-3,3.9-4.7s2.4-3.2,3.6-4.9c1.6-2.3,3.8-4.1,5.4-6.5c2-3.1,4.8-5.4,7.5-7.8
			c0.7-0.6,1.6-1,2.5-1.4c2.1-0.9,4.3-1.2,6.5-1.7c3.3-0.9,6.4-2.2,9.1-4.4c0.4-0.4,0.9-0.7,1.2-1.2c0.7-1.8,1.2-3.7,0.8-5.7
			c-0.2-1.1-0.5-2.3-1-3.4c-1.2-3.3-2.6-6.5-3.8-9.8c-0.3-0.7-0.6-1.2-1.3-1.5c-0.2-0.1-0.4-0.2-0.5-0.1c-0.3,0.1-0.3,0.4-0.4,0.7
			c-0.1,1.4,1.1,2.5,1.3,3.8c0.2,1.1,0.8,2.2,1.7,3c1,1,1.3,2.1,1.1,3.4c-0.1,0.6-0.1,1.2-0.2,1.7c-0.3,2.5-1.1,3.5-3.7,3.4
			c-3.1-0.1-6,0.6-8.8,1.8c-1.8,0.8-3.5,1.7-4.7,3.3c-0.4,0.5-0.8,0.9-1.3,1.1c-0.3,0.1-0.6,0.1-0.8-0.2c-0.1-0.1-0.2-0.3-0.2-0.5
			c0.1-1.2,0.8-2.3,1.7-2.9c3-2.1,6.2-4,10.1-4.3c1.2-0.1,2.3,0.1,3.5,0.2c1.5,0.1,2.2-0.5,2.2-2.1c0-2.5-0.7-4.8-2.6-6.8
			c-0.6,0.6-1,1.2-1.5,1.7c-0.9,1-2,1.8-3.3,2.4c-2.3,1.1-4.8,1.5-7.4,1.7c-0.6,0.1-1.2,0.1-1.7-0.1c-1.7-0.7-3.5-1.2-4.9-2.4
			c-1.4-1.1-2.1-2.2-1.8-4.2c0.3-1.9,0.2-3.9-1.7-5.4c-0.8,2-1.8,3.8-1.5,5.8c0.6,4.1,0.5,8.4,1.6,12.4c0.3,1.2,0.4,2.5-0.1,3.8
			c-0.8,2.3-1.6,4.6-2.8,6.7c-1.3,2.4-3.3,4.1-5.3,5.8c-1.6,1.4-3.2,2.8-4.8,4.2c-4,3.5-8,7.1-12.7,9.8c-0.8,0.5-1.6,1.1-2.2,1.9
			c-1.6,1.9-3.8,2.1-6,2.3c-0.6,0-1.1-0.2-1.6-0.6c-1.8-1.5-2.6-3.6-3.4-5.7c-0.6-1.6-1.4-2.9-3.2-4.4c-2.7,2.1-5.3,4.2-8,6.2
			c-1,0.7-1.3,1.5-1.2,2.7c0.1,2,0.3,4.2-0.7,6c-0.9,1.7-0.2,2.7,0.8,3.8C195.6,371.4,195.9,372,196.6,372.3z M182.3,294.3
			c1.3,0,2.3-0.5,3.3-1.2c0.9-0.6,0.6-1.6,0.7-2.4c0.1-0.5,0.2-1,0.2-1.4c0.3-1.9,0.3-1.9-1.6-2.2c-0.4-0.1-0.8-0.2-1.1-0.2
			c-3,0-5.8,1.5-6.7,4.5c-0.3,1,0.1,1.9,1,2.1C179.4,293.9,180.9,294.1,182.3,294.3z M141.5,283.2c0.1,0,0.1,0,0.2,0
			c0,0.4,0,0.8,0,1.2c-0.1,1.6,0.7,2.8,2,3.6c0.6,0.4,1.1,0.8,1.8,1c0.6,0.3,1.2,0.5,1.6,1.1c0.5,0.9,1.4,0.6,2.1,0.3
			c0.7-0.3,1.3-0.9,1.9-1.3c1.3-1,1.2-1.7-0.2-2.6c-0.4-0.3-0.8-0.4-1.3-0.5c-1.2,0-2.3,0.2-3.2,1.1c-1.3,1.1-2.6,0.2-3.1-0.8
			c-0.9-1.9-1.2-4-0.5-6c1.1-3,2.8-5.6,6.1-6.6c0.2-0.1,0.4-0.1,0.5-0.2s0.2-0.3,0.3-0.5c0.1-0.3-0.2-0.5-0.4-0.7
			c-1-0.6-1.9-0.1-2.8,0.2c-1.9,0.5-3.3,1.8-3.8,3.7C142,278.6,141.8,280.9,141.5,283.2z M278.2,326.3c2-3.5,3.3-7,4.1-10.7
			c0.2-0.9,0.2-1.6-0.1-2.5c-0.9-2.9-2.6-5.4-3.1-8.4c0-0.1-0.2-0.3-0.4-0.3c-0.4-0.1-0.5,0.2-0.6,0.5c-0.5,1.1-0.4,2.3,0.1,3.4
			c0.6,1.1,1.1,2.3,1.7,3.4c0.9,1.7,1.1,3.2-0.2,4.8c-0.5,0.6-0.8,1.3-1.2,2c-0.8,1.3-1.4,2.6-0.7,4.3
			C278.2,323.8,278.1,325.1,278.2,326.3z M121.7,265.3c0.1-0.3,0.2-0.6,0.2-0.8c0.2-3.3,1.9-5.9,4.1-8.1c1.7-1.8,3.7-2.7,6.2-2
			c0.3-0.9,1.1-1.6,0.8-2.6c-3.6-0.9-6.6,0.8-9.6,2.3c-0.4,0.2-0.8,0.6-0.7,1.2c0.1,1.1-0.4,2.1-0.8,3.1c-0.6,1.8-1.3,3.7-1,5.7
			C120.9,264.5,121.1,265,121.7,265.3z M123.3,277.3c0.1-0.1,0.3-0.3,0.3-0.4c-0.1-1.8,1-2.6,2.6-2.9c0.4-0.1,0.8-0.1,1.1-0.2
			c0.7-0.2,1-0.8,1-1.6c0-0.9-0.5-1.5-1.3-1.8c-1.6-0.6-2.9-1.9-4.8-1.9c-0.4,0-0.9-0.4-1.3-0.7c-0.3-0.2-0.5-0.6-0.8-0.8
			c-0.1-0.1-0.4-0.1-0.5-0.1c-0.2,0.2-0.4,0.5-0.4,0.7c0.2,0.7,0.4,1.5,0.9,2.1c0.6,0.8,1.1,1.6,1.6,2.4
			C123.2,274.6,123.2,274.6,123.3,277.3z M122.1,303.4c0.7,0.5,1.5,0.8,2.4,0.7c0.5,0,1-0.1,1.4-0.4c0.6-0.5-0.2-0.8-0.3-1.2
			c-0.2-0.7-0.2-1.3,0-2c0.3-1.3,1.4-1.7,2.3-0.6c0.8,0.9,1.6,0.3,2.4,0.4s1.3-0.7,1.8-1.2c0.1-0.1,0-0.4-0.5-0.3
			c-0.8,0.2-1.3-0.2-1.6-0.9c-0.4-0.9-0.5-1.9-0.4-2.8c0.2-1.2,0.5-2.4,0.7-3.6c-1.1,0.2-1.5,0.9-1.7,1.8s-0.1,1.7,0.1,2.6
			c0.1,0.6,0.3,1.1,0.4,1.7c0.1,0.5-0.6,1.1-1.1,1.1c-0.3,0-0.6-0.1-0.8-0.2c-0.8-0.6-1.5,0.1-2.2,0.2c-0.8,0.1-0.6,0.9-0.7,1.4
			c-0.2,0.7-0.6,1.2-1,1.7C122.8,302.2,122.2,302.6,122.1,303.4z M143.7,299c0.9-1.1,1.7-1.9,2.8-2.3c0.2-0.1,0.6-0.4,0.6-0.6
			c-0.1-1,1-1.7,0.9-2.7c-1.8,0-3.6-0.7-5.4-1.1c-0.1,1.5,0.3,2.9-0.5,4.1c-0.2,0.4-0.1,0.7,0.2,1
			C142.7,297.9,143.1,298.3,143.7,299z M142.7,270.9c-1.2,0-1.7-0.4-2.2-1.2c-1.2-2.1-2.3-4.3-2.6-6.7c0-0.1-0.1-0.2-0.1-0.3
			c-0.1-0.1-0.3-0.2-0.5-0.2c0,0-0.2,0.1-0.2,0.2c-0.6,0.9-0.6,1.9-0.2,2.8c0.3,0.9,0.8,1.8,1.3,2.6c0.4,0.7,0.9,1.3,1.3,1.9
			c0.5,0.8,0.7,1.7-0.2,2.3c-0.7,0.5-0.7,1.1-0.6,1.8c0.1,0.3,0.2,0.6,0.4,0.7c0.2,0.1,0.6-0.1,0.8-0.2
			C140.8,273.5,141.6,272.4,142.7,270.9z M141.6,256.6c-0.7-0.5-1.1-1.1-1.5-0.6c-0.8,0.9-1.9,1.4-3,1.7c-2.1,0.5-3.5,2-4.7,3.8
			c-1.3,1.9-1,2.8,1,4c0.1,0.1,0.4,0,0.7,0.1c0-0.6,0-1.2,0-1.7c0.1-2.1,0.8-3.6,3-4.1c0.6-0.1,1.1-0.4,1.3-1
			C139.1,257.5,140.2,257,141.6,256.6z M125.7,293.2c0.5-1.3,1-2.5,2-3.4c1.6-1.4,1.6-2.3,0.3-3.9c-0.4-0.5-0.9-1-1.5-1.4
			c-0.2-0.2-0.7-0.3-0.8-0.2c-1.3,1.2-2.7,2.4-2.9,4.4c0.8,0.1,0.9-0.7,1.3-1c0.5-0.4,1-0.5,1.6-0.4c0.5,0,0.9,0.3,1.1,0.8
			s0.1,1-0.3,1.3C125.1,290.2,125.2,291.6,125.7,293.2z M155,263.8c-0.8-1.6-0.8-1.8-1.7-2.1c-2-0.6-3.5-1.6-4.5-3.4
			c-0.4-0.7-1.4-0.5-1.8,0.3c-0.1,0.2-0.2,0.3-0.3,0.5c-0.5,1.5-0.3,2,1.3,2.6c0.8,0.3,1.7,0.5,2.4,1.1c0.4,0.4,0.9,0.4,1.4,0.4
			c0.6,0,1.2,0,1.7,0C154.1,263.3,154.4,264,155,263.8z M186.4,252.1c1.1-0.5,2.2-0.8,2.1-2.4c0-1.4,0.7-2.6,1.8-3.5
			c0.3-0.2,0.6-0.5,0.8-0.9c0.1-0.1,0-0.4-0.1-0.5s-0.4-0.2-0.5-0.2c-1.4,1.3-3,1.1-4.6,0.6c-0.2-0.1-0.5,0.1-0.8,0.2
			C186.8,248,186.8,248.1,186.4,252.1z M115.7,303.3c1.2,0.2,2.2-0.9,3.5-0.8c0.9-1.1,1.7-2.2,2.6-3.4c0.1-0.1-0.1-0.5-0.2-0.8
			c-0.1-0.2-0.4-0.4-0.7-0.2c-1.5,0.6-3,1.3-4.5,1.9c-0.7,0.3-1.3,0.8-1.7,1.5C114,302.4,114.5,303.3,115.7,303.3z M131.6,282
			c0.6-0.8,1.1-1.6,1.7-2.4s1.3-1.4,1.9-2.2c0.4-0.4,0.7-1,0.9-1.5c0.2-0.5,0.2-1-0.2-1.3c-0.4-0.3-0.7,0.2-1,0.3
			c-0.4,0.2-0.8,0.5-1.3,0.7C130.9,277.3,130.5,278.8,131.6,282z M165.9,238c-4.2,1.1-5.7,2.7-6.3,6.5c0.7,0,1-0.5,1.4-0.9
			c1-0.8,1.9-1.8,3-2.3C165.3,240.5,165.7,239.4,165.9,238z M171.1,243c-0.6-0.8-1.4-0.7-2.1-0.7c-3.3,0.2-5.5,2.1-7.2,4.6
			c0,0.1-0.1,0.3,0,0.3c0.2,0.1,0.4,0.2,0.5,0.2c0.3,0,0.6,0,0.8-0.2c1-1.1,2.3-1.7,3.6-2.2C168.1,244.3,169.6,243.7,171.1,243z
			 M153.5,245c-1-0.8-1.8-1.5-3-1.5c-1.8,0.1-3.7-0.5-5.5,0.4c-1,0.5-2,0.8-2.6,1.8c-0.2,0.3-0.8,0.7-0.3,1.3
			c0.7-0.8,1.6-1.3,2.6-1.9c1.1-0.6,2.3-1.1,3.6-1.1c1.9,0,2.4,0.5,2.8,2.5c0.1,0.3,0.1,0.5,0.5,0.6
			C152.4,246.5,152.9,245.8,153.5,245z M121.8,281.3c0.3-1-0.4-1.4-0.6-2c-0.8-1.6-2.1-3.1-1.7-5.1c0.1-0.7-0.4-1.3-0.8-1.8
			c-0.1-0.1-0.3-0.2-0.5-0.2c-0.1,0-0.3,0.2-0.3,0.4c-0.2,1.7,0.4,3.3,0.7,4.9C118.9,279.3,119.8,280.7,121.8,281.3z M141.1,248.7
			c-0.9,0.9-1.6,1.6-2.5,2c-0.7,0.3-1.4,0.6-1.5,1.6c0,0.3-0.5,0.5-0.8,0.7c-0.4,0.3-0.8,0.5-1,1c-0.2,0.3-0.5,0.7-0.3,1.1
			s0.7,0.2,1,0.1c0.7-0.2,1.7-0.2,1.7-1.2c0-1.4,0.7-1.9,2-1.9c0.5,0,1,0.1,1.4-0.3C141.1,250.9,141.1,250,141.1,248.7z
			 M140.6,261.7c-0.1,1.2,0.1,2.4,0.6,3.6c0.1,0.3,0.2,0.5,0.5,0.6c0.4,0.1,0.5-0.3,0.5-0.5c0.1-1.6,0.6-3,1.3-4.4
			c0.2-0.3,0.3-0.7,0.4-1.1c0.1-0.5-0.1-0.7-0.6-0.7C140.8,259.1,140.5,260.2,140.6,261.7z M138.2,278.1c-1.4,1.4-3,2.7-3.6,4.5
			c-0.5,1.5-0.8,3.2,0.5,4.6c0.5-0.3,0.6-0.6,0.6-1c0.1-1.1,0.2-2.1,0.3-3.2c0.1-1,0.2-1.2,1.4-1.5c0.5-0.1,0.9-0.1,0.9-0.8
			C138.2,280,138.7,279.2,138.2,278.1z M141.3,303.1c0,0,0.4,0,0.8-0.2c0.5-0.2,0.9-0.5,0.9-1s-0.1-1-0.7-1.1c-1-0.2-1.5-0.9-2-1.6
			c-0.2-0.2-0.5-0.4-0.7-0.3c-0.7,0.3-1.5,0.4-1.7,1.3s0.1,1.8,0.9,2.2C139.4,302.9,140.1,303.2,141.3,303.1z M284.2,312
			c1.4-1.8,2.4-3.8,3.5-5.7c0.1-0.2,0.2-0.5,0.2-0.8c0-0.2,0-0.4-0.1-0.5c-0.2-0.3-0.5-0.1-0.7,0.1c-1.5,1.3-2.2,3.1-3.3,4.7
			C283.1,310.6,283.5,311.3,284.2,312z M128.9,276.2c-1,0.1-2,0.1-2.4,0.9c-0.5,0.9-0.4,2.1,0,3.1c0.4,0.8,1,1.4,1.9,2
			c0-1.1-0.1-2.1,0-3C128.5,278.2,128.7,277.3,128.9,276.2z M149.8,282c0,0.2,0.1,0.6,0.2,0.9c0.2,0.6,1.7,0.9,1.9,0.5
			c0.5-1.2,1.2-2.4,1.2-3.7c0-0.3-0.2-0.5-0.4-0.8c0-0.1-0.1-0.1-0.2-0.2c-0.1,0.3-0.2,0.6-0.3,0.8c-0.4,0.5-0.9,0.7-1.5,0.8
			C150,280.5,149.8,281.1,149.8,282z M132.7,297.3c0.9-0.9,1.6-1.6,2.3-2.3c0.1-0.1,0.1-0.2,0.1-0.2c0-0.2,0.1-0.4,0.1-0.6
			c-0.3-0.7-0.6-1.4-0.8-2.2c-0.2-0.5-0.3-1-0.5-1.8C132.9,292.5,131.9,294.6,132.7,297.3z M137.7,296.5c1.8-0.7,2.3-1.2,2.3-2.6
			s-0.4-2.5-1.9-2.9c-0.3-0.1-0.6-0.2-0.8,0c-0.2,0.1-0.2,0.6-0.1,0.8C138,293.3,138,294.9,137.7,296.5z M274.2,314.9
			c1.2-2.7,2.8-4.5,1.9-7.2c-0.8,1.2-1.5,2.2-2.2,3.2c-0.2,0.3-0.4,0.6-0.2,1C273.9,312.7,274,313.5,274.2,314.9z M168.7,239.7
			c0.6,0.1,1.3,0.1,2,0.2c0.6,0.1,1.3,0.4,1.9,0.6s1,0.8,1.7,0.9c-0.2-1.1-0.5-1.9-0.9-2.6c-0.2-0.4-0.4-0.7-0.9-0.6
			c-1,0.4-2.1,0.1-3.1,0.3C168.9,238.7,168.7,239.1,168.7,239.7z M153.6,273.8c0,0.3-0.1,0.8,0.1,1.2c0.5,0.9,1.2,1.7,1.9,2.6
			c0.1,0.1,0.4,0.1,0.5,0s0.3-0.3,0.3-0.4c0.2-1.9-0.5-3.4-1.6-4.8c-0.1-0.1-0.4-0.3-0.5-0.2c-0.2,0.1-0.5,0.3-0.6,0.6
			C153.6,273,153.6,273.3,153.6,273.8z M141.6,306.6c-1.2-0.1-2.5-0.3-3.7-0.7c-0.4-0.1-0.8-0.1-1.1,0.2c-0.3,0.5,0.1,0.9,0.4,1.3
			c0.5,0.5,1,0.9,1.8,0.9c0.7,0,1.3,0,2,0.3c0.6,0.2,0.6-0.3,0.6-0.7C141.6,307.5,141.6,307.1,141.6,306.6z M277.8,312.4
			c-0.8,1.6-1.4,2.8-1.9,4c-0.2,0.4-0.1,0.9-0.1,1.4c0,0.1,0.2,0.3,0.3,0.4c0.1,0.1,0.4,0,0.5-0.1c0.5-0.6,0.9-1.2,1.5-1.8
			c0.7-0.7,0.7-1.5,0.4-2.4C278.2,313.6,278.1,313.2,277.8,312.4z M178.5,251.1c-0.1,0.5,0.2,1.1,1.1,1.4c0.5,0.2,1.1,0.5,1.6,0.7
			c0.4,0.1,0.8-0.2,0.7-0.6c-0.2-0.6-0.4-1.3-0.6-1.9c-0.3-0.8-0.9-1.2-1.8-1.3c-0.4-0.1-0.8,0-0.9,0.5
			C178.6,250.1,178.6,250.4,178.5,251.1z M167.6,247.8c1.6,0.3,3,0.6,4.3,0.8c0.4,0.1,0.6-0.3,0.4-0.8s-0.3-0.9-0.8-1.1
			C170,246,168.8,246.5,167.6,247.8z M184.9,259.6c-0.4-1.1-1.2-1.6-1.8-2.1c-1.1,1-1.3,1.7-0.7,3c0.1,0.3,0.4,0.4,0.7,0.3
			C183.7,260.4,184.2,260,184.9,259.6z M158.9,262C158.9,262,158.9,262.1,158.9,262c0.2,0,0.4,0.1,0.6,0c0.4-0.1,0.8-0.2,0.9-0.6
			c0.1-0.6-0.5-0.5-0.8-0.5c-1.1,0-1.5-0.6-1.5-1.6c0-0.2,0.1-0.6-0.3-0.5c-0.2,0.1-0.5,0.3-0.6,0.6c-0.3,0.5-0.2,1.1-0.1,1.7
			c0.1,0.5,0.4,0.9,1,0.9C158.3,262,158.6,262,158.9,262z M123.1,295.3c-0.3-1.6-0.5-2.9-0.7-4.3c-0.8,0.4-1.5,0.7-1.5,1.6
			C120.8,294,121.7,294.7,123.1,295.3z M149.2,296.4c1,1.3,1.6,1.5,2.5,1c0.4-0.2,0.5-0.5,0.5-1c0-0.6-0.5-0.5-0.8-0.5
			C150.6,296.1,149.9,296.2,149.2,296.4z M146.4,300.7c0.7,0,1.3-0.5,1.5-1.3c0.1-0.2-0.1-0.6-0.2-0.7c-0.4-0.5-1-0.4-1.8,0.2
			c-0.1,0.1-0.2,0.1-0.2,0.2c-0.4,0.4-0.6,0.8-0.3,1.3C145.5,300.6,145.9,300.7,146.4,300.7z M148.3,264.7c-0.4-0.2-0.6-0.3-0.9-0.4
			c-0.7-0.2-1.3-0.9-2.1-0.3c-0.4,0.3,0.2,1.1,1.3,1.9c0.2,0.1,0.3,0.2,0.5,0.2c0.4,0.1,0.5-0.2,0.7-0.4
			C147.9,265.5,148,265.2,148.3,264.7z M135,302.8c-0.2-0.1-0.5-0.3-0.7-0.4s-0.3-0.2-0.5-0.3c-0.4-0.2-0.7-0.2-1,0.1
			c-0.4,0.4-0.4,1.2-0.1,1.6s0.7,0.4,1,0.3C134.3,304,134.8,303.6,135,302.8z M152.2,292.1c-1-0.1-1.3,0.8-2,1.1
			c-0.6,0.3-0.1,0.7,0.1,0.9c1,0.8,1.9,0.3,2-0.9C152.3,292.9,152.2,292.5,152.2,292.1z M138.7,285.5c-0.5,0.5-0.4,1.1-0.4,1.6
			c-0.1,1.1-0.1,1.1,1.7,1.4C139.5,287.5,139.1,286.5,138.7,285.5z M145.1,283.1c0.1,0.3-0.1,1,0.6,1c0.5,0,1.2-0.1,1.4-0.8
			c0.1-0.4,0.2-1-0.2-1.3c-0.4-0.2-0.9-0.1-1.4,0C145.1,282.2,145.1,282.6,145.1,283.1z M183.7,250.2c0.4-1,0.3-1.9-0.6-2.5
			c-0.4-0.3-1-0.4-1.4-0.1c-0.7,0.6,0.2,0.8,0.5,0.9C182.9,248.9,182.9,249.9,183.7,250.2z M112,259.3c-0.1-0.2-0.1-0.4-0.2-0.5
			c-0.2-0.2-0.5-0.1-0.7,0.1c-0.5,0.4-0.8,1-1,1.7c-0.1,0.3-0.1,0.6,0.2,0.7c0.1,0.1,0.4,0,0.5-0.2
			C111.3,260.6,111.9,260.1,112,259.3z M153.3,266.8c-0.2-0.7-0.8-1.2-1.4-0.9c-0.4,0.2-0.9,0.4-0.7,1c0.3,0.6,0.9,0.8,1.7,0.5
			C153.3,267.3,153.4,267.1,153.3,266.8z M126,306.8c-0.6-0.3-1.2-0.1-1.9-0.1c-0.3,0-0.5,0.3-0.5,0.6c0,0.7,0.9,1.2,1.4,0.8
			C125.6,307.8,126,307.5,126,306.8z M121.2,284c-0.6,0.3-0.8,1.3-0.4,1.7c0.1,0.1,0.2,0.1,0.2,0.1c0.3-0.4,0.7-0.9,0.6-1.5
			C121.6,284.2,121.3,284.1,121.2,284z M155.1,286.6c-0.2-0.1-0.3,0-0.4,0.3c-0.1,0.5,0,1,0.6,1.1c0.2,0,0.4,0,0.5-0.1
			c0.3-0.4,0-0.7-0.3-0.9C155.4,286.8,155.2,286.7,155.1,286.6z M156.2,250.2c0.1-0.2,0-0.4-0.2-0.4c-0.4-0.1-0.7,0-0.9,0.4
			c-0.1,0.1,0,0.4,0.1,0.5C155.3,250.9,156,250.6,156.2,250.2z M175.8,249.1c0-0.2-0.1-0.4-0.1-0.5c0-0.3-0.1-0.4-0.3-0.3
			c-0.1,0-0.1,0.1-0.2,0.2c-0.1,0.3-0.3,0.7-0.4,1c0,0.1,0.1,0.3,0.3,0.4c0.3,0.1,0.5,0.1,0.6-0.2
			C175.8,249.5,175.8,249.3,175.8,249.1z M145,268.2c-0.2-0.2-0.4-0.4-0.7-0.2c-0.1,0-0.2,0.1-0.2,0.2c0.1,0.3,0.3,0.4,0.6,0.3
			C144.8,268.4,144.9,268.2,145,268.2z"/>
		<path class="st2" d="M242.9,172.8c0.3,0.3,0.5,0.5,0.7,0.7c6.9,4,12.1,9.7,16.8,16c2.5,3.3,4.9,6.8,7,10.4
			c1.3,2.1,3.2,3.7,4.8,5.5c3.8,4.3,7.4,8.8,9.6,14.2c1.4,3.3,2.3,6.8,3.2,10.3c0.8,3,1.3,6.1,1.6,9.2c0.1,0.9,0.2,1.8,0.1,2.6
			c-0.2,2.8-0.3,5.7-1.1,8.4c-1.7,6-2.9,12.1-4,18.2c-0.5,2.6-1.3,5.1-2.2,7.5c-1,2.8-2.5,5.2-3.8,7.8c-1.3,2.5-2.7,5-4.1,7.4
			c-0.8,1.4-1.5,1.7-2.2,1.3c-0.7-0.4-0.9-1.2-0.5-2.6c0.6-1.9,1.2-3.9,2.1-5.7c1.4-2.7,2.3-5.6,3.3-8.4c1.3-3.6,2.4-7.2,3.5-10.8
			c1.4-5,2.1-10.1,2.2-15.3c0.2-4.7-0.5-9.3-1.6-13.9c-1.1-4.4-2.1-8.9-3.4-13.3c-1.1-3.8-2.9-7.4-4.8-10.9
			c-1.8-3.2-3.8-6.4-5.8-9.4c-0.9-1.4-2.2-2.5-3.3-3.7c-1.6-1.7-3.3-3.3-4.8-5.1c-4.6-5.5-10.4-9.6-16.5-13.4
			c-0.3-0.2-0.7-0.3-1.1-0.5c-1.4,1.5-2.8,3-4.2,4.4c-4.2,4.2-8.6,8.2-13.5,11.6c-5.4,3.8-11.1,3.8-16.9,1.2c-2.2-0.9-3.4-2.9-4.2-5
			c-0.8-2.1-1.4-4.2-1.5-6.5c-0.1-2.2,0-4.3,1-6.3c0.4-0.7,0.6-1.4,0.9-2.2c2-5.4,6-8.4,11.4-10c4-1.2,8.1-1.1,12.2-0.6
			c3.8,0.4,7.4,1.7,10.9,3.1c2.4,0.9,2.6,0.8,4-1.3c3.5-4.9,4.4-10.3,3.2-16.1c-0.7-3.4-2.4-6.4-4.8-8.9c-4.5-4.6-9.7-8.4-15.8-10.8
			c-3-1.2-6.1-2-9.3-2.5c-7.7-1.4-15.4-2.1-23.3-1.9c-4.6,0.1-9.2,0-13.7-0.1c-2.4,0-4.6,0.7-6.9,1c-5.8,0.7-11.5,2-17.2,3.5
			c-9.5,2.4-19.2,3.5-28.9,3.1c-6.3-0.3-12.6-1-18.8-2.5c-6.2-1.5-12.2-3.3-18-5.8c-3-1.2-5.8-2.7-8.6-4.4c-2.1-1.2-3.8-2.8-5.1-4.7
			c-2.7-3.7-3.1-7.8-1.8-12.2c1.1-3.6,3.4-6.4,5.9-8.9C81,91,87.2,86.4,94.3,83.2c4.2-1.9,8.6-3.6,13-5.1c6.3-2.1,12.5-4.4,18.9-5.9
			c2.7-0.6,5.3-1.1,8-1.7c6.2-1.4,12.3-2.9,18.5-4.3c4.7-1.1,9.5-2.2,14.2-3.2c4.4-1,8.8-1.9,13.1-2.7c5-1,10-1.6,15-2.2
			c4.8-0.6,9.7-1,14.5-1.5c0.5,0,1-0.1,1.4-0.2c4.9-0.3,9.7-0.5,14.6-0.8c1.7-0.1,3.3-0.4,4.9-0.3c5.9,0.2,11.9,0.2,17.7,1.4
			c2.7,0.5,5.3,0.9,7.9,2c6.4,2.6,12,6.5,16.7,11.5c2.3,2.4,3.7,5.2,4.6,8.3c0.4,1.2,0.2,2.7,1.3,3.5c1,0.6,2.3,0.2,3.4,0.2
			c6.1,0,12.2,0.7,18.3,1.4c2.3,0.3,4.6,0.5,7,0.7c6.4,0.5,12.7,1.8,19,3.2c8.2,1.8,16.1,4.5,24.2,6.6c4.7,1.3,9.2,3.2,13.4,5.7
			c2.1,1.3,4.3,2.3,6.5,3.2c3.3,1.4,5.9,3.6,8,6.6c1.8,2.6,3,5.4,4.1,8.3c0.3,0.8,0.4,1.7,0.5,2.6c0.1,1,0.1,1.9,0.3,2.9
			c0.5,2.8,0.3,5.4-1,7.9c-0.4,0.7-0.4,1.5-0.3,2.3c0,2-0.7,3.8-1.8,5.5c-1.4,2-2.8,4-5.2,4.9c-1.1,0.4-1.7,1.3-1.7,2.5
			c-0.3,4-1.2,7.9-1.9,11.8c-0.3,1.5-0.7,3-1.3,4.5c-1.2,2.8-2.1,5.6-3.3,8.4c-2.5,5.8-5.6,11.1-10,15.7c-0.1,0.1-0.3,0.3-0.4,0.4
			c-0.9,1.2-1.6,2.6-2.7,3.4c-3.7,2.8-6.7,6.2-10.5,8.8c-4.5,3-9.1,6-14.4,7.5c-4,1.2-8.1,1-12.1,0c-2.2-0.6-4.1-1.9-5.6-3.5
			c-1.5-1.5-2.9-3.2-4.3-4.8c-1.7-1.8-3-3.9-4-6.1c-2.3-4.9-4.5-9.7-6.4-14.7c-1.4-3.7-2.4-7.6-2.6-11.6c-0.2-3.3-0.4-6.6-0.7-9.9
			c-0.1-0.8-0.2-1.5-0.4-2.3c-0.2-0.7-0.6-1.2-1.5-1.2c-1.9,0-3.9,0-5.8,0.3c-3.4,0.4-6.8,0.6-10.2-0.2c-4-0.9-7.8-2.4-10.6-5.7
			c-0.8-0.9-1.8-1.5-2.6-2.3c-2.6-2.3-4.5-5-5.4-8.5c-0.7-3-0.2-5.7,2.3-7.6c2.7-2.2,5.6-4.2,8.6-6c2.6-1.6,5.6-2.2,8.6-2.8
			c6-1.2,12.1-1.9,18.3-1.7c2.6,0.1,5.3,0,7.9-0.1c2.1-0.1,4.3-0.4,6.3-1c0.6-0.2,1.1-0.4,1.6-0.7c1.7-1,1.9-3.2,0.3-4.4
			c-1.4-1.2-3-1.9-4.8-1.2c-0.9,0.4-1.9,0.5-2.7,1c-0.9,0.6-1.7,0.3-2.3-0.5c-0.6-0.8-0.7-1.6-0.1-2.4c1-1.4,2.4-2.3,4.1-2.4
			c0.9-0.1,1.8-0.1,2.6,0.1c2.1,0.5,4.1,1,6.2,1.8c2.3,0.8,3.9,2.5,4.9,4.8c1.1,2.7,0.6,5.6-1.7,7.4c-1.9,1.5-3.9,2.9-6.1,4
			c-3.8,2-7.9,2-12,1.6c-2.3-0.3-4.6-0.7-6.9-1c-4.1-0.6-8.1-0.4-12.2-0.1c-3.2,0.2-6.4,0.5-9.5,1.4c-1.9,0.5-3.7,1.2-4.8,3
			c-1.2,2-1.9,4-1.6,6.4c0.4,3.3,1.8,6.1,3.6,8.8c0.5,0.7,1.1,1.3,1.9,1.7c5,2.4,10.1,4.1,15.8,3.1c1.2-0.2,2.5-0.2,3.8-0.3
			c0.8,0,1.5-0.1,2.3-0.4c1.2-0.5,1.8-1.2,1.7-2.7c-0.1-2.1,0-4.3,0-6.4c0-2.5,0.2-5.1,0.6-7.6c0.3-1.7,1.3-2.4,2.9-1.8
			c2.2,0.9,4.6,1.6,6.7,2.8c4.7,2.6,9.7,3.8,15,4.6c4.5,0.7,9.1,1,13.6,1.5c3.8,0.4,7.6,0.3,11.4,0.2c3.5-0.1,7-0.2,10.5-0.7
			c3.1-0.4,6.1-0.9,9.1-1.8c1-0.3,2-0.7,2.9-1.3c3.2-2.2,6.5-0.2,7.6,3c0.1,0.2,0.1,0.4,0.2,0.6c0,0.5-0.1,1.1,0.4,1.3
			c0.7,0.3,1.3-0.2,1.8-0.7c2.2-2.1,3.2-4.6,3-7.6c0-0.6-0.3-1.1-0.5-1.7c-0.7-1.6-1.3-3.2-2-4.8c-0.9-1.9-2.4-3.3-4.2-4.4
			c-1.3-0.8-2.8-1.4-3.4-3c-0.2-0.6-1-0.9-1.5-1.3c-3.9-3.2-8.1-6.1-12.9-7.9c-1.9-0.7-3.9-1.2-5.9-1.7c-1.8-0.4-3.6-1-5.2-1.9
			c-4.4-2.6-9.3-3.9-14.2-5.2c-4.7-1.2-9.4-2.5-14.1-3.7c-5.9-1.5-11.9-2.9-17.9-4.1c-4.4-0.9-8.7-2-13.1-3
			c-1.1-0.3-2.3-0.4-3.4-0.7c-0.5-0.1-0.8,0.1-1,0.5s-0.5,0.9-0.6,1.3c-1.8,4.4-5,7.3-9.1,9.5c-4.9,2.7-10.3,4.2-15.7,5.3
			c-8.3,1.7-16.6,1.9-25,1.3c-6.6-0.5-13.1-1.8-19.5-3.6c-4.7-1.3-9.3-2.8-13.4-5.6c-0.8-0.5-1.6-1.1-2.3-1.8
			c-2.5-2.1-3.2-7-0.3-9.6c1.1-1,2.2-1.9,3.5-2.5c2.9-1.4,6.1-2,9.3-2.4c7.5-0.9,15.1-1.8,22.7-1.7c6.3,0.1,12.7,0.2,19,0.4
			c2.9,0.1,5.8,0.6,8.7,1c2.5,0.3,5,0.7,7.5,1c0.4,0,0.8,0.1,1-0.3c0.2-0.5-0.1-0.7-0.4-1c-0.8-0.7-1.5-1.5-2.4-2.1
			c-1.9-1.4-3.9-2.6-6-3.7c-6.5-3.1-13.1-5.8-20.1-7.9c-8.7-2.5-17.6-3.2-26.6-3c-7.8,0.2-15.5,1-23.3,2c-5.5,0.7-11,1.4-16.4,2.5
			c-4,0.8-8,1.4-12,2.2c-3.4,0.7-6.8,1.5-10.2,2.3c-4.3,1.1-8.6,2.3-13,3.4c-4.4,1.2-8.7,2.9-12.9,4.7c-3.7,1.6-7.2,3.3-10.8,5.1
			c-4.4,2.2-8.5,4.8-12.3,7.7c-1.8,1.4-3.5,3.1-5.1,4.8c-1.3,1.4-2.3,3.1-2.5,5.2c-0.3,3.3,1.1,5.9,3.7,7.8c1.9,1.4,3.9,2.6,6.1,3.5
			c3.3,1.4,6.8,2.4,10.2,3.5c5.8,1.8,11.8,2.5,17.8,3.2c5.6,0.7,11.2,1.1,16.9,1.5c8.9,0.6,17.7,0.5,26.6,0.6c1.4,0,2.7,0.1,4.1,0.2
			c1.2,0,2.3,0,3.5-0.2c5.3-0.7,10.6-1.7,15.9-2.2c3.6-0.3,7.2-0.1,10.8,0.4c5.8,1,11.7,2.1,17.4,3.9c7.3,2.3,13.2,6.6,17.6,12.9
			c1.3,1.9,2.4,4,3,6.3c1.3,4.5,2.2,9.1,2.1,13.8c-0.1,3.4-0.5,6.8-1.9,10C243.8,170.1,243.4,171.5,242.9,172.8z M203.6,88.1
			c0.2,0.8,0.8,1.2,1.4,1.5c1.9,1,3.8,2,5.7,3c3.9,1.8,8,2.9,12.2,4.1c5.2,1.5,10.5,2.1,15.8,2.3c6.8,0.2,13.6,0.3,20.4-0.7
			c2.7-0.4,5.4-1,7.7-2.4c3.5-2.1,4.5-3.4,2.6-8.3c-0.3-0.8-0.8-1.3-1.7-1.4c-3.6-0.5-7-1.6-10.7-1.3c-0.7,0.1-1.4,0-2-0.1
			c-4.9-0.3-9.7-0.7-14.6-1c-7.3-0.3-14.6-0.4-21.9,0.4c-3.7,0.4-7.3,1-10.9,1.8C206.1,86.4,204.7,87,203.6,88.1z M325.9,196.2
			c1.7,0.1,3.3,0,4.9-0.8c2.9-1.6,6-2.8,8.8-4.5c2.4-1.5,4-3.6,5.3-6.1c0.6-1.2,0.4-2.3-0.1-3.4c-0.2-0.4-0.4-0.7-0.8-0.7
			c-2-0.3-4-0.7-6,0c-1.6,0.5-3,1.4-4.4,2.2c-3.8,2.4-10.6,1.5-13.4-1.3c-1.2-1.3-2.8-2-4.3-2.9c-1-0.6-2.2-0.8-3.4-0.9
			c-1.8-0.2-3.1,1-3.4,2.8c-0.3,2,0.4,3.7,1.5,5.2c1.6,2.3,3.4,4.5,5.3,6.5C318.6,195.1,322,196.4,325.9,196.2z M231.8,175.2
			c-1.2-0.5-2.4-1.1-3.7-1.6c-1.5-0.5-2.9-1-4.4-1.4c-5.4-1.4-10.6-1.3-15.5,1.6c-1.7,1-3.4,2-4.3,3.8c-1.3,2.6-1.4,5.4-1,8.3
			c0.1,0.9,0.6,1.9,0.9,2.7c0.3,0.7,0.9,1.4,1.7,1.5c2,0.5,4,0.8,6-0.1c1.5-0.7,3-1.4,4.4-2.3c4.5-3.1,8.8-6.3,13.3-9.6
			c0.8-0.6,1.5-1.2,2.2-1.9C231.6,176,231.8,175.7,231.8,175.2z M350.1,160.2c0.4,0,0.6,0,0.8,0c0.5,0.1,0.9,0.2,1.4,0.3
			c0.9,0.2,1.3-0.1,2-1.3c0.4-0.7,0.3-1.3-0.2-1.9c-1.4-1.7-3.1-2.5-5.4-2c-1.9,0.4-3.8,1-5.4,2c-1.9,1.2-3.7,2.5-5.3,4
			c-0.5,0.4-0.9,1-1.2,1.6c-0.4,0.7-0.4,1.5,0.1,2.2c1.1,1.5,2.6,1.5,3.8,0.1c0.2-0.2,0.3-0.5,0.5-0.7
			C343.5,161.8,346.6,160.3,350.1,160.2z M312.5,150.9c-2-0.3-3,1-4,2.4c-0.6,0.9-0.2,1.8,0.9,1.8c2.8-0.1,5.2,1,7.3,2.5
			c2.4,1.7,5,3.5,5.3,6.9c0.1,0.6,0.9,0.8,1.4,0.6c0.6-0.3,0.9-0.7,1.1-1.3c0.6-1.5,0.6-3.1-0.3-4.5c-0.8-1.2-1.6-2.4-2.5-3.6
			C319.4,152.7,316.1,151.4,312.5,150.9z"/>
		<path class="st2" d="M370,166.7c0.8-2,1.5-3.8,2.3-5.6c1.3-3.1,1.9-6.3,2.3-9.6c0.2-1.7,0.5-3.5,0.8-5.2c0.1-0.5,0.6-0.8,1.1-0.5
			c0.7,0.3,1.4,0.7,2.1,1c5.6,2.5,11.4,4.5,17.4,5.8c5.8,1.3,11.6,1.5,17.4,1.3c4.5-0.1,8.9-1,12.8-3.5c1.3-0.8,2.4-0.6,3.5,0.1
			c0.7,0.4,1.2,1,1.1,1.9c-0.4,5.6-0.8,11.3-2.5,16.7c-1.3,4.2-3,8.2-4.9,12.2c-0.2,0.3-0.3,0.7-0.4,1c1.2,1.1,2.4,2.1,3.5,3.1
			c2.5,2.4,4,5.5,5.1,8.8c1,2.9,1.3,5.9,1.5,8.9c0.2,2.2-0.5,4.4-1.4,6.5c-2.4,5.9-6.4,10.4-11.8,13.7c-0.5,0.3-1,0.5-1.5,0.9
			c-4.9,3.9-10.9,5.7-16.7,7.3c-4.1,1.1-8.4,1.5-12.7,1.4c-9.1-0.1-18.1-0.1-27.2-0.2c-2.8,0-5.6-0.4-8.4-0.6
			c-1.6-0.1-3.3-0.2-4.9-0.4c-0.8-0.1-1.5,0.1-2.3,0.3c-4.2,1.1-8.4,2.3-12.4,4.1c-2.8,1.3-5.7,2.4-8.5,3.9
			c-0.8,0.5-1.3,1.1-1.7,1.9c-1.3,3.5-1.1,7.1,0,10.6c0.8,2.4,2.5,4.2,4.5,5.6c4,2.9,8.4,5,13.4,5.3c6.4,0.5,12.7-0.1,18.3-3.7
			c0.9-0.6,1.8-1.2,2.4-2.1c1.2-1.8,0.6-3.4-1.5-4c-0.9-0.3-1.7-0.1-2.6,0.1c-0.5,0.1-0.8,0.4-0.9,1c0,0.4-0.1,0.8-0.3,1.1
			c-0.3,0.8-1.1,1.1-1.9,1c-0.4-0.1-0.8-0.2-1.1-0.3c-1.4-0.6-2.9-1.3-2.8-3c0.1-1.5,1.2-2.6,2.5-3.4c0.3-0.2,0.7-0.3,1.1-0.5
			c3.3-1,6.4-0.4,9.2,1.4c2.6,1.7,3.4,4,2.3,6.9c-1.2,3.3-3,6.4-5.9,8.6c-1.1,0.8-2.2,1.6-3.5,2c-3,1.1-6,2.3-9,3.4
			c-4.4,1.6-9,1.5-13.6,1c-6.3-0.7-11.7-3.6-16.3-7.9c-2.8-2.6-5-5.7-5.8-9.6c-0.2-1.1-0.2-2.1-0.1-3.2c0.5-5.3,3-9.4,7.5-12.2
			c0.8-0.5,1.5-1.2,2.1-2c4.9-6.5,11.4-9.8,19.5-10c2.3-0.1,4.7-0.3,7,0c2.7,0.3,5.2-0.5,7.8-0.9c4.2-0.5,8.5-1.2,12.8-1.4
			c6.6-0.3,13.2-0.1,19.8,0.4c5.4,0.4,10.7,0.3,16-0.5c2.9-0.4,5.7-1.1,8.4-2.3c0.8-0.4,1.5-0.8,2.2-1.4c2-1.5,4-3.2,6-4.7
			c3.4-2.7,5.4-6.3,6.7-10.4c1.7-5.4,0.8-10.6-1.3-15.7c-0.6-1.5-1.8-2.5-2.8-3.7c-0.7-0.7-1.6-0.4-2.5-0.4c-0.3,0-0.5,0.5-0.7,0.8
			c-2.3,4.8-5.1,9.2-8.3,13.4c-3.9,5.1-8.6,9.6-13.8,13.4c-3.1,2.3-6.3,4.2-10.2,4.8c-2,0.3-4.1,0.4-6.1-0.1
			c-1.2-0.3-2.5-0.4-3.7-0.8c-4.7-1.3-8.6-4.1-12.4-6.9c-1.5-1.1-2.2-2.7-3.3-4.1c-2.4-3.1-4.5-6.3-5.8-10.1
			c-0.6-1.7-1.2-3.5-0.8-5.4c0.3-1.5,0.7-2.8,1.7-3.9c1.5-1.7,3-3.6,4.3-5.5c1.9-2.6,3.8-5.2,5.2-8.1c0.8-1.6,2-2.7,3.7-3.1
			c0.8-0.2,1.4-0.6,2.1-1c1.8-1.1,3.7-1.7,5.8-1.6c1.4,0.1,2.7,0.1,4.1,0.2c0.6,0,1.1,0,1.6-0.4c1.7-1.4,1.6-2.3-0.4-3.2
			c-3.8-1.8-7.7-1.8-11.5,0C371.8,166.3,371.1,166.9,370,166.7z M384.8,186.8c-2.1-0.3-4.5,0.8-6.9,1.6c-4.7,1.4-7.6,4.9-10,8.9
			c-0.8,1.4-1,3.4,0.2,4.7c1.3,1.3,3.2,1.3,4.9,0.6c0.5-0.2,0.9-0.5,1.3-0.7c0.7-0.4,1.3-0.8,2-1.2c1.6-1,3.3-1.6,5.1-2
			s3.7-0.5,5.1,1.2c0.2,0.2,0.4,0.4,0.7,0.5c1.7,0.6,2.7,1.9,3.5,3.3c0.9,1.5,2.3,2.7,3.6,3.8c0.4,0.4,0.9,0.4,1.4,0.2
			c2-0.8,4-2.9,3.9-5.3c0-5.7-3.2-13.1-11.2-15.2C387.4,186.9,386.4,186.7,384.8,186.8z M400.3,169.2c-0.5,0-0.8,0-1.1,0
			c-1.5-0.1-1.9,0.6-2.4,2c-0.2,0.5,0.1,1,0.6,1.2c0.3,0.1,0.6,0.1,0.9,0.2c2.5,0.3,4.5,1.8,6.3,3.4c0.8,0.6,1.2,1.5,1.5,2.4
			c0.6,1.7,0.5,3.4-0.1,5.1c-0.4,1.3,0.8,2.5,2.1,2.4c0.9,0,1.7-0.3,2.3-1c2.2-2.5,2.4-4.5,0.8-7.4c-1.4-2.5-3.4-4.5-5.5-6.3
			C404.1,169.8,402.3,168.9,400.3,169.2z"/>
		<path class="st2" d="M240.9,421.1c0.9-0.2,1.7-0.3,2.6-0.5c1.5,1.5,2.8,3.2,3.9,5.1c1.8,3,4.2,5.6,6.3,8.4
			c0.1,0.2,0.2,0.3,0.4,0.4c3.7,2.8,6.7,6.5,10.6,9.2c2.8,1.9,5.9,3.4,9.2,4.3c1.7,0.4,3.4,0.8,4.9,1.8c0.7,0.4,1.4,0.6,2.2,0.7
			c3.7,0.4,7.4,0.4,11.1,0.2c1,0,1.9-0.4,2.9-0.6c3.2-0.6,4.9,0.1,6.7,2.8c0.2,0.2,0.3,0.5,0.4,0.8c1.5,2.4,1.2,4.6-0.5,6.7
			c-1.4,1.8-3,3.6-4.7,5.2c-3.1,2.9-6.2,5.9-9.5,8.7c-1.9,1.6-4.1,2.7-6.6,2.9c-1.8,0.1-3.6,0-5-1.7c-0.8-1-1.9-1.9-2.7-3
			c-0.6-0.9-1.5-1.5-2.5-2c-1.9-1-3.8-1.9-6-2.3c-1.5-0.3-3-0.7-4.5-1.2c-3-0.9-6-0.4-8.9,0.2c-1.8,0.4-3.7,0.4-5.5,0.3
			c-1.2-0.1-2.3-0.5-3.3-1c-1.8-0.9-2.9-2.2-3.4-4.1c-0.3-0.9-0.5-1.9-0.9-2.8c-0.7-1.7-1.1-3.3-0.6-5.1c0.1-0.4,0-1,0-1.4
			c-0.4-2.5-0.9-5-1.2-7.5c-0.3-2.2-1.2-4.1-2-6.1c-0.4-1.1-1.2-2-1.9-2.9c-1.5-2-2.6-4.3-4.6-5.9c-0.1-0.6,0.1-1.1,0.4-1.5
			c1.6-1.5,3.3-2.9,5.2-4.2C235.7,423.1,238.3,422.1,240.9,421.1z M280.2,470.2c2,0.2,3.6-0.6,5.1-1.8c1.3-1.1,2.7-2.2,4.1-3.3
			c0.7-0.6,1.3-1.2,1.9-1.8c1.5-1.5,2.9-3.1,4.4-4.6c0.6-0.6,1.2-1.2,1.5-2.1c0.3-1-0.1-1.8-1.2-2.3c-0.1-0.1-0.4,0-0.5,0.1
			s-0.2,0.4-0.2,0.5c0.8,1.3,0.1,2.1-0.8,2.9c-1.2,1.1-2.2,2.4-3.5,3.4c-2.3,1.9-4.7,3.8-6.9,5.8c-1.5,1.4-3.2,2.1-5.3,1.7
			c-0.4-0.1-0.9-0.3-1.3,0.2c-0.2,0.4,0.3,1,1,1.1C279,470.2,279.6,470.2,280.2,470.2z M251,435.4c-0.1-0.2-0.2-0.4-0.4-0.6
			c-3.2-3-5.9-6.4-7.9-10.2c-0.2-0.4-0.4-0.9-0.7-1.3c-0.1-0.1-0.3-0.2-0.5-0.1c-0.3,0.1-0.5,0.3-0.5,0.6c0,0.4,0.1,0.8,0.3,1.1
			c2,3.8,4.6,7.1,7.5,10.2c0.4,0.4,0.9,0.7,1.5,0.8C250.7,436,250.9,435.8,251,435.4z M240,441.6c0-0.8-0.6-1.4-1-2
			c-2.2-3.3-4.5-6.5-6.7-9.8c-0.1-0.1-0.1-0.2-0.2-0.2c-0.3-0.3-0.6-0.5-1-0.2s-0.3,0.7-0.1,1c0.3,0.5,0.6,1,0.9,1.5
			c2,2.5,3.8,5.1,5.5,7.8c0.5,0.8,1.1,1.6,1.7,2.3c0.1,0.1,0.4,0.2,0.5,0.1C239.9,442,239.9,441.7,240,441.6z M245.7,436.2
			c0-0.2-0.1-0.4-0.2-0.5c-2.4-3.2-4.6-6.7-6.7-10.1c-0.1-0.2-0.2-0.3-0.4-0.4c-0.2-0.1-0.4-0.1-0.5,0s-0.3,0.3-0.3,0.5
			c0.1,0.4,0.1,0.8,0.3,1.1c0.7,1.2,1.4,2.3,2.2,3.4c1.2,1.9,2.4,3.7,3.7,5.6c0.3,0.5,0.7,0.9,1.3,1
			C245.3,436.8,245.7,436.4,245.7,436.2z M235.1,426.9c-0.1,0.1-0.3,0.2-0.3,0.4c0,0.4,0,0.8,0.2,1.1c1.8,3.1,3.7,6.1,5.8,9
			c0.2,0.3,0.6,0.6,0.9,0.2c0.2-0.2,0.2-0.6,0.1-0.8c-0.2-0.4-0.4-0.9-0.7-1.3c-1.2-1.8-2.4-3.5-3.5-5.3c-0.6-1-1.1-2-1.7-3
			C235.7,427,235.4,426.9,235.1,426.9z"/>
		<path class="st0" d="M330.6,386.3c-0.7,0.9-1.4,1.8-2,2.8c-0.4,0.6-0.8,1.1-0.8,1.9c0,0.5,0.2,1,0.7,1.1c0.4,0.1,0.8,0,1-0.4
			c0.4-0.6,0.6-1.2,1-1.8c0.4-0.6,0.8-1.2,1.3-1.5c1.3-0.7,2.3-1.8,3.3-2.9c0.7-0.7,1.3-0.6,1.8,0.2c0.5,1,0.6,2-0.1,3
			c-1,1.5-2.2,2.8-3.7,3.7c-1.3,0.8-2,1.8-1.4,3.3c0.1,0.4,0.1,1-0.1,1.4c-1.5,4.8-4,8.6-9.2,10c-0.7,0.2-1,0.5-1.3,1
			c-1.3,1.9-2.5,3.9-4,5.8c-0.6,0.7-0.9,1.7-1.4,2.6c-0.3,0.5-0.5,1.1-0.8,1.5c-1.4,2.1-2.5,4.4-3.4,6.7c-0.7,2-2.3,3.4-3.7,4.8
			c-1.3,1.3-3.1,1.6-4.9,1.2c-1.6-0.4-3.2-0.9-4.3-2.3c-0.7-0.9-1.6-1.7-2.2-2.7c-1.8-2.9-4.2-5.1-6.6-7.4c-1.3-1.3-2.9-2.5-4.8-3.1
			c-0.5-0.1-0.9-0.4-1.3-0.6c-2.4-1.8-5.2-2.7-8-3.4c-1.4-0.4-2.8-0.9-4.1-1.5c-1.7-0.9-3.5-1.8-5.2-2.6c-0.4-0.2-0.9-0.4-1.4-0.4
			c-4.3-0.2-7.1-2.8-9.7-5.8c-1.6-2-2.6-4.3-3.6-6.7c-0.3-0.6-0.5-1.3-0.8-1.9c-0.3-0.8-0.4-1.9-1.4-2c-1.1-0.1-2.3-0.2-3.4,0.5
			c-1.8,1.2-3.5,2.5-5,4c-1.6,1.7-3.6,2.9-5.5,4.3c-0.6,0.4-1.1,0.3-1.4-0.4c-0.8-2.1-1.6-4.2-2.4-6.3c-0.5-1.4-1-2.7-2.2-3.7
			c-0.3-0.3-0.5-0.8-0.7-1.2c-0.2-0.3-0.2-0.8-0.5-1.1c-1.3-1.1-2-2.5-2.5-4.1c-0.5-1.4-1.4-2.7-2.3-4c-0.9-1.4-1.9-2.6-2.9-4
			c-0.2-0.2-0.3-0.5-0.5-0.9c2.2-0.9,4.4-1.4,6.7-1.8c1.7-0.3,3.5-0.6,5.2-0.8c1.1-0.1,2.1-0.2,3-0.9c0.4-0.3,1.1-0.4,1.6-0.5
			c1.7-0.4,3.3-0.9,4.4-2.4c0.6-0.9,1.6-1.4,2.7-1.7c2.2-0.4,4.4-0.7,6.5,0.4c2,1,4.1,1.9,5.5,3.8c0.3,0.4,0.7,0.7,1.1,1
			c2.1,1.6,3.9,3.5,5.3,5.7c0.7,1,1.6,2,2.6,2.8c2.9,2.3,5.4,5.1,8.1,7.6c3,2.7,5.6,5.7,8.5,8.4c2.1,2,4.2,4,6.7,5.5
			c2.7,1.7,5.2,3.7,7.8,5.6c1.3,0.9,2.6,1.6,4.1,2.2c3.4,1.3,6.2,0.1,8.5-2.3c1.8-1.9,4-3.4,5.9-5.1c0.4-0.4,1-0.6,1.2-1.2
			c0.9-2.4,2.8-4.2,4.5-6.1c0.6-0.7,1.2-1.4,1.5-2.4c0.6-1.8,1.8-3.2,3-4.6c0.3-0.3,0.6-0.5,1-0.2c0.3,0.3,0.3,0.7,0.1,1.1
			c-0.6,1-1.4,1.9-2,2.9c-0.4,0.6,0,1.4,0.8,1.5c0.5,0.1,1,0,1.2-0.5c0.3-0.5,0.5-1.1,0.7-1.6c0.5-1.2,1.1-2.3,2.1-3.1
			C329.1,386.3,329.8,385.9,330.6,386.3z"/>
		<path class="st0" d="M185.2,295.5c-0.8,1.6-1.3,3-2.4,4c-1.6,1.6-3.6,2.3-5.8,2.2c-2.9-0.1-5.5,1.1-8.2,1.9
			c-0.6,0.2-1,0.6-1.2,1.2c-1.9,4.4-1.9,8.9-0.3,13.4c0.3,0.7,0.7,1.1,1.5,1.2c2.5,0.6,3.9,2.4,4.9,4.6c1.1,2.5,2.3,4.9,3.3,7.4
			c1.1,2.6,0.7,5.2-0.1,7.7c-0.4,1.2-1.5,2-2.6,2.1c-1.8,0.1-3.7,0.3-5.4-0.5c-1.2-0.6-2.4-1.2-3.6-2c-1-0.6-1.6-1.5-2-2.8
			c-0.9-3-2.3-5.8-4.1-8.3c-1.8-2.5-4.1-4.4-6.6-6.1c-0.4-0.3-0.8-0.5-1.3-0.8c-1.1-0.7-2.7-0.3-3.4-1.5c-0.7-1.1-1.5-2-2.3-3
			c-0.4-0.5-0.7-1.2-1-1.8c-0.3-0.6-0.4-1.3,0-1.9c0.4-0.7,0.7-1.6,1.4-2.2c0.6,0.3,1.2,0.7,1.8,0.9c0.9,0.4,1.9-0.4,1.6-1.3
			s-0.4-1.4,0.4-2.2c1.3-1.1,1.2-1.4,0.3-3c-0.2-0.3-0.5-0.5-0.2-1c0.3-0.3,0.6-0.5,1-0.5c0.7,0.1,1.4,0.1,2,0.3
			c0.2,0.1,0.5,0.3,0.5,0.6c-0.1,0.7-0.2,1.3-0.2,2s0.5,1.4,1.1,1.5s1.4-0.4,1.5-1.1c0.2-0.9,0.3-1.7,0.4-2.6
			c0.1-1.8-0.6-2.7-2.4-3.1c-0.5-0.1-1-0.1-1.5-0.1c-0.2-0.8,0.6-0.8,0.9-1.2c0.9-1.3,1.6-2.7,1.6-4.3c0-1.5,0-3.1,0-4.8
			c0.8-0.1,1.6-0.1,2.3-0.2c1.5-0.2,2.3-1.5,1.8-2.9c-0.5-1.6-1.5-2.9-2.6-4.1c-0.5-0.5-0.5-1-0.1-1.6s0.7-1.2,1.2-1.6
			c2-2.1,2.1-4.5,0.9-7c-0.4-0.9-0.9-1.7-1.4-2.6c-0.7-1.1-0.6-2.2,0.1-3.2c0.5-0.7,1-1.5,1.1-2.4c0.1-0.8,0.7-0.9,1.3-0.8
			c0.6,0,1.1,0.1,1.7-0.1c1.8-0.8,2.5-2.7,1.5-4.6c-0.5-0.9-1-1.6-1.1-2.6c-0.2-0.9-0.8-1.5-1.5-2.1c-0.6-0.5-1.3-0.9-1.8-1.4
			c-0.6-0.5-0.5-0.9,0-1.5c0.4-0.4,0.8-0.8,1.2-1.3c0.5-0.6,1-0.8,1.8-0.8c3.2,0.1,6.4,0.5,9.6,1.1c3.5,0.7,5.7,3.1,7.5,6
			c0.9,1.5,1.6,3.1,1.8,4.9c0.2,1.5,0.6,3.1,1.3,4.5c0.3,0.6,0.6,1.2,1.1,1.7c0.7,0.8,1.6,1,2.6,0.5c1.1-0.5,2.1-1.1,3.1-1.5
			s2,0.1,2.2,1.1c0.3,1.7,0.1,3.5-1.4,4.5c-2.3,1.5-3.1,3.6-3.2,6.1c0,0.1-0.1,0.2-0.1,0.3c-0.1,0.1-0.3,0.3-0.4,0.3
			c-4.6,0-8.7,1.9-13,3c-1.8,0.5-3.5,1.1-5.3,1.7c-0.7,0.3-0.8,0.6-0.4,1.3c1.7,3,3.9,5.5,6.8,7.5c2,1.4,4.2,2,6.5,2.4
			C181.5,295.7,183.1,295.7,185.2,295.5z M176.3,270.3c0.3-3.2-1.5-4.7-3.3-6.1c-0.6-0.4-1.3-0.4-2-0.4c-0.5,0-0.9,0.2-1.2,0.7
			c-2,3.2-1.5,6,1.4,8.1c1,0.8,2.1,1.6,3.4,1C176.2,273,176.3,271.6,176.3,270.3z M169.6,258c-1.3,0-2.4,0.6-3.3,1.6
			c-1.2,1.3-2,2.9-2.5,4.5c-0.4,1-0.2,2.3-0.1,3.4c0,0.6,0.5,1.1,1.2,1.1c0.7,0.1,1.1-0.3,1.3-0.9c0.1-0.5,0.1-1,0.3-1.4
			c0.7-2.1,1.4-4.3,4.3-4.4c0.3,0,0.8-0.3,0.9-0.6C172.4,259.9,171.3,257.9,169.6,258z"/>
		<path class="st0" d="M240.9,421.1c-2.6,1.1-5.2,2.1-7.6,3.7c-1.9,1.2-3.6,2.7-5.2,4.2c-1.4-1.1-2.7-2.2-4.1-3.3
			c-2.9-2.2-5.4-4.7-7.4-7.8c-0.4-0.6-0.7-1.2-1.2-1.6c-1.7-1.3-2.7-3-3.7-4.8c-0.3-0.6-0.7-1.2-1.1-1.7c-1-1-1.4-2.3-1.7-3.6
			c-0.8-3.7-1.1-7.5-1.1-11.3c0-1.8-0.6-3.2-1.9-4.4c-0.8-0.8-1.9-1.1-2.9-0.6s-1.7,1.3-2,2.4c-0.1,0.4,0.1,0.8,0.4,1.1
			c0.3,0.3,0.7,0.3,1,0c0.3-0.4,0.7-0.7,1.2-0.7c0.8,0,1.4,0.4,1.4,1.1c0,0.6-0.1,1.2-0.1,1.7c-0.2,3.3,0.2,6.6,0.7,9.9
			c0.2,1.3,0.7,2.4,1.2,3.6c0.4,0.7,0.5,1.5,0.3,2.3c-2.3,7.9-6.2,14.8-11.9,20.8c-0.1,0.1-0.3,0.1-0.5,0.2c-0.1,0-0.2-0.1-0.3-0.1
			c-0.1-0.1-0.1-0.2-0.1-0.3c0-1.8,0-3.7,0.2-5.5c0.3-2.3,0.4-4.6,0.4-7c0-1.9,0.2-3.9,0.3-5.8c0.1-1.1,0.2-2.1,0.2-3.2
			c0-5.4,0-10.7,0-16.1c0-2.2,0.2-4.3,0.7-6.4c0.1-0.5,0.1-1,0.4-1.4c0.6-0.8,0.7-1.8,0.8-2.7c0.3-2.7,1.1-5.1,2.5-7.4
			c0.3-0.6,0.8-1.1,1-1.8c0.8-2.2,2.6-3.3,4.4-4.4c0.6-0.4,1.2-0.6,1.9-0.4c2.2,0.4,4.4,0.7,6.2,2.3c1.4,1.2,2.9,2.3,4.3,3.5
			c0.4,0.4,0.9,0.8,1.2,1.2c1.5,2.1,2.9,4.1,4.3,6.2c0.3,0.5,0.6,1,0.8,1.5c0.7,2.4,1.9,4.5,3.1,6.6c0.8,1.4,1.6,2.9,2.2,4.5
			c0.8,2.3,2,4.4,3.3,6.5c0.9,1.6,1.7,3.3,2.4,5c1.4,3.4,3,6.8,4.4,10.2C239.9,418.3,240.4,419.7,240.9,421.1z"/>
		<path class="st0" d="M115.5,445.8c-2.5,0-5-0.3-7.6,0.2c-1.8,0.4-3.7,0.3-5.5,0.4c-0.2,0-0.6-0.1-0.7-0.3c-0.2-0.4,0-0.7,0.3-1.1
			c0.2-0.3,0.5-0.5,0.9-0.6c3.6-0.9,7-2.1,10.8-2c2.1,0.1,4.2-0.3,6.4-0.5c0.4,0,0.8-0.2,0.9-0.7c0.1-0.6-0.3-0.9-0.7-1.1
			c-0.3-0.2-0.7-0.2-1.1-0.3c-2.2-0.5-4.4-0.9-6.5-1.5c-0.7-0.2-1.5-0.5-2.2-0.8c-0.4-0.1-0.7-0.4-0.6-0.9c0.1-0.4,0.5-0.5,0.9-0.6
			c0.6-0.2,1.1,0,1.7,0c2.6,0.3,5.2,0.6,7.8,0.9c2.8,0.2,5.6,0.4,8.4,0.5c3.5,0.2,6.2-2.4,6.2-5.9c0-1.5,0.2-3.1-0.1-4.7
			c-0.2-1.1,0-2.3,0.2-3.5c0.7-6.4,1.5-12.8,2.1-19.2c0.8-9.1,1.1-18.3,0.3-27.4c-0.2-2.2-0.2-4.5-0.3-6.7c-0.1-1.1-0.2-2.1-0.3-3.2
			c-0.1-0.6-0.2-1.2-0.2-1.7c0-1.5-0.5-3.1,0.2-4.3c0.6-1.2,2.3-1.2,3.5-1.8c1.1-0.6,2.3-1,3.5-1.6c2.4-1.3,5-1.6,7.6-1.9
			c0.9-0.1,1.1,0.1,1.1,1.2c-0.1,1.8-0.2,3.7-0.7,5.5c-0.6,2.7-0.8,5.6-1.8,8.2c-0.4,1.1-0.7,2.2-1.4,3.2c-1,1.6-1.5,3.4-1.5,5.3
			c0,1.7-0.1,3.3,0,5c0.2,4.5-0.6,8.9-0.5,13.4c0,1.8,0,3.5-0.1,5.3c-0.2,5.8-0.2,11.7-0.7,17.5c-0.1,0.9-0.1,1.8,0,2.6
			c0.4,3.6,0,7.2-0.4,10.8c-0.4,3.7,0.9,6.8,3.6,9.1c3,2.6,6.3,4.9,9.5,7.2c0.6,0.5,1.3,0.9,1.5,1.7c0.1,0.4,0,0.8-0.5,0.9
			c-1,0.2-2,0.1-2.9-0.3c-2.1-1-4.4-1.4-6.5-2.5c-1.8-0.9-3.8-1.2-5.9-1c-3.8,0.3-7.2,1.7-10,4.4c-1.5,1.4-3.4,2.2-5.2,3.2
			c-1.1,0.6-2.6,0.6-3.9,0.9c-0.8,0.2-1.5,0.4-2.3,0.4c-2.3,0.2-4.3,1.1-6,2.7c-0.7,0.7-1.7,1-2.7,0.9c-0.3,0-0.5-0.2-0.7-0.4
			c-0.3-0.2-0.1-0.6,0.1-0.8c0.3-0.4,0.6-0.8,1-1.1c2.2-1.7,4.6-3.3,7.4-4c2.2-0.5,4.1-1.8,6.2-2.6c0.6-0.2,0.7-0.9,0.6-1.5
			c-0.2-0.7-0.7-0.9-1.4-0.8c-0.8,0.1-1.5,0.3-2.2,0.7c-2.8,1.7-5.9,2-9.2,2.2c-2.7,0.1-5.4,0.7-8.1,1.2c-0.6,0.1-1.1,0.4-1.7,0.2
			c-0.3-0.1-0.6-0.2-0.7-0.4c-0.3-0.4,0-0.7,0.4-0.9c3.1-1.9,6.2-3.7,9.9-4c2.1-0.2,4.2-0.8,6.4-0.7c0.5,0,1-0.3,1.1-0.8
			c0.2-0.6-0.1-1.1-0.6-1.5c-0.6-0.5-1.3-0.5-1.9-0.5C118.8,445.8,117.2,445.8,115.5,445.8z M140.1,376.5c-0.2,0-0.4,0-0.6,0
			c-0.5,0.1-0.9,0.3-1.1,0.8s-0.1,1,0.3,1.3c1.8,2,3.6,2.2,5.7,0.7c0.5-0.4,0.8-0.9,0.6-1.5c-0.2-0.5-0.5-0.8-1-0.9
			C142.6,376.7,141.3,376.6,140.1,376.5z"/>
		<path class="st0" d="M196.6,372.3c-0.7-0.3-1.1-0.9-1.5-1.4c-1-1.1-1.7-2.1-0.8-3.8c1-1.8,0.8-4,0.7-6c-0.1-1.2,0.3-2,1.2-2.7
			c2.7-2,5.4-4.2,8-6.2c1.8,1.5,2.5,2.7,3.2,4.4c0.8,2.1,1.5,4.2,3.4,5.7c0.5,0.4,1,0.7,1.6,0.6c2.2-0.2,4.4-0.4,6-2.3
			c0.6-0.7,1.4-1.4,2.2-1.9c4.7-2.6,8.7-6.3,12.7-9.8c1.6-1.4,3.2-2.8,4.8-4.2c2-1.7,4-3.4,5.3-5.8c1.2-2.1,2-4.4,2.8-6.7
			c0.4-1.2,0.4-2.5,0.1-3.8c-1.1-4.1-0.9-8.3-1.6-12.4c-0.3-2.1,0.7-3.9,1.5-5.8c1.9,1.5,2,3.6,1.7,5.4c-0.3,2,0.4,3.1,1.8,4.2
			c1.5,1.2,3.3,1.7,4.9,2.4c0.5,0.2,1.2,0.1,1.7,0.1c2.5-0.2,5-0.6,7.4-1.7c1.2-0.6,2.3-1.4,3.3-2.4c0.5-0.5,0.9-1,1.5-1.7
			c1.9,1.9,2.6,4.2,2.6,6.8c0,1.5-0.7,2.1-2.2,2.1c-1.2,0-2.3-0.2-3.5-0.2c-3.8,0.3-7,2.1-10.1,4.3c-1,0.7-1.6,1.7-1.7,2.9
			c0,0.2,0.1,0.4,0.2,0.5c0.2,0.2,0.5,0.3,0.8,0.2c0.6-0.2,1-0.6,1.3-1.1c1.2-1.6,2.9-2.5,4.7-3.3c2.8-1.2,5.7-1.9,8.8-1.8
			c2.6,0.1,3.4-0.9,3.7-3.4c0.1-0.6,0.1-1.2,0.2-1.7c0.3-1.3-0.1-2.5-1.1-3.4c-0.9-0.8-1.4-1.9-1.7-3c-0.3-1.4-1.4-2.4-1.3-3.8
			c0-0.3,0-0.6,0.4-0.7c0.2,0,0.4,0,0.5,0.1c0.6,0.3,1,0.9,1.3,1.5c1.3,3.3,2.6,6.5,3.8,9.8c0.4,1.1,0.7,2.2,1,3.4
			c0.4,2-0.1,3.9-0.8,5.7c-0.2,0.6-0.7,0.9-1.2,1.2c-2.7,2.2-5.8,3.6-9.1,4.4c-2.2,0.6-4.4,0.8-6.5,1.7c-0.9,0.4-1.8,0.8-2.5,1.4
			c-2.7,2.4-5.5,4.7-7.5,7.8c-1.6,2.4-3.8,4.2-5.4,6.5c-1.1,1.7-2.5,3.2-3.6,4.9c-1.1,1.7-2.6,3.1-3.9,4.7c-0.4,0.4-0.9,0.8-1.2,1.3
			c-1.1,2-2.8,2.4-4.8,2.6c-3.1,0.3-6.2,0.9-9.2,1.3c-0.5,0.1-1,0-1.4,0.3c-1.2,0.7-2.3,0.5-3.5-0.2c-2.5-1.4-5.3-1.8-8-2.4
			c-1.1-0.2-2.2-0.1-3.1,0.5c-1.4,0.8-2.9,1.3-4,2.8C199.5,371.3,198,371.8,196.6,372.3z"/>
		<path class="st0" d="M182.3,294.3c-1.4-0.3-2.9-0.5-4.3-0.8c-0.9-0.2-1.3-1.1-1-2.1c0.9-3,3.7-4.5,6.7-4.5c0.4,0,0.8,0.1,1.1,0.2
			c1.9,0.3,1.9,0.3,1.6,2.2c-0.1,0.5-0.2,1-0.2,1.4c-0.1,0.8,0.2,1.8-0.7,2.4C184.6,293.8,183.6,294.4,182.3,294.3z"/>
		<path class="st0" d="M141.5,283.2c0.3-2.3,0.4-4.7,1-6.9c0.5-1.9,1.9-3.2,3.8-3.7c0.9-0.3,1.8-0.8,2.8-0.2
			c0.2,0.1,0.5,0.3,0.4,0.7c0,0.2-0.1,0.4-0.3,0.5c-0.1,0.1-0.3,0.2-0.5,0.2c-3.3,1-5,3.6-6.1,6.6c-0.7,1.9-0.4,4,0.5,6
			c0.5,1,1.8,1.9,3.1,0.8c1-0.8,2-1.1,3.2-1.1c0.5,0,0.9,0.2,1.3,0.5c1.4,0.9,1.5,1.6,0.2,2.6c-0.6,0.5-1.2,1-1.9,1.3
			c-0.7,0.3-1.5,0.5-2.1-0.3c-0.4-0.6-1-0.9-1.6-1.1s-1.2-0.6-1.8-1c-1.3-0.9-2.1-2-2-3.6C141.5,284.1,141.5,283.7,141.5,283.2
			C141.7,283.2,141.6,283.2,141.5,283.2z"/>
		<path class="st0" d="M278.2,326.3c-0.1-1.2-0.1-2.5-0.5-3.6c-0.7-1.7-0.1-2.9,0.7-4.3c0.4-0.7,0.7-1.4,1.2-2
			c1.3-1.6,1.1-3.1,0.2-4.8c-0.6-1.1-1.1-2.3-1.7-3.4s-0.6-2.2-0.1-3.4c0.1-0.3,0.2-0.6,0.6-0.5c0.2,0,0.4,0.2,0.4,0.3
			c0.5,3,2.2,5.6,3.1,8.4c0.3,0.9,0.3,1.6,0.1,2.5C281.5,319.3,280.3,322.8,278.2,326.3z"/>
		<path class="st0" d="M121.7,265.3c-0.6-0.3-0.8-0.8-0.9-1.4c-0.2-2,0.4-3.8,1-5.7c0.3-1,0.9-1.9,0.8-3.1c-0.1-0.5,0.3-1,0.7-1.2
			c3-1.5,6-3.2,9.6-2.3c0.3,1-0.5,1.6-0.8,2.6c-2.5-0.7-4.5,0.3-6.2,2c-2.2,2.3-3.9,4.8-4.1,8.1C121.9,264.7,121.7,265,121.7,265.3z
			"/>
		<path class="st0" d="M127.2,259.1c0.5,0.7-0.1,1.5,0,2.2c0.1,1.1,0,2.1,0.5,3.1c0.3,0.6,0.6,1.3,1.4,1.4c1.6,0.4,2.6,1.6,3.8,2.5
			c0.5,0.4,1,1,1.3,1.6c0.7,1.2,0.5,1.9-0.7,2.7c-0.6,0.4-1.2,0.7-1.8,1c-0.2,0.1-0.4,0-0.7,0c0-0.7,0-1.5-0.1-2.2
			c-0.2-1.6-0.9-2.7-2.4-3.4c-0.9-0.4-1.8-0.8-2.6-1.3c-1.1-0.6-1.5-1.5-1.3-2.7C124.9,262.2,125.5,260.4,127.2,259.1L127.2,259.1z"
			/>
		<path class="st0" d="M123.3,277.3c0-2.6,0-2.7-1.5-5.1c-0.5-0.8-1-1.6-1.6-2.4c-0.5-0.6-0.7-1.4-0.9-2.1c0-0.2,0.2-0.5,0.4-0.7
			c0.1-0.1,0.4,0,0.5,0.1c0.3,0.2,0.5,0.6,0.8,0.8c0.4,0.3,0.8,0.7,1.3,0.7c1.9,0.1,3.2,1.4,4.8,1.9c0.8,0.3,1.2,0.9,1.3,1.8
			c0,0.8-0.3,1.4-1,1.6c-0.4,0.1-0.8,0.1-1.1,0.2c-1.6,0.3-2.6,1.1-2.6,2.9C123.6,277,123.4,277.1,123.3,277.3z"/>
		<path class="st0" d="M122.1,303.4c0.1-0.8,0.7-1.1,1.1-1.7c0.4-0.5,0.9-1,1-1.7c0.1-0.5-0.1-1.3,0.7-1.4c0.7-0.1,1.4-0.8,2.2-0.2
			c0.2,0.2,0.5,0.2,0.8,0.2c0.6,0,1.2-0.6,1.1-1.1c-0.1-0.6-0.2-1.1-0.4-1.7c-0.2-0.9-0.3-1.7-0.1-2.6c0.2-0.9,0.6-1.6,1.7-1.8
			c-0.2,1.2-0.5,2.4-0.7,3.6c-0.2,1,0,1.9,0.4,2.8c0.3,0.7,0.8,1.1,1.6,0.9c0.4-0.1,0.5,0.2,0.5,0.3c-0.5,0.5-1.1,1.3-1.8,1.2
			c-0.8-0.1-1.6,0.6-2.4-0.4c-0.9-1-2-0.6-2.3,0.6c-0.2,0.7-0.2,1.3,0,2c0.1,0.4,0.9,0.7,0.3,1.2c-0.3,0.3-0.9,0.3-1.4,0.4
			C123.7,304.2,122.8,303.9,122.1,303.4z"/>
		<path class="st0" d="M143.7,299c-0.6-0.7-1-1.1-1.4-1.5c-0.3-0.3-0.5-0.6-0.2-1c0.7-1.2,0.4-2.6,0.5-4.1c1.9,0.4,3.6,1,5.4,1.1
			c0.1,1.1-1,1.7-0.9,2.7c0,0.2-0.3,0.5-0.6,0.6C145.4,297.1,144.6,297.9,143.7,299z"/>
		<path class="st0" d="M142.7,270.9c-1.1,1.4-1.8,2.5-2.7,3.6c-0.1,0.2-0.6,0.3-0.8,0.2c-0.2-0.1-0.4-0.4-0.4-0.7
			c-0.2-0.7-0.2-1.3,0.6-1.8c0.9-0.6,0.7-1.5,0.2-2.3c-0.4-0.6-0.9-1.2-1.3-1.9c-0.5-0.8-1-1.7-1.3-2.6c-0.4-0.9-0.4-1.9,0.2-2.8
			c0.1-0.1,0.2-0.2,0.2-0.2c0.2,0,0.3,0.1,0.5,0.2c0.1,0.1,0.1,0.2,0.1,0.3c0.2,2.5,1.4,4.6,2.6,6.7
			C141,270.5,141.5,270.9,142.7,270.9z"/>
		<path class="st0" d="M141.6,256.6c-1.4,0.4-2.5,0.9-3.2,2.2c-0.3,0.6-0.7,0.9-1.3,1c-2.2,0.5-3,2-3,4.1c0,0.6,0,1.1,0,1.7
			c-0.3,0-0.5,0-0.7-0.1c-2-1.2-2.2-2.2-1-4c1.2-1.7,2.5-3.2,4.7-3.8c1.1-0.3,2.2-0.8,3-1.7C140.6,255.5,141,256.1,141.6,256.6z"/>
		<path class="st0" d="M125.7,293.2c-0.6-1.5-0.6-2.9,1-3.8c0.4-0.2,0.5-0.8,0.3-1.3s-0.6-0.8-1.1-0.8c-0.6-0.1-1.1,0-1.6,0.4
			c-0.4,0.3-0.5,1.1-1.3,1c0.1-2,1.6-3.2,2.9-4.4c0.1-0.1,0.6,0,0.8,0.2c0.5,0.4,1,0.9,1.5,1.4c1.3,1.6,1.3,2.5-0.3,3.9
			C126.7,290.7,126.2,291.9,125.7,293.2z"/>
		<path class="st0" d="M155,263.8c-0.6,0.2-1-0.6-1.6-0.6s-1.2-0.1-1.7,0c-0.5,0-0.9,0-1.4-0.4c-0.7-0.6-1.5-0.8-2.4-1.1
			c-1.6-0.6-1.8-1.1-1.3-2.6c0.1-0.2,0.2-0.3,0.3-0.5c0.4-0.9,1.4-1.1,1.8-0.3c1,1.8,2.6,2.8,4.5,3.4
			C154.2,262,154.3,262.2,155,263.8z"/>
		<path class="st0" d="M186.4,252.1c0.4-3.9,0.4-4.1-1.4-6.7c0.3-0.1,0.6-0.2,0.8-0.2c1.6,0.6,3.2,0.8,4.6-0.6
			c0.1-0.1,0.4,0,0.5,0.2c0.1,0.1,0.2,0.4,0.1,0.5c-0.2,0.3-0.5,0.6-0.8,0.9c-1.1,0.9-1.8,2.1-1.8,3.5
			C188.6,251.3,187.6,251.6,186.4,252.1z"/>
		<path class="st0" d="M115.7,303.3c-1.2,0-1.6-0.9-1.1-1.8c0.4-0.7,1-1.1,1.7-1.5c1.5-0.6,3-1.3,4.5-1.9c0.3-0.1,0.6,0,0.7,0.2
			s0.3,0.6,0.2,0.8c-0.8,1.2-1.7,2.3-2.6,3.4C117.9,302.4,116.8,303.5,115.7,303.3z"/>
		<path class="st0" d="M131.6,282c-1.2-3.2-0.7-4.7,2-6.3c0.4-0.3,0.8-0.5,1.3-0.7c0.3-0.2,0.6-0.7,1-0.3c0.4,0.3,0.5,0.8,0.2,1.3
			s-0.6,1-0.9,1.5c-0.6,0.8-1.3,1.4-1.9,2.2C132.7,280.4,132.2,281.2,131.6,282z"/>
		<path class="st0" d="M151.7,253.4c0.9-0.1,1.9-0.3,2.5,0.8c0.4,0.8,1.3,1.1,1.9,1.7c0.1,0.8-0.7,1.1-1.1,1.5
			c-0.5,0.5-0.3,2-1.7,1.5c-1.8-0.7-2.6-2-2.2-3.6c0.1-0.5,0.4-0.9,0.6-1.3C152,253.8,151.9,253.6,151.7,253.4L151.7,253.4z"/>
		<path class="st0" d="M165.9,238c-0.2,1.4-0.6,2.6-2,3.3c-1.1,0.6-2,1.5-3,2.3c-0.4,0.3-0.7,0.9-1.4,0.9
			C160.2,240.6,161.7,239,165.9,238z"/>
		<path class="st0" d="M171.1,243c-1.5,0.6-3,1.3-4.4,1.9c-1.3,0.6-2.7,1.1-3.6,2.2c-0.2,0.2-0.5,0.2-0.8,0.2
			c-0.2,0-0.4-0.1-0.5-0.2c0,0,0-0.2,0-0.3c1.8-2.5,4-4.4,7.2-4.6C169.7,242.3,170.5,242.3,171.1,243z"/>
		<path class="st0" d="M153.5,245c-0.6,0.9-1.1,1.6-1.8,2c-0.4-0.1-0.4-0.3-0.5-0.6c-0.4-2-1-2.5-2.8-2.5c-1.3,0-2.5,0.5-3.6,1.1
			c-0.9,0.5-1.8,1-2.6,1.9c-0.5-0.6,0-0.9,0.3-1.3c0.6-1,1.6-1.3,2.6-1.8c1.8-0.9,3.6-0.3,5.5-0.4
			C151.6,243.4,152.5,244.2,153.5,245z"/>
		<path class="st0" d="M121.8,281.3c-2-0.6-2.9-2-3.2-3.8c-0.3-1.6-0.9-3.2-0.7-4.9c0-0.1,0.2-0.3,0.3-0.4c0.2,0,0.4,0,0.5,0.2
			c0.4,0.5,1,1.1,0.8,1.8c-0.4,2.1,0.9,3.5,1.7,5.1C121.5,279.8,122.2,280.2,121.8,281.3z"/>
		<path class="st0" d="M145.8,253.5c-0.3-0.4-0.6-0.8-0.9-1.1c-0.8-0.5-1.1-1.1-1.1-1.9c0-1,0.3-1.9,1.2-2.5c0.8-0.6,1.6-1,2.6-1.3
			c0.5-0.2,1.2,0,1.2,0.4c0.1,0.5-0.4,0.6-0.6,0.8c-1.7,1-2.3,2.5-2.1,4.4C146,252.7,146.1,253.2,145.8,253.5
			C145.7,253.6,145.8,253.5,145.8,253.5z"/>
		<path class="st0" d="M141.1,248.7c0,1.3,0,2.2,0,3.1c-0.4,0.4-1,0.3-1.4,0.3c-1.3,0-2,0.5-2,1.9c0,1.1-1,1-1.7,1.2
			c-0.3,0.1-0.8,0.3-1-0.1s0.1-0.7,0.3-1.1c0.2-0.5,0.6-0.7,1-1c0.3-0.2,0.8-0.5,0.8-0.7c0.1-0.9,0.8-1.2,1.5-1.6
			C139.5,250.3,140.2,249.7,141.1,248.7z"/>
		<path class="st0" d="M140.6,261.7c-0.1-1.6,0.2-2.6,2.7-2.6c0.5,0,0.7,0.3,0.6,0.7c-0.1,0.4-0.2,0.7-0.4,1.1
			c-0.7,1.4-1.2,2.8-1.3,4.4c0,0.2,0,0.6-0.5,0.5c-0.3-0.1-0.4-0.3-0.5-0.6C140.8,264.1,140.5,262.9,140.6,261.7z"/>
		<path class="st0" d="M138.2,278.1c0.5,1.1,0,1.8,0,2.6c0,0.6-0.4,0.7-0.9,0.8c-1.2,0.2-1.3,0.4-1.4,1.5s-0.2,2.1-0.3,3.2
			c0,0.4-0.1,0.8-0.6,1c-1.3-1.4-1-3.1-0.5-4.6C135.2,280.8,136.8,279.6,138.2,278.1z"/>
		<path class="st0" d="M141.3,303.1c-1.2,0.1-1.9-0.2-2.6-0.6c-0.8-0.4-1.1-1.3-0.9-2.2c0.2-1,1-1,1.7-1.3c0.3-0.1,0.6,0,0.7,0.3
			c0.5,0.7,1.1,1.4,2,1.6c0.6,0.1,0.7,0.6,0.7,1.1c0,0.6-0.4,0.9-0.9,1C141.7,303.1,141.3,303.1,141.3,303.1z"/>
		<path class="st0" d="M284.2,312c-0.7-0.7-1.1-1.4-0.4-2.3c1.1-1.6,1.8-3.4,3.3-4.7c0.2-0.2,0.5-0.3,0.7-0.1
			c0.1,0.1,0.1,0.4,0.1,0.5c0,0.3-0.1,0.6-0.2,0.8C286.6,308.2,285.6,310.2,284.2,312z"/>
		<path class="st0" d="M128.9,276.2c-0.2,1.1-0.4,2-0.5,3c-0.1,0.9,0,1.9,0,3c-0.9-0.6-1.5-1.2-1.9-2c-0.5-1-0.5-2.2,0-3.1
			C126.8,276.3,127.9,276.3,128.9,276.2z"/>
		<path class="st0" d="M149.8,282c0-0.9,0.2-1.5,1-1.7c0.6-0.1,1.1-0.3,1.5-0.8c0.2-0.2,0.2-0.5,0.3-0.8c0.1,0.1,0.2,0.1,0.2,0.2
			c0.1,0.2,0.4,0.5,0.4,0.8c0,1.4-0.7,2.5-1.2,3.7c-0.2,0.5-1.7,0.1-1.9-0.5C149.9,282.6,149.9,282.2,149.8,282z"/>
		<path class="st0" d="M132.7,297.3c-0.8-2.7,0.1-4.8,1.2-7c0.2,0.7,0.3,1.3,0.5,1.8c0.3,0.7,0.6,1.4,0.8,2.2c0.1,0.2,0,0.4-0.1,0.6
			c0,0.1-0.1,0.2-0.1,0.2C134.3,295.7,133.6,296.4,132.7,297.3z"/>
		<path class="st0" d="M137.7,296.5c0.3-1.7,0.3-3.3-0.5-4.8c-0.1-0.2,0-0.6,0.1-0.8c0.2-0.1,0.5,0,0.8,0c1.4,0.5,1.8,1.6,1.9,2.9
			C140,295.3,139.5,295.9,137.7,296.5z"/>
		<path class="st0" d="M274.2,314.9c-0.2-1.5-0.3-2.2-0.5-3c-0.1-0.5,0-0.7,0.2-1c0.7-1,1.4-2,2.2-3.2
			C277,310.5,275.4,312.3,274.2,314.9z"/>
		<path class="st0" d="M168.7,239.7c-0.1-0.6,0.2-0.9,0.7-1.1c1-0.3,2.1,0.1,3.1-0.3c0.4-0.2,0.7,0.2,0.9,0.6
			c0.4,0.7,0.7,1.5,0.9,2.6c-0.7-0.1-1.2-0.7-1.7-0.9c-0.6-0.3-1.3-0.5-1.9-0.6C170,239.8,169.4,239.7,168.7,239.7z"/>
		<path class="st0" d="M153.6,273.8c0-0.5,0-0.8,0.1-1s0.3-0.4,0.6-0.6c0.1-0.1,0.4,0.1,0.5,0.2c1.1,1.4,1.8,2.9,1.6,4.8
			c0,0.2-0.2,0.4-0.3,0.4c-0.1,0.1-0.4,0.1-0.5,0c-0.6-0.8-1.3-1.7-1.9-2.6C153.5,274.6,153.6,274.1,153.6,273.8z"/>
		<path class="st0" d="M141.6,306.6c0,0.5,0,0.9,0,1.3s0,0.9-0.6,0.7c-0.7-0.3-1.3-0.2-2-0.3c-0.7,0-1.3-0.5-1.8-0.9
			c-0.3-0.3-0.7-0.8-0.4-1.3c0.2-0.3,0.7-0.4,1.1-0.2C139.1,306.3,140.3,306.5,141.6,306.6z"/>
		<path class="st0" d="M277.8,312.4c0.3,0.8,0.4,1.2,0.6,1.5c0.4,0.9,0.3,1.7-0.4,2.4c-0.5,0.6-1,1.2-1.5,1.8
			c-0.1,0.1-0.4,0.1-0.5,0.1c-0.1-0.1-0.3-0.3-0.3-0.4c0-0.5,0-1,0.1-1.4C276.4,315.2,277,314,277.8,312.4z"/>
		<path class="st0" d="M178.5,251.1c0.1-0.7,0.1-1,0.1-1.2c0.1-0.4,0.5-0.5,0.9-0.5c0.8,0.1,1.4,0.5,1.8,1.3
			c0.2,0.6,0.4,1.3,0.6,1.9c0.1,0.4-0.3,0.7-0.7,0.6c-0.5-0.2-1-0.5-1.6-0.7C178.7,252.2,178.5,251.6,178.5,251.1z"/>
		<path class="st0" d="M151.8,253.3c-0.5,0-0.9,0.1-1.4,0.1c-1-0.1-1.6-0.6-1.8-1.6c-0.2-0.9,0.4-1.5,1.3-1.4c0.3,0,0.6,0.1,0.9,0.1
			c1.2,0.2,1.4,0.6,1.1,1.8C151.8,252.7,151.5,253,151.8,253.3C151.7,253.4,151.8,253.3,151.8,253.3z"/>
		<path class="st0" d="M167.6,247.8c1.2-1.3,2.4-1.7,4-1c0.5,0.2,0.7,0.6,0.8,1.1c0.1,0.4-0.1,0.9-0.4,0.8
			C170.6,248.4,169.2,248.1,167.6,247.8z"/>
		<path class="st0" d="M184.9,259.6c-0.7,0.4-1.3,0.8-1.9,1.1c-0.3,0.1-0.6,0-0.7-0.3c-0.6-1.3-0.4-2,0.7-3
			C183.7,258,184.5,258.5,184.9,259.6z"/>
		<path class="st0" d="M158.9,262c-0.3,0-0.6,0-0.9-0.1c-0.6-0.1-0.8-0.4-1-0.9c-0.1-0.6-0.2-1.2,0.1-1.7c0.1-0.2,0.4-0.5,0.6-0.6
			c0.4-0.1,0.3,0.3,0.3,0.5c-0.1,1.1,0.3,1.6,1.5,1.6c0.3,0,0.8-0.1,0.8,0.5c-0.1,0.4-0.5,0.6-0.9,0.6
			C159.2,262.1,159,262.1,158.9,262C158.9,262.1,158.9,262,158.9,262z"/>
		<path class="st0" d="M123.1,295.3c-1.4-0.5-2.3-1.2-2.3-2.6c0-0.9,0.8-1.3,1.5-1.6C122.6,292.3,122.8,293.6,123.1,295.3z"/>
		<path class="st0" d="M117.6,285.1c-0.1,1.4,0.9,2.2,1.5,3.3c0.2,0.3,0.1,0.5-0.1,0.7c-0.1,0.1-0.4,0.2-0.5,0.1
			c-0.6-0.2-1.2-0.5-1.9-0.8c0.6-1.2,0.9-2.2,0.9-3.4l0.1,0.3V285.1z"/>
		<path class="st0" d="M179.8,244.9c-0.1,0-0.2,0-0.3,0c-1.9,0.7-3.3-0.3-4.7-1.5c-0.2-0.2-0.3-0.6-0.2-0.8c0.2-0.6,0.5-0.2,0.8,0
			c1.2,0.9,2.5,1.4,4,1.4C179.1,244.5,179.1,244.6,179.8,244.9z"/>
		<path class="st0" d="M149.2,296.4c0.8-0.2,1.5-0.3,2.2-0.5c0.4-0.1,0.8-0.1,0.8,0.5c0,0.4-0.1,0.8-0.5,1
			C150.7,297.9,150.2,297.7,149.2,296.4z"/>
		<path class="st0" d="M146.4,300.7c-0.5,0-0.9-0.1-1.1-0.4c-0.2-0.5,0-0.9,0.3-1.3c0.1-0.1,0.2-0.1,0.2-0.2
			c0.8-0.6,1.3-0.7,1.8-0.2c0.2,0.2,0.3,0.5,0.2,0.7C147.7,300.3,147.1,300.7,146.4,300.7z"/>
		<path class="st0" d="M117.4,284.3c-0.3-0.4-0.6-0.7-1-1.1c-1-1-1.3-2.1-0.7-3.5c1.7,1.1,1.7,2.9,1.9,4.6
			C117.6,284,117.5,284,117.4,284.3z"/>
		<path class="st0" d="M148.3,264.7c-0.3,0.5-0.4,0.8-0.5,1c-0.2,0.2-0.3,0.5-0.7,0.4c-0.2-0.1-0.4-0.1-0.5-0.2
			c-1.1-0.8-1.7-1.6-1.3-1.9c0.8-0.5,1.4,0.2,2.1,0.3C147.7,264.4,147.9,264.6,148.3,264.7z"/>
		<path class="st0" d="M113.3,290.7c-0.7,1-1.4,2-2.1,3c-0.1,0.1-0.4,0.1-0.5,0.1c-0.2,0-0.4-0.2-0.4-0.4c-0.1-0.3-0.1-0.6,0-0.8
			c0.4-1.4,1.4-2,3.2-2.1h-0.2V290.7z"/>
		<path class="st0" d="M135,302.8c-0.2,0.8-0.7,1.2-1.4,1.3c-0.4,0.1-0.8,0.1-1-0.3c-0.3-0.4-0.2-1.2,0.1-1.6c0.3-0.3,0.7-0.3,1-0.1
			c0.2,0.1,0.3,0.2,0.5,0.3C134.5,302.5,134.7,302.7,135,302.8z"/>
		<path class="st0" d="M152.2,292.1c0,0.4,0.1,0.7,0.1,1.1c-0.1,1.2-1,1.6-2,0.9c-0.2-0.2-0.7-0.6-0.1-0.9
			C150.9,292.9,151.2,292,152.2,292.1z"/>
		<path class="st0" d="M147.1,277.9c1-1.2,2.3-1.5,3.8-1.6c-0.7,1-1,1.1-4,2l0.2-0.1V277.9z"/>
		<path class="st0" d="M138.7,285.5c0.4,1,0.8,1.9,1.2,3c-1.8-0.3-1.8-0.3-1.7-1.4C138.3,286.6,138.2,286,138.7,285.5z"/>
		<path class="st0" d="M145.1,283.1c-0.1-0.5,0-0.9,0.4-1s1-0.2,1.4,0c0.5,0.2,0.4,0.8,0.2,1.3c-0.2,0.6-0.9,0.8-1.4,0.8
			C145,284.1,145.2,283.4,145.1,283.1z"/>
		<path class="st0" d="M183.7,250.2c-0.8-0.3-0.8-1.3-1.5-1.7c-0.3-0.2-1.2-0.3-0.5-0.9c0.4-0.3,1-0.2,1.4,0.1
			C184.1,248.3,184.1,249.2,183.7,250.2z"/>
		<path class="st0" d="M112,259.3c-0.1,0.8-0.7,1.3-1.3,1.8c-0.1,0.1-0.4,0.2-0.5,0.2c-0.3-0.1-0.3-0.4-0.2-0.7
			c0.2-0.7,0.4-1.3,1-1.7c0.2-0.2,0.5-0.3,0.7-0.1C111.9,258.9,111.9,259.1,112,259.3z"/>
		<path class="st0" d="M153.3,266.8c0,0.3-0.1,0.5-0.4,0.6c-0.8,0.2-1.4,0.1-1.7-0.5c-0.3-0.6,0.3-0.8,0.7-1
			C152.5,265.6,153.2,266.1,153.3,266.8z"/>
		<path class="st0" d="M126,306.8c0,0.7-0.4,1-0.9,1.3s-1.4-0.2-1.4-0.8c0-0.3,0.1-0.6,0.5-0.6C124.8,306.7,125.4,306.5,126,306.8z"
			/>
		<path class="st0" d="M121.2,284c0.1,0.1,0.4,0.2,0.4,0.3c0.1,0.6-0.2,1-0.6,1.5l-0.2-0.1C120.4,285.3,120.6,284.3,121.2,284z"/>
		<path class="st2" d="M179.8,244.9c-0.7-0.3-0.7-0.4-0.4-0.7c0.8-0.3,1.5-0.1,2.6,0C181.2,244.9,180.6,245,179.8,244.9z"/>
		<path class="st0" d="M155.1,286.6c0.2,0.1,0.3,0.2,0.4,0.4c0.2,0.3,0.6,0.5,0.3,0.9c-0.1,0.1-0.4,0.1-0.5,0.1
			c-0.6-0.1-0.7-0.6-0.6-1.1C154.8,286.6,154.9,286.5,155.1,286.6z"/>
		<path class="st0" d="M156.2,250.2c-0.2,0.4-0.9,0.7-1.1,0.4c-0.1-0.1-0.1-0.4-0.1-0.5c0.2-0.4,0.5-0.4,0.9-0.4
			C156.2,249.9,156.3,250,156.2,250.2z"/>
		<path class="st0" d="M175.8,249.1c0,0.2,0,0.4,0,0.5c-0.1,0.3-0.4,0.3-0.6,0.2c-0.1-0.1-0.3-0.3-0.3-0.4c0.1-0.4,0.2-0.7,0.4-1
			c0-0.1,0.1-0.1,0.2-0.2c0.2-0.1,0.3,0,0.3,0.3C175.7,248.7,175.8,248.9,175.8,249.1z"/>
		<path class="st2" d="M117.4,284.3c0.1-0.3,0.1-0.3,0.2,0c0,0.2,0,0.5,0,0.7l-0.1,0.3l-0.1-0.3c-0.1-0.2-0.1-0.3-0.2-0.5
			C117.3,284.5,117.4,284.4,117.4,284.3z"/>
		<path class="st0" d="M145,268.2c-0.1,0.1-0.2,0.2-0.3,0.3c-0.3,0.1-0.5,0-0.6-0.3c0-0.1,0.1-0.2,0.2-0.2
			C144.6,267.8,144.7,268,145,268.2z"/>
		<path class="st0" d="M108.2,448.3c0.5-0.1,1.1-0.2,1.6-0.2c0.1,0,0.2,0.2,0.3,0.3c0,0-0.1,0.2-0.2,0.2c-0.4,0.1-0.9,0.2-1.3,0.3
			C108.5,448.7,108.4,448.5,108.2,448.3z"/>
		<path class="st2" d="M138.9,276.7c0.1-0.1,0.1-0.2,0.2-0.4C139,276.5,138.9,276.6,138.9,276.7L138.9,276.7z"/>
		<path class="st2" d="M147.1,277.9l0.1,0.2l-0.2,0.1C147,278.1,146.8,277.9,147.1,277.9z"/>
		<path class="st2" d="M138.9,276.7c0,0.2-0.1,0.4-0.1,0.5s-0.1,0.2-0.1,0.4c0-0.1-0.1-0.1-0.1-0.2s0-0.2,0.1-0.3
			C138.7,277,138.8,276.9,138.9,276.7L138.9,276.7z"/>
		<path class="st0" d="M238.6,365.9c-0.2,0-0.3-0.1-0.5-0.1C238.3,365.8,238.5,365.8,238.6,365.9
			C238.7,365.8,238.6,365.9,238.6,365.9z"/>
		<path class="st0" d="M145.7,253.6c0.4-0.4,0.7-0.1,0.6,0.3c-0.2,0.4-0.2-0.1-0.3-0.2C145.9,253.6,145.8,253.5,145.7,253.6
			C145.8,253.5,145.7,253.6,145.7,253.6z"/>
		<path class="st2" d="M113.3,290.7l-0.1-0.2h0.2C113.4,290.5,113.4,290.7,113.3,290.7L113.3,290.7z"/>
		<path class="st0" d="M184.7,265.7c-0.2,0.2-0.5,0.2-0.7,0c-0.3-0.3-0.1-0.7,0.2-0.9C184.3,265.1,184.5,265.4,184.7,265.7z"/>
		<path class="st0" d="M127.2,259.2c0.1-0.1,0.2-0.3,0.3-0.4c0,0.1,0.1,0.3,0.1,0.4C127.5,259.3,127.3,259.3,127.2,259.2
			C127.2,259.1,127.2,259.2,127.2,259.2z"/>
		<path class="st0" d="M203.6,88.1c1.1-1.1,2.5-1.7,4-2.1c3.6-0.8,7.3-1.3,10.9-1.8c7.3-0.8,14.6-0.8,21.9-0.4
			c4.9,0.2,9.7,0.6,14.6,1c0.7,0,1.4,0.1,2,0.1c3.7-0.3,7.1,0.8,10.7,1.3c0.8,0.1,1.4,0.6,1.7,1.4c1.9,4.8,0.9,6.1-2.6,8.3
			c-2.4,1.4-5,2-7.7,2.4c-6.8,1-13.6,0.9-20.4,0.7c-5.4-0.2-10.6-0.9-15.8-2.3c-4.1-1.2-8.3-2.3-12.2-4.1c-1.9-0.9-3.8-1.9-5.7-3
			C204.4,89.3,203.8,88.9,203.6,88.1z"/>
		<path class="st0" d="M325.9,196.2c-3.9,0.2-7.3-1.1-10-3.8c-2-2-3.7-4.2-5.3-6.5c-1.1-1.5-1.8-3.2-1.5-5.2c0.3-1.9,1.6-3,3.4-2.8
			c1.1,0.1,2.4,0.3,3.4,0.9c1.5,0.8,3.1,1.6,4.3,2.9c2.7,2.9,9.6,3.7,13.4,1.3c1.4-0.9,2.8-1.7,4.4-2.2c2-0.7,4-0.3,6,0
			c0.4,0.1,0.7,0.3,0.8,0.7c0.4,1.1,0.6,2.2,0.1,3.4c-1.3,2.5-2.9,4.6-5.3,6.1c-2.8,1.7-5.9,3-8.8,4.5
			C329.1,196.2,327.6,196.3,325.9,196.2z"/>
		<path class="st0" d="M231.8,175.2c0,0.6-0.2,0.9-0.5,1.1c-0.7,0.6-1.5,1.3-2.2,1.9c-4.4,3.2-8.8,6.4-13.3,9.6
			c-1.3,0.9-2.9,1.6-4.4,2.3c-2,0.9-4,0.6-6,0.1c-0.8-0.2-1.3-0.8-1.7-1.5c-0.4-0.9-0.8-1.8-0.9-2.7c-0.4-2.8-0.3-5.6,1-8.3
			c0.9-1.8,2.6-2.8,4.3-3.8c4.9-2.9,10.2-3,15.5-1.6c1.5,0.4,3,0.9,4.4,1.4C229.3,174.1,230.6,174.6,231.8,175.2z"/>
		<path class="st0" d="M350.1,160.2c-3.5,0.1-6.5,1.6-9,4.4c-0.2,0.2-0.3,0.5-0.5,0.7c-1.2,1.4-2.7,1.4-3.8-0.1
			c-0.5-0.7-0.4-1.5-0.1-2.2c0.3-0.6,0.7-1.2,1.2-1.6c1.7-1.5,3.4-2.8,5.3-4c1.7-1,3.5-1.6,5.4-2c2.3-0.5,4,0.3,5.4,2
			c0.5,0.6,0.6,1.2,0.2,1.9c-0.7,1.1-1.1,1.4-2,1.3c-0.5-0.1-0.9-0.2-1.4-0.3C350.6,160.2,350.5,160.2,350.1,160.2z"/>
		<path class="st0" d="M312.5,150.9c3.7,0.5,6.9,1.9,9.3,4.8c0.9,1.1,1.7,2.3,2.5,3.6c0.9,1.4,0.9,2.9,0.3,4.5
			c-0.2,0.5-0.6,1-1.1,1.3c-0.5,0.2-1.4,0-1.4-0.6c-0.3-3.4-2.9-5.2-5.3-6.9c-2.1-1.5-4.5-2.6-7.3-2.5c-1.1,0-1.5-0.8-0.9-1.8
			C309.4,151.9,310.4,150.6,312.5,150.9z"/>
		<path class="st0" d="M384.8,186.8c1.6-0.1,2.6,0.1,3.7,0.3c8.1,2.1,11.2,9.5,11.2,15.2c0,2.4-1.9,4.5-3.9,5.3
			c-0.5,0.2-1,0.2-1.4-0.2c-1.3-1.1-2.7-2.3-3.6-3.8c-0.9-1.4-1.9-2.7-3.5-3.3c-0.3-0.1-0.5-0.3-0.7-0.5c-1.4-1.8-3.2-1.6-5.1-1.2
			c-1.8,0.4-3.6,1-5.1,2c-0.6,0.4-1.3,0.8-2,1.2c-0.4,0.3-0.8,0.5-1.3,0.7c-1.8,0.6-3.7,0.7-4.9-0.6c-1.2-1.2-1.1-3.2-0.2-4.7
			c2.4-4,5.3-7.5,10-8.9C380.3,187.6,382.6,186.5,384.8,186.8z"/>
		<path class="st0" d="M400.3,169.2c2-0.3,3.8,0.6,5.4,2c2.1,1.8,4.1,3.8,5.5,6.3c1.6,2.9,1.4,4.9-0.8,7.4c-0.6,0.7-1.4,1-2.3,1
			c-1.3,0.1-2.5-1.2-2.1-2.4c0.6-1.7,0.7-3.4,0.1-5.1c-0.3-0.9-0.8-1.8-1.5-2.4c-1.9-1.6-3.8-3.1-6.3-3.4c-0.3,0-0.6,0-0.9-0.2
			c-0.5-0.2-0.8-0.7-0.6-1.2c0.5-1.5,0.9-2.2,2.4-2C399.5,169.2,399.8,169.2,400.3,169.2z"/>
		<path class="st1" d="M280.2,470.2c-0.6,0-1.2-0.1-1.7-0.1c-0.7-0.1-1.3-0.7-1-1.1c0.3-0.5,0.9-0.3,1.3-0.2
			c2.1,0.4,3.7-0.3,5.3-1.7c2.2-2,4.5-3.9,6.9-5.8c1.3-1,2.3-2.4,3.5-3.4c1-0.9,1.6-1.6,0.8-2.9c-0.1-0.1,0.1-0.4,0.2-0.5
			s0.4-0.1,0.5-0.1c1.1,0.5,1.5,1.3,1.2,2.3c-0.3,0.9-0.9,1.5-1.5,2.1c-1.5,1.5-2.9,3.1-4.4,4.6c-0.6,0.6-1.2,1.2-1.9,1.8
			c-1.3,1.1-2.7,2.2-4.1,3.3C283.8,469.6,282.2,470.5,280.2,470.2z"/>
		<path class="st1" d="M251,435.4c-0.1,0.4-0.4,0.6-0.7,0.5c-0.6-0.1-1.1-0.4-1.5-0.8c-2.9-3.1-5.6-6.4-7.5-10.2
			c-0.2-0.3-0.3-0.7-0.3-1.1c0-0.3,0.1-0.6,0.5-0.6c0.2,0,0.4,0,0.5,0.1c0.3,0.4,0.5,0.8,0.7,1.3c2.1,3.9,4.7,7.3,7.9,10.2
			C250.8,435,250.9,435.2,251,435.4z"/>
		<path class="st1" d="M240,441.6c-0.1,0.2-0.2,0.4-0.3,0.5c-0.1,0.1-0.4,0-0.5-0.1c-0.6-0.8-1.2-1.5-1.7-2.3
			c-1.7-2.7-3.5-5.3-5.5-7.8c-0.4-0.5-0.6-1-0.9-1.5c-0.2-0.3-0.3-0.8,0.1-1c0.4-0.3,0.7-0.1,1,0.2c0.1,0.1,0.1,0.1,0.2,0.2
			c2.2,3.3,4.5,6.5,6.7,9.8C239.5,440.2,240,440.8,240,441.6z"/>
		<path class="st1" d="M245.7,436.2c0,0.2-0.4,0.6-0.6,0.5c-0.6-0.1-1-0.6-1.3-1c-1.2-1.8-2.5-3.7-3.7-5.6c-0.7-1.1-1.5-2.3-2.2-3.4
			c-0.2-0.3-0.3-0.7-0.3-1.1c0-0.1,0.1-0.4,0.3-0.5c0.1-0.1,0.4-0.1,0.5,0c0.2,0.1,0.3,0.2,0.4,0.4c2.2,3.4,4.3,6.9,6.7,10.1
			C245.6,435.8,245.6,436,245.7,436.2z"/>
		<path class="st1" d="M235.1,426.9c0.3-0.1,0.6,0.1,0.8,0.3c0.6,1,1.1,2.1,1.7,3c1.1,1.8,2.3,3.6,3.5,5.3c0.3,0.4,0.5,0.8,0.7,1.3
			c0.1,0.2,0,0.6-0.1,0.8c-0.4,0.4-0.7,0.1-0.9-0.2c-2.1-2.9-4-5.9-5.8-9c-0.2-0.3-0.2-0.7-0.2-1.1C234.7,427.2,235,427,235.1,426.9
			z"/>
		<path class="st1" d="M176.3,270.3c0,1.3-0.2,2.8-1.6,3.4c-1.3,0.6-2.4-0.3-3.4-1c-2.9-2.1-3.3-5-1.4-8.1c0.3-0.5,0.7-0.7,1.2-0.7
			c0.7,0,1.4,0,2,0.4C174.8,265.5,176.6,267.1,176.3,270.3z"/>
		<path class="st1" d="M169.6,258c1.6,0,2.8,1.9,2,3.3c-0.2,0.3-0.6,0.6-0.9,0.6c-2.8,0.1-3.5,2.3-4.3,4.4c-0.2,0.4-0.1,1-0.3,1.4
			c-0.2,0.6-0.7,0.9-1.3,0.9c-0.7-0.1-1.1-0.5-1.2-1.1c-0.1-1.1-0.2-2.4,0.1-3.4c0.6-1.6,1.3-3.2,2.5-4.5
			C167.2,258.5,168.3,258,169.6,258z"/>
		<path class="st1" d="M140.1,376.5c1.2,0.1,2.5,0.2,3.7,0.4c0.5,0.1,0.9,0.4,1,0.9c0.2,0.6-0.1,1.1-0.6,1.5c-2,1.5-3.9,1.3-5.7-0.7
			c-0.4-0.4-0.5-0.8-0.3-1.3s0.6-0.7,1.1-0.8C139.7,376.4,139.9,376.5,140.1,376.5z"/>
	</g>
</g>
</svg>
