<?xml version="1.0" encoding="utf-8"?>
<!-- Generator: Adobe Illustrator 20.1.0, SVG Export Plug-In . SVG Version: 6.00 Build 0)  -->
<svg version="1.1" id="Layer_1" xmlns="http://www.w3.org/2000/svg" xmlns:xlink="http://www.w3.org/1999/xlink" x="0px" y="0px"
	 viewBox="0 0 791 857" style="enable-background:new 0 0 791 857;" xml:space="preserve">
<style type="text/css">
	.st0{fill:#FFFFFF;}
	.st1{fill:#080808;}
	.st2{fill:#ED2C28;}
	.st3{display:none;fill:none;stroke:#00AEEF;stroke-width:2;stroke-miterlimit:10;}
	.st4{fill:none;}
</style>
<g>
	<g>
		<path class="st0" d="M113.6,109.6c196.1,0,392.2,0,588.3,0c0,221.3,0,442.6,0,664c-196.1,0-392.2,0-588.3,0
			C113.6,552.2,113.6,330.9,113.6,109.6z M411.6,600.9c1.9,1.6,2.9,3.8,4.4,5.7c0.7,0.9,1.5,1.8,1.8,2.8c0.7,1.9,1.6,3.8,1.9,5.8
			c0.3,2.4,0.8,4.8,1.2,7.2c0.1,0.4,0.2,0.9,0,1.4c-0.5,1.7-0.1,3.3,0.5,4.9c0.4,0.9,0.6,1.8,0.8,2.7c0.5,1.8,1.6,3.1,3.3,3.9
			c1,0.5,2.1,0.9,3.2,0.9c1.8,0.1,3.5,0.1,5.3-0.3c2.8-0.6,5.7-1.1,8.6-0.2c1.4,0.4,2.9,0.8,4.3,1.1c2,0.4,3.9,1.3,5.7,2.2
			c0.9,0.5,1.7,1.1,2.4,1.9c0.8,1.1,1.8,1.9,2.6,2.9c1.3,1.6,3.1,1.7,4.8,1.6c2.4-0.2,4.5-1.2,6.3-2.8c3.1-2.7,6.1-5.5,9.1-8.3
			c1.6-1.5,3.1-3.2,4.5-5c1.6-2.1,1.9-4.2,0.5-6.4c-0.1-0.2-0.3-0.5-0.4-0.7c-1.7-2.6-3.4-3.3-6.4-2.7c-0.9,0.2-1.8,0.5-2.7,0.5
			c-3.5,0.1-7.1,0.1-10.6-0.2c-0.8-0.1-1.5-0.2-2.1-0.6c-1.4-0.9-3.1-1.3-4.7-1.7c-3.2-0.8-6.1-2.2-8.8-4.1
			c-3.7-2.5-6.6-6.1-10.1-8.8c-0.1-0.1-0.3-0.3-0.4-0.4c-2-2.7-4.3-5.1-6.1-8c-1.1-1.8-2.3-3.4-3.7-4.9c-0.1-0.4-0.2-0.9-0.4-1.3
			c-0.9-2-1.9-3.8-2.5-5.9c-0.1-0.5-0.4-1.1-0.8-1.5c-0.8-0.9-0.9-1.7-0.6-2.8c0.2-0.7,0.2-1.5,0.2-2.2c0-1.2,0-2.4,0.1-3.6
			c0.1-1,0-2.1,0.7-2.9c2.3-2.5,4.8-4.9,8.5-5.2c0.2,0,0.4,0,0.7,0c0.3,0.7,0.6,1.5,0.9,2.3c2.3,5.9,6.4,10,12.4,12
			c0.6,0.2,1.3,0.3,1.9,0.6c4.1,2.3,8.6,3.6,13,4.8c0.6,0.2,1.3,0.4,1.8,0.8c3.1,2.4,6.6,4.1,9.1,7.3c1.3,1.6,2.6,3.1,3.8,4.8
			c1,1.3,2,2.8,3.7,3.4c1.8,0.7,3.2,2.3,5.3,2.2c1.1,0.9,2.1,0.5,3.1-0.1c1.1-0.7,2.3-1.2,2.9-2.5c0.3-0.7,0.9-1.2,1.3-1.8
			c1.1-1.7,2.5-3.3,3.2-5.2c0.9-2.3,2.1-4.6,3.3-6.8c3-5.5,1.9-4.3,7.1-6.9c1.9-0.9,3.8-2,5-3.9c0.6-0.9,1.2-1.9,1.5-3
			c0.3-1.3,0.5-2.6,0.9-3.8c0.5-1.4,1-2.7,2.5-3.4c3-1.6,4.3-4.3,3.8-7.7c-0.1-0.8-0.4-1.6-0.5-2.5c-0.1-0.6-0.5-0.9-1-1.2
			c-1.5-0.6-3.1-0.8-4.6,0c-0.4,0.2-0.8,0.4-1.3,0.1c-1.1-0.7-2.1-0.3-3.1,0.3c-0.7,0.4-1.4,0.6-2.1,0c-0.1-0.1-0.3-0.2-0.5-0.2
			c-1.2,0.1-2.4,0.6-3.4,1.1c-0.8,0.4-1.2,1.1-1.5,1.9c-0.7,2.4-2,4.4-3.7,6.2c-0.5,0.5-0.9,1.2-1.2,1.8c-1.3,2.4-3.1,4.4-5.3,6
			c-1.3,0.9-2.6,1.8-3.8,2.9c-2.3,2.1-5.4,2.6-7.9,0.9c-2.7-1.9-5.8-3.3-7.9-6.1c-0.3-0.4-0.9-0.7-1.3-1c-2-1.6-4-3.3-5.9-5.2
			c-1.7-1.7-3.3-3.6-5.1-5.2c-2.5-2.3-4.9-4.5-7.3-6.9c-0.5-0.5-1-1.1-1.7-1.5c-1.4-0.9-2.6-2.1-3.5-3.6c-1.4-2.1-3.2-3.9-5.1-5.5
			c-0.7-0.6-1.4-1.3-2-1.9c-2-2.1-4.8-2.8-7.3-4.1c-0.1,0-0.2,0-0.3,0c-3.7,0-7.3,0.2-9.8,3.5l0,0c-0.2-0.2-0.4-0.5-0.2-0.7
			c0.4-0.6,0.9-1.2,1.4-1.7c1.2-1.4,2.7-2.6,3.6-4.3c1.1-1.9,2.3-3.8,3.5-5.7c1.2-1.9,2.8-3.4,4-5.3c1-1.5,2.6-2.7,3.9-4
			c1.8-1.8,3.9-2.8,6.3-3.3c2.7-0.5,5.5-1.2,8-2.4c3.2-1.6,6.2-3.4,8.1-6.6c0.6-1.1,1.1-2.1,1.6-3.3c1.3-3.3,2.6-6.6,3.3-10.1
			c0.1-0.7,0.5-1.4,0.9-2c1.4-2.1,2.7-4.3,4-6.4c0.8-1.2,0.7-2.5,0.6-3.8c-0.1-0.8-0.7-1.3-1.5-1.3c-0.7,0-1.3,0.2-1.8,0.6
			c-1,0.8-1.7,1.7-2.4,2.7c-0.5,0.6-0.6,1.6-1.5,2c-0.7-0.8-0.8-1.9-1.2-2.8c-0.2-0.7-0.6-1.4-1-2c-1.1-1.5-2.8-1.3-3.5,0.4
			c-1,2.3-2.6,4.2-4.3,6.2c-0.4-0.3-0.8-0.6-1.2-0.8c-1.4-0.9-2.5-0.6-3.2,0.9c-0.2,0.5-0.4,1.1-0.4,1.6c0,0.9,0.5,1.9,0.4,2.7
			c-0.1,1.1-1.7,1-2.2,2c-0.1,0.2-0.4,0.4-0.5,0.6c-1.2,1.5-2.8,2.4-4.8,2.6c-0.6,0.1-1.3,0.1-1.9,0.2c-2.3,0.5-4.2-0.1-6-1.5
			c-0.8-0.6-1.3-1.2-1.2-2.3c0-1.5,0-3-0.5-4.4c-0.5-1.6-1.5-2.8-3-3.4c-0.8-0.3-1.5-0.1-1.9,0.7c-0.4,1-0.7,2.1-1.1,3.2
			c-0.7,1.8-0.9,3.6-0.4,5.5c0.2,0.7,0.2,1.5,0.2,2.2c0,2.2,0.2,4.3,0.8,6.4c0.3,1.2,0.4,2.4,0.4,3.6c0.1,1.4-0.3,2.7-1,3.7
			c-1.9,2.7-4,5.4-6.4,7.7c-1.3,1.3-3,2.1-4.4,3.4c-3.7,3.4-7.8,6.4-12,9.1c-1.3,0.8-2.8,1.5-3.8,2.8c-0.5,0.6-1.2,0.9-2,0.9
			c-0.5,0-1-0.1-1.2-0.6c-0.9-2.4-2.6-4.3-4.1-6.2c-1.4-1.9-1.4-1.9,0-4c0.3-0.4,0.6-0.7,0.8-1.2c1.2-2.2,1.4-4.4,0.3-6.7
			c-1.7-3.4-3.8-6.6-6.1-9.7c-2-2.6-4.1-5.1-6.7-7.1c-3.3-2.5-7-4.3-10.3-6.7c-0.7-0.5-1.6-0.7-2.4-0.5c-2.8,0.7-5.8,0.7-7.8,3.2
			c-1.5-0.5-2.6-1.6-4.2-1.8c-0.4,0-0.6-0.4-0.6-0.8c-0.2-2.4-0.4-4.8,0.4-7.2c0.7-2.1,2-3.3,4.1-3.6c1.7-0.2,3.3-0.4,5-0.7
			c2.3-0.3,4.4-1.1,5.7-3.1c0.8-1.1,1.4-2.5,1.7-3.8c0.6-2.3,1.1-4.7,1.5-7.1c0.4-2.3,0.5-4.6-0.3-6.9c-0.3-0.8-0.3-1.7-0.3-2.5
			c-0.1-1.3,0.4-2.4,1.4-3.2c0.4-0.3,0.9-0.7,1.3-1.1c1.3-1.2,2-2.7,2.3-4.4c0.4-2.4-0.8-4.6-2.8-5.6c-0.7-0.3-1.4-0.4-2.2-0.1
			c-1,0.5-2,0.9-3.1,1.4c-0.2-0.3-0.3-0.6-0.5-0.9c0.5-0.9,0.7-1.8,1.8-2.4c1.7-0.9,2.2-3,1.1-4.4c-0.5-0.7-1-1.6-1.9-2
			c-0.5-0.2-0.2-1,0.4-1.7c0.4-0.4,0.6-0.1,0.9,0.1c0.4,0.4,0.9,0.6,1.5,0.4c1-0.3,2-0.5,3-0.7c0.8-0.2,1.4-0.5,1.6-1.4
			c0.1-0.8-0.5-1.1-1.1-1.4c-0.7-0.3-0.7-0.8-0.4-1.4c0.3-0.6,0.8-1,1.3-1.4c1.1-0.6,1.2-1.6,1.1-2.7c0-0.8-0.4-1.4-0.8-2.1
			c-0.8-1.2-2.2-2.2-3.7-0.7c-0.6,0.6-1.2,0.8-2,0.6c-2.4-0.6-4.8-1.2-7.4-1.2c-1.3,0-2.4-0.6-2.7-2c-0.2-1-0.8-1.9-1.4-2.7
			c-0.9-1.2-2-2-3.5-2c-5.2,0-10,1.1-13.2,5.8c-0.1,0.2-0.2,0.3-0.3,0.5c-0.7,0.8-2.1,1.2-3.2,0.8c-1.5-0.7-3-0.9-4.6-1.1
			c-4.4-0.5-7.8,1.5-9.7,5.5c-0.1,0.2-0.1,0.3-0.2,0.5c-0.4,0.8-1,1.4-1.8,1.6c-1.1,0.3-2.2,0.8-3.3,0.5c-2.9-0.8-5.5-0.1-8.1,1.2
			c-1.4,0.6-2.8,1-4.3,1.2c-4.8,0.7-9.1,2.6-12.4,6.4c-1.3,1.5-2.4,3.1-3.1,4.9c-0.8,2.1-0.2,3.4,2,4.1c0.7,0.2,1.5,0.3,2.2,0.4
			c0.4,0.1,0.8,0.1,1.1,0.2c0.3,0.2,0.5,0.5,0.4,0.9c-0.1,0.2-0.3,0.4-0.6,0.3c-1.6-0.6-3.1-0.1-4.6,0.6c-0.9,0.4-1.7,1-1.6,2.1
			c0,0.9,0.9,1.7,2.1,1.9c0.4,0.1,0.7,0.1,1.1,0.1c0.6,0.1,0.8,0.5,0.4,1c-0.6,0.7-1.2,1.4-1.7,2.2c-0.6,1-0.5,2,0.2,2.9
			c0.4,0.5,0.9,0.6,1.5,0.5c0.6-0.1,1.2-0.8,1.1-1.4c-0.3-1,0-1.6,0.7-2.2c1.7-1.5,2.4-3.7,3.7-5.5c0.2-0.2,0.3-0.5,0.3-0.8
			c1-2.8-0.2-4.8-3.1-5.2c-0.6-0.1-1.3-0.2-1.9-0.4c-0.3-0.1-0.5-0.2-0.7-0.4c-0.1-0.1-0.1-0.4-0.1-0.5c0-0.2,0.2-0.3,0.4-0.4
			c0.4-0.2,0.7,0.1,1,0.2c2.8,0.8,6.6-2.5,6.2-5.4c0-0.2-0.1-0.4-0.2-0.5c-0.2-0.5-0.8-0.8-0.5-1.4c1.3-0.9,2.7-1.2,4.2-1.6
			c0.4-0.1,0.7,0.1,0.7,0.6c0,0.7-0.2,1.4-0.8,2c-1.6,1.7-2.1,3.7-1.9,6c0.1,1.5,0,2.9-0.7,4.3c-0.5,1-0.7,2.1-0.7,3.3
			c0,1.1-0.1,2.2-0.1,3.4c0,0.8-0.2,1.4-0.7,2c-1.8,2.3-2,4.8-0.1,7.2c0.1,0.1,0.1,0.1,0.2,0.2c0.6,0.9,0.4,1.6-0.5,2.1
			c-0.9,0.4-1.9,0.8-2.8,1.2c-1.5,0.6-2.4,1.7-3,3.2c-0.6,1.6-0.3,2.9,0.9,4c1.5,1.3,3.5,1.2,4.6-0.5c0.3-0.5,0.5-1,0.9-1.4
			c0.4-0.6,0.9-1.2,1.4-1.7c0.8-0.7,1.8-0.3,2.1,0.7c0.2,0.8,0.4,1.6,0.6,2.4c0.2,0.5-0.1,0.9-0.5,1.1c-1.2,0.5-2.4,1-3.6,1.6
			c-1.9,0.9-2.7,2.6-2.5,4.6c0.1,1.7,1.2,2.8,2.8,2.9c1.4,0.1,2.8,0.1,4-0.7c0.6-0.4,1.3-0.1,1.5,0.5c0.1,0.3,0.2,0.7,0.2,1.1
			c0,1.1,0.5,2,1.2,2.8c1.3,1.6,2.7,1.8,4.4,0.7c0.6-0.4,0.9-1.1,1.8-1.3c0.6,1.3,1.6,2.1,2.7,2.9c0.2,0.1,0.3,0.5,0.2,0.7
			c-0.1,0.2-0.4,0.5-0.6,0.5c-0.6,0.1-1.3,0.1-1.9,0.2c-1,0.2-2,0.6-2.7,1.4c-0.5,0.6-0.3,1.6,0.4,1.9c0.4,0.2,0.9,0.2,1.4,0
			c0.7-0.3,1.2-1,2-0.9c1.5,0.2,2.3-1,3.3-1.7c1.2-0.9,1.2-2.5,0.1-3.7c-0.4-0.5-1-0.8-1.5-1.2c-0.3-0.2-0.5-0.5-0.7-0.9
			c-0.1-0.2-0.1-0.6,0.3-0.6c0.3,0,0.5,0.1,0.8,0c1.1-0.1,1.8,0.1,2.6,1.1c1.1,1.6,2.8,2.5,4.9,2.1c0.3,0,0.5,0,0.7,0.3
			c-1.3,2.3-1.3,2.4-3.3,2.9c-1.5,0.4-2.6,1.4-3.7,2.4c-1.1,1.1-2,2.2-2.8,3.5c-0.4,0.7-0.9,1.6-1.5,2c-1,0.5-1.2,1.3-1.4,2.2
			c-0.2,0.8-0.6,1.6-0.8,2.4c-0.8,2.8-1.8,5.5-2.2,8.4c-0.4,3-1,5.9-1.6,8.8c-0.4,2.1-0.7,4.3-0.7,6.4c0.1,3.7-0.1,7.5-0.3,11.2
			c-0.2,4.8-0.5,9.5-0.1,14.3c0.3,3.5,0.4,7.1,0.7,10.6c0.3,4.1,0.5,8.2,0.8,12.3c0.2,1.9,0.4,3.9,0.8,5.8c0.5,2.9,1.2,5.8,2.2,8.6
			c0.9,2.3,1.7,4.7,2.7,7c0.4,1,1,2,2,2.7c0.5,0.3,0.6,0.7,0.6,1.2c0,0.6,0.1,1.1,0.1,1.7c0.2,2.8-0.4,3.7-3,4.5
			c-0.4,0.1-0.9,0.1-1.4,0.1c-0.6,0-1.3-0.2-1.9-0.1c-3.6,0.1-7.1-0.3-10.5-0.9c-2.1-0.4-4.1,0-6,0.9c-1.5,0.8-1.7,2.1-0.4,3.1
			c0.3,0.2,0.7,0.4,1,0.5c0.6,0.3,1.2,0.6,1.7,0.9c0.1,0.1,0.3,0.3,0.3,0.4c-0.1,0.3-0.2,0.5-0.5,0.5c-2.4,0.5-4.7,1-7,1.8
			c-1.1,0.4-2,1-2.7,1.9c-0.7,1-0.5,2.7,0.5,2.9c0.9,0.3,1.9,0.9,3,0.5c1.4-0.4,2.8-0.2,4.1,0c0.1,0.2,0.3,0.4,0.4,0.5
			c-1.5,0.7-3,1.4-4.5,2.2c-0.5,0.2-1,0.5-1.4,0.8c-0.9,0.6-1,1.4-0.5,2.4c1,1.9,3.7,3.3,6,2.4c1.1-0.4,2.3-0.7,3.5-1.1
			c0.7-0.3,1.4-0.3,2.2,0c0.1,0.1,0.3,0.2,0.3,0.4c0,0.1-0.1,0.4-0.2,0.4c-1.1,0.4-2,1.1-2.7,1.9c-1,1.1-1,2.8,0,3.8
			c1.1,1.1,3.8,1.5,5.1,0.7c0.4-0.2,0.8-0.5,1.1-0.8c1.1-0.9,2.4-1.4,3.8-1.6c2-0.3,4-0.7,6.1-1c0.7-0.1,1.4-0.4,2.1-0.8
			c2.1-1.3,4-2.6,5.9-4.2c2.4-2.1,5.3-3,8.5-2.9c1.2,0,2.4,0.3,3.5,0.9c2.1,1.2,4.5,1.6,6.8,2.5c0.7,0.3,1.5,0.3,2.2,0.3
			c1.3,0.1,2.4-0.3,3.3-1.2c1-1,1.2-2.4,0.2-3.5c-0.4-0.5-1-0.9-1.5-1.3c-0.9-0.7-1.7-1.4-2.6-2.1c-0.1-0.1-0.2-0.3-0.2-0.5
			c0-0.4,0.4-0.3,0.6-0.3c3.9,0.7,7.8,1.5,11.8,2.1c4,0.6,7.9,1.1,11.9,1.4c3.2,0.2,6.3,0.4,9.5,0.8c0.9,0.1,1.7,0,2.4-0.5
			c1.2-0.7,2.4-1.5,3.5-2.2c3.8-2.5,7.7-4.9,11.2-7.8c3.5-2.8,7.3-5.1,11-7.6C408,601.1,409.7,600.5,411.6,600.9z M426.1,354
			c0.5-1.3,0.9-2.6,1.5-3.9c1.3-3.1,1.8-6.3,1.8-9.5c0.1-4.5-0.7-8.9-2-13.2c-0.6-2.2-1.6-4.2-2.9-6c-4.2-6.1-9.8-10.1-16.8-12.3
			c-5.4-1.7-11-2.8-16.6-3.7c-3.4-0.6-6.8-0.7-10.3-0.4c-5.1,0.4-10.2,1.4-15.2,2.1c-1.1,0.2-2.2,0.2-3.3,0.2
			c-1.3-0.1-2.6-0.2-3.9-0.2c-8.5-0.1-17-0.1-25.5-0.6c-5.4-0.3-10.8-0.8-16.2-1.4c-5.7-0.7-11.5-1.3-17-3c-3.3-1-6.6-1.9-9.8-3.3
			c-2.1-0.9-4-2-5.8-3.3c-2.5-1.8-3.9-4.3-3.5-7.5c0.2-2,1.1-3.6,2.4-4.9c1.5-1.6,3.1-3.2,4.9-4.6c3.7-2.9,7.6-5.3,11.8-7.4
			c3.4-1.7,6.9-3.4,10.4-4.9c4-1.7,8.1-3.4,12.3-4.5c4.1-1.1,8.3-2.2,12.4-3.3c3.3-0.8,6.5-1.6,9.8-2.2c3.8-0.8,7.7-1.3,11.5-2.1
			c5.2-1.1,10.5-1.8,15.8-2.4c7.4-0.9,14.8-1.7,22.3-1.9c8.6-0.3,17.1,0.4,25.5,2.8c6.7,1.9,13,4.5,19.2,7.5c2,1,3.9,2.2,5.7,3.5
			c0.8,0.6,1.5,1.4,2.3,2.1c0.3,0.2,0.5,0.5,0.4,1c-0.2,0.5-0.6,0.4-0.9,0.3c-2.4-0.3-4.8-0.7-7.2-1c-2.8-0.3-5.5-0.8-8.3-0.9
			c-6.1-0.2-12.1-0.3-18.2-0.4c-7.3-0.1-14.5,0.7-21.8,1.6c-3.1,0.4-6.1,1-8.9,2.3c-1.3,0.6-2.3,1.5-3.4,2.4
			c-2.8,2.5-2.1,7.2,0.3,9.2c0.7,0.6,1.5,1.2,2.2,1.7c3.9,2.7,8.4,4.1,12.9,5.4c6.1,1.7,12.3,3,18.7,3.5c8,0.6,16,0.4,24-1.2
			c5.2-1.1,10.3-2.5,15.1-5c3.9-2.1,7-4.9,8.7-9.1c0.2-0.4,0.4-0.9,0.6-1.3c0.2-0.3,0.5-0.5,0.9-0.5c1.1,0.2,2.2,0.4,3.3,0.6
			c4.2,0.9,8.3,2,12.5,2.9c5.8,1.2,11.5,2.5,17.2,4c4.5,1.2,9,2.4,13.5,3.5c4.7,1.2,9.4,2.5,13.6,4.9c1.5,0.9,3.2,1.4,5,1.8
			c1.9,0.5,3.8,0.9,5.6,1.6c4.6,1.7,8.6,4.5,12.3,7.6c0.5,0.4,1.2,0.7,1.4,1.3c0.6,1.6,2,2.1,3.3,2.9c1.7,1.1,3.1,2.3,4,4.2
			c0.7,1.5,1.3,3.1,2,4.6c0.2,0.5,0.4,1.1,0.5,1.6c0.2,2.9-0.7,5.3-2.8,7.3c-0.5,0.5-1,1-1.7,0.7c-0.5-0.2-0.4-0.8-0.4-1.2
			c0-0.2-0.1-0.4-0.1-0.5c-1-3.1-4.2-4.9-7.3-2.8c-0.9,0.6-1.8,1-2.8,1.3c-2.9,0.9-5.8,1.3-8.7,1.7c-3.3,0.5-6.7,0.6-10,0.7
			c-3.6,0.1-7.3,0.2-10.9-0.2c-4.4-0.5-8.7-0.8-13.1-1.4c-5-0.8-9.9-2-14.3-4.4c-2.1-1.1-4.3-1.8-6.4-2.7c-1.5-0.6-2.5,0.1-2.8,1.7
			c-0.4,2.4-0.6,4.8-0.6,7.2c0,2.1-0.1,4.1,0,6.2c0.1,1.4-0.5,2.1-1.6,2.6c-0.7,0.3-1.4,0.4-2.2,0.4c-1.2,0-2.4,0-3.6,0.2
			c-5.4,1-10.3-0.6-15.1-2.9c-0.8-0.4-1.4-1-1.9-1.7c-1.8-2.6-3.1-5.3-3.5-8.4c-0.3-2.2,0.4-4.2,1.5-6.1c1.1-1.7,2.7-2.4,4.6-2.9
			c3-0.8,6-1.1,9.1-1.4c3.9-0.3,7.8-0.5,11.7,0.1c2.2,0.3,4.4,0.7,6.6,1c3.9,0.5,7.8,0.4,11.5-1.5c2.1-1.1,4-2.4,5.8-3.9
			c2.1-1.7,2.7-4.6,1.6-7.1c-0.9-2.2-2.4-3.8-4.7-4.6c-1.9-0.7-3.9-1.2-5.9-1.7c-0.8-0.2-1.7-0.2-2.5-0.1c-1.7,0.1-3,1-4,2.3
			c-0.5,0.8-0.5,1.6,0.1,2.3c0.6,0.7,1.4,1,2.2,0.5c0.8-0.6,1.7-0.6,2.6-1c1.8-0.7,3.3,0,4.6,1.1c1.5,1.2,1.3,3.3-0.3,4.3
			c-0.5,0.3-1,0.5-1.5,0.7c-2,0.6-4,0.9-6.1,1c-2.5,0.1-5,0.2-7.6,0.1c-5.9-0.1-11.7,0.5-17.5,1.7c-2.8,0.6-5.7,1.2-8.2,2.7
			c-2.8,1.7-5.6,3.7-8.2,5.8c-2.4,1.9-2.9,4.4-2.2,7.3c0.8,3.3,2.6,5.9,5.1,8.1c0.8,0.7,1.8,1.4,2.5,2.2c2.7,3.1,6.3,4.5,10.2,5.4
			c3.2,0.8,6.5,0.6,9.7,0.2c1.9-0.2,3.7-0.3,5.6-0.3c0.8,0,1.2,0.4,1.4,1.1c0.2,0.7,0.3,1.5,0.4,2.2c0.2,3.2,0.4,6.3,0.6,9.5
			c0.2,3.8,1.2,7.6,2.5,11.1c1.8,4.8,4,9.5,6.1,14.1c1,2.1,2.2,4.1,3.8,5.8c1.4,1.5,2.7,3.1,4.1,4.6c1.5,1.6,3.3,2.8,5.4,3.4
			c3.8,1,7.7,1.2,11.6,0c5.1-1.5,9.5-4.3,13.8-7.2c3.7-2.4,6.6-5.8,10.1-8.4c1.1-0.8,1.7-2.2,2.6-3.3c0.1-0.1,0.3-0.3,0.4-0.4
			c4.2-4.3,7.2-9.5,9.6-15c1.1-2.7,2.1-5.4,3.2-8.1c0.6-1.4,0.9-2.8,1.2-4.3c0.7-3.8,1.5-7.5,1.8-11.3c0.1-1.1,0.6-2,1.7-2.4
			c2.4-0.9,3.6-2.8,5-4.7c1.1-1.6,1.8-3.3,1.7-5.2c0-0.7,0-1.5,0.3-2.2c1.2-2.4,1.4-5,1-7.6c-0.2-0.9-0.2-1.9-0.3-2.8
			c-0.1-0.8-0.2-1.7-0.5-2.5c-1-2.8-2.2-5.5-3.9-8c-2-2.9-4.4-5-7.6-6.3c-2.1-0.9-4.3-1.9-6.3-3.1c-4-2.4-8.3-4.3-12.8-5.5
			c-7.7-2.1-15.4-4.6-23.2-6.4c-6-1.3-12-2.5-18.2-3.1c-2.2-0.2-4.5-0.4-6.7-0.7c-5.8-0.7-11.7-1.3-17.6-1.3c-1.1,0-2.4,0.4-3.3-0.2
			c-1.1-0.7-0.9-2.2-1.2-3.3c-0.9-3-2.2-5.7-4.4-8c-4.6-4.8-9.9-8.5-16-11c-2.4-1-5-1.4-7.6-1.9c-5.6-1.1-11.3-1.1-17-1.3
			c-1.6,0-3.2,0.2-4.7,0.3c-4.7,0.3-9.3,0.5-14,0.8c-0.5,0-0.9,0.1-1.4,0.2c-4.6,0.5-9.3,0.9-13.9,1.4c-4.8,0.6-9.6,1.1-14.4,2.1
			c-4.2,0.8-8.4,1.7-12.6,2.6c-4.6,1-9.1,2.1-13.6,3.1c-5.9,1.4-11.8,2.7-17.7,4.1c-2.5,0.6-5.1,1.1-7.7,1.6
			c-6.2,1.4-12.1,3.6-18.2,5.6c-4.2,1.4-8.4,3-12.5,4.9c-6.8,3.1-12.7,7.5-17.9,12.7c-2.4,2.5-4.6,5.1-5.7,8.5
			c-1.3,4.2-0.9,8.1,1.7,11.7c1.3,1.8,2.9,3.4,4.9,4.5c2.7,1.6,5.4,3,8.2,4.2c5.6,2.4,11.4,4.1,17.3,5.5c5.9,1.4,11.9,2.2,18,2.4
			c9.4,0.4,18.6-0.7,27.7-3c5.4-1.4,10.9-2.6,16.4-3.3c2.2-0.3,4.4-1,6.6-0.9c4.4,0.1,8.8,0.1,13.2,0.1c7.5-0.1,14.9,0.5,22.3,1.8
			c3,0.5,6,1.3,8.9,2.4c5.9,2.3,10.8,5.9,15.1,10.3c2.3,2.4,3.9,5.2,4.6,8.5c1.2,5.6,0.3,10.7-3,15.4c-1.4,2-1.6,2.1-3.8,1.2
			c-3.4-1.3-6.8-2.6-10.5-3c-3.9-0.5-7.8-0.6-11.7,0.6c-5.1,1.5-9,4.5-10.9,9.6c-0.3,0.7-0.5,1.4-0.9,2.1c-1,1.9-1.1,3.9-1,6
			c0.1,2.2,0.7,4.2,1.5,6.2c0.8,2,1.9,3.9,4,4.8c5.6,2.4,11,2.5,16.2-1.2c4.6-3.3,8.9-7.1,12.9-11.1c1.4-1.4,2.7-2.8,4.1-4.2
			c0.4,0.2,0.8,0.3,1.1,0.5c5.8,3.6,11.3,7.5,15.8,12.8c1.4,1.7,3.1,3.2,4.6,4.9c1.1,1.2,2.3,2.3,3.1,3.6c2,3,3.8,6,5.6,9.1
			c1.9,3.3,3.6,6.8,4.6,10.5c1.2,4.2,2.2,8.5,3.3,12.7c1,4.4,1.7,8.8,1.5,13.3c-0.2,5-0.8,9.9-2.1,14.6c-1,3.5-2.1,7-3.3,10.4
			c-1,2.7-1.9,5.4-3.2,8c-0.9,1.7-1.4,3.6-2,5.5c-0.5,1.4-0.3,2.2,0.4,2.5c0.7,0.4,1.4,0.1,2.1-1.3c1.3-2.4,2.7-4.7,3.9-7.1
			c1.3-2.5,2.7-4.8,3.7-7.5c0.8-2.4,1.6-4.7,2.1-7.2c1.1-5.9,2.2-11.7,3.9-17.5c0.7-2.6,0.9-5.3,1.1-8c0.1-0.8,0-1.7-0.1-2.5
			c-0.4-3-0.8-5.9-1.6-8.8c-0.9-3.3-1.8-6.7-3.1-9.9c-2.2-5.1-5.6-9.4-9.2-13.6c-1.5-1.8-3.4-3.2-4.6-5.3c-2-3.5-4.3-6.8-6.7-10
			c-4.5-6-9.5-11.5-16.1-15.3C426.6,354.5,426.4,354.3,426.1,354z M547.9,348.2c1.2,0.2,1.7-0.4,2.4-0.7c3.7-1.8,7.4-1.7,11.1,0
			c1.9,0.9,1.9,1.7,0.3,3c-0.5,0.4-1,0.5-1.5,0.4c-1.3-0.1-2.6-0.1-3.9-0.2c-2-0.1-3.9,0.4-5.6,1.5c-0.6,0.4-1.2,0.8-2,1
			c-1.6,0.4-2.8,1.5-3.5,3c-1.4,2.8-3.2,5.3-5,7.8c-1.3,1.8-2.7,3.6-4.2,5.3c-1,1.1-1.4,2.4-1.6,3.8c-0.4,1.8,0.2,3.5,0.8,5.2
			c1.2,3.6,3.2,6.7,5.6,9.6c1,1.3,1.8,2.9,3.2,3.9c3.7,2.7,7.5,5.3,11.9,6.6c1.2,0.3,2.4,0.5,3.6,0.7c1.9,0.5,3.9,0.4,5.8,0.1
			c3.7-0.6,6.9-2.4,9.8-4.6c5-3.7,9.4-7.9,13.2-12.8c3.1-4,5.8-8.2,8-12.8c0.2-0.3,0.4-0.8,0.7-0.8c0.8,0,1.7-0.3,2.4,0.4
			c1,1.1,2.2,2.1,2.7,3.5c1.9,4.9,2.8,9.9,1.2,15c-1.2,3.9-3.1,7.4-6.4,9.9c-1.9,1.5-3.8,3-5.7,4.5c-0.7,0.5-1.4,1-2.1,1.3
			c-2.6,1.1-5.3,1.8-8.1,2.2c-5.1,0.7-10.2,0.8-15.4,0.4c-6.3-0.5-12.7-0.7-19-0.4c-4.1,0.2-8.2,0.8-12.2,1.3
			c-2.5,0.3-4.9,1.1-7.5,0.8c-2.2-0.3-4.5,0-6.7,0c-7.7,0.2-14,3.4-18.7,9.6c-0.6,0.8-1.2,1.4-2,1.9c-4.2,2.8-6.7,6.6-7.2,11.7
			c-0.1,1-0.1,2,0.1,3c0.7,3.8,2.8,6.7,5.5,9.2c4.4,4.1,9.6,6.8,15.6,7.5c4.4,0.5,8.8,0.5,13-0.9c2.9-1,5.7-2.2,8.6-3.2
			c1.3-0.4,2.3-1.2,3.4-2c2.8-2.1,4.5-5,5.6-8.2c1-2.8,0.3-5-2.2-6.6c-2.7-1.7-5.7-2.3-8.8-1.3c-0.4,0.1-0.7,0.3-1,0.4
			c-1.3,0.7-2.4,1.8-2.4,3.2c-0.1,1.6,1.4,2.3,2.7,2.8c0.3,0.1,0.7,0.3,1.1,0.3c0.8,0.1,1.5-0.2,1.8-1c0.1-0.3,0.2-0.7,0.2-1.1
			c0.1-0.5,0.4-0.8,0.9-0.9c0.8-0.2,1.6-0.3,2.5-0.1c2,0.6,2.6,2.2,1.5,3.8c-0.6,0.9-1.4,1.5-2.3,2c-5.4,3.4-11.4,4-17.5,3.5
			c-4.8-0.4-9-2.3-12.8-5.1c-1.9-1.4-3.6-3.1-4.3-5.4c-1.1-3.3-1.3-6.8,0-10.2c0.3-0.8,0.8-1.4,1.6-1.8c2.6-1.4,5.4-2.5,8.1-3.8
			c3.8-1.8,7.9-2.9,11.9-3.9c0.7-0.2,1.5-0.3,2.2-0.3c1.6,0.1,3.2,0.2,4.7,0.3c2.7,0.2,5.4,0.5,8.1,0.5c8.7,0.1,17.4,0.2,26,0.2
			c4.1,0,8.3-0.3,12.2-1.4c5.6-1.6,11.3-3.2,16-7c0.4-0.3,1-0.6,1.4-0.9c5.2-3.2,9-7.5,11.3-13.1c0.8-2,1.5-4.1,1.3-6.3
			c-0.3-2.9-0.5-5.8-1.5-8.5c-1.1-3.1-2.5-6.1-4.9-8.4c-1.1-1-2.2-2-3.4-3c0.1-0.3,0.2-0.7,0.4-1c1.8-3.8,3.4-7.7,4.7-11.7
			c1.6-5.2,2-10.6,2.4-16c0.1-0.8-0.4-1.4-1.1-1.8c-1.1-0.7-2.1-0.9-3.4-0.1c-3.7,2.4-7.9,3.2-12.3,3.4c-5.6,0.2-11.1,0-16.7-1.2
			c-5.8-1.3-11.3-3.2-16.7-5.6c-0.7-0.3-1.3-0.7-2-1c-0.5-0.2-1,0-1.1,0.5c-0.3,1.7-0.5,3.3-0.7,5c-0.4,3.1-1,6.3-2.2,9.2
			C549.4,344.5,548.7,346.3,547.9,348.2z"/>
		<path class="st1" d="M370.4,443c1-0.5,2-0.9,3.1-1.4c0.7-0.3,1.4-0.3,2.2,0.1c2,1,3.2,3.2,2.8,5.6c-0.3,1.7-1,3.2-2.3,4.4
			c-0.4,0.4-0.9,0.7-1.3,1.1c-1.1,0.8-1.5,1.9-1.4,3.2c0,0.8,0,1.7,0.3,2.5c0.8,2.3,0.7,4.6,0.3,6.9c-0.4,2.4-0.8,4.8-1.5,7.1
			c-0.4,1.3-1,2.7-1.7,3.8c-1.3,2-3.4,2.8-5.7,3.1c-1.7,0.2-3.3,0.4-5,0.7c-2.1,0.3-3.5,1.4-4.1,3.6c-0.8,2.4-0.5,4.8-0.4,7.2
			c0,0.4,0.2,0.8,0.6,0.8c1.6,0.1,2.7,1.3,4.2,1.8c2-2.5,5-2.5,7.8-3.2c0.8-0.2,1.7,0,2.4,0.5c3.4,2.3,7.1,4.2,10.3,6.7
			c2.6,2,4.7,4.4,6.7,7.1c2.3,3.1,4.4,6.3,6.1,9.7c1.1,2.3,0.9,4.5-0.3,6.7c-0.2,0.4-0.5,0.8-0.8,1.2c-1.4,2.1-1.5,2.1,0,4
			c1.5,2,3.2,3.9,4.1,6.2c0.2,0.5,0.7,0.6,1.2,0.6c0.8,0,1.5-0.3,2-0.9c1-1.3,2.5-2,3.8-2.8c4.3-2.7,8.3-5.7,12-9.1
			c1.4-1.3,3.1-2.1,4.4-3.4c2.4-2.4,4.5-5,6.4-7.7c0.7-1.1,1.1-2.4,1-3.7c-0.1-1.2-0.1-2.4-0.4-3.6c-0.6-2.1-0.8-4.2-0.8-6.4
			c0-0.7,0-1.5-0.2-2.2c-0.5-1.9-0.2-3.7,0.4-5.5c0.4-1,0.7-2.1,1.1-3.2c0.3-0.8,1.1-1,1.9-0.7c1.6,0.7,2.5,1.9,3,3.4
			c0.5,1.4,0.5,2.9,0.5,4.4c0,1.1,0.4,1.7,1.2,2.3c1.8,1.4,3.7,2,6,1.5c0.6-0.1,1.3-0.2,1.9-0.2c2-0.2,3.5-1.1,4.8-2.6
			c0.2-0.2,0.4-0.4,0.5-0.6c0.5-1,2.1-0.9,2.2-2c0.1-0.9-0.3-1.8-0.4-2.7c0-0.5,0.2-1.1,0.4-1.6c0.7-1.5,1.8-1.8,3.2-0.9
			c0.4,0.2,0.7,0.5,1.2,0.8c1.6-2,3.2-3.9,4.3-6.2c0.7-1.7,2.4-1.9,3.5-0.4c0.4,0.6,0.7,1.3,1,2c0.3,1,0.5,2,1.2,2.8
			c0.8-0.4,1-1.3,1.5-2c0.7-1,1.4-2,2.4-2.7c0.5-0.4,1.1-0.7,1.8-0.6c0.9,0.1,1.4,0.5,1.5,1.3c0.2,1.3,0.2,2.6-0.6,3.8
			c-1.3,2.1-2.6,4.3-4,6.4c-0.4,0.6-0.8,1.3-0.9,2c-0.7,3.5-2,6.8-3.3,10.1c-0.4,1.1-1,2.2-1.6,3.3c-1.9,3.2-5,4.9-8.1,6.6
			c-2.5,1.3-5.2,1.9-8,2.4c-2.5,0.5-4.6,1.5-6.3,3.3c-1.3,1.3-2.9,2.5-3.9,4c-1.2,1.9-2.8,3.4-4,5.3c-1.2,1.9-2.4,3.8-3.5,5.7
			c-1,1.6-2.4,2.8-3.6,4.3c-0.5,0.6-1,1.1-1.4,1.7c-0.2,0.2,0,0.5,0.2,0.7c-0.2,0-0.3,0-0.5,0c0.1,0,0.3,0.1,0.4,0.1
			c2.5-3.3,6.2-3.5,9.8-3.5c0.1,0,0.2,0,0.3,0c2.5,1.3,5.2,2,7.3,4.1c0.6,0.7,1.3,1.3,2,1.9c1.9,1.6,3.7,3.4,5.1,5.5
			c0.9,1.4,2.1,2.6,3.5,3.6c0.6,0.4,1.1,1,1.7,1.5c2.4,2.4,4.8,4.7,7.3,6.9c1.8,1.6,3.4,3.4,5.1,5.2c1.8,1.9,3.8,3.5,5.9,5.2
			c0.4,0.4,1,0.6,1.3,1c2,2.8,5.2,4.2,7.9,6.1c2.5,1.8,5.6,1.2,7.9-0.9c1.2-1,2.5-2,3.8-2.9c2.3-1.6,4-3.6,5.3-6
			c0.4-0.7,0.7-1.3,1.2-1.8c1.7-1.8,3-3.8,3.7-6.2c0.3-0.9,0.7-1.6,1.5-1.9c1.1-0.5,2.2-1,3.4-1.1c0.2,0,0.4,0.1,0.5,0.2
			c0.7,0.6,1.4,0.4,2.1,0c1-0.6,2-1,3.1-0.3c0.5,0.3,0.9,0.1,1.3-0.1c1.5-0.8,3-0.6,4.6,0c0.6,0.2,0.9,0.6,1,1.2
			c0.2,0.8,0.4,1.6,0.5,2.5c0.5,3.4-0.8,6.1-3.8,7.7c-1.5,0.8-2.1,2-2.5,3.4c-0.4,1.2-0.6,2.5-0.9,3.8c-0.3,1.1-0.9,2-1.5,3
			c-1.2,1.9-3.1,2.9-5,3.9c-5.2,2.6-4.1,1.4-7.1,6.9c-1.2,2.2-2.4,4.4-3.3,6.8c-0.7,1.9-2.1,3.5-3.2,5.2c-0.4,0.6-1,1.1-1.3,1.8
			c-0.6,1.3-1.8,1.8-2.9,2.5c-1,0.6-2,1-3.1,0.1c-2.1,0-3.5-1.6-5.3-2.2c-1.6-0.6-2.6-2-3.7-3.4c-1.2-1.6-2.6-3.2-3.8-4.8
			c-2.5-3.1-6.1-4.9-9.1-7.3c-0.5-0.4-1.2-0.6-1.8-0.8c-4.5-1.2-8.9-2.6-13-4.8c-0.6-0.3-1.2-0.4-1.9-0.6c-6-2-10.1-6.1-12.4-12
			c-0.3-0.8-0.6-1.5-0.9-2.3c-0.3,0-0.5,0-0.7,0c-3.8,0.2-6.2,2.6-8.5,5.2c-0.7,0.8-0.6,1.9-0.7,2.9c-0.1,1.2,0,2.4-0.1,3.6
			c0,0.7,0,1.5-0.2,2.2c-0.3,1.1-0.2,2,0.6,2.8c0.4,0.4,0.6,1,0.8,1.5c0.5,2.1,1.6,4,2.5,5.9c0.2,0.4,0.3,0.9,0.4,1.3
			c-0.8,0.2-1.6,0.3-2.5,0.5c-0.5-1.3-1-2.6-1.5-3.9c-1.4-3.2-2.9-6.5-4.3-9.7c-0.7-1.6-1.4-3.3-2.3-4.8c-1.2-2-2.3-4-3.1-6.2
			c-0.5-1.5-1.3-2.9-2.1-4.3c-1.1-2-2.3-4.1-2.9-6.3c-0.2-0.5-0.5-1-0.8-1.5c-1.3-2-2.7-4-4.1-6c-0.3-0.4-0.7-0.8-1.2-1.2
			c-1.4-1.1-2.8-2.2-4.1-3.3c-1.7-1.5-3.8-1.8-5.9-2.2c-0.7-0.1-1.3,0.1-1.9,0.4c-1.7,1.1-3.5,2.1-4.2,4.2c-0.2,0.6-0.7,1.1-1,1.7
			c-1.3,2.2-2.1,4.5-2.4,7.1c-0.1,0.9-0.2,1.8-0.8,2.6c-0.3,0.3-0.3,0.9-0.4,1.3c-0.4,2-0.7,4-0.6,6.1c0,5.1,0,10.3,0,15.4
			c0,1-0.1,2-0.2,3.1c-0.1,1.9-0.2,3.7-0.2,5.6c0,2.2-0.1,4.5-0.4,6.7c-0.2,1.8-0.1,3.5-0.2,5.3c0,0.1,0,0.2,0.1,0.3
			c0.1,0.1,0.2,0.1,0.3,0.1c0.2-0.1,0.4-0.1,0.5-0.2c5.4-5.7,9.2-12.3,11.4-19.9c0.2-0.8,0.1-1.5-0.2-2.2c-0.5-1.1-1-2.2-1.2-3.4
			c-0.5-3.1-0.8-6.3-0.7-9.5c0-0.6,0.1-1.1,0.1-1.7c0-0.7-0.6-1.1-1.3-1.1c-0.5,0-0.8,0.3-1.2,0.7c-0.3,0.3-0.6,0.3-1,0
			c-0.3-0.3-0.4-0.6-0.3-1c0.3-1,1-1.8,1.9-2.3c0.9-0.4,2-0.1,2.8,0.6c1.2,1.1,1.8,2.5,1.8,4.2c0.1,3.6,0.3,7.2,1.1,10.8
			c0.3,1.3,0.6,2.5,1.6,3.5c0.5,0.4,0.8,1,1.1,1.6c0.9,1.8,1.9,3.4,3.5,4.6c0.5,0.4,0.8,1,1.1,1.6c1.9,2.9,4.3,5.4,7,7.5
			c1.3,1,2.6,2.1,3.9,3.2c-0.3,0.5-0.4,0.9-0.4,1.5c-1.9-0.4-3.6,0.2-5.2,1.2c-3.7,2.5-7.6,4.8-11,7.6c-3.6,2.9-7.4,5.3-11.2,7.8
			c-1.2,0.8-2.4,1.5-3.5,2.2c-0.7,0.5-1.5,0.6-2.4,0.5c-3.1-0.4-6.3-0.5-9.5-0.8c-4-0.3-8-0.8-11.9-1.4c-3.9-0.6-7.9-1.4-11.8-2.1
			c-0.2,0-0.6-0.1-0.6,0.3c0,0.1,0.1,0.4,0.2,0.5c0.9,0.7,1.7,1.4,2.6,2.1c0.5,0.4,1,0.8,1.5,1.3c1,1.1,0.8,2.5-0.2,3.5
			c-0.9,0.9-2,1.3-3.3,1.2c-0.7-0.1-1.5-0.1-2.2-0.3c-2.2-1-4.6-1.4-6.8-2.5c-1.1-0.6-2.2-0.8-3.5-0.9c-3.2,0-6.1,0.8-8.5,2.9
			c-1.8,1.6-3.8,2.9-5.9,4.2c-0.7,0.4-1.3,0.7-2.1,0.8c-2,0.3-4,0.7-6.1,1c-1.4,0.2-2.7,0.7-3.8,1.6c-0.4,0.3-0.7,0.6-1.1,0.8
			c-1.3,0.8-4,0.4-5.1-0.7c-1-1-1-2.7,0-3.8c0.8-0.8,1.7-1.5,2.7-1.9c0.1,0,0.2-0.3,0.2-0.4c0-0.1-0.2-0.3-0.3-0.4
			c-0.7-0.3-1.4-0.2-2.2,0c-1.1,0.4-2.3,0.7-3.5,1.1c-2.3,0.9-4.9-0.5-6-2.4c-0.5-1-0.4-1.8,0.5-2.4c0.4-0.3,0.9-0.6,1.4-0.8
			c1.5-0.7,3-1.5,4.5-2.2c0.4-0.1,0.9-0.2,1.3-0.2c0.1,0,0.2-0.2,0.2-0.2c-0.1-0.1-0.2-0.3-0.3-0.3c-0.5,0-1,0.1-1.6,0.2
			c-1.4-0.2-2.8-0.4-4.1,0c-1.1,0.3-2-0.2-3-0.5c-0.9-0.3-1.2-2-0.5-2.9c0.7-0.9,1.5-1.6,2.7-1.9c2.3-0.7,4.7-1.3,7-1.8
			c0.3-0.1,0.5-0.3,0.5-0.5c0-0.1-0.2-0.3-0.3-0.4c-0.6-0.3-1.2-0.6-1.7-0.9c-0.3-0.2-0.7-0.3-1-0.5c-1.3-1-1.1-2.3,0.4-3.1
			c1.9-1,3.9-1.3,6-0.9c3.5,0.6,7,1,10.5,0.9c0.6,0,1.3,0.1,1.9,0.1c0.5,0,1,0.1,1.4-0.1c2.5-0.8,3.1-1.7,3-4.5
			c0-0.6-0.1-1.1-0.1-1.7c0-0.5-0.1-0.8-0.6-1.2c-1-0.6-1.5-1.6-2-2.7c-1-2.3-1.8-4.7-2.7-7c-1-2.8-1.7-5.7-2.2-8.6
			c-0.4-1.9-0.6-3.9-0.8-5.8c-0.3-4.1-0.6-8.2-0.8-12.3c-0.2-3.5-0.3-7.1-0.7-10.6c-0.4-4.8-0.2-9.5,0.1-14.3
			c0.2-3.7,0.3-7.5,0.3-11.2c0-2.1,0.3-4.3,0.7-6.4c0.6-2.9,1.2-5.8,1.6-8.8c0.4-2.8,1.4-5.6,2.2-8.4c0.2-0.8,0.6-1.6,0.8-2.4
			c0.3-0.9,0.4-1.7,1.4-2.2c0.7-0.3,1.1-1.2,1.5-2c0.8-1.3,1.7-2.4,2.8-3.5c1.1-1.1,2.2-2,3.7-2.4c2-0.6,2-0.6,3.3-2.9
			c-0.2-0.3-0.4-0.3-0.7-0.3c-2.1,0.3-3.8-0.6-4.9-2.1c-0.7-1.1-1.5-1.2-2.6-1.1c-0.3,0-0.5-0.1-0.8,0c-0.4,0-0.4,0.4-0.3,0.6
			c0.1,0.3,0.4,0.6,0.7,0.9c0.5,0.4,1.1,0.7,1.5,1.2c1.1,1.2,1.1,2.7-0.1,3.7c-1,0.8-1.8,1.9-3.3,1.7c-0.8-0.1-1.3,0.6-2,0.9
			c-0.5,0.2-0.9,0.2-1.4,0c-0.6-0.3-0.8-1.4-0.4-1.9c0.7-0.8,1.6-1.2,2.7-1.4c0.6-0.1,1.3-0.1,1.9-0.2c0.2,0,0.5-0.3,0.6-0.5
			c0.1-0.2-0.1-0.6-0.2-0.7c-1.1-0.7-2-1.6-2.7-2.9c-0.9,0.2-1.3,0.9-1.8,1.3c-1.7,1.1-3.1,1-4.4-0.7c-0.7-0.8-1.2-1.7-1.2-2.8
			c0-0.4-0.1-0.7-0.2-1.1c-0.2-0.6-0.9-0.9-1.5-0.5c-1.3,0.8-2.6,0.9-4,0.7c-1.6-0.1-2.7-1.3-2.8-2.9c-0.1-2,0.7-3.7,2.5-4.6
			c1.2-0.6,2.4-1,3.6-1.6c0.5-0.2,0.7-0.6,0.5-1.1c-0.2-0.8-0.4-1.6-0.6-2.4c-0.3-1-1.3-1.4-2.1-0.7c-0.5,0.5-1,1.1-1.4,1.7
			c-0.3,0.5-0.5,1-0.9,1.4c-1.1,1.6-3.1,1.8-4.6,0.5c-1.3-1.1-1.6-2.4-0.9-4c0.6-1.5,1.5-2.5,3-3.2c0.9-0.4,1.9-0.8,2.8-1.2
			c0.9-0.4,1.1-1.2,0.5-2.1c0-0.1-0.1-0.1-0.2-0.2c-1.9-2.4-1.7-4.8,0.1-7.2c0.5-0.6,0.7-1.3,0.7-2c0-1.1,0.1-2.2,0.1-3.4
			c0-1.1,0.2-2.3,0.7-3.3c0.7-1.4,0.8-2.8,0.7-4.3c-0.2-2.2,0.3-4.3,1.9-6c0.6-0.6,0.7-1.3,0.8-2c0-0.5-0.3-0.7-0.7-0.6
			c-1.5,0.3-2.9,0.7-4.2,1.6c-0.2,0.6,0.4,0.9,0.5,1.4c0.1,0.2,0.1,0.3,0.2,0.5c0.4,2.9-3.3,6.2-6.2,5.4c-0.3-0.1-0.7-0.4-1-0.2
			c-0.1,0.1-0.3,0.2-0.4,0.4c0,0.2,0,0.4,0.1,0.5c0.2,0.2,0.4,0.3,0.7,0.4c0.6,0.2,1.3,0.3,1.9,0.4c2.9,0.4,4.1,2.5,3.1,5.2
			c-0.1,0.3-0.2,0.5-0.3,0.8c-1.3,1.8-2,4-3.7,5.5c-0.7,0.6-0.9,1.3-0.7,2.2c0.2,0.6-0.4,1.3-1.1,1.4c-0.6,0.1-1.1-0.1-1.5-0.5
			c-0.7-0.8-0.8-1.8-0.2-2.9c0.5-0.8,1.1-1.5,1.7-2.2c0.3-0.4,0.1-0.9-0.4-1c-0.4-0.1-0.7-0.1-1.1-0.1c-1.2-0.2-2-1-2.1-1.9
			c0-1.1,0.7-1.6,1.6-2.1c1.5-0.7,2.9-1.3,4.6-0.6c0.3,0.1,0.6-0.1,0.6-0.3c0.1-0.4-0.1-0.8-0.4-0.9c-0.3-0.2-0.7-0.1-1.1-0.2
			c-0.7-0.1-1.5-0.2-2.2-0.4c-2.2-0.7-2.8-2-2-4.1c0.7-1.8,1.8-3.4,3.1-4.9c3.4-3.8,7.6-5.6,12.4-6.4c1.5-0.2,2.9-0.6,4.3-1.2
			c2.6-1.2,5.2-2,8.1-1.2c1.1,0.3,2.2-0.1,3.3-0.5c0.8-0.3,1.5-0.8,1.8-1.6c0.1-0.2,0.1-0.4,0.2-0.5c1.9-4,5.3-5.9,9.7-5.5
			c1.6,0.2,3.1,0.4,4.6,1.1c1.1,0.5,2.5,0.1,3.2-0.8c0.1-0.1,0.2-0.3,0.3-0.5c3.2-4.7,8-5.8,13.2-5.8c1.5,0,2.6,0.9,3.5,2
			c0.6,0.8,1.1,1.7,1.4,2.7c0.3,1.4,1.4,2,2.7,2c2.5,0,5,0.6,7.4,1.2c0.8,0.2,1.4-0.1,2-0.6c1.5-1.4,3-0.5,3.7,0.7
			c0.4,0.6,0.8,1.3,0.8,2.1c0.1,1.1-0.1,2.1-1.1,2.7c-0.6,0.3-1.1,0.7-1.3,1.4c-0.3,0.6-0.3,1.1,0.4,1.4c0.6,0.3,1.2,0.6,1.1,1.4
			c-0.1,0.8-0.8,1.2-1.6,1.4c-1,0.2-2,0.4-3,0.7c-0.6,0.2-1.1,0-1.5-0.4c-0.3-0.2-0.5-0.5-0.9-0.1c-0.6,0.7-0.8,1.5-0.4,1.7
			c0.9,0.5,1.3,1.3,1.9,2c1.1,1.5,0.6,3.6-1.1,4.4c-1.1,0.6-1.3,1.5-1.8,2.4c-0.3,0.3-0.4,0.6-0.2,0.9
			C369.9,443.2,370.2,443.2,370.4,443z M326.5,453.6c0.1-0.1,0.1-0.2,0.2-0.3C326.6,453.4,326.6,453.5,326.5,453.6
			c-0.1,0.2-0.2,0.3-0.3,0.4c0,0.1-0.1,0.2-0.1,0.2c0,0.1,0.1,0.1,0.1,0.2c0-0.1,0.1-0.2,0.1-0.3
			C326.4,453.9,326.4,453.8,326.5,453.6z M334.2,455.1c2.9-0.8,3.1-1,3.8-1.9c-1.4,0.1-2.7,0.4-3.7,1.5
			C334.1,454.7,334.2,454.9,334.2,455.1z M302.1,466.8c-1.8,0.1-2.7,0.7-3.1,2c-0.1,0.2,0,0.5,0,0.8c0,0.1,0.2,0.3,0.4,0.3
			c0.1,0,0.4,0,0.5-0.1c0.7-0.9,1.4-1.9,2-2.9l0.1,0L302.1,466.8z M305.9,460.9c0,0.1-0.1,0.2-0.1,0.2c0,0.2,0.1,0.3,0.1,0.5
			c0,1.1-0.3,2.1-0.9,3.2c0.7,0.3,1.3,0.5,1.8,0.8c0.1,0,0.4,0,0.5-0.1c0.2-0.2,0.3-0.4,0.1-0.7c-0.6-1-1.6-1.8-1.4-3.2
			c0-0.2,0-0.5,0-0.7c-0.2-1.6-0.1-3.3-1.8-4.4c-0.6,1.4-0.3,2.4,0.7,3.4C305.3,460.2,305.6,460.6,305.9,460.9z M365.4,422.4
			c-1.4,0-2.7-0.5-3.8-1.4c-0.3-0.2-0.5-0.6-0.8,0c-0.1,0.2,0,0.6,0.2,0.7c1.3,1.1,2.6,2.1,4.5,1.4c0.1,0,0.2,0,0.3,0
			c0.7,0.1,1.4,0,2.1-0.7C366.8,422.3,366.1,422.1,365.4,422.4z M333.1,431.3c0.1,0.1,0.1,0.1,0.2,0.2c0.1,0.1,0.1,0.6,0.3,0.2
			C333.7,431.4,333.4,431.1,333.1,431.3c0.3-0.3,0.2-0.8,0.2-1.2c-0.2-1.8,0.4-3.3,2.1-4.2c0.3-0.2,0.7-0.3,0.6-0.8
			c-0.1-0.3-0.7-0.5-1.2-0.3c-0.9,0.3-1.7,0.7-2.5,1.3c-0.8,0.6-1.1,1.5-1.1,2.4c0,0.8,0.3,1.4,1,1.8
			C332.5,430.5,332.8,431,333.1,431.3z M338.8,431.2c-0.3-0.4,0-0.7,0.1-1c0.3-1.2,0.1-1.5-1-1.7c-0.3-0.1-0.5-0.1-0.8-0.1
			c-0.9-0.1-1.4,0.5-1.2,1.4c0.2,0.9,0.7,1.5,1.7,1.5C338,431.3,338.4,431.2,338.8,431.2c0.2,0.2,0.2,0.4,0,0.7
			c-0.2,0.4-0.5,0.8-0.6,1.2c-0.4,1.5,0.4,2.7,2.2,3.4c1.3,0.5,1.1-0.9,1.6-1.5c0.4-0.4,1.2-0.7,1-1.5c-0.6-0.6-1.4-0.9-1.9-1.7
			C340.6,431,339.7,431.1,338.8,431.2z M315.3,436.8c-1.6,1.2-2.2,2.9-2.6,4.7c-0.2,1.1,0.2,2,1.2,2.6c0.8,0.4,1.7,0.8,2.5,1.2
			c1.4,0.6,2.1,1.8,2.3,3.3c0.1,0.7,0.1,1.4,0.1,2.1c0.3,0,0.5,0.1,0.7,0c0.6-0.3,1.2-0.6,1.7-1c1.1-0.7,1.3-1.4,0.7-2.6
			c-0.3-0.6-0.7-1.1-1.2-1.5c-1.2-0.9-2.1-2.1-3.7-2.4c-0.7-0.2-1-0.8-1.3-1.4c-0.5-1-0.4-2-0.5-3
			C315.2,438.2,315.8,437.4,315.3,436.8c0.1,0.1,0.3,0.2,0.4,0c0-0.1-0.1-0.2-0.1-0.4C315.5,436.5,315.4,436.7,315.3,436.8z
			 M510.2,558.6c-0.8-0.4-1.3,0-1.8,0.4c-0.9,0.8-1.6,1.8-2,3c-0.2,0.5-0.4,1.1-0.6,1.5c-0.2,0.5-0.7,0.6-1.2,0.5
			c-0.8-0.2-1.1-0.9-0.8-1.5c0.6-0.9,1.3-1.8,1.9-2.8c0.2-0.3,0.2-0.7-0.1-1c-0.3-0.3-0.7-0.1-1,0.2c-1.2,1.3-2.3,2.7-2.9,4.4
			c-0.3,0.9-0.8,1.6-1.5,2.3c-1.6,1.8-3.4,3.5-4.3,5.8c-0.2,0.5-0.7,0.8-1.2,1.2c-1.9,1.6-3.9,3.1-5.7,4.9c-2.2,2.3-4.8,3.4-8.1,2.2
			c-1.4-0.5-2.7-1.2-3.9-2.1c-2.5-1.8-4.9-3.7-7.5-5.3c-2.4-1.5-4.4-3.4-6.5-5.3c-2.8-2.6-5.3-5.5-8.1-8c-2.6-2.4-5-5-7.8-7.2
			c-0.9-0.7-1.8-1.7-2.5-2.7c-1.4-2.1-3.1-4-5.1-5.5c-0.4-0.3-0.8-0.6-1-0.9c-1.3-1.8-3.3-2.7-5.2-3.6c-2.1-1-4.2-0.8-6.3-0.3
			c-1,0.2-2,0.7-2.6,1.6c-1,1.5-2.6,1.9-4.2,2.3c-0.5,0.1-1.2,0.2-1.6,0.5c-0.9,0.7-1.9,0.8-2.9,0.9c-1.7,0.2-3.3,0.4-5,0.7
			c-2.2,0.4-4.3,0.9-6.4,1.7c0.2,0.4,0.3,0.6,0.5,0.8c0.9,1.3,1.9,2.5,2.8,3.8c0.8,1.2,1.7,2.5,2.2,3.9c0.6,1.5,1.2,2.9,2.4,3.9
			c0.3,0.2,0.3,0.7,0.4,1c0.2,0.4,0.4,0.9,0.7,1.2c1.1,1,1.6,2.3,2.1,3.6c0.8,2,1.5,4,2.3,6c0.2,0.6,0.8,0.8,1.3,0.3
			c1.8-1.3,3.7-2.5,5.3-4.2c1.4-1.5,3.1-2.7,4.8-3.9c1-0.7,2.2-0.6,3.3-0.4c1,0.1,1,1.2,1.4,1.9c0.3,0.6,0.5,1.2,0.7,1.8
			c1,2.2,1.9,4.5,3.4,6.4c2.4,2.9,5.2,5.4,9.3,5.6c0.4,0,0.9,0.2,1.3,0.4c1.7,0.8,3.3,1.7,5,2.5c1.2,0.6,2.6,1.1,3.9,1.5
			c2.7,0.7,5.4,1.6,7.7,3.3c0.4,0.3,0.8,0.5,1.2,0.6c1.8,0.5,3.4,1.7,4.6,3c2.2,2.2,4.6,4.3,6.3,7.1c0.6,0.9,1.4,1.7,2.1,2.6
			c1.1,1.3,2.6,1.8,4.1,2.2c1.7,0.4,3.4,0.1,4.7-1.2c1.4-1.3,2.9-2.7,3.6-4.6c0.8-2.3,1.9-4.4,3.2-6.5c0.3-0.5,0.5-1,0.8-1.5
			c0.4-0.8,0.8-1.7,1.3-2.4c1.4-1.8,2.5-3.7,3.8-5.5c0.3-0.5,0.6-0.8,1.2-1c5-1.3,7.4-5,8.8-9.6c0.1-0.4,0.2-1,0.1-1.4
			c-0.5-1.5,0.1-2.4,1.4-3.2c1.4-0.9,2.6-2.1,3.5-3.5c0.7-1,0.6-1.9,0.1-2.9c-0.4-0.8-1.1-0.9-1.7-0.2c-0.9,1-1.9,2.1-3.1,2.8
			c-0.5,0.3-0.9,0.9-1.3,1.4c-0.4,0.5-0.6,1.2-0.9,1.7c-0.2,0.3-0.6,0.5-1,0.4c-0.5-0.2-0.7-0.5-0.7-1.1c0-0.7,0.4-1.2,0.8-1.8
			C508.9,560.4,509.5,559.5,510.2,558.6z M370.8,471.6c-2,0.1-3.6,0.1-5.1-0.1c-2.2-0.3-4.4-1-6.2-2.3c-2.7-1.9-4.8-4.4-6.5-7.2
			c-0.4-0.7-0.3-1,0.4-1.3c1.7-0.6,3.3-1.2,5-1.7c4.1-1,8.1-2.9,12.4-2.9c0.1,0,0.3-0.2,0.4-0.3c0-0.1,0.1-0.2,0.1-0.3
			c0-2.5,0.8-4.4,3.1-5.9c1.5-0.9,1.7-2.6,1.4-4.3c-0.2-1-1.2-1.5-2.1-1.1c-1,0.5-2,1-3,1.5c-1,0.4-1.8,0.3-2.5-0.5
			c-0.4-0.5-0.7-1.1-1-1.6c-0.7-1.3-1.1-2.8-1.3-4.3c-0.2-1.7-0.9-3.3-1.7-4.7c-1.7-2.8-3.8-5.1-7.1-5.8c-3-0.6-6.1-1-9.2-1.1
			c-0.7,0-1.3,0.2-1.7,0.8c-0.4,0.4-0.8,0.8-1.2,1.2c-0.5,0.6-0.5,1,0,1.4c0.6,0.5,1.2,0.9,1.8,1.4c0.7,0.5,1.3,1.1,1.4,2
			c0.2,0.9,0.6,1.7,1.1,2.5c1,1.8,0.3,3.7-1.4,4.4c-0.6,0.2-1.1,0.1-1.6,0.1c-0.6,0-1.1,0.1-1.2,0.8c-0.1,0.8-0.6,1.5-1,2.3
			c-0.7,1-0.8,2-0.1,3.1c0.5,0.8,0.9,1.6,1.3,2.4c1.1,2.4,1,4.7-0.9,6.7c-0.4,0.5-0.8,1-1.2,1.6c-0.3,0.5-0.3,1,0.1,1.5
			c1.1,1.2,2,2.4,2.5,4c0.5,1.4-0.3,2.6-1.7,2.8c-0.7,0.1-1.4,0.1-2.2,0.1c0,1.6,0,3.1,0,4.6c0,1.6-0.7,2.9-1.6,4.1
			c-0.3,0.4-1,0.4-0.9,1.2c0.5,0,1,0,1.4,0.1c1.7,0.4,2.4,1.2,2.3,2.9c-0.1,0.8-0.2,1.7-0.4,2.5c-0.1,0.7-0.8,1.1-1.4,1
			c-0.6-0.1-1.1-0.8-1-1.5c0-0.6,0.1-1.3,0.2-1.9c0-0.3-0.2-0.6-0.5-0.6c-0.6-0.1-1.3-0.2-1.9-0.3c-0.4,0-0.7,0.1-0.9,0.4
			c-0.3,0.4,0,0.6,0.2,0.9c0.9,1.5,1,1.8-0.3,2.8c-0.8,0.7-0.7,1.2-0.4,2.1c0.3,0.9-0.7,1.6-1.6,1.3c-0.6-0.2-1.1-0.6-1.7-0.9
			c-0.7,0.6-0.9,1.4-1.3,2.1c-0.4,0.6-0.3,1.3,0,1.9c0.3,0.6,0.6,1.2,1,1.7c0.8,0.9,1.6,1.8,2.2,2.9c0.7,1.1,2.2,0.8,3.2,1.4
			c0.4,0.3,0.8,0.5,1.2,0.7c2.4,1.6,4.6,3.5,6.3,5.9c1.8,2.5,3.1,5.1,3.9,8c0.3,1.2,0.9,2,1.9,2.6c1.1,0.7,2.2,1.3,3.4,1.9
			c1.7,0.8,3.5,0.6,5.2,0.5c1.1-0.1,2.2-0.8,2.5-2c0.8-2.4,1.1-4.9,0.1-7.4c-1-2.4-2.1-4.8-3.2-7.1c-1-2.1-2.2-3.9-4.7-4.4
			c-0.7-0.2-1.1-0.5-1.4-1.2c-1.5-4.3-1.5-8.6,0.3-12.8c0.2-0.6,0.6-0.9,1.2-1.1c2.5-0.8,5-1.9,7.8-1.9c2.1,0.1,4-0.6,5.6-2.1
			C369.6,474.5,370.1,473.2,370.8,471.6z M304.1,615.6c1.6,0,3.2,0,4.8,0c0.7,0,1.3,0,1.9,0.5c0.5,0.4,0.7,0.9,0.6,1.5
			c-0.1,0.5-0.6,0.8-1.1,0.7c-2.1-0.1-4.1,0.5-6.1,0.7c-3.6,0.3-6.6,2-9.5,3.8c-0.3,0.2-0.6,0.5-0.4,0.9c0.1,0.2,0.4,0.3,0.7,0.4
			c0.6,0.2,1.1-0.1,1.6-0.2c2.6-0.4,5.1-1,7.7-1.1c3.1-0.1,6.1-0.5,8.8-2.1c0.7-0.4,1.3-0.7,2.1-0.7c0.6,0,1.1,0.1,1.3,0.8
			c0.2,0.6,0,1.2-0.5,1.4c-2,0.8-3.8,2-5.9,2.5c-2.7,0.6-4.9,2.2-7.1,3.8c-0.4,0.3-0.7,0.6-1,1c-0.2,0.2-0.3,0.5-0.1,0.8
			c0.2,0.2,0.4,0.4,0.7,0.4c1,0.1,1.9-0.3,2.6-0.9c1.7-1.5,3.5-2.4,5.8-2.6c0.7-0.1,1.5-0.3,2.2-0.4c1.3-0.3,2.7-0.3,3.8-0.9
			c1.7-0.9,3.5-1.7,4.9-3.1c2.7-2.5,5.9-3.8,9.5-4.2c2-0.2,4,0.1,5.7,0.9c2,1,4.2,1.5,6.2,2.4c0.9,0.4,1.8,0.5,2.7,0.3
			c0.4-0.1,0.5-0.5,0.4-0.9c-0.2-0.8-0.8-1.2-1.4-1.7c-3.1-2.3-6.2-4.5-9.1-6.9c-2.6-2.2-3.9-5.1-3.5-8.7c0.4-3.4,0.8-6.9,0.4-10.3
			c-0.1-0.8-0.1-1.7,0-2.5c0.5-5.6,0.5-11.2,0.7-16.8c0.1-1.7,0.1-3.4,0.1-5c0-4.3,0.7-8.6,0.5-12.9c-0.1-1.6,0-3.2,0-4.8
			c0-1.8,0.5-3.5,1.5-5c0.6-1,0.9-2,1.3-3.1c0.9-2.6,1.1-5.3,1.8-7.9c0.4-1.7,0.6-3.5,0.6-5.3c0-1-0.1-1.2-1-1.1
			c-2.5,0.3-5,0.5-7.3,1.8c-1.1,0.6-2.2,0.9-3.3,1.5c-1.1,0.6-2.8,0.6-3.4,1.8c-0.7,1.2-0.2,2.7-0.2,4.1c0,0.6,0.2,1.1,0.2,1.7
			c0.1,1,0.2,2,0.3,3.1c0.1,2.1,0.1,4.3,0.3,6.4c0.8,8.8,0.4,17.5-0.3,26.3c-0.5,6.1-1.3,12.2-2,18.4c-0.1,1.1-0.3,2.3-0.2,3.3
			c0.2,1.5,0.1,3,0.1,4.5c0,3.3-2.7,5.8-6,5.6c-2.7-0.1-5.4-0.3-8.1-0.5c-2.5-0.2-5-0.5-7.5-0.8c-0.6-0.1-1.1-0.2-1.6,0
			c-0.3,0.1-0.8,0.2-0.9,0.6c-0.1,0.4,0.2,0.7,0.6,0.8c0.7,0.3,1.4,0.6,2.1,0.8c2.1,0.5,4.2,0.9,6.3,1.4c0.4,0.1,0.7,0.1,1.1,0.3
			c0.4,0.2,0.8,0.4,0.7,1c-0.1,0.4-0.5,0.6-0.8,0.6c-2,0.2-4.1,0.6-6.1,0.5c-3.6-0.2-7,1-10.4,1.9c-0.4,0.1-0.7,0.3-0.9,0.6
			c-0.2,0.3-0.4,0.7-0.2,1c0.1,0.2,0.5,0.3,0.7,0.3c1.8-0.1,3.6,0,5.3-0.4C299.3,615.3,301.7,615.6,304.1,615.6z M381.8,545.2
			c1.3-0.5,2.8-1,3.6-2c1-1.4,2.5-1.9,3.8-2.7c0.9-0.6,2-0.7,3-0.5c2.6,0.5,5.3,0.9,7.7,2.3c1.1,0.7,2.2,0.9,3.4,0.2
			c0.4-0.2,0.9-0.2,1.4-0.2c2.9-0.4,5.9-0.9,8.9-1.3c1.9-0.2,3.6-0.6,4.6-2.5c0.3-0.5,0.8-0.8,1.1-1.2c1.3-1.5,2.7-2.9,3.8-4.5
			c1.1-1.6,2.3-3.1,3.4-4.7c1.5-2.2,3.7-4,5.2-6.2c1.9-2.9,4.6-5.2,7.1-7.5c0.7-0.6,1.6-1,2.4-1.4c2-0.9,4.1-1.1,6.2-1.6
			c3.2-0.8,6.2-2.1,8.7-4.3c0.4-0.4,0.9-0.6,1.1-1.2c0.7-1.8,1.2-3.6,0.8-5.5c-0.2-1.1-0.5-2.2-0.9-3.2c-1.2-3.1-2.5-6.2-3.7-9.4
			c-0.2-0.6-0.6-1.1-1.2-1.5c-0.2-0.1-0.4-0.2-0.5-0.1c-0.3,0.1-0.3,0.4-0.3,0.6c-0.1,1.4,1,2.4,1.3,3.7c0.2,1.1,0.8,2.1,1.6,2.9
			c1,0.9,1.3,2,1,3.3c-0.1,0.5-0.1,1.1-0.2,1.7c-0.3,2.4-1.1,3.3-3.5,3.3c-3-0.1-5.7,0.5-8.4,1.7c-1.7,0.8-3.4,1.6-4.5,3.1
			c-0.3,0.4-0.7,0.8-1.3,1c-0.3,0.1-0.6,0.1-0.7-0.2c-0.1-0.1-0.2-0.3-0.2-0.5c0.1-1.2,0.8-2.2,1.7-2.8c2.9-2,6-3.8,9.7-4.1
			c1.1-0.1,2.2,0.1,3.3,0.2c1.4,0.1,2.1-0.5,2.1-2c0-2.4-0.6-4.6-2.5-6.5c-0.5,0.6-1,1.1-1.4,1.6c-0.9,1-1.9,1.7-3.1,2.3
			c-2.2,1-4.6,1.4-7,1.6c-0.6,0-1.2,0.1-1.7-0.1c-1.6-0.7-3.3-1.2-4.7-2.3c-1.3-1.1-2-2.2-1.7-4c0.3-1.8,0.2-3.7-1.7-5.2
			c-0.8,1.9-1.8,3.6-1.5,5.6c0.6,4,0.4,8,1.5,11.9c0.3,1.2,0.3,2.4-0.1,3.6c-0.7,2.2-1.6,4.4-2.7,6.4c-1.2,2.3-3.2,3.9-5.1,5.6
			c-1.5,1.4-3.1,2.7-4.6,4.1c-3.8,3.4-7.6,6.8-12.1,9.4c-0.8,0.4-1.5,1.1-2.1,1.8c-1.5,1.8-3.6,2.1-5.8,2.2c-0.5,0-1-0.2-1.5-0.6
			c-1.8-1.4-2.5-3.5-3.2-5.4c-0.6-1.6-1.3-2.7-3-4.2c-2.5,2-5.1,4-7.7,6c-0.9,0.7-1.3,1.5-1.2,2.6c0.1,2,0.3,4-0.7,5.8
			c-0.9,1.6-0.2,2.6,0.8,3.6C380.8,544.3,381.1,544.9,381.8,545.2z M368.1,470.5c1.2,0,2.2-0.5,3.1-1.1c0.8-0.6,0.5-1.5,0.6-2.3
			c0.1-0.5,0.1-0.9,0.2-1.4c0.3-1.8,0.2-1.8-1.5-2.1c-0.4-0.1-0.7-0.2-1.1-0.2c-2.9,0-5.5,1.4-6.4,4.3c-0.3,0.9,0.1,1.8,1,2
			C365.3,470,366.7,470.2,368.1,470.5z M329,459.8c0.1,0,0.1,0,0.2,0c0,0.4,0,0.7,0,1.1c-0.1,1.6,0.6,2.7,1.9,3.5
			c0.5,0.4,1.1,0.7,1.7,1c0.6,0.2,1.2,0.5,1.6,1.1c0.5,0.8,1.3,0.6,2,0.3c0.7-0.3,1.2-0.8,1.8-1.3c1.3-1,1.2-1.6-0.2-2.5
			c-0.4-0.3-0.8-0.4-1.3-0.4c-1.2,0-2.2,0.2-3.1,1c-1.2,1.1-2.5,0.2-3-0.8c-0.9-1.8-1.1-3.8-0.5-5.7c1-2.9,2.7-5.3,5.8-6.3
			c0.2-0.1,0.4-0.1,0.5-0.2c0.1-0.1,0.2-0.3,0.3-0.5c0.1-0.3-0.2-0.5-0.4-0.6c-0.9-0.6-1.8-0.1-2.7,0.2c-1.8,0.5-3.2,1.8-3.6,3.5
			C329.4,455.4,329.3,457.6,329,459.8z M460,501.1c1.9-3.3,3.1-6.7,3.9-10.3c0.2-0.9,0.2-1.5-0.1-2.4c-0.9-2.7-2.5-5.2-3-8.1
			c0-0.1-0.2-0.3-0.4-0.3c-0.3-0.1-0.5,0.2-0.6,0.4c-0.4,1.1-0.4,2.2,0.1,3.2c0.5,1.1,1,2.2,1.6,3.3c0.9,1.6,1,3.1-0.2,4.6
			c-0.5,0.6-0.7,1.3-1.1,1.9c-0.7,1.3-1.3,2.5-0.7,4.1C460,498.7,459.9,500,460,501.1z M310,442.6c0.1-0.3,0.2-0.5,0.2-0.8
			c0.2-3.2,1.8-5.6,3.9-7.8c1.7-1.7,3.6-2.6,6-1.9c0.3-0.9,1.1-1.5,0.7-2.4c-3.5-0.9-6.3,0.7-9.2,2.2c-0.4,0.2-0.8,0.6-0.7,1.1
			c0.1,1.1-0.4,2-0.7,2.9c-0.6,1.8-1.2,3.5-1,5.4C309.2,441.9,309.4,442.4,310,442.6z M311.5,454.1c0.1-0.1,0.3-0.3,0.3-0.4
			c-0.1-1.7,1-2.5,2.5-2.8c0.4-0.1,0.7-0.1,1.1-0.2c0.6-0.2,1-0.8,0.9-1.5c0-0.8-0.5-1.4-1.2-1.7c-1.6-0.5-2.8-1.8-4.6-1.8
			c-0.4,0-0.8-0.4-1.2-0.7c-0.3-0.2-0.5-0.5-0.8-0.8c-0.1-0.1-0.4-0.1-0.5-0.1c-0.2,0.2-0.4,0.5-0.4,0.7c0.2,0.7,0.4,1.4,0.8,2
			c0.6,0.7,1,1.5,1.5,2.3C311.5,451.6,311.5,451.6,311.5,454.1z M310.4,479.1c0.7,0.5,1.5,0.8,2.3,0.7c0.5,0,1-0.1,1.3-0.4
			c0.5-0.4-0.2-0.8-0.3-1.1c-0.2-0.6-0.2-1.3,0-1.9c0.3-1.2,1.4-1.6,2.2-0.6c0.8,0.9,1.5,0.3,2.3,0.4c0.7,0.1,1.2-0.7,1.8-1.2
			c0.1-0.1,0-0.4-0.4-0.3c-0.7,0.2-1.2-0.2-1.5-0.9c-0.4-0.9-0.5-1.8-0.3-2.7c0.2-1.1,0.4-2.3,0.7-3.4c-1,0.2-1.4,0.9-1.6,1.8
			c-0.2,0.8-0.1,1.7,0.1,2.5c0.1,0.5,0.3,1.1,0.3,1.6c0.1,0.5-0.5,1.1-1.1,1c-0.3,0-0.6,0-0.8-0.2c-0.8-0.6-1.4,0.1-2.1,0.2
			c-0.7,0.1-0.6,0.9-0.7,1.4c-0.2,0.7-0.6,1.1-1,1.7C311.1,478,310.5,478.4,310.4,479.1z M331.1,474.9c0.8-1.1,1.6-1.8,2.7-2.2
			c0.2-0.1,0.5-0.4,0.5-0.5c-0.1-1,1-1.6,0.9-2.6c-1.8,0-3.4-0.6-5.2-1c-0.1,1.4,0.2,2.7-0.5,3.9c-0.2,0.4-0.1,0.7,0.2,1
			C330.1,473.9,330.5,474.3,331.1,474.9z M330.1,448c-1.2,0-1.6-0.4-2.1-1.2c-1.1-2.1-2.2-4.1-2.5-6.5c0-0.1-0.1-0.2-0.1-0.2
			c-0.1-0.1-0.3-0.2-0.4-0.2c0,0-0.1,0.1-0.2,0.2c-0.6,0.8-0.6,1.8-0.2,2.7c0.3,0.9,0.8,1.7,1.3,2.5c0.4,0.6,0.9,1.2,1.3,1.8
			c0.5,0.8,0.7,1.6-0.2,2.2c-0.7,0.5-0.7,1.1-0.5,1.7c0.1,0.2,0.2,0.6,0.4,0.7c0.2,0.1,0.6-0.1,0.7-0.2
			C328.3,450.5,329.1,449.4,330.1,448z M329.1,434.3c-0.6-0.5-1-1-1.4-0.6c-0.8,0.9-1.8,1.3-2.9,1.6c-2,0.5-3.3,2-4.5,3.6
			c-1.2,1.8-1,2.7,0.9,3.8c0.1,0.1,0.4,0,0.7,0.1c0-0.6,0-1.1,0-1.7c0.1-2,0.8-3.5,2.9-3.9c0.6-0.1,1-0.4,1.3-0.9
			C326.7,435.2,327.8,434.7,329.1,434.3z M313.9,469.3c0.5-1.2,0.9-2.4,2-3.3c1.5-1.3,1.5-2.2,0.3-3.7c-0.4-0.5-0.9-0.9-1.4-1.4
			c-0.2-0.1-0.6-0.3-0.7-0.2c-1.2,1.2-2.6,2.3-2.7,4.2c0.8,0.1,0.9-0.7,1.3-1c0.5-0.4,1-0.5,1.6-0.4c0.5,0,0.9,0.3,1.1,0.8
			c0.2,0.5,0.1,1-0.3,1.2C313.3,466.5,313.3,467.9,313.9,469.3z M342,441.2c-0.7-1.5-0.8-1.8-1.6-2c-1.9-0.6-3.3-1.6-4.3-3.3
			c-0.4-0.7-1.4-0.5-1.8,0.3c-0.1,0.2-0.2,0.3-0.3,0.5c-0.5,1.4-0.3,1.9,1.3,2.5c0.8,0.3,1.6,0.5,2.3,1.1c0.4,0.3,0.8,0.4,1.3,0.3
			c0.6,0,1.1,0,1.7,0C341,440.7,341.3,441.4,342,441.2z M372,430c1.1-0.5,2.1-0.8,2-2.3c0-1.4,0.7-2.5,1.7-3.4
			c0.3-0.2,0.5-0.5,0.7-0.8c0.1-0.1,0-0.4-0.1-0.5c-0.1-0.1-0.4-0.2-0.5-0.2c-1.4,1.3-2.9,1.1-4.4,0.5c-0.2-0.1-0.5,0.1-0.8,0.2
			C372.4,426.1,372.4,426.2,372,430z M304.2,479.1c1.1,0.2,2.1-0.8,3.3-0.8c0.8-1.1,1.7-2.2,2.5-3.3c0.1-0.1-0.1-0.5-0.2-0.7
			c-0.1-0.2-0.4-0.4-0.7-0.2c-1.4,0.6-2.9,1.3-4.3,1.9c-0.7,0.3-1.3,0.7-1.7,1.4C302.7,478.2,303.1,479.1,304.2,479.1z M319.5,458.7
			c0.5-0.8,1-1.6,1.6-2.3c0.6-0.7,1.2-1.4,1.8-2.1c0.3-0.4,0.6-0.9,0.9-1.4c0.2-0.4,0.2-0.9-0.2-1.3c-0.4-0.3-0.6,0.2-1,0.3
			c-0.4,0.2-0.8,0.4-1.2,0.7C318.8,454.2,318.4,455.5,319.5,458.7z M352.4,416.5c-4,1-5.5,2.6-6,6.2c0.6,0,0.9-0.5,1.3-0.9
			c0.9-0.8,1.8-1.7,2.8-2.2C351.8,418.9,352.2,417.8,352.4,416.5z M357.3,421.3c-0.5-0.7-1.3-0.7-2-0.6c-3.1,0.2-5.2,2-6.9,4.4
			c0,0.1,0,0.2,0,0.3c0.2,0.1,0.3,0.2,0.5,0.2c0.3,0,0.6,0,0.8-0.2c0.9-1.1,2.2-1.6,3.5-2.1C354.5,422.5,355.9,421.9,357.3,421.3z
			 M340.4,423.2c-0.9-0.8-1.8-1.5-2.8-1.4c-1.7,0.1-3.5-0.5-5.2,0.4c-0.9,0.4-1.9,0.8-2.5,1.7c-0.2,0.3-0.7,0.7-0.2,1.2
			c0.7-0.8,1.6-1.3,2.5-1.8c1.1-0.6,2.2-1.1,3.4-1.1c1.8,0,2.3,0.4,2.7,2.4c0.1,0.3,0.1,0.5,0.4,0.6
			C339.4,424.7,339.9,424,340.4,423.2z M310.2,458c0.3-1-0.3-1.4-0.6-1.9c-0.8-1.6-2-2.9-1.6-4.9c0.1-0.7-0.4-1.2-0.8-1.7
			c-0.1-0.1-0.3-0.2-0.5-0.2c-0.1,0-0.3,0.2-0.3,0.4c-0.2,1.6,0.4,3.1,0.7,4.7C307.4,456,308.2,457.4,310.2,458z M328.6,426.8
			c-0.9,0.9-1.5,1.5-2.4,1.9c-0.7,0.3-1.3,0.6-1.5,1.5c0,0.3-0.5,0.5-0.8,0.7c-0.4,0.2-0.8,0.5-1,1c-0.2,0.3-0.5,0.7-0.3,1
			c0.2,0.4,0.6,0.2,1,0.1c0.7-0.2,1.6-0.1,1.6-1.2c0-1.3,0.7-1.8,1.9-1.8c0.4,0,0.9,0.1,1.4-0.3C328.6,428.9,328.6,428,328.6,426.8z
			 M328.1,439.2c-0.1,1.1,0.1,2.3,0.6,3.4c0.1,0.3,0.2,0.5,0.5,0.6c0.4,0.1,0.5-0.3,0.5-0.5c0.1-1.5,0.6-2.9,1.2-4.2
			c0.2-0.3,0.3-0.7,0.4-1c0.1-0.4-0.1-0.7-0.6-0.7C328.4,436.8,328,437.7,328.1,439.2z M325.8,455c-1.4,1.4-2.8,2.6-3.5,4.3
			c-0.5,1.4-0.8,3,0.5,4.4c0.5-0.3,0.5-0.6,0.6-1c0.1-1,0.2-2,0.2-3.1c0.1-1,0.2-1.2,1.3-1.4c0.5-0.1,0.9-0.1,0.9-0.7
			C325.8,456.7,326.3,456,325.8,455z M328.8,478.9c0,0,0.4,0,0.8-0.1c0.5-0.1,0.8-0.5,0.8-1c0-0.5-0.1-1-0.7-1.1
			c-0.9-0.2-1.4-0.8-1.9-1.5c-0.2-0.2-0.4-0.4-0.7-0.3c-0.7,0.3-1.5,0.3-1.7,1.3c-0.2,0.9,0.1,1.7,0.9,2.1
			C327,478.6,327.7,479,328.8,478.9z M465.7,487.4c1.4-1.7,2.3-3.6,3.3-5.4c0.1-0.2,0.2-0.5,0.2-0.8c0-0.2,0-0.4-0.1-0.5
			c-0.2-0.2-0.5-0.1-0.7,0.1c-1.4,1.2-2.1,3-3.2,4.5C464.7,486.1,465.1,486.7,465.7,487.4z M316.9,453.1c-1,0.1-1.9,0.1-2.3,0.9
			c-0.4,0.9-0.4,2,0,3c0.4,0.8,1,1.3,1.8,1.9c0-1.1-0.1-2,0-2.9C316.5,455.1,316.7,454.2,316.9,453.1z M337,458.7
			c0,0.2,0.1,0.6,0.2,0.9c0.2,0.6,1.7,0.9,1.9,0.4c0.5-1.2,1.2-2.3,1.2-3.6c0-0.2-0.2-0.5-0.3-0.7c0-0.1-0.1-0.1-0.2-0.2
			c-0.1,0.2-0.2,0.5-0.3,0.7c-0.4,0.4-0.9,0.6-1.4,0.8C337.1,457.2,336.9,457.8,337,458.7z M320.6,473.3c0.9-0.9,1.6-1.5,2.2-2.2
			c0.1-0.1,0.1-0.1,0.1-0.2c0-0.2,0.1-0.4,0-0.5c-0.2-0.7-0.5-1.4-0.8-2.1c-0.2-0.5-0.3-1-0.5-1.7
			C320.7,468.7,319.8,470.7,320.6,473.3z M325.3,472.6c1.7-0.6,2.2-1.2,2.2-2.5c0-1.3-0.4-2.4-1.8-2.8c-0.2-0.1-0.6-0.2-0.8,0
			c-0.2,0.1-0.2,0.5-0.1,0.7C325.6,469.5,325.6,471,325.3,472.6z M456.2,490.2c1.2-2.5,2.7-4.3,1.9-6.9c-0.8,1.2-1.5,2.1-2.1,3.1
			c-0.2,0.3-0.4,0.6-0.2,1C455.9,488.1,455.9,488.8,456.2,490.2z M355.1,418.1c0.6,0.1,1.3,0.1,1.9,0.2c0.6,0.1,1.2,0.4,1.8,0.6
			c0.5,0.2,0.9,0.7,1.7,0.9c-0.2-1-0.4-1.8-0.8-2.5c-0.2-0.3-0.4-0.7-0.8-0.5c-1,0.4-2,0.1-3,0.3C355.3,417.2,355,417.5,355.1,418.1
			z M340.6,450.8c0,0.3-0.1,0.8,0.1,1.2c0.5,0.9,1.2,1.7,1.8,2.5c0.1,0.1,0.4,0.1,0.5,0c0.1-0.1,0.3-0.3,0.3-0.4
			c0.2-1.8-0.5-3.3-1.5-4.6c-0.1-0.1-0.4-0.2-0.5-0.2c-0.2,0.1-0.5,0.3-0.6,0.6C340.6,450,340.6,450.3,340.6,450.8z M329.1,482.2
			c-1.2-0.1-2.4-0.3-3.5-0.7c-0.4-0.1-0.8-0.1-1,0.2c-0.3,0.5,0.1,0.9,0.3,1.2c0.4,0.5,1,0.9,1.7,0.9c0.6,0,1.3,0,1.9,0.2
			c0.5,0.2,0.5-0.3,0.6-0.7C329.1,483.1,329.1,482.7,329.1,482.2z M459.6,487.8c-0.7,1.5-1.3,2.6-1.9,3.8c-0.2,0.4-0.1,0.9-0.1,1.3
			c0,0.1,0.2,0.3,0.3,0.4c0.1,0.1,0.4,0,0.5-0.1c0.5-0.5,0.9-1.2,1.4-1.7c0.7-0.7,0.7-1.5,0.4-2.3
			C460,488.9,459.9,488.6,459.6,487.8z M364.5,429c-0.1,0.5,0.2,1.1,1.1,1.4c0.5,0.2,1,0.4,1.5,0.6c0.4,0.1,0.8-0.2,0.7-0.5
			c-0.2-0.6-0.4-1.2-0.6-1.8c-0.3-0.7-0.9-1.1-1.7-1.3c-0.4-0.1-0.7,0-0.9,0.5C364.5,428.1,364.5,428.4,364.5,429z M354,425.9
			c1.5,0.3,2.8,0.6,4.2,0.8c0.4,0.1,0.6-0.3,0.4-0.7c-0.2-0.4-0.3-0.8-0.8-1.1C356.3,424.2,355.2,424.6,354,425.9z M370.6,437.2
			c-0.4-1.1-1.1-1.5-1.8-2c-1.1,1-1.2,1.6-0.7,2.9c0.1,0.3,0.4,0.4,0.7,0.3C369.4,438,369.9,437.6,370.6,437.2z M345.6,439.5
			C345.6,439.5,345.6,439.5,345.6,439.5c0.2,0,0.4,0.1,0.5,0c0.4-0.1,0.8-0.2,0.8-0.6c0.1-0.6-0.4-0.5-0.7-0.5
			c-1.1,0-1.5-0.6-1.4-1.6c0-0.2,0.1-0.6-0.3-0.5c-0.2,0.1-0.5,0.3-0.6,0.5c-0.3,0.5-0.2,1.1-0.1,1.6c0.1,0.5,0.4,0.8,0.9,0.9
			C345.1,439.5,345.3,439.5,345.6,439.5z M311.4,471.4c-0.3-1.5-0.5-2.8-0.7-4.1c-0.7,0.4-1.5,0.7-1.5,1.6
			C309.2,470.2,310,470.9,311.4,471.4z M336.3,472.5c1,1.2,1.5,1.4,2.4,0.9c0.3-0.2,0.5-0.5,0.5-0.9c0-0.5-0.4-0.5-0.8-0.4
			C337.7,472.2,337,472.3,336.3,472.5z M333.7,476.6c0.7,0,1.3-0.5,1.5-1.3c0.1-0.2-0.1-0.5-0.2-0.7c-0.4-0.4-0.9-0.4-1.7,0.2
			c-0.1,0.1-0.2,0.1-0.2,0.2c-0.4,0.3-0.6,0.8-0.3,1.2C332.8,476.5,333.2,476.6,333.7,476.6z M335.5,442.1c-0.4-0.2-0.6-0.3-0.9-0.4
			c-0.7-0.2-1.3-0.8-2-0.3c-0.4,0.2,0.2,1.1,1.3,1.8c0.1,0.1,0.3,0.2,0.5,0.2c0.3,0.1,0.5-0.2,0.6-0.4
			C335.1,442.8,335.2,442.6,335.5,442.1z M322.7,478.6c-0.2-0.1-0.4-0.3-0.7-0.4c-0.2-0.1-0.3-0.2-0.5-0.2c-0.4-0.2-0.7-0.2-1,0.1
			c-0.4,0.4-0.4,1.2-0.1,1.5c0.3,0.3,0.7,0.4,1,0.3C322.1,479.7,322.6,479.3,322.7,478.6z M339.2,468.3c-0.9-0.1-1.3,0.8-1.9,1.1
			c-0.6,0.2-0.1,0.7,0.1,0.8c0.9,0.7,1.8,0.3,1.9-0.8C339.4,469.1,339.3,468.7,339.2,468.3z M326.3,462c-0.4,0.5-0.4,1.1-0.4,1.6
			c-0.1,1-0.1,1.1,1.6,1.3C327,463.9,326.7,463,326.3,462z M332.4,459.7c0.1,0.3-0.1,1,0.6,1c0.5,0,1.1-0.1,1.3-0.7
			c0.1-0.4,0.2-1-0.2-1.2c-0.4-0.2-0.9-0.1-1.3,0C332.4,458.8,332.4,459.3,332.4,459.7z M369.5,428.2c0.4-0.9,0.3-1.8-0.5-2.4
			c-0.4-0.3-1-0.4-1.3-0.1c-0.7,0.6,0.2,0.7,0.4,0.9C368.7,426.9,368.7,427.9,369.5,428.2z M300.7,436.9c-0.1-0.2-0.1-0.4-0.2-0.5
			c-0.2-0.2-0.5-0.1-0.7,0.1c-0.5,0.4-0.8,1-0.9,1.6c-0.1,0.3-0.1,0.6,0.2,0.7c0.1,0.1,0.4,0,0.5-0.2
			C300,438.1,300.6,437.7,300.7,436.9z M340.3,444.1c-0.2-0.7-0.8-1.1-1.4-0.9c-0.4,0.2-0.9,0.4-0.6,1c0.3,0.6,0.8,0.7,1.6,0.5
			C340.3,444.6,340.4,444.4,340.3,444.1z M314.1,482.4c-0.6-0.3-1.2-0.1-1.8-0.1c-0.3,0-0.5,0.3-0.4,0.5c0,0.6,0.9,1.1,1.3,0.8
			C313.7,483.4,314.1,483.1,314.1,482.4z M309.5,460.6c-0.5,0.2-0.8,1.3-0.4,1.6c0.1,0.1,0.2,0.1,0.2,0.1c0.3-0.4,0.7-0.8,0.6-1.4
			C309.9,460.7,309.7,460.7,309.5,460.6z M342,463.1c-0.2-0.1-0.3,0-0.3,0.3c-0.1,0.5,0,0.9,0.6,1.1c0.2,0,0.4,0,0.5-0.1
			c0.3-0.4,0-0.6-0.3-0.9C342.3,463.3,342.1,463.2,342,463.1z M343.1,428.2c0.1-0.2,0-0.3-0.2-0.4c-0.4-0.1-0.7,0-0.9,0.4
			c-0.1,0.1,0,0.4,0.1,0.5C342.2,428.9,342.9,428.6,343.1,428.2z M361.8,427.1c0-0.2-0.1-0.4-0.1-0.5c0-0.3-0.1-0.3-0.3-0.3
			c-0.1,0-0.1,0.1-0.2,0.2c-0.1,0.3-0.3,0.6-0.4,1c0,0.1,0.1,0.3,0.2,0.4c0.2,0.1,0.5,0.1,0.6-0.2
			C361.9,427.5,361.8,427.3,361.8,427.1z M332.3,445.4c-0.2-0.2-0.4-0.4-0.7-0.2c-0.1,0-0.2,0.1-0.2,0.2c0.1,0.3,0.3,0.3,0.5,0.3
			C332.1,445.6,332.2,445.5,332.3,445.4z"/>
		<path class="st2" d="M426.1,354c0.3,0.3,0.5,0.5,0.7,0.6c6.6,3.8,11.6,9.3,16.1,15.3c2.4,3.2,4.7,6.5,6.7,10
			c1.2,2.1,3,3.5,4.6,5.3c3.6,4.2,7.1,8.5,9.2,13.6c1.3,3.2,2.2,6.5,3.1,9.9c0.8,2.9,1.2,5.8,1.6,8.8c0.1,0.8,0.2,1.7,0.1,2.5
			c-0.2,2.7-0.3,5.4-1.1,8c-1.7,5.7-2.8,11.6-3.9,17.5c-0.5,2.5-1.3,4.8-2.1,7.2c-0.9,2.7-2.4,5-3.7,7.5c-1.2,2.4-2.6,4.8-3.9,7.1
			c-0.7,1.3-1.4,1.6-2.1,1.3c-0.7-0.4-0.9-1.1-0.4-2.5c0.6-1.9,1.2-3.8,2-5.5c1.3-2.6,2.2-5.3,3.2-8c1.2-3.4,2.3-6.9,3.3-10.4
			c1.4-4.8,2-9.7,2.1-14.6c0.2-4.5-0.5-8.9-1.5-13.3c-1-4.3-2-8.5-3.3-12.7c-1.1-3.7-2.8-7.1-4.6-10.5c-1.7-3.1-3.6-6.1-5.6-9.1
			c-0.9-1.3-2.1-2.4-3.1-3.6c-1.5-1.6-3.2-3.2-4.6-4.9c-4.4-5.3-10-9.2-15.8-12.8c-0.3-0.2-0.7-0.3-1.1-0.5
			c-1.4,1.4-2.7,2.8-4.1,4.2c-4,4.1-8.2,7.8-12.9,11.1c-5.2,3.7-10.6,3.6-16.2,1.2c-2.1-0.9-3.2-2.8-4-4.8c-0.8-2-1.3-4.1-1.5-6.2
			c-0.1-2.1,0-4.1,1-6c0.3-0.7,0.6-1.4,0.9-2.1c1.9-5.1,5.8-8.1,10.9-9.6c3.8-1.2,7.7-1.1,11.7-0.6c3.6,0.4,7.1,1.6,10.5,3
			c2.3,0.9,2.4,0.8,3.8-1.2c3.3-4.7,4.2-9.9,3-15.4c-0.7-3.3-2.3-6.1-4.6-8.5c-4.4-4.4-9.3-8.1-15.1-10.3c-2.9-1.1-5.9-1.9-8.9-2.4
			c-7.4-1.3-14.8-2-22.3-1.8c-4.4,0.1-8.8,0-13.2-0.1c-2.3,0-4.4,0.6-6.6,0.9c-5.6,0.7-11,1.9-16.4,3.3c-9.1,2.3-18.4,3.4-27.7,3
			c-6.1-0.2-12.1-1-18-2.4c-5.9-1.4-11.7-3.2-17.3-5.5c-2.8-1.2-5.6-2.6-8.2-4.2c-2-1.2-3.6-2.7-4.9-4.5c-2.6-3.6-3-7.5-1.7-11.7
			c1.1-3.4,3.3-6.1,5.7-8.5c5.2-5.3,11.1-9.6,17.9-12.7c4.1-1.9,8.2-3.5,12.5-4.9c6-2,11.9-4.3,18.2-5.6c2.5-0.6,5.1-1.1,7.7-1.6
			c5.9-1.4,11.8-2.7,17.7-4.1c4.5-1,9.1-2.1,13.6-3.1c4.2-0.9,8.4-1.8,12.6-2.6c4.8-0.9,9.6-1.5,14.4-2.1c4.6-0.5,9.3-1,13.9-1.4
			c0.5,0,0.9-0.1,1.4-0.2c4.7-0.3,9.3-0.5,14-0.8c1.6-0.1,3.2-0.4,4.7-0.3c5.7,0.2,11.4,0.2,17,1.3c2.6,0.5,5.1,0.9,7.6,1.9
			c6.1,2.5,11.5,6.2,16,11c2.2,2.3,3.5,5,4.4,8c0.3,1.1,0.2,2.6,1.2,3.3c0.9,0.6,2.2,0.2,3.3,0.2c5.9,0,11.7,0.6,17.6,1.3
			c2.2,0.3,4.4,0.5,6.7,0.7c6.1,0.5,12.2,1.7,18.2,3.1c7.8,1.7,15.4,4.3,23.2,6.4c4.5,1.2,8.8,3,12.8,5.5c2,1.2,4.1,2.2,6.3,3.1
			c3.2,1.3,5.7,3.4,7.6,6.3c1.7,2.5,2.9,5.2,3.9,8c0.3,0.8,0.4,1.6,0.5,2.5c0.1,0.9,0.1,1.9,0.3,2.8c0.5,2.6,0.3,5.2-1,7.6
			c-0.4,0.7-0.3,1.4-0.3,2.2c0,1.9-0.6,3.7-1.7,5.2c-1.3,1.9-2.6,3.9-5,4.7c-1.1,0.4-1.6,1.2-1.7,2.4c-0.3,3.8-1.1,7.5-1.8,11.3
			c-0.3,1.5-0.6,2.9-1.2,4.3c-1.1,2.7-2,5.4-3.2,8.1c-2.4,5.5-5.3,10.7-9.6,15c-0.1,0.1-0.3,0.3-0.4,0.4c-0.9,1.1-1.5,2.5-2.6,3.3
			c-3.5,2.6-6.4,6-10.1,8.4c-4.3,2.9-8.7,5.7-13.8,7.2c-3.9,1.1-7.8,1-11.6,0c-2.1-0.6-3.9-1.8-5.4-3.4c-1.4-1.5-2.7-3.1-4.1-4.6
			c-1.6-1.7-2.8-3.7-3.8-5.8c-2.2-4.6-4.3-9.3-6.1-14.1c-1.4-3.6-2.3-7.3-2.5-11.1c-0.2-3.2-0.4-6.3-0.6-9.5
			c-0.1-0.7-0.2-1.5-0.4-2.2c-0.2-0.7-0.6-1.1-1.4-1.1c-1.9,0-3.7,0-5.6,0.3c-3.2,0.4-6.5,0.6-9.7-0.2c-3.9-0.9-7.5-2.3-10.2-5.4
			c-0.7-0.8-1.7-1.5-2.5-2.2c-2.5-2.2-4.3-4.8-5.1-8.1c-0.7-2.9-0.2-5.5,2.2-7.3c2.6-2.1,5.3-4,8.2-5.8c2.5-1.5,5.4-2.1,8.2-2.7
			c5.8-1.2,11.6-1.8,17.5-1.7c2.5,0.1,5,0,7.6-0.1c2.1-0.1,4.1-0.4,6.1-1c0.5-0.2,1.1-0.4,1.5-0.7c1.6-1,1.8-3,0.3-4.3
			c-1.3-1.1-2.8-1.9-4.6-1.1c-0.9,0.3-1.8,0.4-2.6,1c-0.8,0.6-1.6,0.3-2.2-0.5c-0.6-0.7-0.6-1.6-0.1-2.3c1-1.4,2.3-2.2,4-2.3
			c0.8,0,1.7-0.1,2.5,0.1c2,0.5,4,1,5.9,1.7c2.2,0.8,3.7,2.4,4.7,4.6c1.1,2.5,0.5,5.4-1.6,7.1c-1.8,1.5-3.7,2.8-5.8,3.9
			c-3.6,1.9-7.5,2-11.5,1.5c-2.2-0.3-4.4-0.6-6.6-1c-3.9-0.6-7.8-0.4-11.7-0.1c-3.1,0.2-6.1,0.5-9.1,1.4c-1.9,0.5-3.5,1.2-4.6,2.9
			c-1.2,1.9-1.8,3.9-1.5,6.1c0.4,3.1,1.7,5.9,3.5,8.4c0.5,0.7,1.1,1.3,1.9,1.7c4.8,2.3,9.7,3.9,15.1,2.9c1.2-0.2,2.4-0.2,3.6-0.2
			c0.8,0,1.5-0.1,2.2-0.4c1.1-0.5,1.7-1.2,1.6-2.6c-0.1-2,0-4.1,0-6.2c0-2.4,0.2-4.8,0.6-7.2c0.2-1.6,1.3-2.3,2.8-1.7
			c2.2,0.9,4.4,1.6,6.4,2.7c4.5,2.5,9.3,3.7,14.3,4.4c4.3,0.7,8.7,1,13.1,1.4c3.6,0.4,7.3,0.2,10.9,0.2c3.4-0.1,6.7-0.2,10-0.7
			c2.9-0.4,5.9-0.9,8.7-1.7c1-0.3,1.9-0.7,2.8-1.3c3.1-2.1,6.3-0.2,7.3,2.8c0.1,0.2,0.1,0.4,0.1,0.5c0,0.5-0.1,1.1,0.4,1.2
			c0.7,0.3,1.2-0.2,1.7-0.7c2.1-2,3-4.4,2.8-7.3c0-0.5-0.3-1.1-0.5-1.6c-0.6-1.6-1.3-3.1-2-4.6c-0.8-1.8-2.3-3.1-4-4.2
			c-1.2-0.8-2.6-1.3-3.3-2.9c-0.2-0.5-0.9-0.9-1.4-1.3c-3.8-3.1-7.7-5.9-12.3-7.6c-1.8-0.7-3.7-1.1-5.6-1.6c-1.7-0.4-3.4-0.9-5-1.8
			c-4.3-2.4-8.9-3.8-13.6-4.9c-4.5-1.1-9-2.4-13.5-3.5c-5.7-1.5-11.4-2.8-17.2-4c-4.2-0.8-8.4-1.9-12.5-2.9
			c-1.1-0.2-2.2-0.4-3.3-0.6c-0.4-0.1-0.7,0.1-0.9,0.5c-0.2,0.4-0.4,0.8-0.6,1.3c-1.7,4.2-4.8,7-8.7,9.1c-4.7,2.5-9.8,4-15.1,5
			c-7.9,1.6-15.9,1.8-24,1.2c-6.3-0.5-12.6-1.8-18.7-3.5c-4.5-1.2-8.9-2.7-12.9-5.4c-0.8-0.5-1.5-1.1-2.2-1.7
			c-2.4-2-3.1-6.7-0.3-9.2c1.1-0.9,2.1-1.8,3.4-2.4c2.8-1.4,5.8-2,8.9-2.3c7.2-0.9,14.5-1.7,21.8-1.6c6.1,0.1,12.1,0.2,18.2,0.4
			c2.8,0.1,5.6,0.6,8.3,0.9c2.4,0.3,4.8,0.7,7.2,1c0.3,0,0.7,0.1,0.9-0.3c0.2-0.4-0.1-0.7-0.4-1c-0.7-0.7-1.5-1.5-2.3-2.1
			c-1.8-1.3-3.7-2.5-5.7-3.5c-6.2-3-12.6-5.6-19.2-7.5c-8.3-2.4-16.8-3.1-25.5-2.8c-7.5,0.2-14.9,1-22.3,1.9
			c-5.3,0.7-10.5,1.4-15.8,2.4c-3.8,0.8-7.7,1.3-11.5,2.1c-3.3,0.7-6.6,1.4-9.8,2.2c-4.2,1-8.3,2.2-12.4,3.3
			c-4.2,1.1-8.3,2.8-12.3,4.5c-3.5,1.5-6.9,3.2-10.4,4.9c-4.2,2.1-8.1,4.6-11.8,7.4c-1.8,1.4-3.4,3-4.9,4.6c-1.3,1.4-2.2,3-2.4,4.9
			c-0.3,3.2,1.1,5.6,3.5,7.5c1.8,1.3,3.7,2.4,5.8,3.3c3.2,1.4,6.5,2.3,9.8,3.3c5.6,1.7,11.3,2.4,17,3c5.4,0.6,10.8,1.1,16.2,1.4
			c8.5,0.5,17,0.5,25.5,0.6c1.3,0,2.6,0.1,3.9,0.2c1.1,0,2.2,0,3.3-0.2c5.1-0.7,10.1-1.6,15.2-2.1c3.5-0.3,6.9-0.1,10.3,0.4
			c5.6,0.9,11.2,2,16.6,3.7c7,2.2,12.7,6.3,16.8,12.3c1.3,1.8,2.3,3.9,2.9,6c1.3,4.3,2.1,8.7,2,13.2c-0.1,3.3-0.5,6.5-1.8,9.5
			C427,351.4,426.6,352.8,426.1,354z M388.5,272.9c0.2,0.8,0.8,1.1,1.3,1.4c1.8,1,3.6,2,5.5,2.8c3.7,1.8,7.7,2.8,11.7,3.9
			c5,1.4,10,2.1,15.2,2.2c6.5,0.2,13.1,0.3,19.6-0.6c2.6-0.4,5.2-0.9,7.4-2.3c3.4-2.1,4.3-3.3,2.5-7.9c-0.3-0.8-0.8-1.2-1.6-1.4
			c-3.4-0.5-6.7-1.6-10.2-1.3c-0.6,0.1-1.3,0-2-0.1c-4.7-0.3-9.3-0.7-14-0.9c-7-0.3-14-0.4-21,0.4c-3.5,0.4-7,0.9-10.5,1.7
			C390.9,271.2,389.6,271.8,388.5,272.9z M505.6,376.4c1.6,0.1,3.2,0,4.7-0.8c2.8-1.5,5.7-2.7,8.4-4.3c2.3-1.4,3.8-3.5,5.1-5.8
			c0.6-1.1,0.4-2.2,0-3.2c-0.2-0.4-0.4-0.7-0.8-0.7c-1.9-0.2-3.8-0.6-5.8,0c-1.5,0.5-2.9,1.3-4.2,2.2c-3.6,2.3-10.2,1.4-12.8-1.3
			c-1.2-1.2-2.7-1.9-4.1-2.7c-0.9-0.5-2.1-0.7-3.2-0.9c-1.8-0.2-3,0.9-3.3,2.7c-0.3,1.9,0.4,3.6,1.4,5c1.6,2.2,3.2,4.3,5.1,6.2
			C498.6,375.3,501.9,376.6,505.6,376.4z M415.5,356.3c-1.1-0.5-2.3-1-3.5-1.5c-1.4-0.5-2.8-1-4.3-1.4c-5.1-1.3-10.2-1.2-14.9,1.6
			c-1.6,0.9-3.2,1.9-4.1,3.7c-1.3,2.5-1.4,5.2-1,7.9c0.1,0.9,0.5,1.8,0.9,2.6c0.3,0.7,0.8,1.3,1.6,1.5c1.9,0.5,3.9,0.8,5.8-0.1
			c1.4-0.7,2.9-1.3,4.2-2.2c4.3-3,8.5-6.1,12.7-9.2c0.8-0.5,1.4-1.2,2.1-1.8C415.3,357.1,415.5,356.8,415.5,356.3z M528.8,341.9
			c0.4,0,0.6,0,0.8,0c0.5,0.1,0.9,0.2,1.4,0.3c0.9,0.2,1.3-0.1,1.9-1.2c0.4-0.7,0.3-1.3-0.2-1.8c-1.4-1.6-3-2.4-5.2-1.9
			c-1.8,0.4-3.6,1-5.2,1.9c-1.8,1.1-3.5,2.4-5.1,3.8c-0.5,0.4-0.9,1-1.2,1.5c-0.4,0.7-0.4,1.5,0.1,2.1c1,1.5,2.5,1.5,3.7,0.1
			c0.2-0.2,0.3-0.5,0.5-0.7C522.6,343.5,525.5,342.1,528.8,341.9z M492.8,333c-1.9-0.3-2.9,1-3.8,2.3c-0.6,0.9-0.2,1.7,0.9,1.7
			c2.7-0.1,5,1,7,2.4c2.3,1.6,4.7,3.3,5.1,6.6c0.1,0.5,0.8,0.8,1.4,0.5c0.6-0.2,0.9-0.7,1.1-1.2c0.5-1.5,0.5-2.9-0.3-4.3
			c-0.8-1.2-1.6-2.3-2.4-3.4C499.4,334.8,496.3,333.5,492.8,333z"/>
		<path class="st2" d="M547.9,348.2c0.8-1.9,1.5-3.7,2.2-5.4c1.2-3,1.8-6.1,2.2-9.2c0.2-1.7,0.5-3.3,0.7-5c0.1-0.5,0.6-0.7,1.1-0.5
			c0.7,0.3,1.3,0.7,2,1c5.4,2.4,10.9,4.3,16.7,5.6c5.5,1.2,11.1,1.4,16.7,1.2c4.3-0.1,8.5-1,12.3-3.4c1.2-0.8,2.3-0.6,3.4,0.1
			c0.7,0.4,1.1,1,1.1,1.8c-0.4,5.4-0.8,10.8-2.4,16c-1.3,4-2.8,7.9-4.7,11.7c-0.2,0.3-0.3,0.7-0.4,1c1.2,1,2.3,2,3.4,3
			c2.4,2.3,3.8,5.3,4.9,8.4c0.9,2.8,1.2,5.7,1.5,8.5c0.2,2.2-0.5,4.3-1.3,6.3c-2.3,5.6-6.2,10-11.3,13.1c-0.5,0.3-1,0.5-1.4,0.9
			c-4.7,3.7-10.4,5.4-16,7c-3.9,1.1-8.1,1.4-12.2,1.4c-8.7-0.1-17.4-0.1-26-0.2c-2.7,0-5.4-0.4-8.1-0.5c-1.6-0.1-3.2-0.2-4.7-0.3
			c-0.7,0-1.5,0.1-2.2,0.3c-4.1,1-8.1,2.2-11.9,3.9c-2.7,1.2-5.5,2.3-8.1,3.8c-0.8,0.4-1.3,1-1.6,1.8c-1.3,3.4-1.1,6.8,0,10.2
			c0.7,2.3,2.4,4,4.3,5.4c3.8,2.8,8.1,4.8,12.8,5.1c6.1,0.5,12.1-0.1,17.5-3.5c0.9-0.6,1.7-1.2,2.3-2c1.2-1.7,0.5-3.3-1.5-3.8
			c-0.9-0.2-1.7-0.1-2.5,0.1c-0.5,0.1-0.8,0.4-0.9,0.9c0,0.4-0.1,0.7-0.2,1.1c-0.3,0.7-1,1.1-1.8,1c-0.4-0.1-0.7-0.2-1.1-0.3
			c-1.3-0.6-2.8-1.2-2.7-2.8c0.1-1.4,1.1-2.5,2.4-3.2c0.3-0.2,0.7-0.3,1-0.4c3.2-1,6.2-0.4,8.8,1.3c2.5,1.6,3.3,3.8,2.2,6.6
			c-1.2,3.2-2.8,6.1-5.6,8.2c-1,0.8-2.1,1.5-3.4,2c-2.9,1-5.7,2.2-8.6,3.2c-4.2,1.5-8.6,1.5-13,0.9c-6-0.7-11.2-3.4-15.6-7.5
			c-2.7-2.5-4.8-5.4-5.5-9.2c-0.2-1-0.2-2-0.1-3c0.4-5.1,2.9-9,7.2-11.7c0.8-0.5,1.5-1.1,2-1.9c4.7-6.2,11-9.4,18.7-9.6
			c2.2-0.1,4.5-0.3,6.7,0c2.6,0.3,5-0.5,7.5-0.8c4.1-0.5,8.1-1.1,12.2-1.3c6.3-0.3,12.7-0.1,19,0.4c5.1,0.4,10.3,0.3,15.4-0.4
			c2.8-0.4,5.5-1.1,8.1-2.2c0.8-0.3,1.5-0.8,2.1-1.3c1.9-1.5,3.8-3,5.7-4.5c3.3-2.6,5.2-6.1,6.4-9.9c1.6-5.2,0.7-10.2-1.2-15
			c-0.6-1.4-1.7-2.4-2.7-3.5c-0.6-0.7-1.6-0.4-2.4-0.4c-0.2,0-0.5,0.5-0.7,0.8c-2.2,4.6-4.9,8.8-8,12.8c-3.8,4.9-8.2,9.2-13.2,12.8
			c-2.9,2.2-6.1,4-9.8,4.6c-2,0.3-3.9,0.4-5.8-0.1c-1.2-0.3-2.4-0.4-3.6-0.7c-4.5-1.3-8.2-3.9-11.9-6.6c-1.4-1-2.1-2.6-3.2-3.9
			c-2.3-2.9-4.4-6.1-5.6-9.6c-0.6-1.7-1.2-3.3-0.8-5.2c0.3-1.4,0.6-2.6,1.6-3.8c1.5-1.7,2.8-3.5,4.2-5.3c1.8-2.5,3.6-5,5-7.8
			c0.7-1.5,1.9-2.5,3.5-3c0.8-0.2,1.4-0.6,2-1c1.7-1.1,3.5-1.7,5.6-1.5c1.3,0.1,2.6,0.1,3.9,0.2c0.6,0,1.1,0,1.5-0.4
			c1.6-1.4,1.5-2.2-0.3-3c-3.7-1.7-7.4-1.7-11.1,0C549.6,347.8,549.1,348.4,547.9,348.2z M562.1,367.4c-2-0.3-4.3,0.8-6.6,1.5
			c-4.5,1.4-7.3,4.7-9.6,8.5c-0.8,1.4-0.9,3.3,0.2,4.5c1.2,1.2,3.1,1.2,4.7,0.6c0.4-0.2,0.8-0.4,1.2-0.7c0.6-0.4,1.3-0.8,1.9-1.2
			c1.5-1,3.2-1.6,4.9-1.9c1.7-0.4,3.5-0.5,4.8,1.2c0.2,0.2,0.4,0.4,0.7,0.5c1.6,0.5,2.6,1.8,3.4,3.2c0.9,1.5,2.2,2.5,3.4,3.6
			c0.4,0.3,0.9,0.4,1.3,0.2c2-0.8,3.8-2.8,3.8-5c0-5.5-3-12.6-10.8-14.6C564.6,367.5,563.6,367.3,562.1,367.4z M577,350.6
			c-0.5,0-0.8,0-1.1,0c-1.4-0.1-1.8,0.6-2.3,2c-0.2,0.5,0.1,0.9,0.6,1.1c0.2,0.1,0.5,0.1,0.8,0.1c2.4,0.3,4.3,1.8,6.1,3.3
			c0.7,0.6,1.1,1.4,1.5,2.3c0.6,1.7,0.4,3.3-0.1,4.9c-0.4,1.2,0.7,2.4,2,2.3c0.9,0,1.6-0.3,2.2-1c2.1-2.4,2.3-4.3,0.8-7.1
			c-1.3-2.4-3.2-4.3-5.3-6.1C580.7,351.1,578.9,350.3,577,350.6z"/>
		<path class="st2" d="M424.2,591.9c0.8-0.2,1.6-0.3,2.5-0.5c1.4,1.5,2.7,3.1,3.7,4.9c1.7,2.9,4,5.4,6.1,8c0.1,0.1,0.2,0.3,0.4,0.4
			c3.6,2.7,6.4,6.2,10.1,8.8c2.7,1.9,5.6,3.3,8.8,4.1c1.6,0.4,3.3,0.8,4.7,1.7c0.6,0.4,1.4,0.6,2.1,0.6c3.5,0.3,7.1,0.3,10.6,0.2
			c0.9,0,1.8-0.4,2.7-0.5c3.1-0.6,4.7,0.1,6.4,2.7c0.2,0.2,0.3,0.5,0.4,0.7c1.4,2.3,1.1,4.4-0.5,6.4c-1.4,1.8-2.9,3.4-4.5,5
			c-3,2.8-6,5.6-9.1,8.3c-1.8,1.5-3.9,2.6-6.3,2.8c-1.7,0.1-3.5,0-4.8-1.6c-0.8-1-1.8-1.8-2.6-2.9c-0.6-0.9-1.4-1.5-2.4-1.9
			c-1.8-0.9-3.7-1.8-5.7-2.2c-1.5-0.3-2.9-0.7-4.3-1.1c-2.9-0.9-5.7-0.4-8.6,0.2c-1.8,0.4-3.5,0.4-5.3,0.3c-1.1-0.1-2.2-0.5-3.2-0.9
			c-1.7-0.8-2.8-2.1-3.3-3.9c-0.2-0.9-0.5-1.8-0.8-2.7c-0.7-1.6-1-3.2-0.5-4.9c0.1-0.4,0-0.9,0-1.4c-0.4-2.4-0.8-4.8-1.2-7.2
			c-0.3-2.1-1.2-3.9-1.9-5.8c-0.4-1-1.2-1.9-1.8-2.8c-1.5-1.9-2.5-4.1-4.4-5.7c0-0.5,0.1-1,0.4-1.5c1.6-1.4,3.2-2.8,5-4
			C419.2,593.9,421.7,592.9,424.2,591.9z M461.9,639c1.9,0.2,3.4-0.6,4.8-1.7c1.3-1.1,2.6-2.1,3.9-3.1c0.6-0.5,1.2-1.1,1.8-1.7
			c1.4-1.5,2.8-3,4.2-4.4c0.6-0.6,1.2-1.2,1.4-2c0.3-1-0.1-1.8-1.1-2.2c-0.1-0.1-0.4,0-0.5,0.1c-0.1,0.1-0.2,0.4-0.2,0.5
			c0.8,1.3,0.1,2-0.8,2.8c-1.2,1-2.2,2.3-3.4,3.3c-2.2,1.8-4.5,3.6-6.6,5.6c-1.5,1.4-3,2-5,1.6c-0.4-0.1-0.9-0.3-1.2,0.2
			c-0.2,0.4,0.3,1,1,1.1C460.8,639,461.3,639,461.9,639z M433.9,605.7c-0.1-0.2-0.2-0.4-0.4-0.6c-3.1-2.8-5.6-6.1-7.6-9.8
			c-0.2-0.4-0.4-0.8-0.7-1.2c-0.1-0.1-0.3-0.2-0.5-0.1c-0.3,0.1-0.5,0.3-0.4,0.6c0,0.4,0.1,0.7,0.3,1.1c1.9,3.6,4.4,6.8,7.2,9.8
			c0.4,0.4,0.9,0.7,1.4,0.8C433.6,606.2,433.8,606.1,433.9,605.7z M423.4,611.6c0-0.8-0.5-1.3-0.9-2c-2.2-3.1-4.3-6.3-6.5-9.4
			c-0.1-0.1-0.1-0.2-0.2-0.2c-0.3-0.3-0.6-0.5-0.9-0.2c-0.4,0.3-0.3,0.7-0.1,1c0.3,0.5,0.5,1,0.9,1.4c1.9,2.4,3.6,4.9,5.3,7.5
			c0.5,0.8,1.1,1.5,1.7,2.2c0.1,0.1,0.4,0.2,0.5,0.1C423.3,612,423.3,611.7,423.4,611.6z M428.8,606.4c0-0.2-0.1-0.4-0.1-0.5
			c-2.3-3.1-4.4-6.4-6.4-9.7c-0.1-0.1-0.2-0.3-0.4-0.4c-0.1-0.1-0.4-0.1-0.5,0c-0.1,0.1-0.3,0.3-0.3,0.4c0.1,0.4,0.1,0.7,0.3,1
			c0.7,1.1,1.4,2.2,2.1,3.3c1.2,1.8,2.3,3.6,3.5,5.3c0.3,0.5,0.7,0.9,1.3,1C428.4,606.9,428.8,606.6,428.8,606.4z M418.6,597.5
			c-0.1,0.1-0.3,0.2-0.3,0.4c0,0.4,0,0.8,0.2,1.1c1.7,3,3.5,5.9,5.5,8.6c0.2,0.3,0.5,0.6,0.9,0.2c0.1-0.2,0.2-0.5,0.1-0.8
			c-0.2-0.4-0.4-0.8-0.7-1.2c-1.1-1.7-2.3-3.4-3.3-5.1c-0.6-0.9-1.1-1.9-1.6-2.9C419.2,597.6,419,597.5,418.6,597.5z"/>
		<path class="st0" d="M510.2,558.6c-0.7,0.9-1.3,1.8-1.9,2.6c-0.4,0.5-0.7,1.1-0.8,1.8c0,0.5,0.2,0.9,0.7,1.1c0.4,0.1,0.8,0,1-0.4
			c0.3-0.6,0.6-1.2,0.9-1.7c0.4-0.5,0.7-1.1,1.3-1.4c1.3-0.7,2.2-1.7,3.1-2.8c0.6-0.7,1.3-0.6,1.7,0.2c0.5,1,0.6,1.9-0.1,2.9
			c-1,1.4-2.1,2.6-3.5,3.5c-1.3,0.8-1.9,1.7-1.4,3.2c0.1,0.4,0,0.9-0.1,1.4c-1.4,4.6-3.9,8.3-8.8,9.6c-0.6,0.2-0.9,0.5-1.2,1
			c-1.2,1.9-2.4,3.8-3.8,5.5c-0.6,0.7-0.9,1.6-1.3,2.4c-0.3,0.5-0.5,1-0.8,1.5c-1.3,2-2.4,4.2-3.2,6.5c-0.7,1.9-2.2,3.2-3.6,4.6
			c-1.3,1.2-2.9,1.6-4.7,1.2c-1.6-0.3-3.1-0.9-4.1-2.2c-0.7-0.9-1.6-1.6-2.1-2.6c-1.7-2.7-4.1-4.9-6.3-7.1c-1.3-1.3-2.8-2.4-4.6-3
			c-0.4-0.1-0.9-0.3-1.2-0.6c-2.3-1.7-5-2.5-7.7-3.3c-1.4-0.4-2.7-0.8-3.9-1.5c-1.7-0.9-3.3-1.7-5-2.5c-0.4-0.2-0.9-0.3-1.3-0.4
			c-4.1-0.2-6.8-2.6-9.3-5.6c-1.6-1.9-2.5-4.1-3.4-6.4c-0.3-0.6-0.5-1.2-0.7-1.8c-0.3-0.7-0.4-1.8-1.4-1.9c-1.1-0.1-2.2-0.2-3.3,0.4
			c-1.7,1.1-3.4,2.4-4.8,3.9c-1.6,1.6-3.5,2.8-5.3,4.2c-0.6,0.4-1.1,0.3-1.3-0.3c-0.8-2-1.5-4-2.3-6c-0.5-1.3-1-2.6-2.1-3.6
			c-0.3-0.3-0.5-0.8-0.7-1.2c-0.2-0.3-0.2-0.8-0.4-1c-1.3-1-1.9-2.4-2.4-3.9c-0.5-1.4-1.4-2.6-2.2-3.9c-0.9-1.3-1.8-2.5-2.8-3.8
			c-0.2-0.2-0.3-0.5-0.5-0.8c2.1-0.9,4.2-1.3,6.4-1.7c1.6-0.3,3.3-0.5,5-0.7c1-0.1,2-0.2,2.9-0.9c0.4-0.3,1-0.3,1.6-0.5
			c1.6-0.4,3.2-0.8,4.2-2.3c0.6-0.8,1.5-1.4,2.6-1.6c2.1-0.4,4.2-0.7,6.3,0.3c1.9,0.9,3.9,1.8,5.2,3.6c0.3,0.4,0.7,0.7,1,0.9
			c2,1.5,3.7,3.4,5.1,5.5c0.7,1,1.5,1.9,2.5,2.7c2.8,2.2,5.1,4.9,7.8,7.2c2.8,2.5,5.3,5.5,8.1,8c2,1.9,4.1,3.8,6.5,5.3
			c2.6,1.6,5,3.5,7.5,5.3c1.2,0.9,2.5,1.6,3.9,2.1c3.3,1.2,5.9,0.1,8.1-2.2c1.7-1.8,3.8-3.3,5.7-4.9c0.4-0.4,1-0.6,1.2-1.2
			c0.9-2.3,2.7-4,4.3-5.8c0.6-0.7,1.1-1.4,1.5-2.3c0.6-1.7,1.7-3.1,2.9-4.4c0.3-0.3,0.6-0.5,1-0.2c0.3,0.3,0.3,0.7,0.1,1
			c-0.6,0.9-1.3,1.8-1.9,2.8c-0.4,0.6,0,1.3,0.8,1.5c0.5,0.1,0.9,0,1.2-0.5c0.3-0.5,0.4-1,0.6-1.5c0.5-1.1,1.1-2.2,2-3
			C508.9,558.6,509.4,558.2,510.2,558.6z"/>
		<path class="st0" d="M370.8,471.6c-0.7,1.6-1.2,2.8-2.3,3.8c-1.6,1.5-3.5,2.2-5.6,2.1c-2.8-0.1-5.3,1-7.8,1.9
			c-0.6,0.2-0.9,0.6-1.2,1.1c-1.8,4.2-1.8,8.5-0.3,12.8c0.2,0.7,0.7,1,1.4,1.2c2.4,0.5,3.7,2.3,4.7,4.4c1.1,2.4,2.2,4.7,3.2,7.1
			c1,2.4,0.7,4.9-0.1,7.4c-0.4,1.2-1.4,1.9-2.5,2c-1.7,0.1-3.5,0.3-5.2-0.5c-1.2-0.6-2.3-1.2-3.4-1.9c-1-0.6-1.6-1.5-1.9-2.6
			c-0.8-2.9-2.2-5.5-3.9-8c-1.7-2.4-3.9-4.2-6.3-5.9c-0.4-0.3-0.8-0.5-1.2-0.7c-1-0.7-2.6-0.3-3.2-1.4c-0.6-1.1-1.4-1.9-2.2-2.9
			c-0.4-0.5-0.7-1.1-1-1.7c-0.3-0.6-0.4-1.2,0-1.9c0.4-0.7,0.6-1.5,1.3-2.1c0.6,0.3,1.1,0.6,1.7,0.9c0.9,0.3,1.8-0.4,1.6-1.3
			c-0.3-0.9-0.4-1.4,0.4-2.1c1.2-1,1.2-1.4,0.3-2.8c-0.2-0.3-0.5-0.5-0.2-0.9c0.2-0.3,0.5-0.5,0.9-0.4c0.6,0.1,1.3,0.1,1.9,0.3
			c0.2,0,0.5,0.3,0.5,0.6c-0.1,0.6-0.2,1.3-0.2,1.9c0,0.7,0.5,1.4,1,1.5c0.6,0.1,1.3-0.4,1.4-1c0.2-0.8,0.3-1.7,0.4-2.5
			c0.1-1.7-0.5-2.6-2.3-2.9c-0.5-0.1-0.9-0.1-1.4-0.1c-0.2-0.8,0.6-0.8,0.9-1.2c0.9-1.2,1.6-2.5,1.6-4.1c0-1.5,0-3,0-4.6
			c0.8,0,1.5-0.1,2.2-0.1c1.4-0.2,2.2-1.4,1.7-2.8c-0.5-1.5-1.5-2.8-2.5-4c-0.5-0.5-0.5-1-0.1-1.5c0.4-0.5,0.7-1.1,1.2-1.6
			c1.9-2,2-4.3,0.9-6.7c-0.4-0.8-0.8-1.7-1.3-2.4c-0.7-1.1-0.6-2.1,0.1-3.1c0.5-0.7,0.9-1.4,1-2.3c0.1-0.7,0.6-0.9,1.2-0.8
			c0.6,0,1.1,0.1,1.6-0.1c1.7-0.7,2.4-2.6,1.4-4.4c-0.5-0.8-0.9-1.6-1.1-2.5c-0.2-0.9-0.8-1.5-1.4-2c-0.6-0.5-1.2-0.9-1.8-1.4
			c-0.5-0.5-0.5-0.8,0-1.4c0.4-0.4,0.8-0.8,1.2-1.2c0.4-0.6,1-0.8,1.7-0.8c3.1,0.1,6.1,0.4,9.2,1.1c3.4,0.7,5.5,3,7.1,5.8
			c0.9,1.4,1.5,3,1.7,4.7c0.2,1.5,0.6,2.9,1.3,4.3c0.3,0.6,0.6,1.2,1,1.6c0.7,0.8,1.5,0.9,2.5,0.5c1-0.5,2-1,3-1.5
			c0.9-0.4,1.9,0.1,2.1,1.1c0.3,1.7,0.1,3.3-1.4,4.3c-2.2,1.4-3,3.4-3.1,5.9c0,0.1-0.1,0.2-0.1,0.3c-0.1,0.1-0.3,0.3-0.4,0.3
			c-4.4,0-8.3,1.8-12.4,2.9c-1.7,0.4-3.4,1.1-5,1.7c-0.7,0.3-0.8,0.6-0.4,1.3c1.6,2.9,3.8,5.3,6.5,7.2c1.9,1.3,4,2,6.2,2.3
			C367.3,471.8,368.9,471.7,370.8,471.6z M362.3,447.4c0.2-3-1.5-4.6-3.2-5.8c-0.5-0.4-1.2-0.4-1.9-0.4c-0.5,0-0.8,0.2-1.1,0.7
			c-1.9,3-1.4,5.8,1.3,7.8c1,0.7,2,1.5,3.3,1C362.2,450.1,362.3,448.7,362.3,447.4z M355.9,435.6c-1.3,0-2.3,0.6-3.2,1.5
			c-1.2,1.2-1.9,2.8-2.4,4.3c-0.4,1-0.2,2.2-0.1,3.3c0,0.6,0.5,1,1.1,1.1c0.6,0.1,1.1-0.3,1.3-0.8c0.1-0.4,0.1-0.9,0.2-1.4
			c0.7-2,1.4-4.1,4.1-4.2c0.3,0,0.7-0.3,0.9-0.6C358.6,437.5,357.5,435.6,355.9,435.6z"/>
		<path class="st0" d="M424.2,591.9c-2.5,1-5,2-7.3,3.5c-1.8,1.2-3.4,2.6-5,4c-1.3-1.1-2.6-2.1-3.9-3.2c-2.8-2.1-5.2-4.5-7-7.5
			c-0.3-0.5-0.7-1.2-1.1-1.6c-1.6-1.2-2.6-2.9-3.5-4.6c-0.3-0.6-0.6-1.2-1.1-1.6c-1-1-1.3-2.2-1.6-3.5c-0.7-3.6-1-7.2-1.1-10.8
			c0-1.7-0.6-3.1-1.8-4.2c-0.8-0.7-1.9-1-2.8-0.6c-1,0.5-1.6,1.2-1.9,2.3c-0.1,0.4,0.1,0.7,0.3,1c0.3,0.3,0.7,0.3,1,0
			c0.3-0.3,0.6-0.6,1.2-0.7c0.7,0,1.3,0.4,1.3,1.1c0,0.6,0,1.1-0.1,1.7c-0.2,3.2,0.2,6.3,0.7,9.5c0.2,1.2,0.7,2.3,1.2,3.4
			c0.3,0.7,0.5,1.4,0.2,2.2c-2.2,7.6-6,14.2-11.4,19.9c-0.1,0.1-0.3,0.1-0.5,0.2c-0.1,0-0.2,0-0.3-0.1c-0.1-0.1-0.1-0.2-0.1-0.3
			c0-1.8,0-3.6,0.2-5.3c0.3-2.2,0.3-4.5,0.4-6.7c0-1.9,0.2-3.7,0.2-5.6c0.1-1,0.2-2,0.2-3.1c0-5.1,0-10.3,0-15.4
			c0-2.1,0.2-4.1,0.6-6.1c0.1-0.5,0.1-1,0.4-1.3c0.6-0.8,0.7-1.7,0.8-2.6c0.2-2.5,1.1-4.9,2.4-7.1c0.3-0.6,0.8-1.1,1-1.7
			c0.7-2.1,2.5-3.1,4.2-4.2c0.6-0.4,1.2-0.6,1.9-0.4c2.1,0.4,4.2,0.7,5.9,2.2c1.3,1.2,2.8,2.2,4.1,3.3c0.4,0.4,0.9,0.7,1.2,1.2
			c1.4,2,2.8,4,4.1,6c0.3,0.5,0.6,1,0.8,1.5c0.7,2.3,1.8,4.3,2.9,6.3c0.8,1.4,1.5,2.8,2.1,4.3c0.8,2.2,1.9,4.2,3.1,6.2
			c0.9,1.5,1.6,3.2,2.3,4.8c1.3,3.3,2.8,6.5,4.3,9.7C423.2,589.3,423.7,590.6,424.2,591.9z"/>
		<path class="st0" d="M304.1,615.6c-2.4,0-4.8-0.3-7.3,0.2c-1.7,0.4-3.5,0.3-5.3,0.4c-0.2,0-0.6-0.1-0.7-0.3c-0.2-0.4,0-0.7,0.2-1
			c0.2-0.3,0.5-0.5,0.9-0.6c3.4-0.9,6.7-2.1,10.4-1.9c2,0.1,4.1-0.3,6.1-0.5c0.4,0,0.7-0.2,0.8-0.6c0.1-0.6-0.3-0.8-0.7-1
			c-0.3-0.1-0.7-0.2-1.1-0.3c-2.1-0.5-4.2-0.9-6.3-1.4c-0.7-0.2-1.4-0.5-2.1-0.8c-0.4-0.1-0.7-0.4-0.6-0.8c0.1-0.4,0.5-0.5,0.9-0.6
			c0.6-0.2,1.1,0,1.6,0c2.5,0.3,5,0.6,7.5,0.8c2.7,0.2,5.4,0.4,8.1,0.5c3.3,0.2,6-2.3,6-5.6c0-1.5,0.2-3-0.1-4.5
			c-0.2-1.1,0-2.2,0.2-3.3c0.7-6.1,1.5-12.2,2-18.4c0.7-8.7,1.1-17.5,0.3-26.3c-0.2-2.1-0.2-4.3-0.3-6.4c-0.1-1-0.2-2-0.3-3.1
			c-0.1-0.6-0.2-1.1-0.2-1.7c0-1.4-0.5-2.9,0.2-4.1c0.6-1.2,2.2-1.2,3.4-1.8c1.1-0.6,2.2-0.9,3.3-1.5c2.3-1.2,4.8-1.5,7.3-1.8
			c0.9-0.1,1.1,0.1,1,1.1c-0.1,1.8-0.2,3.5-0.6,5.3c-0.6,2.6-0.8,5.3-1.8,7.9c-0.4,1-0.7,2.1-1.3,3.1c-1,1.5-1.4,3.2-1.5,5
			c0,1.6-0.1,3.2,0,4.8c0.2,4.3-0.5,8.6-0.5,12.9c0,1.7,0,3.4-0.1,5c-0.2,5.6-0.2,11.2-0.7,16.8c-0.1,0.8-0.1,1.7,0,2.5
			c0.4,3.5,0,6.9-0.4,10.3c-0.4,3.6,0.9,6.5,3.5,8.7c2.9,2.5,6,4.7,9.1,6.9c0.6,0.5,1.2,0.9,1.4,1.7c0.1,0.4,0,0.8-0.4,0.9
			c-0.9,0.2-1.9,0.1-2.7-0.3c-2-0.9-4.2-1.4-6.2-2.4c-1.7-0.9-3.7-1.1-5.7-0.9c-3.7,0.3-6.9,1.7-9.5,4.2c-1.4,1.4-3.3,2.1-4.9,3.1
			c-1.1,0.6-2.5,0.6-3.8,0.9c-0.7,0.2-1.5,0.4-2.2,0.4c-2.2,0.2-4.1,1.1-5.8,2.6c-0.7,0.6-1.6,1-2.6,0.9c-0.2,0-0.5-0.2-0.7-0.4
			c-0.2-0.2-0.1-0.5,0.1-0.8c0.3-0.4,0.6-0.7,1-1c2.1-1.7,4.4-3.2,7.1-3.8c2.1-0.5,3.9-1.7,5.9-2.5c0.6-0.2,0.7-0.8,0.5-1.4
			c-0.2-0.6-0.7-0.8-1.3-0.8c-0.8,0.1-1.4,0.3-2.1,0.7c-2.7,1.6-5.7,1.9-8.8,2.1c-2.6,0.1-5.2,0.7-7.7,1.1c-0.5,0.1-1.1,0.4-1.6,0.2
			c-0.2-0.1-0.6-0.2-0.7-0.4c-0.2-0.4,0-0.7,0.4-0.9c2.9-1.8,5.9-3.5,9.5-3.8c2-0.2,4-0.7,6.1-0.7c0.5,0,0.9-0.3,1.1-0.7
			c0.2-0.6-0.1-1.1-0.6-1.5c-0.6-0.4-1.2-0.5-1.9-0.5C307.3,615.6,305.7,615.6,304.1,615.6z M327.6,549.2c-0.2,0-0.4,0-0.6,0
			c-0.5,0.1-0.9,0.2-1.1,0.7c-0.2,0.5-0.1,0.9,0.3,1.3c1.7,1.9,3.5,2.1,5.4,0.6c0.5-0.4,0.8-0.8,0.6-1.4c-0.2-0.5-0.5-0.8-1-0.9
			C330,549.4,328.8,549.3,327.6,549.2z"/>
		<path class="st0" d="M381.8,545.2c-0.7-0.3-1-0.8-1.5-1.3c-1-1.1-1.7-2-0.8-3.6c0.9-1.8,0.8-3.8,0.7-5.8c-0.1-1.1,0.3-1.9,1.2-2.6
			c2.6-2,5.1-4,7.7-6c1.7,1.4,2.4,2.6,3,4.2c0.8,2,1.5,4,3.2,5.4c0.5,0.4,0.9,0.6,1.5,0.6c2.1-0.1,4.2-0.4,5.8-2.2
			c0.6-0.7,1.3-1.3,2.1-1.8c4.5-2.5,8.3-6,12.1-9.4c1.5-1.4,3.1-2.7,4.6-4.1c1.9-1.7,3.8-3.3,5.1-5.6c1.1-2,2-4.2,2.7-6.4
			c0.4-1.2,0.4-2.4,0.1-3.6c-1.1-3.9-0.9-8-1.5-11.9c-0.3-2,0.7-3.7,1.5-5.6c1.8,1.5,2,3.4,1.7,5.2c-0.3,1.9,0.4,3,1.7,4
			c1.4,1.2,3.1,1.6,4.7,2.3c0.5,0.2,1.1,0.1,1.7,0.1c2.4-0.2,4.8-0.6,7-1.6c1.2-0.5,2.2-1.3,3.1-2.3c0.4-0.5,0.9-1,1.4-1.6
			c1.8,1.8,2.4,4.1,2.5,6.5c0,1.4-0.7,2-2.1,2c-1.1,0-2.2-0.2-3.3-0.2c-3.7,0.3-6.7,2.1-9.7,4.1c-0.9,0.6-1.6,1.6-1.7,2.8
			c0,0.2,0.1,0.4,0.2,0.5c0.2,0.2,0.4,0.3,0.7,0.2c0.6-0.2,0.9-0.6,1.3-1c1.2-1.5,2.8-2.4,4.5-3.1c2.7-1.2,5.4-1.8,8.4-1.7
			c2.5,0.1,3.3-0.8,3.5-3.3c0.1-0.6,0.1-1.1,0.2-1.7c0.2-1.3,0-2.4-1-3.3c-0.8-0.8-1.4-1.8-1.6-2.9c-0.2-1.3-1.3-2.3-1.3-3.7
			c0-0.3,0-0.6,0.3-0.6c0.2,0,0.4,0,0.5,0.1c0.6,0.3,1,0.8,1.2,1.5c1.2,3.1,2.5,6.2,3.7,9.4c0.4,1,0.7,2.1,0.9,3.2
			c0.4,1.9-0.1,3.7-0.8,5.5c-0.2,0.6-0.7,0.8-1.1,1.2c-2.6,2.1-5.5,3.4-8.7,4.3c-2.1,0.5-4.2,0.8-6.2,1.6c-0.9,0.4-1.7,0.7-2.4,1.4
			c-2.6,2.3-5.2,4.5-7.1,7.5c-1.5,2.3-3.7,4-5.2,6.2c-1.1,1.6-2.4,3.1-3.4,4.7c-1.1,1.6-2.5,3-3.8,4.5c-0.4,0.4-0.9,0.8-1.1,1.2
			c-1,1.9-2.7,2.3-4.6,2.5c-3,0.3-5.9,0.8-8.9,1.3c-0.5,0.1-1,0-1.4,0.2c-1.2,0.6-2.2,0.4-3.4-0.2c-2.4-1.4-5.1-1.8-7.7-2.3
			c-1-0.2-2.1-0.1-3,0.5c-1.3,0.8-2.8,1.3-3.8,2.7C384.6,544.2,383.1,544.7,381.8,545.2z"/>
		<path class="st0" d="M368.1,470.5c-1.4-0.3-2.7-0.5-4.1-0.8c-0.9-0.2-1.2-1.1-1-2c0.9-2.9,3.5-4.3,6.4-4.3c0.4,0,0.7,0.1,1.1,0.2
			c1.8,0.3,1.8,0.3,1.5,2.1c-0.1,0.5-0.1,0.9-0.2,1.4c-0.1,0.8,0.2,1.7-0.6,2.3C370.3,470,369.3,470.5,368.1,470.5z"/>
		<path class="st0" d="M329,459.8c0.3-2.2,0.4-4.5,0.9-6.6c0.4-1.8,1.8-3,3.6-3.5c0.9-0.2,1.8-0.7,2.7-0.2c0.2,0.1,0.5,0.3,0.4,0.6
			c0,0.2-0.1,0.4-0.3,0.5c-0.1,0.1-0.3,0.2-0.5,0.2c-3.2,1-4.8,3.4-5.8,6.3c-0.7,1.9-0.4,3.9,0.5,5.7c0.5,1,1.8,1.8,3,0.8
			c0.9-0.8,1.9-1.1,3.1-1c0.5,0,0.9,0.2,1.3,0.4c1.4,0.9,1.5,1.5,0.2,2.5c-0.6,0.5-1.1,1-1.8,1.3c-0.7,0.3-1.5,0.5-2-0.3
			c-0.4-0.6-0.9-0.8-1.6-1.1c-0.6-0.2-1.1-0.6-1.7-1c-1.3-0.8-2-1.9-1.9-3.5c0-0.4,0-0.7,0-1.1C329.1,459.8,329.1,459.8,329,459.8z"
			/>
		<path class="st0" d="M460,501.1c-0.1-1.2-0.1-2.4-0.5-3.5c-0.7-1.6-0.1-2.8,0.7-4.1c0.4-0.6,0.6-1.4,1.1-1.9
			c1.3-1.5,1.1-3,0.2-4.6c-0.6-1.1-1.1-2.2-1.6-3.3c-0.5-1.1-0.5-2.1-0.1-3.2c0.1-0.3,0.2-0.5,0.6-0.4c0.2,0,0.4,0.2,0.4,0.3
			c0.5,2.9,2.1,5.3,3,8.1c0.3,0.8,0.3,1.5,0.1,2.4C463.2,494.4,462,497.8,460,501.1z"/>
		<path class="st0" d="M310,442.6c-0.6-0.3-0.8-0.8-0.9-1.3c-0.2-1.9,0.4-3.7,1-5.4c0.3-1,0.9-1.9,0.7-2.9c-0.1-0.5,0.3-0.9,0.7-1.1
			c2.9-1.4,5.8-3.1,9.2-2.2c0.3,1-0.4,1.6-0.7,2.4c-2.4-0.7-4.3,0.3-6,1.9c-2.1,2.2-3.7,4.6-3.9,7.8
			C310.2,442.1,310.1,442.4,310,442.6z"/>
		<path class="st0" d="M315.2,436.7c0.5,0.7-0.1,1.4,0,2.2c0.1,1,0,2.1,0.5,3c0.3,0.6,0.6,1.2,1.3,1.4c1.5,0.3,2.5,1.6,3.7,2.4
			c0.5,0.4,0.9,0.9,1.2,1.5c0.6,1.2,0.4,1.9-0.7,2.6c-0.5,0.4-1.1,0.7-1.7,1c-0.1,0.1-0.4,0-0.7,0c0-0.7,0-1.4-0.1-2.1
			c-0.2-1.5-0.9-2.6-2.3-3.3c-0.8-0.4-1.7-0.8-2.5-1.2c-1-0.6-1.4-1.5-1.2-2.6C313.1,439.7,313.7,438,315.2,436.7L315.2,436.7z"/>
		<path class="st0" d="M311.5,454.1c0-2.5,0-2.5-1.5-4.9c-0.5-0.8-1-1.6-1.5-2.3c-0.5-0.6-0.7-1.3-0.8-2c0-0.2,0.2-0.5,0.4-0.7
			c0.1-0.1,0.4,0,0.5,0.1c0.3,0.2,0.5,0.6,0.8,0.8c0.4,0.3,0.8,0.6,1.2,0.7c1.8,0.1,3,1.3,4.6,1.8c0.8,0.3,1.2,0.9,1.2,1.7
			c0,0.7-0.3,1.3-0.9,1.5c-0.4,0.1-0.7,0.1-1.1,0.2c-1.5,0.3-2.5,1.1-2.5,2.8C311.8,453.9,311.6,454,311.5,454.1z"/>
		<path class="st0" d="M310.4,479.1c0.1-0.8,0.7-1.1,1.1-1.6c0.4-0.5,0.8-1,1-1.7c0.1-0.5-0.1-1.3,0.7-1.4c0.7-0.1,1.3-0.8,2.1-0.2
			c0.2,0.2,0.5,0.2,0.8,0.2c0.5,0,1.1-0.5,1.1-1c-0.1-0.6-0.2-1.1-0.3-1.6c-0.2-0.8-0.3-1.6-0.1-2.5c0.2-0.9,0.6-1.5,1.6-1.8
			c-0.2,1.2-0.5,2.3-0.7,3.4c-0.2,0.9,0,1.8,0.3,2.7c0.3,0.7,0.8,1.1,1.5,0.9c0.4-0.1,0.5,0.2,0.4,0.3c-0.5,0.5-1,1.3-1.8,1.2
			c-0.7-0.1-1.5,0.5-2.3-0.4c-0.8-1-1.9-0.6-2.2,0.6c-0.2,0.6-0.2,1.3,0,1.9c0.1,0.4,0.8,0.7,0.3,1.1c-0.3,0.3-0.9,0.3-1.3,0.4
			C311.9,479.9,311.1,479.6,310.4,479.1z"/>
		<path class="st0" d="M331.1,474.9c-0.6-0.7-1-1.1-1.3-1.5c-0.3-0.3-0.4-0.6-0.2-1c0.7-1.2,0.4-2.5,0.5-3.9c1.8,0.4,3.4,1,5.2,1
			c0.1,1-1,1.6-0.9,2.6c0,0.2-0.3,0.5-0.5,0.5C332.7,473.1,331.9,473.9,331.1,474.9z"/>
		<path class="st0" d="M330.1,448c-1,1.4-1.8,2.4-2.6,3.4c-0.1,0.2-0.5,0.3-0.7,0.2c-0.2-0.1-0.4-0.4-0.4-0.7
			c-0.1-0.7-0.1-1.2,0.5-1.7c0.9-0.6,0.7-1.4,0.2-2.2c-0.4-0.6-0.9-1.2-1.3-1.8c-0.5-0.8-0.9-1.6-1.3-2.5c-0.3-0.9-0.4-1.8,0.2-2.7
			c0.1-0.1,0.2-0.2,0.2-0.2c0.2,0,0.3,0.1,0.4,0.2c0.1,0,0.1,0.2,0.1,0.2c0.2,2.4,1.4,4.4,2.5,6.5C328.5,447.6,329,448,330.1,448z"
			/>
		<path class="st0" d="M329.1,434.3c-1.4,0.4-2.4,0.9-3,2.1c-0.3,0.5-0.7,0.8-1.3,0.9c-2.1,0.4-2.8,1.9-2.9,3.9c0,0.5,0,1.1,0,1.7
			c-0.3,0-0.5,0-0.7-0.1c-1.9-1.2-2.1-2.1-0.9-3.8c1.1-1.6,2.4-3.1,4.5-3.6c1.1-0.3,2.1-0.7,2.9-1.6
			C328.1,433.3,328.5,433.8,329.1,434.3z"/>
		<path class="st0" d="M313.9,469.3c-0.5-1.5-0.6-2.8,0.9-3.7c0.4-0.2,0.5-0.8,0.3-1.2c-0.2-0.5-0.6-0.7-1.1-0.8
			c-0.6,0-1.1,0-1.6,0.4c-0.4,0.3-0.5,1-1.3,1c0.1-2,1.5-3.1,2.7-4.2c0.1-0.1,0.6,0,0.7,0.2c0.5,0.4,1,0.9,1.4,1.4
			c1.2,1.5,1.2,2.4-0.3,3.7C314.8,467,314.3,468.1,313.9,469.3z"/>
		<path class="st0" d="M342,441.2c-0.6,0.2-0.9-0.5-1.5-0.5c-0.6,0-1.1-0.1-1.7,0c-0.5,0-0.9,0-1.3-0.3c-0.6-0.6-1.5-0.8-2.3-1.1
			c-1.5-0.6-1.8-1.1-1.3-2.5c0.1-0.2,0.2-0.3,0.3-0.5c0.4-0.8,1.3-1,1.8-0.3c1,1.7,2.4,2.7,4.3,3.3
			C341.2,439.5,341.2,439.7,342,441.2z"/>
		<path class="st0" d="M372,430c0.4-3.8,0.3-3.9-1.3-6.4c0.3-0.1,0.6-0.2,0.8-0.2c1.6,0.6,3.1,0.7,4.4-0.5c0.1-0.1,0.4,0,0.5,0.2
			c0.1,0.1,0.2,0.4,0.1,0.5c-0.2,0.3-0.5,0.6-0.7,0.8c-1,0.9-1.8,2-1.7,3.4C374.1,429.2,373.1,429.5,372,430z"/>
		<path class="st0" d="M304.2,479.1c-1.1,0-1.6-0.8-1.1-1.7c0.4-0.7,0.9-1.1,1.7-1.4c1.4-0.6,2.9-1.2,4.3-1.9c0.3-0.1,0.6,0,0.7,0.2
			c0.1,0.2,0.3,0.6,0.2,0.7c-0.8,1.1-1.6,2.2-2.5,3.3C306.3,478.2,305.4,479.3,304.2,479.1z"/>
		<path class="st0" d="M319.5,458.7c-1.1-3.1-0.7-4.5,1.9-6c0.4-0.2,0.8-0.5,1.2-0.7c0.3-0.2,0.6-0.6,1-0.3c0.4,0.3,0.4,0.8,0.2,1.3
			c-0.2,0.5-0.5,1-0.9,1.4c-0.6,0.7-1.2,1.4-1.8,2.1C320.6,457.1,320.1,457.9,319.5,458.7z"/>
		<path class="st0" d="M338.8,431.2c0.9-0.1,1.8-0.3,2.4,0.7c0.4,0.8,1.3,1,1.9,1.7c0.1,0.8-0.6,1.1-1,1.5c-0.5,0.5-0.3,1.9-1.6,1.5
			c-1.7-0.7-2.5-2-2.2-3.4c0.1-0.4,0.4-0.8,0.6-1.2C339,431.7,339,431.4,338.8,431.2L338.8,431.2z"/>
		<path class="st0" d="M352.4,416.5c-0.2,1.4-0.5,2.5-1.9,3.2c-1,0.5-1.9,1.5-2.8,2.2c-0.4,0.3-0.7,0.8-1.3,0.9
			C346.9,419,348.4,417.5,352.4,416.5z"/>
		<path class="st0" d="M357.3,421.3c-1.4,0.6-2.8,1.2-4.2,1.8c-1.3,0.5-2.5,1-3.5,2.1c-0.1,0.2-0.5,0.2-0.8,0.2
			c-0.2,0-0.4-0.1-0.5-0.2c0,0,0-0.2,0-0.3c1.7-2.4,3.8-4.2,6.9-4.4C356,420.6,356.8,420.6,357.3,421.3z"/>
		<path class="st0" d="M340.4,423.2c-0.5,0.8-1,1.5-1.8,1.9c-0.4-0.1-0.4-0.3-0.4-0.6c-0.4-2-0.9-2.4-2.7-2.4
			c-1.3,0-2.4,0.5-3.4,1.1c-0.9,0.5-1.8,1-2.5,1.8c-0.5-0.5,0-0.9,0.2-1.2c0.6-0.9,1.6-1.3,2.5-1.7c1.7-0.8,3.5-0.3,5.2-0.4
			C338.7,421.7,339.5,422.4,340.4,423.2z"/>
		<path class="st0" d="M310.2,458c-1.9-0.6-2.8-1.9-3.1-3.7c-0.3-1.5-0.9-3.1-0.7-4.7c0-0.1,0.2-0.3,0.3-0.4c0.2,0,0.4,0,0.5,0.2
			c0.4,0.5,0.9,1,0.8,1.7c-0.4,2,0.8,3.3,1.6,4.9C309.8,456.6,310.5,457,310.2,458z"/>
		<path class="st0" d="M333.1,431.3c-0.3-0.4-0.5-0.8-0.9-1c-0.7-0.4-1-1-1-1.8c0-0.9,0.3-1.8,1.1-2.4c0.8-0.6,1.6-1,2.5-1.3
			c0.5-0.2,1.1,0,1.2,0.3c0.1,0.5-0.3,0.6-0.6,0.8c-1.7,0.9-2.2,2.4-2.1,4.2C333.3,430.6,333.4,431,333.1,431.3
			C333,431.4,333.1,431.3,333.1,431.3z"/>
		<path class="st0" d="M328.6,426.8c0,1.2,0,2.1,0,2.9c-0.4,0.4-0.9,0.3-1.4,0.3c-1.2,0-1.9,0.5-1.9,1.8c0,1-0.9,1-1.6,1.2
			c-0.3,0.1-0.7,0.3-1-0.1c-0.2-0.4,0.1-0.7,0.3-1c0.2-0.4,0.6-0.7,1-1c0.3-0.2,0.7-0.4,0.8-0.7c0.1-0.9,0.8-1.2,1.5-1.5
			C327.1,428.3,327.7,427.7,328.6,426.8z"/>
		<path class="st0" d="M328.1,439.2c-0.1-1.5,0.2-2.5,2.6-2.5c0.4,0,0.7,0.3,0.6,0.7c-0.1,0.4-0.2,0.7-0.4,1
			c-0.6,1.3-1.1,2.7-1.2,4.2c0,0.2,0,0.6-0.5,0.5c-0.3-0.1-0.4-0.3-0.5-0.6C328.3,441.5,328.1,440.4,328.1,439.2z"/>
		<path class="st0" d="M325.8,455c0.5,1,0,1.7,0,2.5c0,0.6-0.4,0.6-0.9,0.7c-1.1,0.2-1.3,0.4-1.3,1.4c-0.1,1-0.2,2-0.2,3.1
			c0,0.4-0.1,0.7-0.6,1c-1.2-1.3-1-3-0.5-4.4C323,457.5,324.5,456.3,325.8,455z"/>
		<path class="st0" d="M328.8,478.9c-1.1,0.1-1.8-0.2-2.5-0.6c-0.8-0.4-1.1-1.2-0.9-2.1c0.2-0.9,1-1,1.7-1.3c0.3-0.1,0.5,0,0.7,0.3
			c0.5,0.7,1,1.3,1.9,1.5c0.5,0.1,0.7,0.6,0.7,1.1c0,0.5-0.4,0.8-0.8,1C329.2,478.8,328.8,478.9,328.8,478.9z"/>
		<path class="st0" d="M465.7,487.4c-0.7-0.7-1-1.3-0.4-2.2c1.1-1.5,1.7-3.3,3.2-4.5c0.2-0.2,0.5-0.3,0.7-0.1
			c0.1,0.1,0.1,0.4,0.1,0.5c0,0.3-0.1,0.6-0.2,0.8C468,483.8,467.1,485.7,465.7,487.4z"/>
		<path class="st0" d="M316.9,453.1c-0.2,1.1-0.4,2-0.5,2.9c-0.1,0.9,0,1.8,0,2.9c-0.8-0.6-1.4-1.1-1.8-1.9c-0.5-1-0.5-2.1,0-3
			C314.9,453.2,315.9,453.2,316.9,453.1z"/>
		<path class="st0" d="M337,458.7c0-0.9,0.2-1.4,0.9-1.6c0.5-0.1,1.1-0.3,1.4-0.8c0.2-0.2,0.2-0.5,0.3-0.7c0.1,0.1,0.2,0.1,0.2,0.2
			c0.1,0.2,0.3,0.5,0.3,0.7c0,1.3-0.7,2.4-1.2,3.6c-0.2,0.5-1.6,0.1-1.9-0.4C337,459.2,337,458.9,337,458.7z"/>
		<path class="st0" d="M320.6,473.3c-0.7-2.6,0.1-4.6,1.2-6.7c0.2,0.7,0.3,1.2,0.5,1.7c0.2,0.7,0.5,1.4,0.8,2.1c0.1,0.2,0,0.4,0,0.5
			c0,0.1-0.1,0.2-0.1,0.2C322.1,471.8,321.4,472.4,320.6,473.3z"/>
		<path class="st0" d="M325.3,472.6c0.3-1.6,0.3-3.1-0.5-4.6c-0.1-0.2,0-0.6,0.1-0.7c0.2-0.1,0.5,0,0.8,0c1.4,0.4,1.8,1.5,1.8,2.8
			C327.6,471.4,327.1,472,325.3,472.6z"/>
		<path class="st0" d="M456.2,490.2c-0.2-1.4-0.3-2.1-0.5-2.8c-0.1-0.4,0-0.7,0.2-1c0.7-1,1.3-1.9,2.1-3.1
			C458.9,485.9,457.3,487.7,456.2,490.2z"/>
		<path class="st0" d="M355.1,418.1c-0.1-0.6,0.2-0.9,0.7-1c1-0.3,2,0.1,3-0.3c0.4-0.2,0.6,0.2,0.8,0.5c0.4,0.7,0.7,1.5,0.8,2.5
			c-0.7-0.1-1.1-0.6-1.7-0.9c-0.6-0.2-1.2-0.5-1.8-0.6C356.3,418.2,355.7,418.2,355.1,418.1z"/>
		<path class="st0" d="M340.6,450.8c0-0.5,0-0.8,0.1-1c0.1-0.2,0.3-0.4,0.6-0.6c0.1-0.1,0.4,0.1,0.5,0.2c1.1,1.3,1.8,2.8,1.5,4.6
			c0,0.2-0.2,0.4-0.3,0.4c-0.1,0.1-0.4,0.1-0.5,0c-0.6-0.8-1.3-1.6-1.8-2.5C340.5,451.6,340.6,451.1,340.6,450.8z"/>
		<path class="st0" d="M329.1,482.2c0,0.5,0,0.9,0,1.3c0,0.3,0,0.9-0.6,0.7c-0.6-0.3-1.3-0.2-1.9-0.2c-0.7,0-1.2-0.4-1.7-0.9
			c-0.3-0.3-0.7-0.7-0.3-1.2c0.2-0.3,0.6-0.4,1-0.2C326.7,481.9,327.9,482.1,329.1,482.2z"/>
		<path class="st0" d="M459.6,487.8c0.3,0.8,0.4,1.1,0.6,1.5c0.3,0.8,0.3,1.6-0.4,2.3c-0.5,0.5-0.9,1.1-1.4,1.7
			c-0.1,0.1-0.4,0.1-0.5,0.1c-0.1-0.1-0.3-0.2-0.3-0.4c0-0.4,0-0.9,0.1-1.3C458.2,490.4,458.8,489.3,459.6,487.8z"/>
		<path class="st0" d="M364.5,429c0.1-0.6,0-0.9,0.1-1.2c0.1-0.4,0.5-0.5,0.9-0.5c0.8,0.1,1.4,0.5,1.7,1.3c0.2,0.6,0.4,1.2,0.6,1.8
			c0.1,0.3-0.3,0.7-0.7,0.5c-0.5-0.2-1-0.5-1.5-0.6C364.7,430.1,364.4,429.5,364.5,429z"/>
		<path class="st0" d="M338.9,431.2c-0.4,0-0.9,0.1-1.3,0.1c-1-0.1-1.5-0.6-1.7-1.5c-0.2-0.9,0.3-1.4,1.2-1.4c0.3,0,0.6,0.1,0.8,0.1
			c1.1,0.2,1.3,0.5,1,1.7C338.8,430.6,338.5,430.9,338.9,431.2C338.8,431.2,338.9,431.2,338.9,431.2z"/>
		<path class="st0" d="M354,425.9c1.2-1.3,2.3-1.7,3.8-1c0.5,0.2,0.6,0.6,0.8,1.1c0.1,0.4-0.1,0.8-0.4,0.7
			C356.8,426.4,355.5,426.2,354,425.9z"/>
		<path class="st0" d="M370.6,437.2c-0.7,0.4-1.2,0.8-1.8,1.1c-0.3,0.1-0.6,0-0.7-0.3c-0.5-1.3-0.4-1.9,0.7-2.9
			C369.5,435.7,370.2,436.1,370.6,437.2z"/>
		<path class="st0" d="M345.6,439.5c-0.3,0-0.5,0-0.8-0.1c-0.5,0-0.8-0.4-0.9-0.9c-0.1-0.5-0.2-1.1,0.1-1.6c0.1-0.2,0.3-0.5,0.6-0.5
			c0.4-0.1,0.3,0.3,0.3,0.5c-0.1,1,0.3,1.6,1.4,1.6c0.3,0,0.8-0.1,0.7,0.5c-0.1,0.4-0.4,0.6-0.8,0.6
			C346,439.6,345.8,439.6,345.6,439.5C345.6,439.5,345.6,439.5,345.6,439.5z"/>
		<path class="st0" d="M311.4,471.4c-1.4-0.5-2.2-1.2-2.2-2.5c0-0.9,0.7-1.2,1.5-1.6C310.9,468.6,311.1,469.8,311.4,471.4z"/>
		<path class="st0" d="M306.1,461.6c-0.1,1.3,0.9,2.2,1.4,3.2c0.2,0.3,0.1,0.5-0.1,0.7c-0.1,0.1-0.4,0.2-0.5,0.1
			c-0.6-0.2-1.2-0.5-1.8-0.8c0.5-1.1,0.9-2.1,0.9-3.2c0,0,0.1,0.2,0.1,0.2L306.1,461.6z"/>
		<path class="st0" d="M365.7,423.1c-0.1,0-0.2,0-0.3,0c-1.9,0.7-3.2-0.3-4.5-1.4c-0.2-0.1-0.3-0.5-0.2-0.7c0.2-0.6,0.5-0.2,0.8,0
			c1.1,0.9,2.4,1.3,3.8,1.4C365,422.8,365,422.9,365.7,423.1z"/>
		<path class="st0" d="M336.3,472.5c0.7-0.2,1.4-0.3,2.1-0.4c0.4-0.1,0.8-0.1,0.8,0.4c0,0.4-0.1,0.7-0.5,0.9
			C337.8,473.9,337.3,473.7,336.3,472.5z"/>
		<path class="st0" d="M333.7,476.6c-0.5,0-0.9-0.1-1-0.4c-0.2-0.5,0-0.9,0.3-1.2c0.1-0.1,0.2-0.1,0.2-0.2c0.8-0.6,1.3-0.6,1.7-0.2
			c0.2,0.2,0.3,0.5,0.2,0.7C335,476.2,334.4,476.6,333.7,476.6z"/>
		<path class="st0" d="M305.9,460.9c-0.3-0.3-0.6-0.7-0.9-1c-1-0.9-1.3-2-0.7-3.4c1.7,1.1,1.6,2.8,1.8,4.4
			C306,460.6,306,460.6,305.9,460.9z"/>
		<path class="st0" d="M335.5,442.1c-0.3,0.5-0.4,0.7-0.5,0.9c-0.1,0.2-0.3,0.5-0.6,0.4c-0.2-0.1-0.3-0.1-0.5-0.2
			c-1.1-0.7-1.6-1.5-1.3-1.8c0.8-0.5,1.4,0.2,2,0.3C334.9,441.8,335.1,442,335.5,442.1z"/>
		<path class="st0" d="M302,467c-0.7,1-1.3,1.9-2,2.9c-0.1,0.1-0.3,0.1-0.5,0.1c-0.2,0-0.3-0.2-0.4-0.3c-0.1-0.3-0.1-0.6,0-0.8
			c0.4-1.3,1.3-1.9,3.1-2c0,0-0.2,0-0.2,0L302,467z"/>
		<path class="st0" d="M322.7,478.6c-0.2,0.8-0.6,1.1-1.3,1.3c-0.3,0.1-0.7,0.1-1-0.3c-0.3-0.4-0.2-1.2,0.1-1.5
			c0.3-0.3,0.6-0.3,1-0.1c0.2,0.1,0.3,0.2,0.5,0.2C322.3,478.3,322.5,478.5,322.7,478.6z"/>
		<path class="st0" d="M339.2,468.3c0,0.4,0.1,0.7,0.1,1.1c-0.1,1.2-1,1.6-1.9,0.8c-0.2-0.2-0.7-0.6-0.1-0.8
			C338,469.1,338.3,468.2,339.2,468.3z"/>
		<path class="st0" d="M334.4,454.7c0.9-1.2,2.2-1.5,3.7-1.5c-0.7,0.9-0.9,1-3.8,1.9c0,0,0.2-0.1,0.2-0.1L334.4,454.7z"/>
		<path class="st0" d="M326.3,462c0.4,0.9,0.8,1.9,1.2,2.9c-1.7-0.2-1.7-0.2-1.6-1.3C325.9,463.1,325.8,462.5,326.3,462z"/>
		<path class="st0" d="M332.4,459.7c0-0.5,0-0.9,0.3-1c0.4-0.1,0.9-0.2,1.3,0c0.5,0.2,0.4,0.8,0.2,1.2c-0.2,0.6-0.8,0.7-1.3,0.7
			C332.4,460.7,332.5,460,332.4,459.7z"/>
		<path class="st0" d="M369.5,428.2c-0.8-0.3-0.8-1.2-1.4-1.7c-0.2-0.2-1.1-0.3-0.4-0.9c0.4-0.3,0.9-0.1,1.3,0.1
			C369.8,426.3,369.8,427.2,369.5,428.2z"/>
		<path class="st0" d="M300.7,436.9c-0.1,0.8-0.7,1.2-1.2,1.7c-0.1,0.1-0.4,0.2-0.5,0.2c-0.3-0.1-0.2-0.4-0.2-0.7
			c0.2-0.6,0.4-1.2,0.9-1.6c0.2-0.2,0.5-0.3,0.7-0.1C300.6,436.5,300.6,436.7,300.7,436.9z"/>
		<path class="st0" d="M340.3,444.1c0,0.3-0.1,0.5-0.4,0.6c-0.8,0.2-1.4,0.1-1.6-0.5c-0.3-0.6,0.2-0.8,0.6-1
			C339.6,443,340.2,443.4,340.3,444.1z"/>
		<path class="st0" d="M314.1,482.4c0,0.6-0.4,1-0.9,1.3c-0.5,0.3-1.3-0.2-1.3-0.8c0-0.3,0.1-0.5,0.4-0.5
			C312.9,482.3,313.6,482.1,314.1,482.4z"/>
		<path class="st0" d="M309.5,460.6c0.1,0.1,0.4,0.2,0.4,0.3c0.1,0.6-0.2,1-0.6,1.4c0,0-0.2-0.1-0.2-0.1
			C308.7,461.9,309,460.8,309.5,460.6z"/>
		<path class="st2" d="M365.7,423.1c-0.7-0.2-0.7-0.3-0.4-0.7c0.7-0.3,1.4-0.1,2.5,0C367.1,423.1,366.4,423.2,365.7,423.1z"/>
		<path class="st0" d="M342,463.1c0.1,0.1,0.3,0.2,0.4,0.3c0.2,0.3,0.6,0.5,0.3,0.9c-0.1,0.1-0.3,0.1-0.5,0.1
			c-0.6-0.1-0.6-0.6-0.6-1.1C341.7,463.1,341.8,463,342,463.1z"/>
		<path class="st0" d="M343.1,428.2c-0.2,0.4-0.8,0.6-1,0.4c-0.1-0.1-0.1-0.3-0.1-0.5c0.2-0.4,0.5-0.4,0.9-0.4
			C343.1,427.9,343.1,428,343.1,428.2z"/>
		<path class="st0" d="M361.8,427.1c0,0.2,0,0.4,0,0.5c-0.1,0.3-0.4,0.3-0.6,0.2c-0.1-0.1-0.3-0.3-0.2-0.4c0.1-0.3,0.2-0.7,0.4-1
			c0-0.1,0.1-0.1,0.2-0.2c0.2-0.1,0.3,0,0.3,0.3C361.8,426.8,361.8,426.9,361.8,427.1z"/>
		<path class="st2" d="M305.9,460.9c0.1-0.3,0.1-0.3,0.2,0c0,0.2,0,0.5,0,0.7c0,0-0.1,0.2-0.1,0.2s-0.1-0.2-0.1-0.2
			c-0.1-0.2-0.1-0.3-0.1-0.5C305.8,461.1,305.9,461,305.9,460.9z"/>
		<path class="st0" d="M332.3,445.4c-0.1,0.1-0.2,0.2-0.3,0.2c-0.2,0.1-0.5,0-0.5-0.3c0,0,0.1-0.1,0.2-0.2
			C331.9,445,332.1,445.2,332.3,445.4z"/>
		<path class="st0" d="M297.1,618c0.5-0.1,1-0.2,1.6-0.2c0.1,0,0.2,0.2,0.3,0.3c0,0-0.1,0.2-0.2,0.2c-0.4,0.1-0.9,0.2-1.3,0.2
			C297.4,618.4,297.2,618.2,297.1,618z"/>
		<path class="st2" d="M326.5,453.6c0.1-0.1,0.1-0.2,0.2-0.4C326.6,453.4,326.5,453.5,326.5,453.6
			C326.5,453.6,326.5,453.6,326.5,453.6z"/>
		<path class="st2" d="M334.4,454.7l0.1,0.2c0,0-0.2,0.1-0.2,0.1C334.2,454.9,334.1,454.7,334.4,454.7z"/>
		<path class="st2" d="M326.5,453.6c0,0.2-0.1,0.3-0.1,0.5c0,0.1-0.1,0.2-0.1,0.3c0-0.1-0.1-0.1-0.1-0.2c0-0.1,0-0.2,0.1-0.2
			C326.3,453.9,326.4,453.8,326.5,453.6C326.5,453.6,326.5,453.6,326.5,453.6z"/>
		<path class="st0" d="M422.1,539c-0.1,0-0.3-0.1-0.4-0.1C421.8,538.9,421.9,539,422.1,539C422.1,539,422.1,539,422.1,539z"/>
		<path class="st0" d="M333,431.4c0.4-0.4,0.7-0.1,0.6,0.2c-0.2,0.4-0.2-0.1-0.3-0.2C333.2,431.5,333.1,431.4,333,431.4
			C333.1,431.3,333,431.4,333,431.4z"/>
		<path class="st2" d="M302,467l-0.1-0.2c0,0,0.2,0,0.2,0C302.1,466.8,302,467,302,467L302,467z"/>
		<path class="st0" d="M370.4,443c-0.2,0.2-0.5,0.2-0.7,0c-0.3-0.3-0.1-0.6,0.2-0.9C370,442.4,370.2,442.7,370.4,443z"/>
		<path class="st0" d="M315.3,436.8c0.1-0.1,0.2-0.3,0.3-0.4c0,0.1,0.1,0.3,0.1,0.4C315.6,436.9,315.4,436.9,315.3,436.8
			C315.2,436.7,315.3,436.8,315.3,436.8z"/>
		<path class="st0" d="M388.5,272.9c1.1-1,2.4-1.7,3.9-2c3.5-0.7,7-1.3,10.5-1.7c7-0.8,14-0.7,21-0.4c4.7,0.2,9.3,0.6,14,0.9
			c0.7,0,1.3,0.1,2,0.1c3.5-0.3,6.8,0.8,10.2,1.3c0.8,0.1,1.3,0.6,1.6,1.4c1.9,4.6,0.9,5.9-2.5,7.9c-2.3,1.4-4.8,1.9-7.4,2.3
			c-6.5,0.9-13,0.9-19.6,0.6c-5.1-0.2-10.2-0.8-15.2-2.2c-4-1.1-7.9-2.2-11.7-3.9c-1.9-0.9-3.7-1.9-5.5-2.8
			C389.3,274,388.7,273.6,388.5,272.9z"/>
		<path class="st0" d="M505.6,376.4c-3.7,0.2-7-1.1-9.6-3.7c-1.9-1.9-3.5-4-5.1-6.2c-1-1.4-1.7-3.1-1.4-5c0.3-1.8,1.5-2.9,3.3-2.7
			c1.1,0.1,2.3,0.3,3.2,0.9c1.4,0.8,3,1.5,4.1,2.7c2.6,2.7,9.2,3.5,12.8,1.3c1.3-0.8,2.7-1.7,4.2-2.2c2-0.6,3.9-0.2,5.8,0
			c0.4,0,0.6,0.3,0.8,0.7c0.4,1.1,0.6,2.1,0,3.2c-1.2,2.4-2.7,4.4-5.1,5.8c-2.7,1.7-5.7,2.8-8.4,4.3
			C508.8,376.4,507.3,376.5,505.6,376.4z"/>
		<path class="st0" d="M415.5,356.3c0,0.5-0.2,0.8-0.5,1.1c-0.7,0.6-1.4,1.2-2.1,1.8c-4.2,3.1-8.4,6.2-12.7,9.2
			c-1.3,0.9-2.7,1.6-4.2,2.2c-1.9,0.9-3.8,0.6-5.8,0.1c-0.8-0.2-1.3-0.8-1.6-1.5c-0.4-0.8-0.8-1.7-0.9-2.6c-0.4-2.7-0.3-5.4,1-7.9
			c0.9-1.8,2.5-2.7,4.1-3.7c4.7-2.8,9.7-2.9,14.9-1.6c1.4,0.4,2.9,0.9,4.3,1.4C413.2,355.2,414.3,355.8,415.5,356.3z"/>
		<path class="st0" d="M528.8,341.9c-3.3,0.1-6.3,1.5-8.6,4.2c-0.2,0.2-0.3,0.5-0.5,0.7c-1.1,1.4-2.6,1.4-3.7-0.1
			c-0.5-0.7-0.4-1.4-0.1-2.1c0.3-0.6,0.7-1.1,1.2-1.5c1.6-1.4,3.3-2.7,5.1-3.8c1.6-1,3.4-1.5,5.2-1.9c2.2-0.5,3.8,0.3,5.2,1.9
			c0.5,0.5,0.6,1.1,0.2,1.8c-0.7,1.1-1,1.4-1.9,1.2c-0.5-0.1-0.9-0.2-1.4-0.3C529.4,341.9,529.2,341.9,528.8,341.9z"/>
		<path class="st0" d="M492.8,333c3.5,0.5,6.6,1.8,8.9,4.6c0.9,1.1,1.7,2.2,2.4,3.4c0.9,1.4,0.9,2.8,0.3,4.3c-0.2,0.5-0.5,1-1.1,1.2
			c-0.5,0.2-1.3,0-1.4-0.5c-0.3-3.3-2.7-5-5.1-6.6c-2.1-1.4-4.3-2.5-7-2.4c-1.1,0-1.5-0.8-0.9-1.7C489.9,334,490.9,332.7,492.8,333z
			"/>
		<path class="st0" d="M562.1,367.4c1.5-0.1,2.5,0.1,3.5,0.3c7.7,2,10.7,9.1,10.8,14.6c0,2.3-1.8,4.3-3.8,5
			c-0.4,0.2-0.9,0.2-1.3-0.2c-1.3-1.1-2.5-2.2-3.4-3.6c-0.8-1.4-1.8-2.6-3.4-3.2c-0.3-0.1-0.5-0.3-0.7-0.5c-1.3-1.7-3.1-1.6-4.8-1.2
			c-1.7,0.4-3.4,0.9-4.9,1.9c-0.6,0.4-1.3,0.8-1.9,1.2c-0.4,0.2-0.8,0.5-1.2,0.7c-1.7,0.6-3.5,0.6-4.7-0.6c-1.1-1.2-1-3.1-0.2-4.5
			c2.3-3.8,5.1-7.1,9.6-8.5C557.9,368.2,560.1,367.2,562.1,367.4z"/>
		<path class="st0" d="M577,350.6c1.9-0.3,3.7,0.6,5.2,1.9c2,1.8,4,3.7,5.3,6.1c1.6,2.8,1.4,4.7-0.8,7.1c-0.6,0.7-1.3,0.9-2.2,1
			c-1.3,0.1-2.4-1.1-2-2.3c0.6-1.7,0.7-3.3,0.1-4.9c-0.3-0.9-0.7-1.7-1.5-2.3c-1.8-1.5-3.6-2.9-6.1-3.3c-0.3,0-0.6,0-0.8-0.1
			c-0.5-0.2-0.8-0.6-0.6-1.1c0.5-1.4,0.9-2.1,2.3-2C576.2,350.6,576.5,350.6,577,350.6z"/>
		<path class="st1" d="M461.9,639c-0.6,0-1.1-0.1-1.7-0.1c-0.7-0.1-1.2-0.7-1-1.1c0.3-0.5,0.8-0.3,1.2-0.2c2,0.4,3.6-0.2,5-1.6
			c2.1-1.9,4.3-3.8,6.6-5.6c1.2-1,2.2-2.3,3.4-3.3c1-0.8,1.6-1.6,0.8-2.8c-0.1-0.1,0.1-0.4,0.2-0.5c0.1-0.1,0.4-0.1,0.5-0.1
			c1,0.5,1.4,1.2,1.1,2.2c-0.2,0.8-0.8,1.4-1.4,2c-1.4,1.5-2.8,3-4.2,4.4c-0.6,0.6-1.2,1.2-1.8,1.7c-1.3,1.1-2.6,2.1-3.9,3.1
			C465.3,638.5,463.8,639.3,461.9,639z"/>
		<path class="st1" d="M433.9,605.7c-0.1,0.4-0.4,0.5-0.7,0.5c-0.6-0.1-1-0.4-1.4-0.8c-2.8-3-5.3-6.2-7.2-9.8
			c-0.2-0.3-0.2-0.7-0.3-1.1c0-0.3,0.1-0.6,0.4-0.6c0.2,0,0.4,0,0.5,0.1c0.3,0.4,0.5,0.8,0.7,1.2c2,3.7,4.5,7,7.6,9.8
			C433.7,605.2,433.8,605.5,433.9,605.7z"/>
		<path class="st1" d="M423.4,611.6c-0.1,0.2-0.1,0.4-0.3,0.5c-0.1,0.1-0.4,0-0.5-0.1c-0.6-0.7-1.2-1.4-1.7-2.2
			c-1.7-2.6-3.4-5.1-5.3-7.5c-0.3-0.4-0.6-0.9-0.9-1.4c-0.2-0.3-0.3-0.7,0.1-1c0.4-0.3,0.7-0.1,0.9,0.2c0.1,0.1,0.1,0.1,0.2,0.2
			c2.2,3.1,4.3,6.3,6.5,9.4C422.9,610.2,423.4,610.8,423.4,611.6z"/>
		<path class="st1" d="M428.8,606.4c0,0.2-0.4,0.5-0.6,0.5c-0.6-0.1-1-0.5-1.3-1c-1.2-1.8-2.3-3.5-3.5-5.3c-0.7-1.1-1.4-2.2-2.1-3.3
			c-0.2-0.3-0.3-0.7-0.3-1c0-0.1,0.1-0.4,0.3-0.4c0.1-0.1,0.4-0.1,0.5,0c0.2,0.1,0.3,0.2,0.4,0.4c2.1,3.3,4.1,6.6,6.4,9.7
			C428.8,606,428.8,606.2,428.8,606.4z"/>
		<path class="st1" d="M418.6,597.5c0.3-0.1,0.6,0.1,0.7,0.3c0.6,1,1,2,1.6,2.9c1.1,1.7,2.2,3.4,3.3,5.1c0.3,0.4,0.5,0.8,0.7,1.2
			c0.1,0.2,0,0.6-0.1,0.8c-0.3,0.4-0.7,0.1-0.9-0.2c-2-2.8-3.9-5.7-5.5-8.6c-0.2-0.3-0.2-0.7-0.2-1.1
			C418.3,597.8,418.5,597.6,418.6,597.5z"/>
		<path class="st1" d="M362.3,447.4c0,1.3-0.1,2.7-1.6,3.2c-1.3,0.5-2.3-0.2-3.3-1c-2.8-2.1-3.2-4.8-1.3-7.8
			c0.3-0.4,0.6-0.7,1.1-0.7c0.6,0,1.3,0,1.9,0.4C360.9,442.9,362.6,444.4,362.3,447.4z"/>
		<path class="st1" d="M355.9,435.6c1.6,0,2.7,1.9,1.9,3.2c-0.2,0.3-0.6,0.5-0.9,0.6c-2.7,0.1-3.4,2.2-4.1,4.2
			c-0.2,0.4-0.1,0.9-0.2,1.4c-0.2,0.6-0.6,0.9-1.3,0.8c-0.6-0.1-1.1-0.5-1.1-1.1c-0.1-1.1-0.2-2.3,0.1-3.3c0.6-1.6,1.3-3.1,2.4-4.3
			C353.6,436.2,354.6,435.6,355.9,435.6z"/>
		<path class="st1" d="M327.6,549.2c1.2,0.1,2.4,0.2,3.6,0.4c0.5,0.1,0.8,0.4,1,0.9c0.2,0.6-0.1,1.1-0.6,1.4
			c-1.9,1.5-3.7,1.3-5.4-0.6c-0.3-0.4-0.4-0.8-0.3-1.3c0.2-0.5,0.6-0.7,1.1-0.7C327.2,549.2,327.4,549.2,327.6,549.2z"/>
	</g>
</g>
<g id="Layer_2">
	
		<image style="display:none;overflow:visible;enable-background:new    ;" width="2048" height="1152" xlink:href="ABDEB484.jpeg"  transform="matrix(1 0 0 1 -7860 -7686)">
	</image>
	<circle class="st3" cx="409.5" cy="438.1" r="248.4"/>
	<circle class="st3" cx="409.5" cy="438.1" r="248.4"/>
	<g>
		<path class="st4" d="M161.1,438.1c0,137.2,111.2,248.4,248.4,248.4s248.4-111.2,248.4-248.4"/>
		<path d="M179,620.4c0.1-0.8,0.4-1.6,1.1-2.1l30.5-26.9c0.7-0.6,1.5-0.9,2.3-0.8c0.8,0.1,1.5,0.4,2.1,1.1l17.9,20.3
			c0.6,0.7,0.9,1.4,0.9,2.2s-0.4,1.5-1,2c-0.6,0.6-1.3,0.8-2.1,0.7s-1.4-0.5-2.1-1.1l-15.9-18l-10.9,9.6l11.4,12.9
			c0.6,0.7,0.9,1.4,0.8,2.2s-0.3,1.5-1,2s-1.3,0.8-2.1,0.7s-1.5-0.4-2.1-1.1l-11.4-12.9l-13.2,11.7c-0.7,0.6-1.4,0.8-2.3,0.8
			s-1.6-0.4-2.1-1.1C179.2,622,178.9,621.3,179,620.4z"/>
		<path d="M218.2,658.9c-1.6-3.8-2-7.8-1.3-11.9c0.7-4.1,2.5-8,5.4-11.6s6.2-6.2,10.1-7.9c3.8-1.6,7.8-2.1,11.9-1.4
			c4.1,0.7,8,2.4,11.6,5.3c3.6,2.9,6.2,6.2,7.7,10.1c1.6,3.8,2,7.8,1.3,11.9c-0.7,4.1-2.5,8-5.4,11.6s-6.3,6.3-10.1,7.9
			c-3.9,1.6-7.8,2.1-11.9,1.4s-7.9-2.4-11.6-5.3C222.4,666.2,219.8,662.8,218.2,658.9z M238.2,668.5c3.1,0.4,6.2,0,9.1-1.2
			c2.9-1.2,5.5-3.2,7.6-5.9c2.1-2.7,3.5-5.6,4-8.7c0.6-3.1,0.3-6.2-0.8-9.1c-1.1-2.9-3-5.5-5.7-7.6s-5.6-3.4-8.7-3.9
			c-3.1-0.4-6.1,0-9.1,1.2c-2.9,1.2-5.5,3.2-7.6,5.9s-3.5,5.6-4,8.7c-0.6,3.1-0.3,6.2,0.9,9.1c1.1,3,3,5.5,5.7,7.6
			C232.2,666.8,235.1,668,238.2,668.5z"/>
		<path d="M270.8,696.6c-2-2.6-3.2-5.4-3.6-8.4s0.2-5.9,1.6-8.8l12.4-25.1c0.4-0.8,1-1.4,1.8-1.6s1.6-0.2,2.4,0.2s1.4,1,1.6,1.8
			c0.3,0.8,0.2,1.6-0.2,2.4l-12.4,25.1c-0.9,1.9-1.3,3.9-1,5.9s1.1,3.9,2.5,5.6c1.4,1.7,3.3,3.2,5.6,4.3c2.2,1.1,4.4,1.7,6.6,1.7
			s4.1-0.5,5.9-1.5c1.7-1,3.1-2.5,4-4.4l12.4-25.1c0.4-0.8,1-1.4,1.8-1.6c0.8-0.3,1.6-0.2,2.4,0.2s1.3,1,1.6,1.8
			c0.3,0.8,0.2,1.6-0.2,2.4l-12.4,25.1c-1.4,2.9-3.4,5.1-6,6.6c-2.6,1.6-5.5,2.3-8.7,2.3s-6.5-0.8-9.8-2.5
			C275.5,701.4,272.8,699.2,270.8,696.6z"/>
		<path d="M318.8,717.9c-0.4-0.7-0.5-1.5-0.3-2.4l10.1-39.3c0.2-0.9,0.7-1.5,1.4-2c0.7-0.4,1.5-0.5,2.3-0.3c0.4,0.1,0.8,0.3,1.2,0.6
			c0.4,0.3,0.7,0.7,0.8,1.1l16.7,40.2l8.2-31.8c0.2-0.9,0.7-1.5,1.4-2c0.7-0.4,1.5-0.5,2.4-0.3s1.5,0.7,1.9,1.4s0.5,1.5,0.3,2.4
			l-10.1,39.3c-0.2,0.9-0.7,1.5-1.4,2c-0.7,0.4-1.5,0.5-2.3,0.3c-0.4-0.1-0.8-0.3-1.2-0.6c-0.4-0.3-0.7-0.6-0.8-1l-16.7-40.2
			l-8.2,31.7c-0.2,0.9-0.7,1.5-1.4,1.9c-0.7,0.4-1.5,0.5-2.4,0.3C319.9,719.1,319.2,718.6,318.8,717.9z"/>
		<path d="M381,730.7c-0.6-0.6-0.8-1.4-0.8-2.3l1.6-40.6c0-0.9,0.4-1.7,1-2.2c0.6-0.6,1.4-0.8,2.3-0.8l10.9,0.4
			c4.5,0.2,8.5,1.3,11.9,3.5c3.4,2.1,6.1,5,7.9,8.6s2.6,7.7,2.5,12.2s-1.3,8.5-3.4,12s-5,6.1-8.5,8c-3.6,1.9-7.7,2.7-12.2,2.5
			l-10.9-0.4C382.3,731.6,381.6,731.3,381,730.7z M394.3,726.6c3.3,0.1,6.3-0.5,9-1.9s4.8-3.5,6.4-6.1c1.6-2.7,2.4-5.7,2.6-9.2
			c0.1-3.4-0.5-6.5-1.8-9.3c-1.4-2.8-3.3-5-5.9-6.6s-5.5-2.5-8.8-2.6l-7.7-0.3l-1.4,35.8L394.3,726.6z"/>
		<path d="M468.6,724.1c0.1,0.8-0.1,1.6-0.6,2.3s-1.2,1.1-2.1,1.2c-0.6,0.1-1.2,0-1.8-0.3c-0.6-0.3-1-0.7-1.3-1.2l-4.4-7.9L437,721
			l-2.3,8.8c-0.2,0.6-0.5,1.2-1,1.6c-0.5,0.4-1,0.6-1.6,0.7c-0.9,0.1-1.6-0.1-2.3-0.6c-0.7-0.5-1-1.2-1.2-2.1
			c-0.1-0.4,0-0.9,0.1-1.4l11.4-42.1c0.4-1.5,1.3-2.3,2.6-2.5c1.4-0.2,2.5,0.4,3.2,1.7l22.1,37.8
			C468.4,723.3,468.5,723.8,468.6,724.1z M438.4,715.6l17.2-2.3l-11.3-20L438.4,715.6z"/>
		<path d="M502,669.3c0.7,0.4,1.1,0.9,1.4,1.7s0.2,1.5-0.1,2.2c-0.4,0.7-0.9,1.1-1.7,1.4l-12.3,3.9l11.5,36.2
			c0.3,0.8,0.2,1.6-0.2,2.4c-0.4,0.8-1,1.3-1.8,1.5c-0.8,0.3-1.6,0.2-2.4-0.2s-1.3-1-1.5-1.8l-11.5-36.2l-12.4,3.9
			c-0.8,0.3-1.5,0.2-2.2-0.1c-0.7-0.4-1.1-0.9-1.4-1.7s-0.2-1.5,0.1-2.2c0.4-0.7,0.9-1.1,1.7-1.4l30.6-9.7
			C500.6,668.9,501.3,669,502,669.3z"/>
		<path d="M533.3,704.2c-0.8-0.3-1.4-0.8-1.8-1.6l-17.4-36.7c-0.4-0.8-0.4-1.6-0.2-2.4s0.8-1.4,1.6-1.7c0.8-0.4,1.6-0.5,2.4-0.2
			c0.8,0.3,1.4,0.8,1.8,1.7l17.4,36.7c0.4,0.8,0.4,1.6,0.2,2.4c-0.3,0.8-0.8,1.4-1.6,1.8C534.9,704.5,534.1,704.5,533.3,704.2z"/>
		<path d="M564.6,685.7c-4.1,0.4-8.1-0.4-11.8-2.3c-3.7-1.9-6.9-4.7-9.5-8.6c-2.6-3.8-4.2-7.8-4.6-11.9c-0.4-4.1,0.3-8.1,2.1-11.8
			s4.6-6.9,8.5-9.5c3.8-2.6,7.8-4.1,11.9-4.5c4.1-0.4,8.1,0.4,11.8,2.2c3.7,1.9,6.9,4.7,9.5,8.5s4.2,7.8,4.6,12
			c0.4,4.2-0.3,8.1-2.1,11.8s-4.6,6.9-8.4,9.5C572.8,683.8,568.8,685.3,564.6,685.7z M579.6,669.4c1.3-2.9,1.8-5.9,1.5-9.1
			c-0.3-3.2-1.5-6.2-3.4-9s-4.3-5-7.2-6.4c-2.8-1.4-5.8-2.1-9-1.8c-3.1,0.2-6.1,1.3-8.9,3.2c-2.8,2-4.9,4.3-6.2,7.2
			c-1.3,2.8-1.8,5.9-1.5,9c0.3,3.2,1.5,6.2,3.4,9c2,2.8,4.3,5,7.2,6.4c2.8,1.4,5.8,2.1,9,1.9c3.2-0.2,6.1-1.3,8.9-3.2
			C576.2,674.6,578.2,672.2,579.6,669.4z"/>
		<path d="M611.1,652.2c-0.8,0-1.6-0.3-2.2-0.9l-29.6-27.8c-0.7-0.6-1-1.4-1-2.2s0.3-1.5,0.9-2.2c0.3-0.3,0.7-0.6,1.1-0.7
			c0.5-0.2,0.9-0.2,1.3-0.2l43.3,4.8L601,600.5c-0.7-0.6-1-1.4-1-2.2s0.3-1.6,0.9-2.2c0.6-0.6,1.3-1,2.1-1s1.6,0.3,2.2,0.9
			l29.6,27.8c0.7,0.6,1,1.4,1,2.2s-0.3,1.6-0.9,2.2c-0.3,0.3-0.7,0.6-1.1,0.8c-0.4,0.2-0.9,0.3-1.3,0.2l-43.3-4.8l23.9,22.4
			c0.6,0.6,1,1.3,1,2.2c0,0.8-0.3,1.6-0.9,2.3C612.6,651.8,611.9,652.2,611.1,652.2z"/>
	</g>
	<g>
		<path class="st4" d="M161.1,438.1c0-137.2,111.2-248.4,248.4-248.4s248.4,111.2,248.4,248.4"/>
		<path d="M206,291.7c-3.3,1.4-6.5,1.7-9.5,0.9c-0.5-0.1-0.9-0.3-1.1-0.5c-0.5-0.4-0.8-0.9-0.8-1.5c-0.1-0.6,0-1.3,0.4-2
			c0-0.1,0.1-0.3,0.3-0.5c0.4-0.5,0.9-0.9,1.6-1.1c0.7-0.2,1.3-0.2,2-0.1c1.7,0.4,3.6,0.1,5.7-0.9c2.2-1,4-2.5,5.6-4.5
			c1.9-2.4,2.9-4.8,3.1-7.3c0.2-2.5-0.6-4.5-2.5-6c-1.8-1.4-3.9-1.9-6.2-1.5c-2.4,0.4-4.8,1.9-7.3,4.5c-3.4,3.6-7,5.8-10.6,6.5
			c-3.7,0.7-6.9,0-9.8-2.3c-2-1.6-3.3-3.5-3.9-5.8c-0.6-2.3-0.4-4.7,0.4-7.4c0.8-2.6,2.2-5.1,4.1-7.6c2.1-2.7,4.5-4.6,7-5.5
			c2.6-1,5.4-1.3,8.4-1c0.9,0.1,1.6,0.3,2.1,0.8c0.7,0.5,1,1.3,1,2.3c-0.1,0.5-0.3,1-0.6,1.5c-0.4,0.5-0.8,0.8-1.4,1
			c-0.6,0.2-1.1,0.3-1.7,0.2c-2.1-0.3-4,0-5.7,0.6c-1.7,0.7-3.4,2-4.9,4c-1.9,2.4-2.9,4.7-3.2,6.9c-0.2,2.2,0.5,4,2.3,5.4
			c1.6,1.3,3.5,1.7,5.7,1.2c2.1-0.5,4.7-2.2,7.7-5.4c3.3-3.5,6.8-5.5,10.3-6.1s6.9,0.3,10,2.8c2.3,1.8,3.7,3.9,4.4,6.4
			s0.6,5.1-0.2,7.7c-0.8,2.7-2.1,5.2-3.9,7.5C212.2,288.1,209.3,290.3,206,291.7z"/>
		<path d="M236.9,255.7c-4.1,0.8-8.1,0.5-12-0.9c-4-1.4-7.4-3.8-10.4-7.1c-2.9-3.3-4.8-7-5.7-11.1s-0.7-8.1,0.5-12.1
			s3.4-7.3,6.6-10.2c2.3-2,4.5-3.5,6.7-4.3c2.2-0.9,4.8-1.4,7.7-1.5c0.6,0,1.1,0,1.5,0.2s0.7,0.5,1.1,0.9c0.5,0.6,0.8,1.3,0.7,2.1
			s-0.4,1.4-1,1.9s-1.3,0.8-2.1,0.8c-2.2,0-4,0.4-5.6,0.9c-1.6,0.6-3.3,1.7-5.1,3.3c-2.3,2.1-3.9,4.6-4.8,7.6c-0.9,3-0.9,6-0.2,9.1
			s2.2,5.9,4.4,8.4s4.9,4.3,7.9,5.4c3,1.1,6,1.3,9.1,0.8c3-0.5,5.7-1.8,8.1-3.9c2.9-2.6,4.7-6,5.6-10.3c0.2-0.8,0.5-1.4,1-1.9
			c0.6-0.5,1.2-0.7,2-0.6c0.7,0.1,1.4,0.4,2,1.1c0.6,0.6,0.8,1.4,0.8,2.3c-0.9,5.5-3.4,10-7.5,13.7
			C244.6,253.1,240.9,254.9,236.9,255.7z"/>
		<path d="M297.7,211.9c0.4,0.7,0.5,1.5,0.3,2.3s-0.7,1.5-1.4,1.9c-0.5,0.3-1.1,0.5-1.7,0.4c-0.6,0-1.2-0.2-1.7-0.6l-7.2-5.5
			l-18.5,11.1l1.4,9c0.1,0.7,0,1.3-0.3,1.8c-0.3,0.6-0.7,1-1.2,1.3c-0.8,0.5-1.5,0.6-2.4,0.3c-0.8-0.2-1.4-0.7-1.9-1.4
			c-0.2-0.3-0.4-0.8-0.5-1.3l-6.3-43.2c-0.2-1.5,0.3-2.6,1.4-3.3c1.2-0.7,2.4-0.6,3.6,0.3l35.3,25.9
			C297.2,211.2,297.5,211.5,297.7,211.9z M266.6,216l14.9-8.9l-18.3-13.9L266.6,216z"/>
		<path d="M334.9,197.4c0.3,0.7,0.3,1.5,0,2.2s-0.9,1.2-1.7,1.6c-1.1,0.4-2.1,0.3-3.1-0.4L314.5,189l-1,0.4l-7.2,2.8l5.4,13.9
			c0.3,0.8,0.3,1.6,0,2.4c-0.3,0.8-0.9,1.3-1.8,1.7c-0.8,0.3-1.6,0.3-2.4,0s-1.3-0.9-1.6-1.7l-14.8-37.8c-0.3-0.9-0.3-1.7,0-2.4
			c0.3-0.8,0.9-1.3,1.8-1.6l10.1-3.9c2.8-1.1,5.5-1.5,8.1-1.2s5,1.3,7,2.9c2,1.6,3.6,3.8,4.6,6.4c1,2.6,1.3,5.3,0.7,7.8
			c-0.5,2.6-1.8,4.8-3.7,6.8l13.9,10.4C334.3,196.2,334.7,196.8,334.9,197.4z M311.4,184.1c2.5-1,4.3-2.5,5.4-4.6s1.2-4.2,0.3-6.5
			c-1-2.5-2.6-4.2-4.8-5.1c-2.3-0.9-4.6-0.9-7.2,0.1l-7.2,2.8l6.3,16.1L311.4,184.1z"/>
		<path d="M345.5,196.7c-0.7-0.5-1.1-1.1-1.3-2l-8.4-39.7c-0.2-0.9,0-1.6,0.4-2.4s1.1-1.2,1.9-1.3c0.9-0.2,1.6,0,2.4,0.4
			c0.7,0.5,1.2,1.1,1.3,2l7.8,36.7l21.2-4.5c0.9-0.2,1.6,0,2.4,0.4c0.7,0.5,1.2,1.1,1.3,2c0.2,0.9,0,1.6-0.4,2.4
			c-0.5,0.7-1.1,1.2-2,1.3l-24.3,5.1C347,197.3,346.2,197.2,345.5,196.7z"/>
		<path d="M384.5,189.6c-0.6-0.6-1-1.3-1-2.2l-1.7-40.6c0-0.9,0.2-1.7,0.8-2.3c0.6-0.6,1.3-0.9,2.2-1l27.1-1.2
			c0.9,0,1.7,0.2,2.3,0.7c0.6,0.5,0.9,1.2,0.9,2.1c0,0.8-0.2,1.5-0.8,2.1c-0.5,0.5-1.3,0.8-2.2,0.9l-24,1l0.6,14.6l17.2-0.7
			c0.9,0,1.6,0.2,2.2,0.7s0.9,1.2,1,2c0,0.8-0.2,1.5-0.8,2.1c-0.6,0.6-1.3,0.9-2.2,0.9l-17.2,0.7l0.6,15l24-1c0.9,0,1.7,0.2,2.3,0.7
			c0.6,0.5,0.9,1.2,0.9,2c0,0.9-0.2,1.6-0.7,2.2c-0.5,0.6-1.3,0.9-2.2,0.9l-27.1,1.2C385.9,190.4,385.1,190.2,384.5,189.6z"/>
		<path d="M463.9,148.1c0.5,0.6,0.7,1.3,0.5,2.2c-0.1,0.8-0.5,1.5-1.1,2s-1.3,0.7-2.2,0.5l-12.8-1.6l-4.7,37.7
			c-0.1,0.9-0.5,1.6-1.2,2.1s-1.4,0.7-2.3,0.6c-0.9-0.1-1.6-0.5-2.1-1.2s-0.7-1.4-0.6-2.3l4.7-37.7l-12.9-1.6
			c-0.8-0.1-1.5-0.5-2-1.1s-0.7-1.3-0.5-2.2c0.1-0.8,0.5-1.5,1.1-2s1.3-0.7,2.2-0.5l32,4C462.8,147.1,463.5,147.5,463.9,148.1z"/>
		<path d="M489.5,200.4c-2.3-2.8-3.6-5.7-3.7-8.8c0-0.5,0-0.9,0.1-1.2c0.2-0.6,0.6-1,1.2-1.2c0.6-0.3,1.2-0.3,2-0.2
			c0.1,0,0.3,0.1,0.6,0.2c0.6,0.2,1.1,0.6,1.5,1.2c0.4,0.6,0.6,1.2,0.7,1.9c0.1,1.7,1,3.5,2.6,5.2c1.6,1.8,3.6,3.1,6,4
			c2.8,1.1,5.4,1.3,7.9,0.8c2.4-0.5,4.1-1.9,4.9-4.2c0.8-2.1,0.7-4.3-0.4-6.4c-1.1-2.1-3.2-4-6.4-5.7c-4.5-2.2-7.6-5-9.4-8.3
			s-2-6.6-0.7-10c0.9-2.4,2.4-4.2,4.4-5.4s4.4-1.8,7.1-1.8s5.6,0.6,8.5,1.7c3.2,1.2,5.7,2.9,7.4,5.1c1.7,2.2,2.9,4.7,3.5,7.8
			c0.2,0.9,0.1,1.6-0.1,2.3c-0.3,0.8-0.9,1.4-1.9,1.6c-0.5,0.1-1,0-1.6-0.2s-1-0.6-1.4-1s-0.6-1-0.7-1.6c-0.4-2.1-1.1-3.8-2.3-5.3
			s-2.9-2.6-5.2-3.5c-2.8-1.1-5.3-1.4-7.5-1s-3.7,1.7-4.5,3.8c-0.7,1.9-0.6,3.9,0.5,5.8c1.1,1.9,3.5,3.8,7.4,5.8
			c4.3,2.2,7.3,4.9,8.9,8.1c1.6,3.2,1.7,6.7,0.3,10.4c-1,2.7-2.6,4.7-4.8,6.1c-2.2,1.4-4.7,2.1-7.5,2.1s-5.5-0.5-8.3-1.5
			C494.8,205.3,491.8,203.2,489.5,200.4z"/>
		<path d="M529.4,217.3c-2-3.6-2.9-7.5-2.7-11.7s1.5-8.2,3.9-12.2s5.4-7,9-9c3.6-2.1,7.5-3,11.6-2.9c4.2,0.1,8.2,1.4,12.2,3.8
			c3.9,2.4,6.9,5.4,8.9,9s3,7.5,2.8,11.7s-1.5,8.2-3.9,12.2s-5.4,7-9.1,9c-3.6,2.1-7.5,3-11.6,2.9s-8.2-1.4-12.1-3.8
			C534.5,224,531.5,220.9,529.4,217.3z M550.5,224.3c3.2,0,6.1-0.7,8.9-2.3c2.8-1.6,5-3.9,6.8-6.8c1.8-2.9,2.8-6,2.9-9.2
			c0.2-3.2-0.5-6.2-2-8.9c-1.5-2.8-3.7-5.1-6.6-6.8c-2.9-1.8-6-2.7-9.1-2.7s-6.1,0.7-8.8,2.3c-2.8,1.6-5,3.9-6.8,6.8
			c-1.8,2.9-2.8,6-2.9,9.2c-0.2,3.2,0.5,6.2,2,9s3.7,5.1,6.6,6.9C544.3,223.3,547.3,224.2,550.5,224.3z"/>
		<path d="M571.6,246.3c-1.2-3.9-1.3-8-0.4-12.1c1-4.1,2.9-7.8,5.9-11.1c2.9-3.3,6.4-5.6,10.4-6.9c4-1.4,8-1.6,12-0.9
			c4.1,0.8,7.7,2.6,10.9,5.5c2.3,2,3.9,4.1,5.1,6.2c1.1,2.1,1.9,4.6,2.4,7.5c0.1,0.6,0.1,1.1,0,1.5s-0.4,0.8-0.7,1.2
			c-0.5,0.6-1.2,0.9-2,0.9s-1.5-0.3-2-0.8c-0.6-0.5-0.9-1.2-1-2c-0.3-2.1-0.8-4-1.5-5.5s-2-3.1-3.9-4.8c-2.3-2.1-5-3.4-8-3.9
			s-6.1-0.3-9.1,0.8s-5.7,2.8-7.9,5.3c-2.3,2.5-3.7,5.3-4.5,8.4c-0.7,3.1-0.7,6.2,0.2,9.1c0.8,3,2.4,5.5,4.7,7.6
			c2.9,2.6,6.5,4.1,10.8,4.5c0.8,0.1,1.5,0.4,2,0.8c0.6,0.5,0.9,1.1,0.9,1.9c0,0.7-0.3,1.4-0.9,2.1c-0.6,0.6-1.3,1-2.2,1
			c-5.5-0.3-10.3-2.3-14.4-6C575,253.7,572.8,250.3,571.6,246.3z"/>
		<path d="M598,274.4c0.1-0.9,0.5-1.6,1.2-2.1l32-25c0.7-0.5,1.5-0.8,2.3-0.6c0.9,0.1,1.5,0.5,2.1,1.2c0.5,0.7,0.8,1.5,0.7,2.3
			s-0.5,1.5-1.2,2.1l-14.2,11.1l27.9,3.4c0.7,0.1,1.2,0.2,1.6,0.4c0.4,0.2,0.7,0.5,1,0.9c0.5,0.7,0.7,1.3,0.6,2
			c-0.1,0.7-0.5,1.2-1,1.7c-0.8,0.6-1.8,0.9-2.8,0.8l-21.5-2.6l-7.1,25.4c-0.2,0.7-0.6,1.2-1.1,1.7c-0.6,0.5-1.4,0.7-2.2,0.7
			s-1.5-0.4-2-1c-0.7-0.9-0.9-1.8-0.5-2.8l6.9-24.6l-6.1-0.7l-11.4,8.9c-0.7,0.5-1.5,0.8-2.3,0.7s-1.5-0.5-2.1-1.2
			C598.2,276,597.9,275.3,598,274.4z"/>
	</g>
</g>
</svg>
