<?xml version="1.0" encoding="utf-8"?>
<!-- Generator: Adobe Illustrator 20.1.0, SVG Export Plug-In . SVG Version: 6.00 Build 0)  -->
<svg version="1.1" id="Layer_1" xmlns="http://www.w3.org/2000/svg" xmlns:xlink="http://www.w3.org/1999/xlink" x="0px" y="0px"
	 viewBox="0 0 791 857" style="enable-background:new 0 0 791 857;" xml:space="preserve">
<style type="text/css">
	.st0{fill:#FFFFFF;}
	.st1{fill:#080808;}
	.st2{fill:#ED2C28;}
	.st3{fill:none;}
</style>
<g>
	<g>
		<path class="st0" d="M111.6-22.4c204.6,0,409.2,0,613.9,0c0,230.9,0,461.9,0,692.9c-204.7,0-409.3,0-613.9,0
			C111.6,439.6,111.6,208.6,111.6-22.4z M422.6,490.4c1.9,1.7,3.1,4,4.6,5.9c0.7,0.9,1.5,1.8,1.9,2.9c0.7,2,1.7,3.9,2,6.1
			c0.3,2.5,0.8,5,1.2,7.5c0.1,0.5,0.2,1,0,1.4c-0.5,1.8-0.1,3.4,0.6,5.1c0.4,0.9,0.6,1.8,0.9,2.8c0.5,1.9,1.7,3.3,3.4,4.1
			c1.1,0.5,2.1,0.9,3.3,1c1.8,0.1,3.7,0.1,5.5-0.3c2.9-0.7,5.9-1.1,8.9-0.2c1.5,0.5,3,0.9,4.5,1.2c2.1,0.4,4,1.4,6,2.3
			c1,0.5,1.8,1.1,2.5,2c0.8,1.1,1.9,2,2.7,3c1.4,1.7,3.2,1.8,5,1.7c2.5-0.2,4.7-1.3,6.6-2.9c3.3-2.8,6.4-5.7,9.5-8.7
			c1.7-1.6,3.2-3.3,4.7-5.2c1.7-2.2,2-4.4,0.5-6.7c-0.2-0.2-0.3-0.5-0.4-0.8c-1.8-2.7-3.5-3.4-6.7-2.8c-1,0.2-1.9,0.5-2.9,0.6
			c-3.7,0.1-7.4,0.1-11.1-0.2c-0.8-0.1-1.6-0.2-2.2-0.7c-1.5-1-3.2-1.3-4.9-1.8c-3.3-0.9-6.4-2.3-9.2-4.3c-3.9-2.6-6.9-6.3-10.6-9.2
			c-0.2-0.1-0.3-0.3-0.4-0.4c-2.1-2.8-4.5-5.4-6.3-8.4c-1.1-1.8-2.4-3.5-3.9-5.1c-0.1-0.5-0.2-0.9-0.4-1.4c-0.9-2-2-4-2.6-6.2
			c-0.1-0.6-0.4-1.1-0.8-1.6c-0.8-0.9-1-1.8-0.7-3c0.2-0.7,0.2-1.5,0.2-2.3c0.1-1.3,0-2.5,0.1-3.8c0.1-1,0-2.2,0.7-3
			c2.4-2.6,5-5.2,8.9-5.4c0.2,0,0.4,0,0.7,0c0.3,0.8,0.6,1.6,0.9,2.4c2.4,6.1,6.7,10.4,13,12.5c0.6,0.2,1.3,0.3,1.9,0.7
			c4.3,2.4,8.9,3.8,13.6,5.1c0.6,0.2,1.3,0.4,1.9,0.8c3.2,2.5,6.9,4.3,9.5,7.6c1.3,1.7,2.7,3.3,4,5c1.1,1.4,2.1,2.9,3.8,3.5
			c1.9,0.7,3.4,2.4,5.6,2.3c1.1,0.9,2.2,0.5,3.2-0.1c1.2-0.7,2.4-1.3,3-2.6c0.3-0.7,0.9-1.2,1.4-1.9c1.2-1.8,2.6-3.5,3.3-5.4
			c1-2.5,2.2-4.8,3.4-7.1c3.1-5.7,2-4.5,7.4-7.2c2-1,3.9-2.1,5.2-4c0.6-1,1.3-2,1.5-3.1c0.3-1.3,0.5-2.7,1-4
			c0.5-1.5,1.1-2.8,2.6-3.6c3.2-1.6,4.5-4.4,4-8c-0.1-0.9-0.4-1.7-0.5-2.6c-0.1-0.6-0.5-1-1.1-1.2c-1.6-0.6-3.2-0.8-4.8,0
			c-0.4,0.2-0.9,0.4-1.4,0.1c-1.2-0.8-2.2-0.4-3.3,0.3c-0.7,0.4-1.4,0.6-2.2,0c-0.1-0.1-0.4-0.2-0.5-0.2c-1.3,0.1-2.5,0.6-3.6,1.1
			c-0.8,0.4-1.3,1.1-1.6,2c-0.7,2.5-2.1,4.6-3.8,6.5c-0.5,0.6-0.9,1.2-1.3,1.9c-1.4,2.5-3.2,4.6-5.6,6.3c-1.3,0.9-2.7,1.9-3.9,3
			c-2.4,2.2-5.7,2.7-8.3,0.9c-2.8-2-6.1-3.5-8.2-6.4c-0.3-0.4-0.9-0.7-1.4-1.1c-2.1-1.7-4.2-3.4-6.1-5.4c-1.8-1.8-3.4-3.7-5.3-5.4
			c-2.6-2.4-5.1-4.7-7.6-7.2c-0.5-0.6-1.1-1.1-1.7-1.5c-1.5-1-2.7-2.2-3.7-3.7c-1.5-2.2-3.3-4.1-5.3-5.8c-0.7-0.6-1.4-1.3-2.1-2
			c-2.1-2.2-5-2.9-7.6-4.2c-0.1,0-0.2,0-0.3,0c-3.9,0-7.6,0.2-10.3,3.6l0,0c-0.2-0.2-0.4-0.5-0.2-0.8c0.5-0.6,1-1.2,1.5-1.8
			c1.2-1.5,2.8-2.7,3.8-4.4c1.2-2,2.4-4,3.7-5.9c1.2-2,2.9-3.6,4.2-5.5c1-1.6,2.7-2.8,4-4.2c1.8-1.9,4-3,6.6-3.4
			c2.9-0.5,5.7-1.2,8.3-2.6c3.3-1.7,6.5-3.5,8.5-6.9c0.7-1.1,1.2-2.2,1.7-3.4c1.4-3.4,2.8-6.8,3.5-10.5c0.1-0.7,0.5-1.4,0.9-2.1
			c1.5-2.2,2.8-4.4,4.2-6.7c0.8-1.2,0.8-2.6,0.6-4c-0.1-0.9-0.7-1.3-1.6-1.4c-0.7,0-1.3,0.2-1.9,0.7c-1,0.8-1.8,1.8-2.5,2.8
			c-0.5,0.7-0.7,1.6-1.5,2c-0.7-0.9-0.9-2-1.2-3c-0.3-0.8-0.6-1.4-1-2.1c-1.1-1.5-2.9-1.4-3.7,0.4c-1.1,2.4-2.8,4.4-4.4,6.5
			c-0.5-0.3-0.8-0.6-1.2-0.9c-1.5-0.9-2.6-0.6-3.3,0.9c-0.2,0.5-0.4,1.1-0.4,1.7c0,1,0.5,1.9,0.4,2.9c-0.1,1.2-1.8,1.1-2.3,2.1
			c-0.1,0.3-0.4,0.4-0.6,0.7c-1.3,1.6-3,2.5-5,2.7c-0.7,0.1-1.4,0.1-2,0.3c-2.4,0.5-4.4-0.2-6.3-1.6c-0.8-0.6-1.3-1.3-1.3-2.4
			c0-1.6,0-3.1-0.5-4.6c-0.6-1.6-1.6-2.9-3.2-3.6c-0.8-0.4-1.6-0.1-1.9,0.7c-0.4,1.1-0.7,2.2-1.1,3.3c-0.7,1.9-1,3.7-0.5,5.7
			c0.2,0.7,0.2,1.5,0.2,2.3c0,2.3,0.2,4.5,0.8,6.6c0.3,1.2,0.4,2.5,0.5,3.8c0.1,1.4-0.3,2.8-1.1,3.9c-2,2.9-4.2,5.6-6.7,8.1
			c-1.4,1.4-3.2,2.2-4.6,3.5c-3.9,3.5-8.1,6.7-12.6,9.5c-1.4,0.9-2.9,1.6-4,2.9c-0.5,0.6-1.2,1-2.1,1c-0.5,0-1-0.1-1.2-0.6
			c-0.9-2.5-2.7-4.4-4.2-6.5c-1.5-2-1.5-2,0-4.2c0.3-0.4,0.6-0.8,0.8-1.2c1.2-2.3,1.5-4.6,0.3-6.9c-1.8-3.6-4-6.9-6.4-10.1
			c-2-2.8-4.3-5.3-7-7.4c-3.4-2.6-7.3-4.5-10.8-7c-0.8-0.5-1.7-0.7-2.5-0.5c-2.9,0.7-6.1,0.8-8.1,3.4c-1.5-0.5-2.7-1.7-4.3-1.8
			c-0.4,0-0.6-0.4-0.7-0.8c-0.2-2.5-0.4-5,0.4-7.5c0.7-2.2,2.1-3.4,4.3-3.7c1.7-0.2,3.5-0.5,5.2-0.7c2.4-0.3,4.6-1.1,6-3.2
			c0.8-1.2,1.4-2.6,1.8-4c0.7-2.4,1.1-4.9,1.5-7.4c0.4-2.4,0.5-4.8-0.3-7.2c-0.3-0.8-0.3-1.7-0.3-2.6c-0.1-1.3,0.4-2.5,1.5-3.3
			c0.5-0.4,0.9-0.7,1.4-1.1c1.4-1.2,2.1-2.8,2.4-4.6c0.4-2.5-0.8-4.8-3-5.8c-0.7-0.4-1.5-0.4-2.2-0.1c-1.1,0.5-2.1,0.9-3.2,1.4
			c-0.2-0.3-0.4-0.6-0.5-0.9c0.5-0.9,0.8-1.9,1.9-2.5c1.8-0.9,2.3-3.1,1.1-4.6c-0.6-0.8-1-1.6-2-2.1c-0.5-0.2-0.2-1,0.4-1.8
			c0.4-0.5,0.6-0.2,0.9,0.1c0.5,0.4,0.9,0.6,1.6,0.4c1-0.3,2.1-0.5,3.1-0.7c0.8-0.2,1.5-0.5,1.6-1.4c0.1-0.8-0.5-1.2-1.2-1.5
			c-0.7-0.3-0.7-0.8-0.4-1.4c0.3-0.7,0.8-1.1,1.4-1.4c1.1-0.6,1.2-1.7,1.2-2.8c0-0.8-0.4-1.5-0.8-2.2c-0.8-1.2-2.3-2.3-3.9-0.7
			c-0.6,0.6-1.3,0.9-2.1,0.7c-2.5-0.6-5.1-1.3-7.7-1.3c-1.3,0-2.5-0.6-2.8-2.1c-0.3-1.1-0.8-2-1.4-2.8c-0.9-1.2-2-2.1-3.6-2.1
			c-5.5,0-10.5,1.1-13.8,6c-0.1,0.2-0.2,0.3-0.3,0.5c-0.7,0.9-2.2,1.3-3.3,0.8c-1.5-0.7-3.2-0.9-4.8-1.1c-4.6-0.5-8.1,1.5-10.1,5.7
			c-0.1,0.2-0.1,0.4-0.2,0.5c-0.4,0.9-1,1.4-1.9,1.7c-1.1,0.4-2.2,0.8-3.4,0.5c-3-0.8-5.8-0.1-8.5,1.2c-1.4,0.7-2.9,1-4.5,1.3
			c-5,0.8-9.5,2.7-13,6.6c-1.4,1.6-2.5,3.2-3.2,5.1c-0.8,2.2-0.2,3.5,2.1,4.2c0.7,0.2,1.5,0.3,2.3,0.4c0.4,0.1,0.8,0.1,1.1,0.2
			c0.4,0.2,0.6,0.6,0.4,1c-0.1,0.3-0.3,0.5-0.7,0.3c-1.7-0.6-3.2-0.1-4.8,0.7c-0.9,0.5-1.7,1-1.7,2.1c0,1,0.9,1.8,2.2,2
			c0.4,0.1,0.8,0.1,1.2,0.1c0.6,0.1,0.8,0.5,0.5,1c-0.6,0.8-1.3,1.5-1.8,2.3c-0.7,1.1-0.5,2.1,0.2,3c0.4,0.5,1,0.7,1.6,0.6
			c0.6-0.1,1.3-0.8,1.1-1.5c-0.3-1,0-1.7,0.7-2.3c1.8-1.6,2.5-3.9,3.9-5.8c0.2-0.2,0.3-0.5,0.4-0.8c1.1-2.9-0.2-5-3.2-5.5
			c-0.7-0.1-1.3-0.2-2-0.4c-0.3-0.1-0.5-0.2-0.7-0.4c-0.1-0.1-0.1-0.4-0.1-0.5c0-0.2,0.2-0.3,0.4-0.4c0.4-0.2,0.7,0.1,1.1,0.2
			c3,0.9,6.9-2.6,6.5-5.6c0-0.2-0.1-0.4-0.2-0.6c-0.2-0.5-0.8-0.8-0.6-1.5c1.3-0.9,2.8-1.3,4.4-1.6c0.4-0.1,0.8,0.1,0.7,0.6
			c0,0.8-0.2,1.5-0.8,2.1c-1.6,1.7-2.2,3.9-2,6.2c0.1,1.6,0,3-0.7,4.5c-0.5,1-0.7,2.2-0.7,3.4c0,1.2-0.1,2.3-0.1,3.5
			c0,0.8-0.2,1.5-0.7,2.1c-1.9,2.4-2.1,5-0.1,7.5c0.1,0.1,0.1,0.1,0.2,0.2c0.6,0.9,0.4,1.7-0.5,2.2c-1,0.5-2,0.8-3,1.2
			c-1.5,0.6-2.5,1.8-3.1,3.3c-0.7,1.7-0.3,3,1,4.2c1.5,1.4,3.6,1.2,4.8-0.5c0.3-0.5,0.6-1,0.9-1.5c0.4-0.6,0.9-1.3,1.5-1.8
			c0.8-0.7,1.9-0.3,2.2,0.7c0.2,0.8,0.4,1.7,0.7,2.5c0.2,0.6-0.1,1-0.5,1.2c-1.2,0.6-2.5,1-3.7,1.6c-1.9,1-2.8,2.7-2.7,4.8
			c0.1,1.7,1.2,2.9,3,3c1.5,0.1,2.9,0.1,4.2-0.8c0.6-0.4,1.4-0.1,1.6,0.5c0.1,0.4,0.2,0.7,0.2,1.1c0,1.1,0.6,2,1.2,2.9
			c1.4,1.7,2.8,1.9,4.6,0.7c0.6-0.4,1-1.2,1.9-1.3c0.6,1.3,1.6,2.2,2.8,3c0.2,0.1,0.3,0.5,0.2,0.8c-0.1,0.2-0.4,0.5-0.6,0.5
			c-0.7,0.1-1.4,0.1-2,0.2c-1.1,0.2-2.1,0.6-2.8,1.4c-0.5,0.6-0.3,1.7,0.4,2c0.5,0.2,0.9,0.2,1.4,0c0.7-0.3,1.3-1,2.1-1
			c1.6,0.2,2.4-1,3.5-1.8c1.3-1,1.3-2.6,0.1-3.8c-0.5-0.5-1.1-0.8-1.6-1.3c-0.3-0.2-0.6-0.6-0.7-0.9c-0.1-0.2-0.1-0.6,0.3-0.7
			c0.3,0,0.6,0.1,0.8,0c1.1-0.1,1.9,0.1,2.7,1.2c1.2,1.6,2.9,2.6,5.1,2.2c0.3,0,0.5,0,0.7,0.3c-1.3,2.4-1.3,2.5-3.4,3.1
			c-1.6,0.4-2.7,1.4-3.8,2.5c-1.1,1.1-2.1,2.3-2.9,3.6c-0.5,0.7-0.9,1.7-1.6,2c-1.1,0.5-1.2,1.4-1.5,2.3c-0.3,0.8-0.6,1.6-0.9,2.5
			c-0.8,2.9-1.9,5.8-2.3,8.7c-0.4,3.1-1,6.1-1.7,9.2c-0.5,2.2-0.8,4.4-0.7,6.7c0.1,3.9-0.1,7.8-0.3,11.7c-0.2,5-0.5,9.9-0.1,14.9
			c0.3,3.7,0.5,7.4,0.7,11.1c0.3,4.3,0.5,8.6,0.9,12.8c0.2,2,0.4,4.1,0.8,6.1c0.6,3,1.2,6.1,2.3,9c0.9,2.5,1.8,4.9,2.8,7.3
			c0.5,1.1,1,2.1,2,2.8c0.5,0.3,0.6,0.7,0.6,1.2c0,0.6,0.1,1.2,0.1,1.7c0.2,2.9-0.4,3.8-3.1,4.7c-0.4,0.1-1,0.1-1.4,0.1
			c-0.7,0-1.4-0.2-2-0.2c-3.7,0.2-7.4-0.3-11-0.9c-2.2-0.4-4.3,0-6.2,1c-1.6,0.8-1.7,2.2-0.4,3.2c0.3,0.2,0.7,0.4,1,0.6
			c0.6,0.3,1.2,0.6,1.8,1c0.2,0.1,0.3,0.3,0.3,0.4c-0.1,0.3-0.2,0.5-0.6,0.6c-2.5,0.5-4.9,1.1-7.3,1.8c-1.2,0.4-2.1,1-2.8,2
			c-0.7,1-0.5,2.8,0.5,3.1c1,0.3,2,0.9,3.1,0.5c1.4-0.5,2.9-0.2,4.3,0c0.2,0.2,0.3,0.4,0.5,0.6c-1.6,0.8-3.1,1.5-4.7,2.3
			c-0.5,0.3-1,0.5-1.5,0.9c-0.9,0.7-1,1.5-0.5,2.6c1.1,2,3.8,3.4,6.2,2.6c1.2-0.4,2.4-0.7,3.6-1.2c0.8-0.3,1.5-0.4,2.3,0
			c0.2,0.1,0.3,0.2,0.4,0.4c0,0.1-0.1,0.4-0.2,0.4c-1.1,0.4-2.1,1.1-2.9,2c-1,1.1-1,2.9,0,4c1.2,1.2,4,1.5,5.4,0.7
			c0.4-0.2,0.8-0.5,1.2-0.8c1.2-0.9,2.5-1.4,4-1.6c2.1-0.3,4.2-0.7,6.3-1c0.8-0.1,1.5-0.4,2.1-0.8c2.1-1.3,4.2-2.7,6.1-4.4
			c2.5-2.2,5.5-3.1,8.9-3.1c1.3,0,2.5,0.3,3.6,0.9c2.2,1.2,4.7,1.7,7,2.7c0.7,0.3,1.5,0.3,2.3,0.4c1.3,0.1,2.5-0.3,3.4-1.2
			c1.1-1.1,1.2-2.5,0.2-3.6c-0.4-0.5-1-0.9-1.5-1.3c-0.9-0.7-1.8-1.5-2.7-2.2c-0.1-0.1-0.2-0.3-0.2-0.5c0-0.4,0.4-0.3,0.6-0.3
			c4.1,0.7,8.2,1.5,12.3,2.2c4.1,0.6,8.3,1.2,12.4,1.5c3.3,0.2,6.6,0.4,9.9,0.8c0.9,0.1,1.7,0,2.5-0.5c1.2-0.8,2.5-1.6,3.7-2.3
			c4-2.6,8-5.1,11.7-8.1c3.6-2.9,7.6-5.3,11.5-7.9C418.9,490.5,420.6,489.9,422.6,490.4z M437.8,232.7c0.5-1.3,0.9-2.7,1.5-4
			c1.4-3.2,1.9-6.5,1.9-10c0.1-4.7-0.8-9.3-2.1-13.8c-0.7-2.3-1.7-4.4-3-6.3c-4.3-6.3-10.3-10.5-17.6-12.9
			c-5.7-1.8-11.5-2.9-17.4-3.9c-3.5-0.6-7.1-0.8-10.8-0.4c-5.3,0.5-10.6,1.4-15.9,2.2c-1.2,0.2-2.3,0.2-3.5,0.2
			c-1.4-0.1-2.7-0.2-4.1-0.2c-8.9-0.1-17.7-0.1-26.6-0.6c-5.6-0.4-11.3-0.8-16.9-1.5c-6-0.7-12-1.4-17.8-3.2
			c-3.4-1.1-6.9-2-10.2-3.5c-2.2-0.9-4.2-2.1-6.1-3.5c-2.6-1.9-4-4.4-3.7-7.8c0.2-2,1.2-3.7,2.5-5.2c1.6-1.7,3.3-3.4,5.1-4.8
			c3.9-3,8-5.6,12.3-7.7c3.6-1.8,7.2-3.5,10.8-5.1c4.2-1.8,8.4-3.5,12.9-4.7c4.3-1.1,8.6-2.3,13-3.4c3.4-0.8,6.8-1.6,10.2-2.3
			c4-0.8,8.1-1.3,12-2.2c5.4-1.1,10.9-1.8,16.4-2.5c7.7-1,15.5-1.7,23.3-2c9-0.3,17.9,0.4,26.6,3c6.9,2,13.6,4.7,20.1,7.9
			c2.1,1,4.1,2.3,6,3.7c0.9,0.6,1.6,1.4,2.4,2.1c0.3,0.3,0.6,0.5,0.4,1c-0.2,0.5-0.6,0.4-1,0.3c-2.5-0.3-5-0.7-7.5-1
			c-2.9-0.4-5.8-0.9-8.7-1c-6.3-0.3-12.7-0.3-19-0.4c-7.6-0.1-15.2,0.7-22.7,1.7c-3.2,0.4-6.3,1-9.3,2.4c-1.3,0.6-2.4,1.6-3.5,2.5
			c-3,2.7-2.2,7.6,0.3,9.6c0.7,0.6,1.5,1.2,2.3,1.8c4.1,2.8,8.7,4.3,13.4,5.6c6.4,1.8,12.9,3.1,19.5,3.6c8.4,0.6,16.7,0.4,25-1.3
			c5.4-1.1,10.8-2.6,15.7-5.3c4.1-2.2,7.3-5.1,9.1-9.5c0.2-0.4,0.4-0.9,0.6-1.3c0.2-0.3,0.5-0.6,1-0.5c1.1,0.2,2.3,0.4,3.4,0.7
			c4.4,1,8.7,2.1,13.1,3c6,1.2,12,2.6,17.9,4.1c4.7,1.2,9.4,2.5,14.1,3.7c4.9,1.2,9.8,2.6,14.2,5.2c1.6,0.9,3.4,1.5,5.2,1.9
			c2,0.5,4,1,5.9,1.7c4.8,1.8,8.9,4.7,12.9,7.9c0.5,0.4,1.3,0.8,1.5,1.3c0.7,1.6,2.1,2.2,3.4,3c1.8,1.1,3.3,2.4,4.2,4.4
			c0.7,1.6,1.4,3.2,2,4.8c0.2,0.5,0.5,1.1,0.5,1.7c0.2,3-0.8,5.6-3,7.6c-0.5,0.5-1.1,1-1.8,0.7c-0.5-0.2-0.4-0.8-0.4-1.3
			c0-0.2-0.1-0.4-0.2-0.6c-1.1-3.2-4.4-5.1-7.6-3c-0.9,0.6-1.9,1-2.9,1.3c-3,0.9-6,1.4-9.1,1.8c-3.5,0.5-7,0.7-10.5,0.7
			c-3.8,0.1-7.6,0.2-11.4-0.2c-4.5-0.5-9.1-0.8-13.6-1.5c-5.2-0.8-10.3-2.1-15-4.6c-2.1-1.2-4.5-1.9-6.7-2.8
			c-1.6-0.6-2.6,0.1-2.9,1.8c-0.4,2.5-0.6,5-0.6,7.6c0,2.1-0.1,4.3,0,6.4c0.1,1.4-0.5,2.1-1.7,2.7c-0.7,0.3-1.5,0.4-2.3,0.4
			c-1.3,0-2.5,0-3.8,0.3c-5.7,1.1-10.8-0.6-15.8-3.1c-0.8-0.4-1.4-1-1.9-1.7c-1.8-2.7-3.2-5.5-3.6-8.8c-0.3-2.3,0.4-4.4,1.6-6.4
			c1.1-1.8,2.8-2.5,4.8-3c3.1-0.9,6.3-1.2,9.5-1.4c4.1-0.3,8.2-0.5,12.2,0.1c2.3,0.4,4.6,0.8,6.9,1c4.1,0.5,8.2,0.5,12-1.6
			c2.2-1.1,4.2-2.5,6.1-4c2.2-1.8,2.8-4.8,1.7-7.4c-1-2.3-2.5-3.9-4.9-4.8c-2-0.7-4.1-1.3-6.2-1.8c-0.8-0.2-1.7-0.2-2.6-0.1
			c-1.8,0.1-3.1,1-4.1,2.4c-0.6,0.8-0.5,1.7,0.1,2.4c0.6,0.8,1.4,1.1,2.3,0.5c0.8-0.6,1.8-0.7,2.7-1c1.9-0.7,3.4,0,4.8,1.2
			c1.5,1.3,1.3,3.4-0.3,4.4c-0.5,0.3-1,0.5-1.6,0.7c-2.1,0.6-4.2,1-6.3,1c-2.6,0.1-5.3,0.2-7.9,0.1c-6.2-0.2-12.3,0.5-18.3,1.7
			c-3,0.6-6,1.2-8.6,2.8c-3,1.8-5.8,3.9-8.6,6c-2.5,1.9-3,4.6-2.3,7.6c0.8,3.5,2.8,6.2,5.4,8.5c0.9,0.8,1.9,1.4,2.6,2.3
			c2.8,3.3,6.6,4.7,10.6,5.7c3.4,0.8,6.8,0.6,10.2,0.2c1.9-0.2,3.9-0.3,5.8-0.3c0.8,0,1.3,0.4,1.5,1.2c0.2,0.8,0.3,1.5,0.4,2.3
			c0.2,3.3,0.4,6.6,0.7,9.9c0.3,4,1.2,7.9,2.6,11.6c1.9,5,4.1,9.9,6.4,14.7c1,2.2,2.3,4.3,4,6.1c1.5,1.6,2.8,3.2,4.3,4.8
			c1.6,1.6,3.5,2.9,5.6,3.5c4,1.1,8.1,1.2,12.1,0c5.3-1.5,9.9-4.5,14.4-7.5c3.8-2.6,6.9-6,10.5-8.8c1.1-0.8,1.8-2.3,2.7-3.4
			c0.1-0.2,0.3-0.3,0.4-0.4c4.4-4.5,7.5-9.9,10-15.7c1.2-2.8,2.2-5.6,3.3-8.4c0.6-1.5,1-3,1.3-4.5c0.7-3.9,1.6-7.8,1.9-11.8
			c0.1-1.2,0.6-2.1,1.7-2.5c2.5-0.9,3.8-2.9,5.2-4.9c1.2-1.6,1.8-3.4,1.8-5.5c0-0.8,0-1.5,0.3-2.3c1.3-2.5,1.5-5.2,1-7.9
			c-0.2-1-0.2-1.9-0.3-2.9c-0.1-0.9-0.2-1.8-0.5-2.6c-1.1-2.9-2.3-5.7-4.1-8.3c-2.1-3-4.6-5.2-8-6.6c-2.2-0.9-4.4-2-6.5-3.2
			c-4.2-2.6-8.7-4.5-13.4-5.7c-8.1-2.2-16-4.8-24.2-6.6c-6.3-1.4-12.6-2.6-19-3.2c-2.3-0.2-4.6-0.4-7-0.7
			c-6.1-0.7-12.2-1.3-18.3-1.4c-1.2,0-2.5,0.4-3.4-0.2c-1.1-0.7-0.9-2.3-1.3-3.5c-0.9-3.1-2.3-6-4.6-8.3c-4.8-5-10.3-8.8-16.7-11.5
			c-2.5-1-5.2-1.4-7.9-2c-5.9-1.2-11.8-1.2-17.7-1.4c-1.6,0-3.3,0.2-4.9,0.3c-4.9,0.3-9.7,0.5-14.6,0.8c-0.5,0-1,0.1-1.4,0.2
			c-4.8,0.5-9.7,0.9-14.5,1.5c-5,0.6-10.1,1.2-15,2.2c-4.4,0.9-8.8,1.8-13.1,2.7c-4.7,1-9.5,2.2-14.2,3.2
			c-6.2,1.4-12.3,2.9-18.5,4.3c-2.7,0.6-5.3,1.1-8,1.7c-6.5,1.4-12.7,3.8-18.9,5.9c-4.4,1.5-8.8,3.2-13,5.1
			c-7.1,3.2-13.3,7.8-18.7,13.3c-2.5,2.6-4.8,5.4-5.9,8.9c-1.4,4.4-0.9,8.5,1.8,12.2c1.4,1.9,3.1,3.5,5.1,4.7
			c2.8,1.6,5.6,3.1,8.6,4.4c5.8,2.5,11.9,4.3,18,5.8c6.2,1.5,12.5,2.2,18.8,2.5c9.8,0.4,19.5-0.8,28.9-3.1
			c5.7-1.4,11.4-2.7,17.2-3.5c2.3-0.3,4.6-1,6.9-1c4.6,0.1,9.2,0.2,13.7,0.1c7.8-0.1,15.6,0.6,23.3,1.9c3.2,0.6,6.3,1.4,9.3,2.5
			c6.1,2.4,11.2,6.2,15.8,10.8c2.4,2.5,4.1,5.4,4.8,8.9c1.2,5.8,0.3,11.2-3.2,16.1c-1.5,2.1-1.6,2.2-4,1.3
			c-3.5-1.4-7.1-2.7-10.9-3.1c-4.1-0.5-8.2-0.6-12.2,0.6c-5.3,1.6-9.4,4.7-11.4,10c-0.3,0.7-0.5,1.5-0.9,2.2c-1,2-1.2,4.1-1,6.3
			c0.1,2.3,0.7,4.4,1.5,6.5c0.8,2.1,2,4.1,4.2,5c5.8,2.5,11.5,2.6,16.9-1.2c4.8-3.5,9.3-7.4,13.5-11.6c1.4-1.4,2.8-2.9,4.2-4.4
			c0.4,0.2,0.8,0.3,1.1,0.5c6,3.8,11.8,7.9,16.5,13.4c1.5,1.8,3.2,3.4,4.8,5.1c1.1,1.2,2.4,2.4,3.3,3.7c2,3.1,4,6.2,5.8,9.4
			c2,3.5,3.7,7.1,4.8,10.9c1.3,4.4,2.3,8.8,3.4,13.3c1.1,4.6,1.7,9.2,1.6,13.9c-0.2,5.2-0.8,10.3-2.2,15.3c-1,3.6-2.2,7.3-3.5,10.8
			c-1,2.8-1.9,5.7-3.3,8.4c-0.9,1.8-1.5,3.8-2.1,5.7c-0.5,1.5-0.3,2.3,0.5,2.6c0.8,0.4,1.5,0.1,2.2-1.3c1.4-2.5,2.8-4.9,4.1-7.4
			c1.3-2.6,2.9-5,3.8-7.8c0.9-2.5,1.7-5,2.2-7.5c1.2-6.1,2.3-12.2,4-18.2c0.8-2.7,0.9-5.6,1.1-8.4c0.1-0.9,0-1.8-0.1-2.6
			c-0.4-3.1-0.8-6.2-1.6-9.2c-1-3.5-1.8-7-3.2-10.3c-2.3-5.4-5.9-9.8-9.6-14.2c-1.6-1.8-3.5-3.4-4.8-5.5c-2.1-3.6-4.4-7.1-7-10.4
			c-4.7-6.3-9.9-12-16.8-16C438.3,233.2,438.1,233,437.8,232.7z M564.9,226.6c1.3,0.2,1.8-0.4,2.5-0.8c3.9-1.8,7.7-1.8,11.5,0
			c1.9,0.9,2,1.8,0.4,3.2c-0.5,0.4-1,0.5-1.6,0.4c-1.4-0.1-2.7-0.1-4.1-0.2c-2.1-0.2-4,0.5-5.8,1.6c-0.7,0.4-1.3,0.8-2.1,1
			c-1.7,0.4-2.9,1.5-3.7,3.1c-1.4,2.9-3.3,5.5-5.2,8.1c-1.4,1.9-2.8,3.7-4.3,5.5c-1,1.2-1.4,2.5-1.7,3.9c-0.4,1.9,0.2,3.7,0.8,5.4
			c1.3,3.7,3.4,7,5.8,10.1c1.1,1.4,1.9,3,3.3,4.1c3.9,2.8,7.8,5.5,12.4,6.9c1.2,0.3,2.5,0.5,3.7,0.8c2,0.5,4,0.4,6.1,0.1
			c3.9-0.6,7.2-2.5,10.2-4.8c5.2-3.8,9.8-8.3,13.8-13.4c3.2-4.2,6-8.6,8.3-13.4c0.2-0.3,0.5-0.8,0.7-0.8c0.8,0,1.8-0.3,2.5,0.4
			c1.1,1.1,2.3,2.2,2.8,3.7c2,5.1,3,10.3,1.3,15.7c-1.3,4.1-3.3,7.7-6.7,10.4c-2,1.6-3.9,3.2-6,4.7c-0.7,0.5-1.4,1-2.2,1.4
			c-2.7,1.2-5.5,1.9-8.4,2.3c-5.3,0.8-10.7,0.9-16,0.5c-6.6-0.5-13.2-0.7-19.8-0.4c-4.3,0.2-8.5,0.9-12.8,1.4
			c-2.6,0.3-5.1,1.2-7.8,0.9c-2.3-0.3-4.7-0.1-7,0c-8.1,0.2-14.6,3.5-19.5,10c-0.6,0.8-1.3,1.4-2.1,2c-4.4,2.9-7,6.9-7.5,12.2
			c-0.1,1.1-0.1,2.1,0.1,3.2c0.8,3.9,3,7,5.8,9.6c4.6,4.3,10,7.1,16.3,7.9c4.6,0.5,9.2,0.6,13.6-1c3-1.1,6-2.3,9-3.4
			c1.3-0.5,2.4-1.2,3.5-2c2.9-2.2,4.7-5.3,5.9-8.6c1.1-2.9,0.3-5.2-2.3-6.9c-2.8-1.8-5.9-2.4-9.2-1.4c-0.4,0.1-0.7,0.3-1.1,0.5
			c-1.4,0.7-2.5,1.9-2.5,3.4c-0.1,1.7,1.5,2.4,2.8,3c0.4,0.2,0.7,0.3,1.1,0.3c0.8,0.2,1.6-0.2,1.9-1c0.2-0.3,0.2-0.7,0.3-1.1
			c0.1-0.6,0.4-0.8,0.9-1c0.9-0.2,1.7-0.3,2.6-0.1c2.1,0.6,2.8,2.2,1.5,4c-0.6,0.9-1.5,1.5-2.4,2.1c-5.6,3.6-11.9,4.1-18.3,3.7
			c-5-0.4-9.4-2.4-13.4-5.3c-2-1.5-3.7-3.2-4.5-5.6c-1.1-3.5-1.3-7.1,0-10.6c0.3-0.8,0.8-1.4,1.7-1.9c2.7-1.5,5.6-2.7,8.5-3.9
			c4-1.8,8.2-3,12.4-4.1c0.8-0.2,1.5-0.3,2.3-0.3c1.6,0.1,3.3,0.2,4.9,0.4c2.8,0.2,5.6,0.5,8.4,0.6c9.1,0.1,18.1,0.2,27.2,0.2
			c4.3,0,8.6-0.3,12.7-1.4c5.9-1.6,11.8-3.4,16.7-7.3c0.5-0.4,1-0.6,1.5-0.9c5.4-3.3,9.4-7.8,11.8-13.7c0.9-2.1,1.6-4.3,1.4-6.5
			c-0.3-3-0.6-6-1.5-8.9c-1.1-3.3-2.6-6.3-5.1-8.8c-1.1-1.1-2.3-2.1-3.5-3.1c0.1-0.3,0.3-0.7,0.4-1c1.9-3.9,3.6-8,4.9-12.2
			c1.7-5.4,2.1-11.1,2.5-16.7c0.1-0.9-0.4-1.5-1.1-1.9c-1.2-0.7-2.2-0.9-3.5-0.1c-3.9,2.5-8.3,3.4-12.8,3.5
			c-5.8,0.2-11.6,0-17.4-1.3c-6-1.3-11.8-3.3-17.4-5.8c-0.7-0.3-1.4-0.7-2.1-1c-0.5-0.2-1,0-1.1,0.5c-0.3,1.7-0.5,3.5-0.8,5.2
			c-0.4,3.3-1,6.5-2.3,9.6C566.4,222.8,565.7,224.6,564.9,226.6z"/>
		<path class="st1" d="M379.6,325.6c1.1-0.5,2.1-0.9,3.2-1.4c0.8-0.4,1.5-0.3,2.2,0.1c2.1,1,3.3,3.3,3,5.8c-0.3,1.8-1,3.3-2.4,4.6
			c-0.4,0.4-0.9,0.8-1.4,1.1c-1.1,0.8-1.5,2-1.5,3.3c0,0.9,0,1.8,0.3,2.6c0.8,2.4,0.7,4.8,0.3,7.2c-0.4,2.5-0.9,5-1.5,7.4
			c-0.4,1.4-1,2.8-1.8,4c-1.4,2.1-3.6,2.9-6,3.2c-1.7,0.2-3.5,0.4-5.2,0.7c-2.2,0.3-3.6,1.5-4.3,3.7c-0.8,2.5-0.6,5-0.4,7.5
			c0,0.4,0.2,0.8,0.7,0.8c1.6,0.1,2.8,1.3,4.3,1.8c2-2.6,5.2-2.7,8.1-3.4c0.8-0.2,1.7,0,2.5,0.5c3.5,2.4,7.4,4.3,10.8,7
			c2.7,2.1,5,4.6,7,7.4c2.4,3.2,4.6,6.5,6.4,10.1c1.2,2.4,1,4.7-0.3,6.9c-0.2,0.4-0.5,0.8-0.8,1.2c-1.5,2.2-1.5,2.2,0,4.2
			c1.6,2.1,3.3,4,4.2,6.5c0.2,0.5,0.7,0.6,1.2,0.6c0.8,0,1.6-0.3,2.1-1c1.1-1.4,2.6-2.1,4-2.9c4.5-2.8,8.7-5.9,12.6-9.5
			c1.4-1.3,3.2-2.1,4.6-3.5c2.5-2.5,4.7-5.2,6.7-8.1c0.8-1.1,1.2-2.5,1.1-3.9c-0.1-1.3-0.1-2.5-0.5-3.8c-0.6-2.2-0.8-4.4-0.8-6.6
			c0-0.8,0-1.6-0.2-2.3c-0.5-2-0.2-3.8,0.5-5.7c0.4-1.1,0.7-2.2,1.1-3.3c0.3-0.8,1.1-1.1,1.9-0.7c1.6,0.7,2.6,1.9,3.2,3.6
			c0.5,1.5,0.6,3.1,0.5,4.6c0,1.1,0.5,1.7,1.3,2.4c1.9,1.4,3.9,2.1,6.3,1.6c0.7-0.1,1.3-0.2,2-0.3c2-0.2,3.7-1.1,5-2.7
			c0.2-0.2,0.4-0.4,0.6-0.7c0.5-1,2.1-0.9,2.3-2.1c0.1-0.9-0.3-1.9-0.4-2.9c0-0.6,0.2-1.2,0.4-1.7c0.7-1.5,1.8-1.8,3.3-0.9
			c0.4,0.2,0.8,0.5,1.2,0.9c1.7-2.1,3.4-4.1,4.4-6.5c0.8-1.8,2.5-1.9,3.7-0.4c0.5,0.6,0.8,1.3,1,2.1c0.3,1,0.5,2.1,1.2,3
			c0.9-0.4,1-1.4,1.5-2c0.8-1,1.5-2,2.5-2.8c0.6-0.4,1.2-0.7,1.9-0.7c0.9,0.1,1.5,0.5,1.6,1.4c0.2,1.4,0.2,2.7-0.6,4
			c-1.4,2.2-2.7,4.5-4.2,6.7c-0.5,0.7-0.8,1.4-0.9,2.1c-0.7,3.6-2.1,7.1-3.5,10.5c-0.5,1.2-1,2.3-1.7,3.4c-2,3.3-5.2,5.2-8.5,6.9
			c-2.6,1.3-5.5,2-8.3,2.6c-2.6,0.5-4.8,1.6-6.6,3.4c-1.4,1.4-3,2.6-4,4.2c-1.3,2-2.9,3.6-4.2,5.5c-1.3,2-2.5,3.9-3.7,5.9
			c-1,1.7-2.5,2.9-3.8,4.4c-0.5,0.6-1,1.2-1.5,1.8c-0.2,0.2,0,0.5,0.2,0.8c-0.2,0-0.3,0-0.5,0c0.2,0,0.3,0.1,0.5,0.1
			c2.6-3.4,6.4-3.6,10.3-3.6c0.1,0,0.2,0,0.3,0c2.6,1.4,5.5,2.1,7.6,4.2c0.7,0.7,1.4,1.4,2.1,2c2,1.7,3.9,3.5,5.3,5.8
			c1,1.5,2.2,2.7,3.7,3.7c0.6,0.4,1.2,1,1.7,1.5c2.5,2.5,5,4.9,7.6,7.2c1.9,1.7,3.5,3.6,5.3,5.4c1.9,2,4,3.7,6.1,5.4
			c0.5,0.4,1.1,0.6,1.4,1.1c2.1,2.9,5.4,4.4,8.2,6.4c2.6,1.8,5.8,1.3,8.3-0.9c1.2-1.1,2.6-2,3.9-3c2.4-1.7,4.2-3.8,5.6-6.3
			c0.4-0.7,0.8-1.4,1.3-1.9c1.7-1.9,3.1-4,3.8-6.5c0.3-0.9,0.7-1.7,1.6-2c1.1-0.5,2.3-1,3.6-1.1c0.2,0,0.4,0.1,0.5,0.2
			c0.7,0.6,1.5,0.4,2.2,0c1-0.7,2.1-1.1,3.3-0.3c0.5,0.3,1,0.1,1.4-0.1c1.6-0.8,3.2-0.7,4.8,0c0.6,0.2,1,0.6,1.1,1.2
			c0.2,0.9,0.4,1.7,0.5,2.6c0.5,3.5-0.8,6.4-4,8c-1.6,0.8-2.2,2.1-2.6,3.6c-0.4,1.3-0.6,2.6-1,4c-0.3,1.2-0.9,2.1-1.5,3.1
			c-1.3,1.9-3.2,3-5.2,4c-5.4,2.7-4.3,1.5-7.4,7.2c-1.3,2.3-2.5,4.6-3.4,7.1c-0.8,1.9-2.2,3.6-3.3,5.4c-0.4,0.7-1,1.2-1.4,1.9
			c-0.6,1.3-1.9,1.9-3,2.6c-1,0.6-2.1,1-3.2,0.1c-2.2,0-3.7-1.6-5.6-2.3c-1.7-0.6-2.8-2.1-3.8-3.5c-1.3-1.7-2.7-3.3-4-5
			c-2.6-3.3-6.3-5.1-9.5-7.6c-0.5-0.4-1.2-0.6-1.9-0.8c-4.7-1.3-9.3-2.7-13.6-5.1c-0.6-0.3-1.3-0.4-1.9-0.7
			c-6.3-2.1-10.5-6.4-13-12.5c-0.3-0.8-0.6-1.6-0.9-2.4c-0.3,0-0.5,0-0.7,0c-3.9,0.2-6.5,2.7-8.9,5.4c-0.8,0.8-0.6,2-0.7,3
			c-0.1,1.3,0,2.5-0.1,3.8c0,0.8,0,1.6-0.2,2.3c-0.3,1.1-0.2,2.1,0.7,3c0.4,0.4,0.6,1,0.8,1.6c0.6,2.2,1.7,4.1,2.6,6.2
			c0.2,0.4,0.3,0.9,0.4,1.4c-0.9,0.2-1.7,0.3-2.6,0.5c-0.5-1.4-1-2.7-1.6-4.1c-1.5-3.4-3-6.7-4.4-10.2c-0.7-1.7-1.4-3.4-2.4-5
			c-1.2-2.1-2.4-4.2-3.3-6.5c-0.6-1.5-1.4-3-2.2-4.5c-1.2-2.1-2.4-4.2-3.1-6.6c-0.2-0.5-0.5-1.1-0.8-1.5c-1.4-2.1-2.8-4.2-4.3-6.2
			c-0.3-0.5-0.8-0.9-1.2-1.2c-1.4-1.2-2.9-2.3-4.3-3.5c-1.8-1.6-4-1.9-6.2-2.3c-0.7-0.1-1.3,0.1-1.9,0.4c-1.8,1.1-3.6,2.2-4.4,4.4
			c-0.2,0.6-0.7,1.2-1,1.8c-1.4,2.3-2.2,4.7-2.5,7.4c-0.1,1-0.2,1.9-0.8,2.7c-0.3,0.4-0.3,0.9-0.4,1.4c-0.5,2.1-0.7,4.2-0.7,6.4
			c0,5.4,0,10.7,0,16.1c0,1.1-0.1,2.1-0.2,3.2c-0.1,1.9-0.2,3.9-0.3,5.8c0,2.3-0.1,4.7-0.4,7c-0.2,1.8-0.1,3.7-0.2,5.5
			c0,0.1,0,0.2,0.1,0.3c0.1,0.1,0.2,0.1,0.3,0.1c0.2-0.1,0.4-0.1,0.5-0.2c5.7-5.9,9.6-12.9,11.9-20.8c0.2-0.8,0.1-1.5-0.3-2.3
			c-0.6-1.1-1-2.3-1.2-3.6c-0.5-3.3-0.9-6.6-0.7-9.9c0-0.6,0.1-1.2,0.1-1.7c0-0.7-0.6-1.2-1.4-1.1c-0.6,0-0.9,0.3-1.2,0.7
			c-0.3,0.3-0.7,0.3-1,0c-0.3-0.3-0.5-0.7-0.4-1.1c0.3-1.1,1-1.9,2-2.4c1-0.5,2.1-0.1,2.9,0.6c1.3,1.2,1.9,2.6,1.9,4.4
			c0.1,3.8,0.3,7.6,1.1,11.3c0.3,1.4,0.6,2.6,1.7,3.6c0.5,0.5,0.8,1.1,1.1,1.7c0.9,1.8,2,3.6,3.7,4.8c0.5,0.4,0.8,1.1,1.2,1.6
			c2,3.1,4.5,5.6,7.4,7.8c1.4,1.1,2.7,2.2,4.1,3.3c-0.3,0.5-0.5,1-0.4,1.5c-2-0.4-3.8,0.2-5.5,1.3c-3.9,2.6-7.9,5-11.5,7.9
			c-3.7,3-7.7,5.6-11.7,8.1c-1.2,0.8-2.5,1.6-3.7,2.3c-0.8,0.5-1.5,0.6-2.5,0.5c-3.3-0.4-6.6-0.5-9.9-0.8c-4.2-0.3-8.3-0.9-12.4-1.5
			c-4.1-0.6-8.2-1.4-12.3-2.2c-0.3,0-0.6-0.1-0.6,0.3c0,0.2,0.1,0.4,0.2,0.5c0.9,0.8,1.8,1.5,2.7,2.2c0.5,0.4,1.1,0.8,1.5,1.3
			c1,1.1,0.9,2.6-0.2,3.6c-1,0.9-2.1,1.4-3.4,1.2c-0.8-0.1-1.6-0.1-2.3-0.4c-2.3-1-4.8-1.4-7-2.7c-1.1-0.6-2.3-0.9-3.6-0.9
			c-3.3,0-6.4,0.9-8.9,3.1c-1.9,1.7-4,3.1-6.1,4.4c-0.7,0.4-1.4,0.7-2.1,0.8c-2.1,0.3-4.2,0.8-6.3,1c-1.5,0.2-2.8,0.7-4,1.6
			c-0.4,0.3-0.8,0.6-1.2,0.8c-1.4,0.8-4.2,0.4-5.4-0.7c-1-1-1.1-2.9,0-4c0.8-0.8,1.7-1.5,2.9-2c0.1,0,0.2-0.3,0.2-0.4
			c0-0.1-0.2-0.3-0.4-0.4c-0.8-0.3-1.5-0.2-2.3,0c-1.2,0.4-2.4,0.7-3.6,1.2c-2.4,0.9-5.1-0.6-6.2-2.6c-0.6-1-0.4-1.9,0.5-2.6
			c0.5-0.3,1-0.6,1.5-0.9c1.6-0.8,3.1-1.5,4.7-2.3c0.4-0.1,0.9-0.2,1.3-0.3c0.1,0,0.2-0.2,0.2-0.2c-0.1-0.1-0.2-0.3-0.3-0.3
			c-0.5,0-1.1,0.1-1.6,0.2c-1.4-0.2-2.9-0.4-4.3,0c-1.1,0.4-2.1-0.2-3.1-0.5c-1-0.3-1.2-2.1-0.5-3.1c0.7-1,1.6-1.6,2.8-2
			c2.4-0.8,4.9-1.4,7.3-1.8c0.3-0.1,0.5-0.3,0.6-0.6c0-0.1-0.2-0.4-0.3-0.4c-0.6-0.3-1.2-0.6-1.8-1c-0.3-0.2-0.7-0.3-1-0.6
			c-1.3-1-1.2-2.4,0.4-3.2c2-1,4.1-1.4,6.2-1c3.6,0.6,7.3,1.1,11,0.9c0.7,0,1.4,0.1,2,0.2c0.5,0,1,0.1,1.4-0.1
			c2.7-0.8,3.3-1.8,3.1-4.7c0-0.6-0.1-1.2-0.1-1.7c0-0.5-0.1-0.9-0.6-1.2c-1-0.7-1.6-1.7-2-2.8c-1-2.4-1.9-4.9-2.8-7.3
			c-1.1-2.9-1.8-6-2.3-9c-0.4-2-0.6-4-0.8-6.1c-0.3-4.3-0.6-8.5-0.9-12.8c-0.2-3.7-0.4-7.4-0.7-11.1c-0.4-5-0.2-9.9,0.1-14.9
			c0.2-3.9,0.3-7.8,0.3-11.7c0-2.2,0.3-4.5,0.7-6.7c0.6-3,1.3-6.1,1.7-9.2c0.4-3,1.5-5.8,2.3-8.7c0.2-0.8,0.6-1.6,0.9-2.5
			c0.3-0.9,0.4-1.8,1.5-2.3c0.7-0.3,1.1-1.3,1.6-2c0.8-1.3,1.8-2.5,2.9-3.6c1.1-1.1,2.3-2.1,3.8-2.5c2.1-0.6,2.1-0.7,3.4-3.1
			c-0.2-0.3-0.4-0.3-0.7-0.3c-2.2,0.3-3.9-0.6-5.1-2.2c-0.8-1.1-1.6-1.3-2.7-1.2c-0.3,0-0.6-0.1-0.8,0c-0.4,0-0.4,0.5-0.3,0.7
			c0.2,0.3,0.4,0.6,0.7,0.9c0.5,0.4,1.1,0.8,1.6,1.3c1.2,1.3,1.2,2.9-0.1,3.8c-1.1,0.8-1.9,2-3.5,1.8c-0.8-0.1-1.4,0.7-2.1,1
			c-0.5,0.2-1,0.2-1.4,0c-0.7-0.3-0.9-1.4-0.4-2c0.7-0.9,1.7-1.2,2.8-1.4c0.7-0.1,1.4-0.1,2-0.2c0.2,0,0.5-0.3,0.6-0.5
			c0.1-0.2-0.1-0.6-0.2-0.8c-1.1-0.8-2.1-1.7-2.8-3c-0.9,0.2-1.3,0.9-1.9,1.3c-1.8,1.2-3.2,1-4.6-0.7c-0.7-0.8-1.2-1.7-1.2-2.9
			c0-0.4-0.1-0.8-0.2-1.1c-0.2-0.6-1-0.9-1.6-0.5c-1.3,0.9-2.8,0.9-4.2,0.8c-1.7-0.2-2.9-1.3-3-3c-0.1-2.1,0.7-3.8,2.7-4.8
			c1.2-0.6,2.5-1.1,3.7-1.6c0.5-0.2,0.7-0.6,0.5-1.2c-0.2-0.8-0.4-1.7-0.7-2.5c-0.3-1.1-1.4-1.5-2.2-0.7c-0.6,0.5-1,1.2-1.5,1.8
			c-0.3,0.5-0.6,1-0.9,1.5c-1.2,1.7-3.3,1.8-4.8,0.5c-1.3-1.2-1.6-2.5-1-4.2c0.6-1.5,1.6-2.7,3.1-3.3c1-0.4,2-0.8,3-1.2
			c0.9-0.4,1.1-1.2,0.5-2.2c-0.1-0.1-0.1-0.1-0.2-0.2c-2-2.5-1.8-5,0.1-7.5c0.5-0.7,0.7-1.3,0.7-2.1c0-1.2,0.1-2.3,0.1-3.5
			c0-1.2,0.2-2.4,0.7-3.4c0.8-1.5,0.9-2.9,0.7-4.5c-0.2-2.3,0.4-4.5,2-6.2c0.6-0.6,0.8-1.3,0.8-2.1c0-0.5-0.3-0.7-0.7-0.6
			c-1.5,0.4-3,0.7-4.4,1.6c-0.3,0.7,0.4,1,0.6,1.5c0.1,0.2,0.1,0.4,0.2,0.6c0.5,3.1-3.5,6.5-6.5,5.6c-0.4-0.1-0.7-0.4-1.1-0.2
			c-0.2,0.1-0.3,0.2-0.4,0.4c0,0.2,0,0.4,0.1,0.5c0.2,0.2,0.5,0.3,0.7,0.4c0.7,0.2,1.3,0.3,2,0.4c3,0.5,4.3,2.6,3.2,5.5
			c-0.1,0.3-0.2,0.6-0.4,0.8c-1.4,1.9-2.1,4.2-3.9,5.8c-0.7,0.6-1,1.3-0.7,2.3c0.2,0.7-0.5,1.4-1.1,1.5c-0.6,0.1-1.2-0.1-1.6-0.6
			c-0.7-0.9-0.8-1.9-0.2-3c0.5-0.8,1.2-1.5,1.8-2.3c0.3-0.5,0.1-0.9-0.5-1c-0.4-0.1-0.8-0.1-1.2-0.1c-1.2-0.3-2.1-1-2.2-2
			c0-1.1,0.8-1.7,1.7-2.1c1.5-0.7,3.1-1.3,4.8-0.7c0.4,0.1,0.6-0.1,0.7-0.3c0.1-0.4-0.1-0.8-0.4-1c-0.3-0.2-0.8-0.1-1.1-0.2
			c-0.8-0.1-1.6-0.2-2.3-0.4c-2.3-0.7-2.9-2-2.1-4.2c0.7-1.9,1.9-3.6,3.2-5.1c3.5-3.9,7.9-5.8,13-6.6c1.5-0.2,3-0.6,4.5-1.3
			c2.7-1.3,5.5-2,8.5-1.2c1.2,0.3,2.3-0.1,3.4-0.5c0.9-0.3,1.5-0.9,1.9-1.7c0.1-0.2,0.1-0.4,0.2-0.5c2-4.2,5.6-6.2,10.1-5.7
			c1.6,0.2,3.3,0.4,4.8,1.1c1.1,0.5,2.6,0.1,3.3-0.8c0.1-0.1,0.2-0.3,0.3-0.5c3.3-4.9,8.3-6,13.8-6c1.6,0,2.7,0.9,3.6,2.1
			c0.6,0.9,1.2,1.8,1.4,2.8c0.4,1.5,1.5,2.1,2.8,2.1c2.7,0,5.2,0.7,7.7,1.3c0.8,0.2,1.5-0.1,2.1-0.7c1.6-1.5,3.1-0.5,3.9,0.7
			c0.4,0.6,0.8,1.3,0.8,2.2c0.1,1.1-0.1,2.2-1.2,2.8c-0.6,0.3-1.1,0.8-1.4,1.4c-0.3,0.6-0.3,1.1,0.4,1.4c0.6,0.3,1.3,0.6,1.2,1.5
			c-0.1,0.9-0.8,1.3-1.6,1.4c-1,0.2-2.1,0.4-3.1,0.7c-0.7,0.2-1.1,0-1.6-0.4c-0.3-0.3-0.5-0.6-0.9-0.1c-0.6,0.7-0.9,1.5-0.4,1.8
			c0.9,0.5,1.4,1.4,2,2.1c1.1,1.5,0.6,3.7-1.1,4.6c-1.1,0.6-1.3,1.6-1.9,2.5c-0.3,0.3-0.5,0.6-0.2,0.9
			C379.1,325.8,379.4,325.8,379.6,325.6z M333.8,336.6c0.1-0.1,0.1-0.2,0.2-0.4C333.9,336.4,333.9,336.5,333.8,336.6
			c-0.1,0.2-0.2,0.3-0.3,0.5c0,0.1-0.1,0.2-0.1,0.3c0,0.1,0.1,0.1,0.1,0.2c0.1-0.1,0.1-0.2,0.1-0.4
			C333.7,337,333.7,336.8,333.8,336.6z M341.9,338.2c3-0.9,3.3-1,4-2c-1.5,0.1-2.8,0.4-3.8,1.6C341.7,337.8,341.9,338,341.9,338.2z
			 M308.3,350.4c-1.8,0.1-2.8,0.7-3.2,2.1c-0.1,0.3,0,0.6,0,0.8c0,0.1,0.2,0.3,0.4,0.4c0.2,0,0.4,0,0.5-0.1c0.7-1,1.4-2,2.1-3l0.1,0
			L308.3,350.4z M312.3,344.2c0,0.1-0.1,0.2-0.1,0.2c0,0.2,0.1,0.3,0.2,0.5c0.1,1.2-0.3,2.2-0.9,3.4c0.7,0.3,1.3,0.6,1.9,0.8
			c0.1,0.1,0.4,0,0.5-0.1c0.2-0.2,0.3-0.4,0.1-0.7c-0.6-1.1-1.6-1.9-1.5-3.3c0-0.2,0-0.5,0-0.7c-0.2-1.7-0.1-3.5-1.9-4.6
			c-0.6,1.4-0.3,2.6,0.7,3.5C311.7,343.5,312,343.9,312.3,344.2z M374.4,304.1c-1.5,0-2.8-0.5-4-1.4c-0.3-0.2-0.6-0.6-0.8,0
			c-0.1,0.2,0,0.6,0.2,0.8c1.3,1.2,2.7,2.2,4.7,1.5c0.1,0,0.2,0,0.3,0c0.7,0.1,1.4,0,2.2-0.8C375.8,304,375.1,303.8,374.4,304.1z
			 M340.7,313.4c0.1,0.1,0.1,0.1,0.2,0.2c0.1,0.1,0.1,0.6,0.3,0.2c0.1-0.3-0.2-0.6-0.6-0.3c0.4-0.4,0.3-0.9,0.3-1.4
			c-0.2-1.9,0.4-3.4,2.1-4.4c0.3-0.2,0.7-0.3,0.6-0.8c-0.1-0.3-0.7-0.5-1.2-0.4c-0.9,0.3-1.8,0.7-2.6,1.3c-0.9,0.6-1.1,1.5-1.2,2.5
			c0,0.8,0.3,1.5,1.1,1.9C340.1,312.6,340.4,313,340.7,313.4z M346.6,313.3c-0.3-0.4,0-0.7,0.1-1.1c0.3-1.2,0.1-1.6-1.1-1.8
			c-0.3-0.1-0.6-0.1-0.9-0.1c-0.9-0.1-1.4,0.5-1.3,1.4c0.2,1,0.8,1.5,1.8,1.6C345.8,313.3,346.3,313.2,346.6,313.3
			c0.2,0.2,0.2,0.4,0,0.7c-0.3,0.4-0.5,0.8-0.6,1.3c-0.4,1.5,0.4,2.9,2.2,3.6c1.4,0.5,1.1-1,1.7-1.5c0.4-0.4,1.2-0.7,1.1-1.5
			c-0.6-0.6-1.5-0.9-1.9-1.7C348.6,313,347.6,313.2,346.6,313.3z M322.1,319.1c-1.7,1.2-2.3,3-2.7,5c-0.2,1.2,0.2,2.1,1.3,2.7
			c0.9,0.5,1.7,0.9,2.6,1.3c1.5,0.7,2.2,1.8,2.4,3.4c0.1,0.7,0.1,1.5,0.1,2.2c0.3,0,0.5,0.1,0.7,0c0.6-0.3,1.2-0.6,1.8-1
			c1.1-0.8,1.4-1.5,0.7-2.7c-0.3-0.6-0.8-1.2-1.3-1.6c-1.2-0.9-2.2-2.2-3.8-2.5c-0.7-0.2-1.1-0.8-1.4-1.4c-0.5-1-0.4-2.1-0.5-3.1
			C322,320.5,322.6,319.8,322.1,319.1c0.1,0.1,0.3,0.2,0.4,0c0-0.1-0.1-0.3-0.1-0.4C322.3,318.8,322.2,318.9,322.1,319.1z
			 M525.5,446.2c-0.8-0.5-1.4-0.1-1.9,0.4c-1,0.8-1.6,1.9-2.1,3.1c-0.2,0.5-0.4,1.1-0.7,1.6c-0.3,0.5-0.7,0.6-1.2,0.5
			c-0.8-0.2-1.2-0.9-0.8-1.5c0.6-1,1.3-1.9,2-2.9c0.2-0.3,0.2-0.8-0.1-1.1c-0.4-0.3-0.7-0.1-1,0.2c-1.3,1.3-2.4,2.8-3,4.6
			c-0.3,1-0.9,1.7-1.5,2.4c-1.7,1.9-3.6,3.6-4.5,6.1c-0.2,0.6-0.8,0.8-1.2,1.2c-2,1.7-4.1,3.2-5.9,5.1c-2.3,2.4-5.1,3.6-8.5,2.3
			c-1.5-0.5-2.8-1.2-4.1-2.2c-2.6-1.9-5.1-3.9-7.8-5.6c-2.5-1.6-4.6-3.6-6.7-5.5c-2.9-2.7-5.5-5.7-8.5-8.4c-2.8-2.5-5.2-5.3-8.1-7.6
			c-1-0.8-1.9-1.7-2.6-2.8c-1.5-2.2-3.2-4.1-5.3-5.7c-0.4-0.3-0.8-0.6-1.1-1c-1.4-1.9-3.4-2.8-5.5-3.8c-2.2-1-4.3-0.8-6.5-0.4
			c-1.1,0.2-2.1,0.8-2.7,1.7c-1.1,1.6-2.7,2-4.4,2.4c-0.6,0.1-1.2,0.2-1.6,0.5c-0.9,0.7-1.9,0.8-3,0.9c-1.7,0.2-3.5,0.4-5.2,0.8
			c-2.2,0.4-4.5,0.9-6.7,1.8c0.2,0.4,0.3,0.6,0.5,0.9c1,1.3,2,2.6,2.9,4c0.9,1.3,1.8,2.6,2.3,4c0.6,1.6,1.2,3,2.5,4.1
			c0.3,0.2,0.3,0.7,0.5,1.1c0.2,0.4,0.4,0.9,0.7,1.2c1.1,1,1.7,2.4,2.2,3.7c0.8,2.1,1.6,4.2,2.4,6.3c0.3,0.7,0.8,0.8,1.4,0.4
			c1.9-1.4,3.9-2.6,5.5-4.3c1.5-1.6,3.2-2.8,5-4c1-0.7,2.3-0.6,3.4-0.5c1,0.1,1.1,1.2,1.4,2c0.3,0.6,0.5,1.3,0.8,1.9
			c1,2.3,2,4.7,3.6,6.7c2.5,3.1,5.4,5.6,9.7,5.8c0.5,0,1,0.2,1.4,0.4c1.7,0.9,3.5,1.7,5.2,2.6c1.3,0.7,2.7,1.2,4.1,1.5
			c2.8,0.8,5.6,1.7,8,3.4c0.4,0.3,0.8,0.5,1.3,0.6c1.9,0.6,3.5,1.8,4.8,3.1c2.3,2.3,4.8,4.5,6.6,7.4c0.6,1,1.5,1.8,2.2,2.7
			c1.1,1.4,2.7,1.9,4.3,2.3c1.8,0.4,3.5,0.1,4.9-1.2c1.5-1.4,3-2.8,3.7-4.8c0.8-2.4,2-4.6,3.4-6.7c0.3-0.5,0.6-1,0.8-1.5
			c0.5-0.9,0.8-1.8,1.4-2.6c1.5-1.8,2.7-3.8,4-5.8c0.3-0.5,0.6-0.9,1.3-1c5.2-1.4,7.8-5.2,9.2-10c0.1-0.4,0.2-1,0.1-1.4
			c-0.5-1.6,0.1-2.5,1.4-3.3c1.5-0.9,2.7-2.2,3.7-3.7c0.7-1,0.7-2,0.1-3c-0.5-0.9-1.2-0.9-1.8-0.2c-1,1.1-1.9,2.2-3.3,2.9
			c-0.6,0.3-1,1-1.3,1.5c-0.4,0.6-0.6,1.2-1,1.8c-0.2,0.4-0.6,0.5-1,0.4c-0.5-0.2-0.7-0.6-0.7-1.1c0-0.7,0.4-1.3,0.8-1.9
			C524.1,448,524.8,447.1,525.5,446.2z M380.1,355.4c-2.1,0.1-3.7,0.1-5.4-0.1c-2.3-0.4-4.5-1-6.5-2.4c-2.8-2-5-4.5-6.8-7.5
			c-0.4-0.7-0.3-1.1,0.4-1.3c1.7-0.6,3.5-1.3,5.3-1.7c4.3-1.1,8.4-3,13-3c0.1,0,0.3-0.2,0.4-0.3c0-0.1,0.1-0.2,0.1-0.3
			c0.1-2.6,0.9-4.6,3.2-6.1c1.5-1,1.8-2.7,1.4-4.5c-0.2-1.1-1.2-1.6-2.2-1.1c-1.1,0.5-2.1,1.1-3.1,1.5c-1,0.5-1.9,0.3-2.6-0.5
			c-0.4-0.5-0.8-1.1-1.1-1.7c-0.7-1.4-1.1-2.9-1.3-4.5c-0.2-1.8-0.9-3.4-1.8-4.9c-1.7-2.9-3.9-5.3-7.5-6c-3.2-0.6-6.3-1-9.6-1.1
			c-0.7,0-1.3,0.2-1.8,0.8c-0.4,0.5-0.8,0.8-1.2,1.3c-0.5,0.6-0.6,1,0,1.5c0.6,0.5,1.2,0.9,1.8,1.4c0.7,0.6,1.3,1.2,1.5,2.1
			c0.2,1,0.6,1.8,1.1,2.6c1.1,1.9,0.4,3.9-1.5,4.6c-0.6,0.2-1.1,0.1-1.7,0.1c-0.6,0-1.1,0.1-1.3,0.8c-0.1,0.9-0.6,1.6-1.1,2.4
			c-0.7,1-0.8,2.1-0.1,3.2c0.5,0.8,1,1.7,1.4,2.6c1.1,2.5,1.1,4.9-0.9,7c-0.5,0.5-0.8,1.1-1.2,1.6c-0.4,0.5-0.4,1.1,0.1,1.6
			c1.1,1.2,2.1,2.5,2.6,4.1c0.5,1.5-0.3,2.8-1.8,2.9c-0.7,0.1-1.5,0.1-2.3,0.2c0,1.7,0,3.2,0,4.8c0,1.6-0.7,3-1.6,4.3
			c-0.3,0.4-1.1,0.4-0.9,1.2c0.5,0,1,0,1.5,0.1c1.8,0.4,2.5,1.3,2.4,3.1c-0.1,0.9-0.2,1.7-0.4,2.6c-0.1,0.7-0.9,1.2-1.5,1.1
			c-0.6-0.1-1.1-0.8-1.1-1.5c0-0.7,0.2-1.3,0.2-2c0-0.4-0.2-0.6-0.5-0.6c-0.7-0.1-1.3-0.2-2-0.3c-0.4-0.1-0.7,0.1-1,0.5
			c-0.3,0.4,0,0.7,0.2,1c0.9,1.5,1,1.9-0.3,3c-0.9,0.7-0.7,1.3-0.4,2.2c0.3,0.9-0.7,1.7-1.6,1.3c-0.6-0.2-1.2-0.6-1.8-0.9
			c-0.7,0.6-0.9,1.5-1.4,2.2c-0.4,0.7-0.3,1.3,0,1.9c0.3,0.6,0.6,1.2,1,1.8c0.8,1,1.6,1.9,2.3,3c0.7,1.2,2.3,0.8,3.4,1.5
			c0.4,0.3,0.8,0.5,1.3,0.8c2.5,1.7,4.8,3.6,6.6,6.1c1.8,2.6,3.3,5.3,4.1,8.3c0.4,1.2,1,2.1,2,2.8c1.1,0.7,2.3,1.4,3.6,2
			c1.7,0.8,3.6,0.6,5.4,0.5c1.1-0.1,2.2-0.9,2.6-2.1c0.8-2.5,1.1-5.2,0.1-7.7c-1-2.5-2.2-5-3.3-7.4c-1-2.2-2.3-4.1-4.9-4.6
			c-0.7-0.2-1.2-0.5-1.5-1.2c-1.6-4.5-1.6-9,0.3-13.4c0.2-0.6,0.7-1,1.2-1.2c2.7-0.9,5.2-2,8.2-1.9c2.2,0.1,4.2-0.6,5.8-2.2
			C378.8,358.4,379.3,357.1,380.1,355.4z M310.4,505.7c1.7,0,3.3,0,5,0c0.7,0,1.4,0,1.9,0.5c0.5,0.4,0.8,0.9,0.6,1.5
			c-0.2,0.5-0.6,0.8-1.1,0.8c-2.2-0.1-4.3,0.5-6.4,0.7c-3.7,0.3-6.8,2.1-9.9,4c-0.4,0.2-0.7,0.5-0.4,0.9c0.1,0.2,0.5,0.3,0.7,0.4
			c0.6,0.2,1.1-0.2,1.7-0.2c2.7-0.4,5.4-1,8.1-1.2c3.2-0.1,6.3-0.5,9.2-2.2c0.7-0.4,1.4-0.7,2.2-0.7c0.6,0,1.2,0.1,1.4,0.8
			c0.2,0.6,0,1.3-0.6,1.5c-2.1,0.8-4,2.1-6.2,2.6c-2.8,0.7-5.2,2.3-7.4,4c-0.4,0.3-0.7,0.7-1,1.1c-0.2,0.2-0.3,0.5-0.1,0.8
			c0.2,0.2,0.5,0.4,0.7,0.4c1,0.1,1.9-0.3,2.7-0.9c1.7-1.5,3.7-2.5,6-2.7c0.8-0.1,1.5-0.3,2.3-0.4c1.3-0.3,2.8-0.3,3.9-0.9
			c1.8-1,3.7-1.8,5.2-3.2c2.8-2.6,6.1-4,10-4.4c2.1-0.2,4.1,0.1,5.9,1c2.1,1.1,4.4,1.6,6.5,2.5c0.9,0.4,1.9,0.5,2.9,0.3
			c0.4-0.1,0.6-0.5,0.5-0.9c-0.2-0.8-0.8-1.3-1.5-1.7c-3.2-2.4-6.5-4.7-9.5-7.2c-2.7-2.3-4-5.4-3.6-9.1c0.4-3.6,0.8-7.2,0.4-10.8
			c-0.1-0.9-0.1-1.8,0-2.6c0.5-5.8,0.5-11.7,0.7-17.5c0.1-1.7,0.1-3.5,0.1-5.3c0-4.5,0.7-8.9,0.5-13.4c-0.1-1.7,0-3.3,0-5
			c0-1.9,0.5-3.7,1.5-5.3c0.6-1,1-2.1,1.4-3.2c1-2.7,1.2-5.5,1.8-8.2c0.4-1.8,0.6-3.6,0.7-5.5c0-1.1-0.2-1.3-1.1-1.2
			c-2.6,0.3-5.2,0.6-7.6,1.9c-1.1,0.6-2.3,1-3.5,1.6c-1.2,0.6-2.9,0.6-3.5,1.8c-0.7,1.3-0.2,2.9-0.2,4.3c0,0.6,0.2,1.2,0.2,1.7
			c0.1,1.1,0.3,2.1,0.3,3.2c0.1,2.2,0.1,4.5,0.3,6.7c0.8,9.2,0.4,18.3-0.3,27.4c-0.5,6.4-1.4,12.8-2.1,19.2
			c-0.1,1.2-0.3,2.4-0.2,3.5c0.2,1.6,0.1,3.1,0.1,4.7c0,3.5-2.8,6-6.2,5.9c-2.8-0.1-5.6-0.3-8.4-0.5c-2.6-0.2-5.2-0.5-7.8-0.9
			c-0.6-0.1-1.1-0.2-1.7,0c-0.4,0.1-0.8,0.2-0.9,0.6c-0.1,0.4,0.2,0.7,0.6,0.9c0.7,0.3,1.4,0.6,2.2,0.8c2.2,0.5,4.4,1,6.5,1.5
			c0.4,0.1,0.8,0.1,1.1,0.3c0.4,0.2,0.9,0.5,0.7,1.1c-0.1,0.5-0.5,0.6-0.9,0.7c-2.1,0.2-4.3,0.6-6.4,0.5c-3.8-0.2-7.3,1-10.8,2
			c-0.4,0.1-0.7,0.3-0.9,0.6c-0.2,0.3-0.5,0.7-0.3,1.1c0.1,0.2,0.5,0.3,0.7,0.3c1.8-0.1,3.7,0,5.5-0.4
			C305.4,505.4,307.9,505.7,310.4,505.7z M391.5,432.2c1.3-0.5,2.9-1,3.7-2.1c1.1-1.5,2.6-1.9,4-2.8c1-0.6,2.1-0.7,3.1-0.5
			c2.8,0.5,5.6,0.9,8,2.4c1.2,0.7,2.3,0.9,3.5,0.2c0.4-0.2,0.9-0.2,1.4-0.3c3.1-0.5,6.1-1,9.2-1.3c2-0.2,3.8-0.6,4.8-2.6
			c0.3-0.5,0.8-0.8,1.2-1.3c1.3-1.5,2.8-3,3.9-4.7c1.1-1.7,2.4-3.2,3.6-4.9c1.6-2.3,3.8-4.1,5.4-6.5c2-3.1,4.8-5.4,7.5-7.8
			c0.7-0.6,1.6-1,2.5-1.4c2.1-0.9,4.3-1.2,6.5-1.7c3.3-0.9,6.4-2.2,9.1-4.4c0.4-0.4,0.9-0.7,1.2-1.2c0.7-1.8,1.2-3.7,0.8-5.7
			c-0.2-1.1-0.5-2.3-1-3.4c-1.2-3.3-2.6-6.5-3.8-9.8c-0.3-0.7-0.6-1.2-1.3-1.5c-0.2-0.1-0.4-0.2-0.5-0.1c-0.3,0.1-0.3,0.4-0.4,0.7
			c-0.1,1.4,1.1,2.5,1.3,3.8c0.2,1.1,0.8,2.2,1.7,3c1,1,1.3,2.1,1.1,3.4c-0.1,0.6-0.1,1.2-0.2,1.7c-0.3,2.5-1.1,3.5-3.7,3.4
			c-3.1-0.1-6,0.6-8.8,1.8c-1.8,0.8-3.5,1.7-4.7,3.3c-0.4,0.5-0.8,0.9-1.3,1.1c-0.3,0.1-0.6,0.1-0.8-0.2c-0.1-0.1-0.2-0.3-0.2-0.5
			c0.1-1.2,0.8-2.3,1.7-2.9c3-2.1,6.2-4,10.1-4.3c1.2-0.1,2.3,0.1,3.5,0.2c1.5,0.1,2.2-0.5,2.2-2.1c0-2.5-0.7-4.8-2.6-6.8
			c-0.6,0.6-1,1.2-1.5,1.7c-0.9,1-2,1.8-3.3,2.4c-2.3,1.1-4.8,1.5-7.4,1.7c-0.6,0.1-1.2,0.1-1.7-0.1c-1.7-0.7-3.5-1.2-4.9-2.4
			c-1.4-1.1-2.1-2.2-1.8-4.2c0.3-1.9,0.2-3.9-1.7-5.4c-0.8,2-1.8,3.8-1.5,5.8c0.6,4.1,0.5,8.4,1.6,12.4c0.3,1.2,0.4,2.5-0.1,3.8
			c-0.8,2.3-1.6,4.6-2.8,6.7c-1.3,2.4-3.3,4.1-5.3,5.8c-1.6,1.4-3.2,2.8-4.8,4.2c-4,3.5-8,7.1-12.7,9.8c-0.8,0.5-1.6,1.1-2.2,1.9
			c-1.6,1.9-3.8,2.1-6,2.3c-0.6,0-1.1-0.2-1.6-0.6c-1.8-1.5-2.6-3.6-3.4-5.7c-0.6-1.6-1.4-2.9-3.2-4.4c-2.7,2.1-5.3,4.2-8,6.2
			c-1,0.7-1.3,1.5-1.2,2.7c0.1,2,0.3,4.2-0.7,6c-0.9,1.7-0.2,2.7,0.8,3.8C390.5,431.3,390.8,431.9,391.5,432.2z M377.2,354.2
			c1.3,0,2.3-0.5,3.3-1.2c0.9-0.6,0.6-1.6,0.7-2.4c0.1-0.5,0.2-1,0.2-1.4c0.3-1.9,0.3-1.9-1.6-2.2c-0.4-0.1-0.8-0.2-1.1-0.2
			c-3,0-5.8,1.5-6.7,4.5c-0.3,1,0.1,1.9,1,2.1C374.3,353.8,375.8,354,377.2,354.2z M336.4,343.1c0.1,0,0.1,0,0.2,0
			c0,0.4,0,0.8,0,1.2c-0.1,1.6,0.7,2.8,2,3.6c0.6,0.4,1.1,0.8,1.8,1c0.6,0.3,1.2,0.5,1.6,1.1c0.5,0.9,1.4,0.6,2.1,0.3
			c0.7-0.3,1.3-0.9,1.9-1.3c1.3-1,1.2-1.7-0.2-2.6c-0.4-0.3-0.8-0.4-1.3-0.5c-1.2,0-2.3,0.2-3.2,1.1c-1.3,1.1-2.6,0.2-3.1-0.8
			c-0.9-1.9-1.2-4-0.5-6c1.1-3,2.8-5.6,6.1-6.6c0.2-0.1,0.4-0.1,0.5-0.2c0.1-0.1,0.2-0.3,0.3-0.5c0.1-0.3-0.2-0.5-0.4-0.7
			c-1-0.6-1.9-0.1-2.8,0.2c-1.9,0.5-3.3,1.8-3.8,3.7C336.9,338.5,336.7,340.8,336.4,343.1z M473.1,386.2c2-3.5,3.3-7,4.1-10.7
			c0.2-0.9,0.2-1.6-0.1-2.5c-0.9-2.9-2.6-5.4-3.1-8.4c0-0.1-0.2-0.3-0.4-0.3c-0.4-0.1-0.5,0.2-0.6,0.5c-0.5,1.1-0.4,2.3,0.1,3.4
			c0.6,1.1,1.1,2.3,1.7,3.4c0.9,1.7,1.1,3.2-0.2,4.8c-0.5,0.6-0.8,1.3-1.2,2c-0.8,1.3-1.4,2.6-0.7,4.3
			C473.1,383.7,473,385,473.1,386.2z M316.6,325.2c0.1-0.3,0.2-0.6,0.2-0.8c0.2-3.3,1.9-5.9,4.1-8.1c1.7-1.8,3.7-2.7,6.2-2
			c0.3-0.9,1.1-1.6,0.8-2.6c-3.6-0.9-6.6,0.8-9.6,2.3c-0.4,0.2-0.8,0.6-0.7,1.2c0.1,1.1-0.4,2.1-0.8,3.1c-0.6,1.8-1.3,3.7-1,5.7
			C315.8,324.4,316,324.9,316.6,325.2z M318.2,337.2c0.1-0.1,0.3-0.3,0.3-0.4c-0.1-1.8,1-2.6,2.6-2.9c0.4-0.1,0.8-0.1,1.1-0.2
			c0.7-0.2,1-0.8,1-1.6c0-0.9-0.5-1.5-1.3-1.8c-1.6-0.6-2.9-1.9-4.8-1.9c-0.4,0-0.9-0.4-1.3-0.7c-0.3-0.2-0.5-0.6-0.8-0.8
			c-0.1-0.1-0.4-0.1-0.5-0.1c-0.2,0.2-0.4,0.5-0.4,0.7c0.2,0.7,0.4,1.5,0.9,2.1c0.6,0.8,1.1,1.6,1.6,2.4
			C318.1,334.5,318.1,334.5,318.2,337.2z M317,363.3c0.7,0.5,1.5,0.8,2.4,0.7c0.5,0,1-0.1,1.4-0.4c0.6-0.5-0.2-0.8-0.3-1.2
			c-0.2-0.7-0.2-1.3,0-2c0.3-1.3,1.4-1.7,2.3-0.6c0.8,0.9,1.6,0.3,2.4,0.4c0.8,0.1,1.3-0.7,1.8-1.2c0.1-0.1,0-0.4-0.5-0.3
			c-0.8,0.2-1.3-0.2-1.6-0.9c-0.4-0.9-0.5-1.9-0.4-2.8c0.2-1.2,0.5-2.4,0.7-3.6c-1.1,0.2-1.5,0.9-1.7,1.8c-0.2,0.9-0.1,1.7,0.1,2.6
			c0.1,0.6,0.3,1.1,0.4,1.7c0.1,0.5-0.6,1.1-1.1,1.1c-0.3,0-0.6-0.1-0.8-0.2c-0.8-0.6-1.5,0.1-2.2,0.2c-0.8,0.1-0.6,0.9-0.7,1.4
			c-0.2,0.7-0.6,1.2-1,1.7C317.7,362.1,317.1,362.5,317,363.3z M338.6,358.9c0.9-1.1,1.7-1.9,2.8-2.3c0.2-0.1,0.6-0.4,0.6-0.6
			c-0.1-1,1-1.7,0.9-2.7c-1.8,0-3.6-0.7-5.4-1.1c-0.1,1.5,0.3,2.9-0.5,4.1c-0.2,0.4-0.1,0.7,0.2,1
			C337.6,357.8,338,358.2,338.6,358.9z M337.6,330.8c-1.2,0-1.7-0.4-2.2-1.2c-1.2-2.1-2.3-4.3-2.6-6.7c0-0.1-0.1-0.2-0.1-0.3
			c-0.1-0.1-0.3-0.2-0.5-0.2c0,0-0.2,0.1-0.2,0.2c-0.6,0.9-0.6,1.9-0.2,2.8c0.3,0.9,0.8,1.8,1.3,2.6c0.4,0.7,0.9,1.3,1.3,1.9
			c0.5,0.8,0.7,1.7-0.2,2.3c-0.7,0.5-0.7,1.1-0.6,1.8c0.1,0.3,0.2,0.6,0.4,0.7c0.2,0.1,0.6-0.1,0.8-0.2
			C335.7,333.4,336.5,332.3,337.6,330.8z M336.5,316.5c-0.7-0.5-1.1-1.1-1.5-0.6c-0.8,0.9-1.9,1.4-3,1.7c-2.1,0.5-3.5,2-4.7,3.8
			c-1.3,1.9-1,2.8,1,4c0.1,0.1,0.4,0,0.7,0.1c0-0.6,0-1.2,0-1.7c0.1-2.1,0.8-3.6,3-4.1c0.6-0.1,1.1-0.4,1.3-1
			C334,317.4,335.1,316.9,336.5,316.5z M320.6,353.1c0.5-1.3,1-2.5,2-3.4c1.6-1.4,1.6-2.3,0.3-3.9c-0.4-0.5-0.9-1-1.5-1.4
			c-0.2-0.2-0.7-0.3-0.8-0.2c-1.3,1.2-2.7,2.4-2.9,4.4c0.8,0.1,0.9-0.7,1.3-1c0.5-0.4,1-0.5,1.6-0.4c0.5,0,0.9,0.3,1.1,0.8
			c0.2,0.5,0.1,1-0.3,1.3C320,350.1,320.1,351.5,320.6,353.1z M349.9,323.7c-0.8-1.6-0.8-1.8-1.7-2.1c-2-0.6-3.5-1.6-4.5-3.4
			c-0.4-0.7-1.4-0.5-1.8,0.3c-0.1,0.2-0.2,0.3-0.3,0.5c-0.5,1.5-0.3,2,1.3,2.6c0.8,0.3,1.7,0.5,2.4,1.1c0.4,0.4,0.9,0.4,1.4,0.4
			c0.6,0,1.2,0,1.7,0C349,323.2,349.3,323.9,349.9,323.7z M381.3,312c1.1-0.5,2.2-0.8,2.1-2.4c0-1.4,0.7-2.6,1.8-3.5
			c0.3-0.2,0.6-0.5,0.8-0.9c0.1-0.1,0-0.4-0.1-0.5c-0.1-0.1-0.4-0.2-0.5-0.2c-1.4,1.3-3,1.1-4.6,0.6c-0.2-0.1-0.5,0.1-0.8,0.2
			C381.7,307.9,381.7,308,381.3,312z M310.6,363.2c1.2,0.2,2.2-0.9,3.5-0.8c0.9-1.1,1.7-2.2,2.6-3.4c0.1-0.1-0.1-0.5-0.2-0.8
			c-0.1-0.2-0.4-0.4-0.7-0.2c-1.5,0.6-3,1.3-4.5,1.9c-0.7,0.3-1.3,0.8-1.7,1.5C308.9,362.3,309.4,363.2,310.6,363.2z M326.5,341.9
			c0.6-0.8,1.1-1.6,1.7-2.4c0.6-0.8,1.3-1.4,1.9-2.2c0.4-0.4,0.7-1,0.9-1.5c0.2-0.5,0.2-1-0.2-1.3c-0.4-0.3-0.7,0.2-1,0.3
			c-0.4,0.2-0.8,0.5-1.3,0.7C325.8,337.2,325.4,338.7,326.5,341.9z M360.8,297.9c-4.2,1.1-5.7,2.7-6.3,6.5c0.7,0,1-0.5,1.4-0.9
			c1-0.8,1.9-1.8,3-2.3C360.2,300.4,360.6,299.3,360.8,297.9z M366,302.9c-0.6-0.8-1.4-0.7-2.1-0.7c-3.3,0.2-5.5,2.1-7.2,4.6
			c0,0.1-0.1,0.3,0,0.3c0.2,0.1,0.4,0.2,0.5,0.2c0.3,0,0.6,0,0.8-0.2c1-1.1,2.3-1.7,3.6-2.2C363,304.2,364.5,303.6,366,302.9z
			 M348.4,304.9c-1-0.8-1.8-1.5-3-1.5c-1.8,0.1-3.7-0.5-5.5,0.4c-1,0.5-2,0.8-2.6,1.8c-0.2,0.3-0.8,0.7-0.3,1.3
			c0.7-0.8,1.6-1.3,2.6-1.9c1.1-0.6,2.3-1.1,3.6-1.1c1.9,0,2.4,0.5,2.8,2.5c0.1,0.3,0.1,0.5,0.5,0.6
			C347.3,306.4,347.8,305.7,348.4,304.9z M316.7,341.2c0.3-1-0.4-1.4-0.6-2c-0.8-1.6-2.1-3.1-1.7-5.1c0.1-0.7-0.4-1.3-0.8-1.8
			c-0.1-0.1-0.3-0.2-0.5-0.2c-0.1,0-0.3,0.2-0.3,0.4c-0.2,1.7,0.4,3.3,0.7,4.9C313.8,339.2,314.7,340.6,316.7,341.2z M336,308.6
			c-0.9,0.9-1.6,1.6-2.5,2c-0.7,0.3-1.4,0.6-1.5,1.6c0,0.3-0.5,0.5-0.8,0.7c-0.4,0.3-0.8,0.5-1,1c-0.2,0.3-0.5,0.7-0.3,1.1
			c0.2,0.4,0.7,0.2,1,0.1c0.7-0.2,1.7-0.2,1.7-1.2c0-1.4,0.7-1.9,2-1.9c0.5,0,1,0.1,1.4-0.3C336,310.8,336,309.9,336,308.6z
			 M335.5,321.6c-0.1,1.2,0.1,2.4,0.6,3.6c0.1,0.3,0.2,0.5,0.5,0.6c0.4,0.1,0.5-0.3,0.5-0.5c0.1-1.6,0.6-3,1.3-4.4
			c0.2-0.3,0.3-0.7,0.4-1.1c0.1-0.5-0.1-0.7-0.6-0.7C335.7,319,335.4,320.1,335.5,321.6z M333.1,338c-1.4,1.4-3,2.7-3.6,4.5
			c-0.5,1.5-0.8,3.2,0.5,4.6c0.5-0.3,0.6-0.6,0.6-1c0.1-1.1,0.2-2.1,0.3-3.2c0.1-1,0.2-1.2,1.4-1.5c0.5-0.1,0.9-0.1,0.9-0.8
			C333.1,339.9,333.6,339.1,333.1,338z M336.2,363c0,0,0.4,0,0.8-0.2c0.5-0.2,0.9-0.5,0.9-1c0-0.5-0.1-1-0.7-1.1
			c-1-0.2-1.5-0.9-2-1.6c-0.2-0.2-0.5-0.4-0.7-0.3c-0.7,0.3-1.5,0.4-1.7,1.3c-0.2,0.9,0.1,1.8,0.9,2.2
			C334.3,362.8,335,363.1,336.2,363z M479.1,371.9c1.4-1.8,2.4-3.8,3.5-5.7c0.1-0.2,0.2-0.5,0.2-0.8c0-0.2,0-0.4-0.1-0.5
			c-0.2-0.3-0.5-0.1-0.7,0.1c-1.5,1.3-2.2,3.1-3.3,4.7C478,370.5,478.4,371.2,479.1,371.9z M323.8,336.1c-1,0.1-2,0.1-2.4,0.9
			c-0.5,0.9-0.4,2.1,0,3.1c0.4,0.8,1,1.4,1.9,2c0-1.1-0.1-2.1,0-3C323.4,338.1,323.6,337.2,323.8,336.1z M344.7,341.9
			c0,0.2,0.1,0.6,0.2,0.9c0.2,0.6,1.7,0.9,1.9,0.5c0.5-1.2,1.2-2.4,1.2-3.7c0-0.3-0.2-0.5-0.4-0.8c0-0.1-0.1-0.1-0.2-0.2
			c-0.1,0.3-0.2,0.6-0.3,0.8c-0.4,0.5-0.9,0.7-1.5,0.8C344.9,340.4,344.7,341,344.7,341.9z M327.6,357.2c0.9-0.9,1.6-1.6,2.3-2.3
			c0.1-0.1,0.1-0.2,0.1-0.2c0-0.2,0.1-0.4,0.1-0.6c-0.3-0.7-0.6-1.4-0.8-2.2c-0.2-0.5-0.3-1-0.5-1.8
			C327.8,352.4,326.8,354.5,327.6,357.2z M332.6,356.4c1.8-0.7,2.3-1.2,2.3-2.6c0-1.4-0.4-2.5-1.9-2.9c-0.3-0.1-0.6-0.2-0.8,0
			c-0.2,0.1-0.2,0.6-0.1,0.8C332.9,353.2,332.9,354.8,332.6,356.4z M469.1,374.8c1.2-2.7,2.8-4.5,1.9-7.2c-0.8,1.2-1.5,2.2-2.2,3.2
			c-0.2,0.3-0.4,0.6-0.2,1C468.8,372.6,468.9,373.4,469.1,374.8z M363.6,299.6c0.6,0.1,1.3,0.1,2,0.2c0.6,0.1,1.3,0.4,1.9,0.6
			c0.6,0.2,1,0.8,1.7,0.9c-0.2-1.1-0.5-1.9-0.9-2.6c-0.2-0.4-0.4-0.7-0.9-0.6c-1,0.4-2.1,0.1-3.1,0.3
			C363.8,298.6,363.6,299,363.6,299.6z M348.5,333.7c0,0.3-0.1,0.8,0.1,1.2c0.5,0.9,1.2,1.7,1.9,2.6c0.1,0.1,0.4,0.1,0.5,0
			c0.1-0.1,0.3-0.3,0.3-0.4c0.2-1.9-0.5-3.4-1.6-4.8c-0.1-0.1-0.4-0.3-0.5-0.2c-0.2,0.1-0.5,0.3-0.6,0.6
			C348.5,332.9,348.5,333.2,348.5,333.7z M336.5,366.5c-1.2-0.1-2.5-0.3-3.7-0.7c-0.4-0.1-0.8-0.1-1.1,0.2c-0.3,0.5,0.1,0.9,0.4,1.3
			c0.5,0.5,1,0.9,1.8,0.9c0.7,0,1.3,0,2,0.3c0.6,0.2,0.6-0.3,0.6-0.7C336.5,367.4,336.5,367,336.5,366.5z M472.7,372.3
			c-0.8,1.6-1.4,2.8-1.9,4c-0.2,0.4-0.1,0.9-0.1,1.4c0,0.1,0.2,0.3,0.3,0.4c0.1,0.1,0.4,0,0.5-0.1c0.5-0.6,0.9-1.2,1.5-1.8
			c0.7-0.7,0.7-1.5,0.4-2.4C473.1,373.5,473,373.1,472.7,372.3z M373.4,311c-0.1,0.5,0.2,1.1,1.1,1.4c0.5,0.2,1.1,0.5,1.6,0.7
			c0.4,0.1,0.8-0.2,0.7-0.6c-0.2-0.6-0.4-1.3-0.6-1.9c-0.3-0.8-0.9-1.2-1.8-1.3c-0.4-0.1-0.8,0-0.9,0.5
			C373.5,310,373.5,310.3,373.4,311z M362.5,307.7c1.6,0.3,3,0.6,4.3,0.8c0.4,0.1,0.6-0.3,0.4-0.8c-0.2-0.5-0.3-0.9-0.8-1.1
			C364.9,305.9,363.7,306.4,362.5,307.7z M379.8,319.5c-0.4-1.1-1.2-1.6-1.8-2.1c-1.1,1-1.3,1.7-0.7,3c0.1,0.3,0.4,0.4,0.7,0.3
			C378.6,320.3,379.1,319.9,379.8,319.5z M353.8,321.9C353.8,321.9,353.8,322,353.8,321.9c0.2,0,0.4,0.1,0.6,0
			c0.4-0.1,0.8-0.2,0.9-0.6c0.1-0.6-0.5-0.5-0.8-0.5c-1.1,0-1.5-0.6-1.5-1.6c0-0.2,0.1-0.6-0.3-0.5c-0.2,0.1-0.5,0.3-0.6,0.6
			c-0.3,0.5-0.2,1.1-0.1,1.7c0.1,0.5,0.4,0.9,1,0.9C353.2,321.9,353.5,321.9,353.8,321.9z M318,355.2c-0.3-1.6-0.5-2.9-0.7-4.3
			c-0.8,0.4-1.5,0.7-1.5,1.6C315.7,353.9,316.6,354.6,318,355.2z M344.1,356.3c1,1.3,1.6,1.5,2.5,1c0.4-0.2,0.5-0.5,0.5-1
			c0-0.6-0.5-0.5-0.8-0.5C345.5,356,344.8,356.1,344.1,356.3z M341.3,360.6c0.7,0,1.3-0.5,1.5-1.3c0.1-0.2-0.1-0.6-0.2-0.7
			c-0.4-0.5-1-0.4-1.8,0.2c-0.1,0.1-0.2,0.1-0.2,0.2c-0.4,0.4-0.6,0.8-0.3,1.3C340.4,360.5,340.8,360.6,341.3,360.6z M343.2,324.6
			c-0.4-0.2-0.6-0.3-0.9-0.4c-0.7-0.2-1.3-0.9-2.1-0.3c-0.4,0.3,0.2,1.1,1.3,1.9c0.2,0.1,0.3,0.2,0.5,0.2c0.4,0.1,0.5-0.2,0.7-0.4
			C342.8,325.4,342.9,325.1,343.2,324.6z M329.9,362.7c-0.2-0.1-0.5-0.3-0.7-0.4c-0.2-0.1-0.3-0.2-0.5-0.3c-0.4-0.2-0.7-0.2-1,0.1
			c-0.4,0.4-0.4,1.2-0.1,1.6c0.3,0.4,0.7,0.4,1,0.3C329.2,363.9,329.7,363.5,329.9,362.7z M347.1,352c-1-0.1-1.3,0.8-2,1.1
			c-0.6,0.3-0.1,0.7,0.1,0.9c1,0.8,1.9,0.3,2-0.9C347.2,352.8,347.1,352.4,347.1,352z M333.6,345.4c-0.5,0.5-0.4,1.1-0.4,1.6
			c-0.1,1.1-0.1,1.1,1.7,1.4C334.4,347.4,334,346.4,333.6,345.4z M340,343c0.1,0.3-0.1,1,0.6,1c0.5,0,1.2-0.1,1.4-0.8
			c0.1-0.4,0.2-1-0.2-1.3c-0.4-0.2-0.9-0.1-1.4,0C340,342.1,340,342.5,340,343z M378.6,310.1c0.4-1,0.3-1.9-0.6-2.5
			c-0.4-0.3-1-0.4-1.4-0.1c-0.7,0.6,0.2,0.8,0.5,0.9C377.8,308.8,377.8,309.8,378.6,310.1z M306.9,319.2c-0.1-0.2-0.1-0.4-0.2-0.5
			c-0.2-0.2-0.5-0.1-0.7,0.1c-0.5,0.4-0.8,1-1,1.7c-0.1,0.3-0.1,0.6,0.2,0.7c0.1,0.1,0.4,0,0.5-0.2
			C306.2,320.5,306.8,320,306.9,319.2z M348.2,326.7c-0.2-0.7-0.8-1.2-1.4-0.9c-0.4,0.2-0.9,0.4-0.7,1c0.3,0.6,0.9,0.8,1.7,0.5
			C348.2,327.2,348.3,327,348.2,326.7z M320.9,366.7c-0.6-0.3-1.2-0.1-1.9-0.1c-0.3,0-0.5,0.3-0.5,0.6c0,0.7,0.9,1.2,1.4,0.8
			C320.5,367.7,320.9,367.4,320.9,366.7z M316.1,343.9c-0.6,0.3-0.8,1.3-0.4,1.7c0.1,0.1,0.2,0.1,0.2,0.1c0.3-0.4,0.7-0.9,0.6-1.5
			C316.5,344.1,316.2,344,316.1,343.9z M350,346.5c-0.2-0.1-0.3,0-0.4,0.3c-0.1,0.5,0,1,0.6,1.1c0.2,0,0.4,0,0.5-0.1
			c0.3-0.4,0-0.7-0.3-0.9C350.3,346.7,350.1,346.6,350,346.5z M351.1,310.1c0.1-0.2,0-0.4-0.2-0.4c-0.4-0.1-0.7,0-0.9,0.4
			c-0.1,0.1,0,0.4,0.1,0.5C350.2,310.8,350.9,310.5,351.1,310.1z M370.7,309c0-0.2-0.1-0.4-0.1-0.5c0-0.3-0.1-0.4-0.3-0.3
			c-0.1,0-0.1,0.1-0.2,0.2c-0.1,0.3-0.3,0.7-0.4,1c0,0.1,0.1,0.3,0.3,0.4c0.3,0.1,0.5,0.1,0.6-0.2
			C370.7,309.4,370.7,309.2,370.7,309z M339.9,328.1c-0.2-0.2-0.4-0.4-0.7-0.2c-0.1,0-0.2,0.1-0.2,0.2c0.1,0.3,0.3,0.4,0.6,0.3
			C339.7,328.3,339.8,328.1,339.9,328.1z"/>
		<path class="st2" d="M437.8,232.7c0.3,0.3,0.5,0.5,0.7,0.7c6.9,4,12.1,9.7,16.8,16c2.5,3.3,4.9,6.8,7,10.4
			c1.3,2.1,3.2,3.7,4.8,5.5c3.8,4.3,7.4,8.8,9.6,14.2c1.4,3.3,2.3,6.8,3.2,10.3c0.8,3,1.3,6.1,1.6,9.2c0.1,0.9,0.2,1.8,0.1,2.6
			c-0.2,2.8-0.3,5.7-1.1,8.4c-1.7,6-2.9,12.1-4,18.2c-0.5,2.6-1.3,5.1-2.2,7.5c-1,2.8-2.5,5.2-3.8,7.8c-1.3,2.5-2.7,5-4.1,7.4
			c-0.8,1.4-1.5,1.7-2.2,1.3c-0.7-0.4-0.9-1.2-0.5-2.6c0.6-1.9,1.2-3.9,2.1-5.7c1.4-2.7,2.3-5.6,3.3-8.4c1.3-3.6,2.4-7.2,3.5-10.8
			c1.4-5,2.1-10.1,2.2-15.3c0.2-4.7-0.5-9.3-1.6-13.9c-1.1-4.4-2.1-8.9-3.4-13.3c-1.1-3.8-2.9-7.4-4.8-10.9
			c-1.8-3.2-3.8-6.4-5.8-9.4c-0.9-1.4-2.2-2.5-3.3-3.7c-1.6-1.7-3.3-3.3-4.8-5.1c-4.6-5.5-10.4-9.6-16.5-13.4
			c-0.3-0.2-0.7-0.3-1.1-0.5c-1.4,1.5-2.8,3-4.2,4.4c-4.2,4.2-8.6,8.2-13.5,11.6c-5.4,3.8-11.1,3.8-16.9,1.2c-2.2-0.9-3.4-2.9-4.2-5
			c-0.8-2.1-1.4-4.2-1.5-6.5c-0.1-2.2,0-4.3,1-6.3c0.4-0.7,0.6-1.4,0.9-2.2c2-5.4,6-8.4,11.4-10c4-1.2,8.1-1.1,12.2-0.6
			c3.8,0.4,7.4,1.7,10.9,3.1c2.4,0.9,2.6,0.8,4-1.3c3.5-4.9,4.4-10.3,3.2-16.1c-0.7-3.4-2.4-6.4-4.8-8.9c-4.5-4.6-9.7-8.4-15.8-10.8
			c-3-1.2-6.1-2-9.3-2.5c-7.7-1.4-15.4-2.1-23.3-1.9c-4.6,0.1-9.2,0-13.7-0.1c-2.4,0-4.6,0.7-6.9,1c-5.8,0.7-11.5,2-17.2,3.5
			c-9.5,2.4-19.2,3.5-28.9,3.1c-6.3-0.3-12.6-1-18.8-2.5c-6.2-1.5-12.2-3.3-18-5.8c-3-1.2-5.8-2.7-8.6-4.4c-2.1-1.2-3.8-2.8-5.1-4.7
			c-2.7-3.7-3.1-7.8-1.8-12.2c1.1-3.6,3.4-6.4,5.9-8.9c5.4-5.5,11.6-10.1,18.7-13.3c4.2-1.9,8.6-3.6,13-5.1
			c6.3-2.1,12.5-4.4,18.9-5.9c2.7-0.6,5.3-1.1,8-1.7c6.2-1.4,12.3-2.9,18.5-4.3c4.7-1.1,9.5-2.2,14.2-3.2c4.4-1,8.8-1.9,13.1-2.7
			c5-1,10-1.6,15-2.2c4.8-0.6,9.7-1,14.5-1.5c0.5,0,1-0.1,1.4-0.2c4.9-0.3,9.7-0.5,14.6-0.8c1.7-0.1,3.3-0.4,4.9-0.3
			c5.9,0.2,11.9,0.2,17.7,1.4c2.7,0.5,5.3,0.9,7.9,2c6.4,2.6,12,6.5,16.7,11.5c2.3,2.4,3.7,5.2,4.6,8.3c0.4,1.2,0.2,2.7,1.3,3.5
			c1,0.6,2.3,0.2,3.4,0.2c6.1,0,12.2,0.7,18.3,1.4c2.3,0.3,4.6,0.5,7,0.7c6.4,0.5,12.7,1.8,19,3.2c8.2,1.8,16.1,4.5,24.2,6.6
			c4.7,1.3,9.2,3.2,13.4,5.7c2.1,1.3,4.3,2.3,6.5,3.2c3.3,1.4,5.9,3.6,8,6.6c1.8,2.6,3,5.4,4.1,8.3c0.3,0.8,0.4,1.7,0.5,2.6
			c0.1,1,0.1,1.9,0.3,2.9c0.5,2.8,0.3,5.4-1,7.9c-0.4,0.7-0.4,1.5-0.3,2.3c0,2-0.7,3.8-1.8,5.5c-1.4,2-2.8,4-5.2,4.9
			c-1.1,0.4-1.7,1.3-1.7,2.5c-0.3,4-1.2,7.9-1.9,11.8c-0.3,1.5-0.7,3-1.3,4.5c-1.2,2.8-2.1,5.6-3.3,8.4c-2.5,5.8-5.6,11.1-10,15.7
			c-0.1,0.1-0.3,0.3-0.4,0.4c-0.9,1.2-1.6,2.6-2.7,3.4c-3.7,2.8-6.7,6.2-10.5,8.8c-4.5,3-9.1,6-14.4,7.5c-4,1.2-8.1,1-12.1,0
			c-2.2-0.6-4.1-1.9-5.6-3.5c-1.5-1.5-2.9-3.2-4.3-4.8c-1.7-1.8-3-3.9-4-6.1c-2.3-4.9-4.5-9.7-6.4-14.7c-1.4-3.7-2.4-7.6-2.6-11.6
			c-0.2-3.3-0.4-6.6-0.7-9.9c-0.1-0.8-0.2-1.5-0.4-2.3c-0.2-0.7-0.6-1.2-1.5-1.2c-1.9,0-3.9,0-5.8,0.3c-3.4,0.4-6.8,0.6-10.2-0.2
			c-4-0.9-7.8-2.4-10.6-5.7c-0.8-0.9-1.8-1.5-2.6-2.3c-2.6-2.3-4.5-5-5.4-8.5c-0.7-3-0.2-5.7,2.3-7.6c2.7-2.2,5.6-4.2,8.6-6
			c2.6-1.6,5.6-2.2,8.6-2.8c6-1.2,12.1-1.9,18.3-1.7c2.6,0.1,5.3,0,7.9-0.1c2.1-0.1,4.3-0.4,6.3-1c0.6-0.2,1.1-0.4,1.6-0.7
			c1.7-1,1.9-3.2,0.3-4.4c-1.4-1.2-3-1.9-4.8-1.2c-0.9,0.4-1.9,0.5-2.7,1c-0.9,0.6-1.7,0.3-2.3-0.5c-0.6-0.8-0.7-1.6-0.1-2.4
			c1-1.4,2.4-2.3,4.1-2.4c0.9-0.1,1.8-0.1,2.6,0.1c2.1,0.5,4.1,1,6.2,1.8c2.3,0.8,3.9,2.5,4.9,4.8c1.1,2.7,0.6,5.6-1.7,7.4
			c-1.9,1.5-3.9,2.9-6.1,4c-3.8,2-7.9,2-12,1.6c-2.3-0.3-4.6-0.7-6.9-1c-4.1-0.6-8.1-0.4-12.2-0.1c-3.2,0.2-6.4,0.5-9.5,1.4
			c-1.9,0.5-3.7,1.2-4.8,3c-1.2,2-1.9,4-1.6,6.4c0.4,3.3,1.8,6.1,3.6,8.8c0.5,0.7,1.1,1.3,1.9,1.7c5,2.4,10.1,4.1,15.8,3.1
			c1.2-0.2,2.5-0.2,3.8-0.3c0.8,0,1.5-0.1,2.3-0.4c1.2-0.5,1.8-1.2,1.7-2.7c-0.1-2.1,0-4.3,0-6.4c0-2.5,0.2-5.1,0.6-7.6
			c0.3-1.7,1.3-2.4,2.9-1.8c2.2,0.9,4.6,1.6,6.7,2.8c4.7,2.6,9.7,3.8,15,4.6c4.5,0.7,9.1,1,13.6,1.5c3.8,0.4,7.6,0.3,11.4,0.2
			c3.5-0.1,7-0.2,10.5-0.7c3.1-0.4,6.1-0.9,9.1-1.8c1-0.3,2-0.7,2.9-1.3c3.2-2.2,6.5-0.2,7.6,3c0.1,0.2,0.1,0.4,0.2,0.6
			c0,0.5-0.1,1.1,0.4,1.3c0.7,0.3,1.3-0.2,1.8-0.7c2.2-2.1,3.2-4.6,3-7.6c0-0.6-0.3-1.1-0.5-1.7c-0.7-1.6-1.3-3.2-2-4.8
			c-0.9-1.9-2.4-3.3-4.2-4.4c-1.3-0.8-2.8-1.4-3.4-3c-0.2-0.6-1-0.9-1.5-1.3c-3.9-3.2-8.1-6.1-12.9-7.9c-1.9-0.7-3.9-1.2-5.9-1.7
			c-1.8-0.4-3.6-1-5.2-1.9c-4.4-2.6-9.3-3.9-14.2-5.2c-4.7-1.2-9.4-2.5-14.1-3.7c-5.9-1.5-11.9-2.9-17.9-4.1c-4.4-0.9-8.7-2-13.1-3
			c-1.1-0.3-2.3-0.4-3.4-0.7c-0.5-0.1-0.8,0.1-1,0.5c-0.2,0.4-0.5,0.9-0.6,1.3c-1.8,4.4-5,7.3-9.1,9.5c-4.9,2.7-10.3,4.2-15.7,5.3
			c-8.3,1.7-16.6,1.9-25,1.3c-6.6-0.5-13.1-1.8-19.5-3.6c-4.7-1.3-9.3-2.8-13.4-5.6c-0.8-0.5-1.6-1.1-2.3-1.8
			c-2.5-2.1-3.2-7-0.3-9.6c1.1-1,2.2-1.9,3.5-2.5c2.9-1.4,6.1-2,9.3-2.4c7.5-0.9,15.1-1.8,22.7-1.7c6.3,0.1,12.7,0.2,19,0.4
			c2.9,0.1,5.8,0.6,8.7,1c2.5,0.3,5,0.7,7.5,1c0.4,0,0.8,0.1,1-0.3c0.2-0.5-0.1-0.7-0.4-1c-0.8-0.7-1.5-1.5-2.4-2.1
			c-1.9-1.4-3.9-2.6-6-3.7c-6.5-3.1-13.1-5.8-20.1-7.9c-8.7-2.5-17.6-3.2-26.6-3c-7.8,0.2-15.5,1-23.3,2c-5.5,0.7-11,1.4-16.4,2.5
			c-4,0.8-8,1.4-12,2.2c-3.4,0.7-6.8,1.5-10.2,2.3c-4.3,1.1-8.6,2.3-13,3.4c-4.4,1.2-8.7,2.9-12.9,4.7c-3.7,1.6-7.2,3.3-10.8,5.1
			c-4.4,2.2-8.5,4.8-12.3,7.7c-1.8,1.4-3.5,3.1-5.1,4.8c-1.3,1.4-2.3,3.1-2.5,5.2c-0.3,3.3,1.1,5.9,3.7,7.8c1.9,1.4,3.9,2.6,6.1,3.5
			c3.3,1.4,6.8,2.4,10.2,3.5c5.8,1.8,11.8,2.5,17.8,3.2c5.6,0.7,11.2,1.1,16.9,1.5c8.9,0.6,17.7,0.5,26.6,0.6c1.4,0,2.7,0.1,4.1,0.2
			c1.2,0,2.3,0,3.5-0.2c5.3-0.7,10.6-1.7,15.9-2.2c3.6-0.3,7.2-0.1,10.8,0.4c5.8,1,11.7,2.1,17.4,3.9c7.3,2.3,13.2,6.6,17.6,12.9
			c1.3,1.9,2.4,4,3,6.3c1.3,4.5,2.2,9.1,2.1,13.8c-0.1,3.4-0.5,6.8-1.9,10C438.7,230,438.3,231.4,437.8,232.7z M398.5,148
			c0.2,0.8,0.8,1.2,1.4,1.5c1.9,1,3.8,2,5.7,3c3.9,1.8,8,2.9,12.2,4.1c5.2,1.5,10.5,2.1,15.8,2.3c6.8,0.2,13.6,0.3,20.4-0.7
			c2.7-0.4,5.4-1,7.7-2.4c3.5-2.1,4.5-3.4,2.6-8.3c-0.3-0.8-0.8-1.3-1.7-1.4c-3.6-0.5-7-1.6-10.7-1.3c-0.7,0.1-1.4,0-2-0.1
			c-4.9-0.3-9.7-0.7-14.6-1c-7.3-0.3-14.6-0.4-21.9,0.4c-3.7,0.4-7.3,1-10.9,1.8C401,146.3,399.6,146.9,398.5,148z M520.8,256.1
			c1.7,0.1,3.3,0,4.9-0.8c2.9-1.6,6-2.8,8.8-4.5c2.4-1.5,4-3.6,5.3-6.1c0.6-1.2,0.4-2.3-0.1-3.4c-0.2-0.4-0.4-0.7-0.8-0.7
			c-2-0.3-4-0.7-6,0c-1.6,0.5-3,1.4-4.4,2.2c-3.8,2.4-10.6,1.5-13.4-1.3c-1.2-1.3-2.8-2-4.3-2.9c-1-0.6-2.2-0.8-3.4-0.9
			c-1.8-0.2-3.1,1-3.4,2.8c-0.3,2,0.4,3.7,1.5,5.2c1.6,2.3,3.4,4.5,5.3,6.5C513.5,255,516.9,256.3,520.8,256.1z M426.7,235.1
			c-1.2-0.5-2.4-1.1-3.7-1.6c-1.5-0.5-2.9-1-4.4-1.4c-5.4-1.4-10.6-1.3-15.5,1.6c-1.7,1-3.4,2-4.3,3.8c-1.3,2.6-1.4,5.4-1,8.3
			c0.1,0.9,0.6,1.9,0.9,2.7c0.3,0.7,0.9,1.4,1.7,1.5c2,0.5,4,0.8,6-0.1c1.5-0.7,3-1.4,4.4-2.3c4.5-3.1,8.8-6.3,13.3-9.6
			c0.8-0.6,1.5-1.2,2.2-1.9C426.5,235.9,426.7,235.6,426.7,235.1z M545,220.1c0.4,0,0.6,0,0.8,0c0.5,0.1,0.9,0.2,1.4,0.3
			c0.9,0.2,1.3-0.1,2-1.3c0.4-0.7,0.3-1.3-0.2-1.9c-1.4-1.7-3.1-2.5-5.4-2c-1.9,0.4-3.8,1-5.4,2c-1.9,1.2-3.7,2.5-5.3,4
			c-0.5,0.4-0.9,1-1.2,1.6c-0.4,0.7-0.4,1.5,0.1,2.2c1.1,1.5,2.6,1.5,3.8,0.1c0.2-0.2,0.3-0.5,0.5-0.7
			C538.4,221.7,541.5,220.2,545,220.1z M507.4,210.8c-2-0.3-3,1-4,2.4c-0.6,0.9-0.2,1.8,0.9,1.8c2.8-0.1,5.2,1,7.3,2.5
			c2.4,1.7,5,3.5,5.3,6.9c0.1,0.6,0.9,0.8,1.4,0.6c0.6-0.3,0.9-0.7,1.1-1.3c0.6-1.5,0.6-3.1-0.3-4.5c-0.8-1.2-1.6-2.4-2.5-3.6
			C514.3,212.6,511,211.3,507.4,210.8z"/>
		<path class="st2" d="M564.9,226.6c0.8-2,1.5-3.8,2.3-5.6c1.3-3.1,1.9-6.3,2.3-9.6c0.2-1.7,0.5-3.5,0.8-5.2
			c0.1-0.5,0.6-0.8,1.1-0.5c0.7,0.3,1.4,0.7,2.1,1c5.6,2.5,11.4,4.5,17.4,5.8c5.8,1.3,11.6,1.5,17.4,1.3c4.5-0.1,8.9-1,12.8-3.5
			c1.3-0.8,2.4-0.6,3.5,0.1c0.7,0.4,1.2,1,1.1,1.9c-0.4,5.6-0.8,11.3-2.5,16.7c-1.3,4.2-3,8.2-4.9,12.2c-0.2,0.3-0.3,0.7-0.4,1
			c1.2,1.1,2.4,2.1,3.5,3.1c2.5,2.4,4,5.5,5.1,8.8c1,2.9,1.3,5.9,1.5,8.9c0.2,2.2-0.5,4.4-1.4,6.5c-2.4,5.9-6.4,10.4-11.8,13.7
			c-0.5,0.3-1,0.5-1.5,0.9c-4.9,3.9-10.9,5.7-16.7,7.3c-4.1,1.1-8.4,1.5-12.7,1.4c-9.1-0.1-18.1-0.1-27.2-0.2
			c-2.8,0-5.6-0.4-8.4-0.6c-1.6-0.1-3.3-0.2-4.9-0.4c-0.8-0.1-1.5,0.1-2.3,0.3c-4.2,1.1-8.4,2.3-12.4,4.1c-2.8,1.3-5.7,2.4-8.5,3.9
			c-0.8,0.5-1.3,1.1-1.7,1.9c-1.3,3.5-1.1,7.1,0,10.6c0.8,2.4,2.5,4.2,4.5,5.6c4,2.9,8.4,5,13.4,5.3c6.4,0.5,12.7-0.1,18.3-3.7
			c0.9-0.6,1.8-1.2,2.4-2.1c1.2-1.8,0.6-3.4-1.5-4c-0.9-0.3-1.7-0.1-2.6,0.1c-0.5,0.1-0.8,0.4-0.9,1c0,0.4-0.1,0.8-0.3,1.1
			c-0.3,0.8-1.1,1.1-1.9,1c-0.4-0.1-0.8-0.2-1.1-0.3c-1.4-0.6-2.9-1.3-2.8-3c0.1-1.5,1.2-2.6,2.5-3.4c0.3-0.2,0.7-0.3,1.1-0.5
			c3.3-1,6.4-0.4,9.2,1.4c2.6,1.7,3.4,4,2.3,6.9c-1.2,3.3-3,6.4-5.9,8.6c-1.1,0.8-2.2,1.6-3.5,2c-3,1.1-6,2.3-9,3.4
			c-4.4,1.6-9,1.5-13.6,1c-6.3-0.7-11.7-3.6-16.3-7.9c-2.8-2.6-5-5.7-5.8-9.6c-0.2-1.1-0.2-2.1-0.1-3.2c0.5-5.3,3-9.4,7.5-12.2
			c0.8-0.5,1.5-1.2,2.1-2c4.9-6.5,11.4-9.8,19.5-10c2.3-0.1,4.7-0.3,7,0c2.7,0.3,5.2-0.5,7.8-0.9c4.2-0.5,8.5-1.2,12.8-1.4
			c6.6-0.3,13.2-0.1,19.8,0.4c5.4,0.4,10.7,0.3,16-0.5c2.9-0.4,5.7-1.1,8.4-2.3c0.8-0.4,1.5-0.8,2.2-1.4c2-1.5,4-3.2,6-4.7
			c3.4-2.7,5.4-6.3,6.7-10.4c1.7-5.4,0.8-10.6-1.3-15.7c-0.6-1.5-1.8-2.5-2.8-3.7c-0.7-0.7-1.6-0.4-2.5-0.4c-0.3,0-0.5,0.5-0.7,0.8
			c-2.3,4.8-5.1,9.2-8.3,13.4c-3.9,5.1-8.6,9.6-13.8,13.4c-3.1,2.3-6.3,4.2-10.2,4.8c-2,0.3-4.1,0.4-6.1-0.1
			c-1.2-0.3-2.5-0.4-3.7-0.8c-4.7-1.3-8.6-4.1-12.4-6.9c-1.5-1.1-2.2-2.7-3.3-4.1c-2.4-3.1-4.5-6.3-5.8-10.1
			c-0.6-1.7-1.2-3.5-0.8-5.4c0.3-1.5,0.7-2.8,1.7-3.9c1.5-1.7,3-3.6,4.3-5.5c1.9-2.6,3.8-5.2,5.2-8.1c0.8-1.6,2-2.7,3.7-3.1
			c0.8-0.2,1.4-0.6,2.1-1c1.8-1.1,3.7-1.7,5.8-1.6c1.4,0.1,2.7,0.1,4.1,0.2c0.6,0,1.1,0,1.6-0.4c1.7-1.4,1.6-2.3-0.4-3.2
			c-3.8-1.8-7.7-1.8-11.5,0C566.7,226.2,566.1,226.8,564.9,226.6z M579.7,246.7c-2.1-0.3-4.5,0.8-6.9,1.6c-4.7,1.4-7.6,4.9-10,8.9
			c-0.8,1.4-1,3.4,0.2,4.7c1.3,1.3,3.2,1.3,4.9,0.6c0.5-0.2,0.9-0.5,1.3-0.7c0.7-0.4,1.3-0.8,2-1.2c1.6-1,3.3-1.6,5.1-2
			c1.8-0.4,3.7-0.5,5.1,1.2c0.2,0.2,0.4,0.4,0.7,0.5c1.7,0.6,2.7,1.9,3.5,3.3c0.9,1.5,2.3,2.7,3.6,3.8c0.4,0.4,0.9,0.4,1.4,0.2
			c2-0.8,4-2.9,3.9-5.3c0-5.7-3.2-13.1-11.2-15.2C582.3,246.8,581.3,246.6,579.7,246.7z M595.2,229.1c-0.5,0-0.8,0-1.1,0
			c-1.5-0.1-1.9,0.6-2.4,2c-0.2,0.5,0.1,1,0.6,1.2c0.3,0.1,0.6,0.1,0.9,0.2c2.5,0.3,4.5,1.8,6.3,3.4c0.8,0.6,1.2,1.5,1.5,2.4
			c0.6,1.7,0.5,3.4-0.1,5.1c-0.4,1.3,0.8,2.5,2.1,2.4c0.9,0,1.7-0.3,2.3-1c2.2-2.5,2.4-4.5,0.8-7.4c-1.4-2.5-3.4-4.5-5.5-6.3
			C599,229.7,597.2,228.8,595.2,229.1z"/>
		<path class="st2" d="M435.8,481c0.9-0.2,1.7-0.3,2.6-0.5c1.5,1.5,2.8,3.2,3.9,5.1c1.8,3,4.2,5.6,6.3,8.4c0.1,0.2,0.2,0.3,0.4,0.4
			c3.7,2.8,6.7,6.5,10.6,9.2c2.8,1.9,5.9,3.4,9.2,4.3c1.7,0.4,3.4,0.8,4.9,1.8c0.7,0.4,1.4,0.6,2.2,0.7c3.7,0.4,7.4,0.4,11.1,0.2
			c1,0,1.9-0.4,2.9-0.6c3.2-0.6,4.9,0.1,6.7,2.8c0.2,0.2,0.3,0.5,0.4,0.8c1.5,2.4,1.2,4.6-0.5,6.7c-1.4,1.8-3,3.6-4.7,5.2
			c-3.1,2.9-6.2,5.9-9.5,8.7c-1.9,1.6-4.1,2.7-6.6,2.9c-1.8,0.1-3.6,0-5-1.7c-0.8-1-1.9-1.9-2.7-3c-0.6-0.9-1.5-1.5-2.5-2
			c-1.9-1-3.8-1.9-6-2.3c-1.5-0.3-3-0.7-4.5-1.2c-3-0.9-6-0.4-8.9,0.2c-1.8,0.4-3.7,0.4-5.5,0.3c-1.2-0.1-2.3-0.5-3.3-1
			c-1.8-0.9-2.9-2.2-3.4-4.1c-0.3-0.9-0.5-1.9-0.9-2.8c-0.7-1.7-1.1-3.3-0.6-5.1c0.1-0.4,0-1,0-1.4c-0.4-2.5-0.9-5-1.2-7.5
			c-0.3-2.2-1.2-4.1-2-6.1c-0.4-1.1-1.2-2-1.9-2.9c-1.5-2-2.6-4.3-4.6-5.9c-0.1-0.6,0.1-1.1,0.4-1.5c1.6-1.5,3.3-2.9,5.2-4.2
			C430.6,483,433.2,482,435.8,481z M475.1,530.1c2,0.2,3.6-0.6,5.1-1.8c1.3-1.1,2.7-2.2,4.1-3.3c0.7-0.6,1.3-1.2,1.9-1.8
			c1.5-1.5,2.9-3.1,4.4-4.6c0.6-0.6,1.2-1.2,1.5-2.1c0.3-1-0.1-1.8-1.2-2.3c-0.1-0.1-0.4,0-0.5,0.1c-0.1,0.1-0.2,0.4-0.2,0.5
			c0.8,1.3,0.1,2.1-0.8,2.9c-1.2,1.1-2.2,2.4-3.5,3.4c-2.3,1.9-4.7,3.8-6.9,5.8c-1.5,1.4-3.2,2.1-5.3,1.7c-0.4-0.1-0.9-0.3-1.3,0.2
			c-0.2,0.4,0.3,1,1,1.1C473.9,530.1,474.5,530.1,475.1,530.1z M445.9,495.3c-0.1-0.2-0.2-0.4-0.4-0.6c-3.2-3-5.9-6.4-7.9-10.2
			c-0.2-0.4-0.4-0.9-0.7-1.3c-0.1-0.1-0.3-0.2-0.5-0.1c-0.3,0.1-0.5,0.3-0.5,0.6c0,0.4,0.1,0.8,0.3,1.1c2,3.8,4.6,7.1,7.5,10.2
			c0.4,0.4,0.9,0.7,1.5,0.8C445.6,495.9,445.8,495.7,445.9,495.3z M434.9,501.5c0-0.8-0.6-1.4-1-2c-2.2-3.3-4.5-6.5-6.7-9.8
			c-0.1-0.1-0.1-0.2-0.2-0.2c-0.3-0.3-0.6-0.5-1-0.2c-0.4,0.3-0.3,0.7-0.1,1c0.3,0.5,0.6,1,0.9,1.5c2,2.5,3.8,5.1,5.5,7.8
			c0.5,0.8,1.1,1.6,1.7,2.3c0.1,0.1,0.4,0.2,0.5,0.1C434.8,501.9,434.8,501.6,434.9,501.5z M440.6,496.1c0-0.2-0.1-0.4-0.2-0.5
			c-2.4-3.2-4.6-6.7-6.7-10.1c-0.1-0.2-0.2-0.3-0.4-0.4c-0.2-0.1-0.4-0.1-0.5,0c-0.1,0.1-0.3,0.3-0.3,0.5c0.1,0.4,0.1,0.8,0.3,1.1
			c0.7,1.2,1.4,2.3,2.2,3.4c1.2,1.9,2.4,3.7,3.7,5.6c0.3,0.5,0.7,0.9,1.3,1C440.2,496.7,440.6,496.3,440.6,496.1z M430,486.8
			c-0.1,0.1-0.3,0.2-0.3,0.4c0,0.4,0,0.8,0.2,1.1c1.8,3.1,3.7,6.1,5.8,9c0.2,0.3,0.6,0.6,0.9,0.2c0.2-0.2,0.2-0.6,0.1-0.8
			c-0.2-0.4-0.4-0.9-0.7-1.3c-1.2-1.8-2.4-3.5-3.5-5.3c-0.6-1-1.1-2-1.7-3C430.6,486.9,430.3,486.8,430,486.8z"/>
		<path class="st0" d="M525.5,446.2c-0.7,0.9-1.4,1.8-2,2.8c-0.4,0.6-0.8,1.1-0.8,1.9c0,0.5,0.2,1,0.7,1.1c0.4,0.1,0.8,0,1-0.4
			c0.4-0.6,0.6-1.2,1-1.8c0.4-0.6,0.8-1.2,1.3-1.5c1.3-0.7,2.3-1.8,3.3-2.9c0.7-0.7,1.3-0.6,1.8,0.2c0.5,1,0.6,2-0.1,3
			c-1,1.5-2.2,2.8-3.7,3.7c-1.3,0.8-2,1.8-1.4,3.3c0.1,0.4,0.1,1-0.1,1.4c-1.5,4.8-4,8.6-9.2,10c-0.7,0.2-1,0.5-1.3,1
			c-1.3,1.9-2.5,3.9-4,5.8c-0.6,0.7-0.9,1.7-1.4,2.6c-0.3,0.5-0.5,1.1-0.8,1.5c-1.4,2.1-2.5,4.4-3.4,6.7c-0.7,2-2.3,3.4-3.7,4.8
			c-1.3,1.3-3.1,1.6-4.9,1.2c-1.6-0.4-3.2-0.9-4.3-2.3c-0.7-0.9-1.6-1.7-2.2-2.7c-1.8-2.9-4.2-5.1-6.6-7.4c-1.3-1.3-2.9-2.5-4.8-3.1
			c-0.5-0.1-0.9-0.4-1.3-0.6c-2.4-1.8-5.2-2.7-8-3.4c-1.4-0.4-2.8-0.9-4.1-1.5c-1.7-0.9-3.5-1.8-5.2-2.6c-0.4-0.2-0.9-0.4-1.4-0.4
			c-4.3-0.2-7.1-2.8-9.7-5.8c-1.6-2-2.6-4.3-3.6-6.7c-0.3-0.6-0.5-1.3-0.8-1.9c-0.3-0.8-0.4-1.9-1.4-2c-1.1-0.1-2.3-0.2-3.4,0.5
			c-1.8,1.2-3.5,2.5-5,4c-1.6,1.7-3.6,2.9-5.5,4.3c-0.6,0.4-1.1,0.3-1.4-0.4c-0.8-2.1-1.6-4.2-2.4-6.3c-0.5-1.4-1-2.7-2.2-3.7
			c-0.3-0.3-0.5-0.8-0.7-1.2c-0.2-0.3-0.2-0.8-0.5-1.1c-1.3-1.1-2-2.5-2.5-4.1c-0.5-1.4-1.4-2.7-2.3-4c-0.9-1.4-1.9-2.6-2.9-4
			c-0.2-0.2-0.3-0.5-0.5-0.9c2.2-0.9,4.4-1.4,6.7-1.8c1.7-0.3,3.5-0.6,5.2-0.8c1.1-0.1,2.1-0.2,3-0.9c0.4-0.3,1.1-0.4,1.6-0.5
			c1.7-0.4,3.3-0.9,4.4-2.4c0.6-0.9,1.6-1.4,2.7-1.7c2.2-0.4,4.4-0.7,6.5,0.4c2,1,4.1,1.9,5.5,3.8c0.3,0.4,0.7,0.7,1.1,1
			c2.1,1.6,3.9,3.5,5.3,5.7c0.7,1,1.6,2,2.6,2.8c2.9,2.3,5.4,5.1,8.1,7.6c3,2.7,5.6,5.7,8.5,8.4c2.1,2,4.2,4,6.7,5.5
			c2.7,1.7,5.2,3.7,7.8,5.6c1.3,0.9,2.6,1.6,4.1,2.2c3.4,1.3,6.2,0.1,8.5-2.3c1.8-1.9,4-3.4,5.9-5.1c0.4-0.4,1-0.6,1.2-1.2
			c0.9-2.4,2.8-4.2,4.5-6.1c0.6-0.7,1.2-1.4,1.5-2.4c0.6-1.8,1.8-3.2,3-4.6c0.3-0.3,0.6-0.5,1-0.2c0.3,0.3,0.3,0.7,0.1,1.1
			c-0.6,1-1.4,1.9-2,2.9c-0.4,0.6,0,1.4,0.8,1.5c0.5,0.1,1,0,1.2-0.5c0.3-0.5,0.5-1.1,0.7-1.6c0.5-1.2,1.1-2.3,2.1-3.1
			C524.1,446.2,524.7,445.8,525.5,446.2z"/>
		<path class="st0" d="M380.1,355.4c-0.8,1.6-1.3,3-2.4,4c-1.6,1.6-3.6,2.3-5.8,2.2c-2.9-0.1-5.5,1.1-8.2,1.9
			c-0.6,0.2-1,0.6-1.2,1.2c-1.9,4.4-1.9,8.9-0.3,13.4c0.3,0.7,0.7,1.1,1.5,1.2c2.5,0.6,3.9,2.4,4.9,4.6c1.1,2.5,2.3,4.9,3.3,7.4
			c1.1,2.6,0.7,5.2-0.1,7.7c-0.4,1.2-1.5,2-2.6,2.1c-1.8,0.1-3.7,0.3-5.4-0.5c-1.2-0.6-2.4-1.2-3.6-2c-1-0.6-1.6-1.5-2-2.8
			c-0.9-3-2.3-5.8-4.1-8.3c-1.8-2.5-4.1-4.4-6.6-6.1c-0.4-0.3-0.8-0.5-1.3-0.8c-1.1-0.7-2.7-0.3-3.4-1.5c-0.7-1.1-1.5-2-2.3-3
			c-0.4-0.5-0.7-1.2-1-1.8c-0.3-0.6-0.4-1.3,0-1.9c0.4-0.7,0.7-1.6,1.4-2.2c0.6,0.3,1.2,0.7,1.8,0.9c0.9,0.4,1.9-0.4,1.6-1.3
			c-0.3-0.9-0.4-1.4,0.4-2.2c1.3-1.1,1.2-1.4,0.3-3c-0.2-0.3-0.5-0.5-0.2-1c0.3-0.3,0.6-0.5,1-0.5c0.7,0.1,1.4,0.1,2,0.3
			c0.2,0.1,0.5,0.3,0.5,0.6c-0.1,0.7-0.2,1.3-0.2,2c0,0.7,0.5,1.4,1.1,1.5c0.6,0.1,1.4-0.4,1.5-1.1c0.2-0.9,0.3-1.7,0.4-2.6
			c0.1-1.8-0.6-2.7-2.4-3.1c-0.5-0.1-1-0.1-1.5-0.1c-0.2-0.8,0.6-0.8,0.9-1.2c0.9-1.3,1.6-2.7,1.6-4.3c0-1.5,0-3.1,0-4.8
			c0.8-0.1,1.6-0.1,2.3-0.2c1.5-0.2,2.3-1.5,1.8-2.9c-0.5-1.6-1.5-2.9-2.6-4.1c-0.5-0.5-0.5-1-0.1-1.6c0.4-0.6,0.7-1.2,1.2-1.6
			c2-2.1,2.1-4.5,0.9-7c-0.4-0.9-0.9-1.7-1.4-2.6c-0.7-1.1-0.6-2.2,0.1-3.2c0.5-0.7,1-1.5,1.1-2.4c0.1-0.8,0.7-0.9,1.3-0.8
			c0.6,0,1.1,0.1,1.7-0.1c1.8-0.8,2.5-2.7,1.5-4.6c-0.5-0.9-1-1.6-1.1-2.6c-0.2-0.9-0.8-1.5-1.5-2.1c-0.6-0.5-1.3-0.9-1.8-1.4
			c-0.6-0.5-0.5-0.9,0-1.5c0.4-0.4,0.8-0.8,1.2-1.3c0.5-0.6,1-0.8,1.8-0.8c3.2,0.1,6.4,0.5,9.6,1.1c3.5,0.7,5.7,3.1,7.5,6
			c0.9,1.5,1.6,3.1,1.8,4.9c0.2,1.5,0.6,3.1,1.3,4.5c0.3,0.6,0.6,1.2,1.1,1.7c0.7,0.8,1.6,1,2.6,0.5c1.1-0.5,2.1-1.1,3.1-1.5
			c1-0.4,2,0.1,2.2,1.1c0.3,1.7,0.1,3.5-1.4,4.5c-2.3,1.5-3.1,3.6-3.2,6.1c0,0.1-0.1,0.2-0.1,0.3c-0.1,0.1-0.3,0.3-0.4,0.3
			c-4.6,0-8.7,1.9-13,3c-1.8,0.5-3.5,1.1-5.3,1.7c-0.7,0.3-0.8,0.6-0.4,1.3c1.7,3,3.9,5.5,6.8,7.5c2,1.4,4.2,2,6.5,2.4
			C376.4,355.6,378,355.6,380.1,355.4z M371.2,330.2c0.3-3.2-1.5-4.7-3.3-6.1c-0.6-0.4-1.3-0.4-2-0.4c-0.5,0-0.9,0.2-1.2,0.7
			c-2,3.2-1.5,6,1.4,8.1c1,0.8,2.1,1.6,3.4,1C371.1,332.9,371.2,331.5,371.2,330.2z M364.5,317.9c-1.3,0-2.4,0.6-3.3,1.6
			c-1.2,1.3-2,2.9-2.5,4.5c-0.4,1-0.2,2.3-0.1,3.4c0,0.6,0.5,1.1,1.2,1.1c0.7,0.1,1.1-0.3,1.3-0.9c0.1-0.5,0.1-1,0.3-1.4
			c0.7-2.1,1.4-4.3,4.3-4.4c0.3,0,0.8-0.3,0.9-0.6C367.3,319.8,366.2,317.8,364.5,317.9z"/>
		<path class="st0" d="M435.8,481c-2.6,1.1-5.2,2.1-7.6,3.7c-1.9,1.2-3.6,2.7-5.2,4.2c-1.4-1.1-2.7-2.2-4.1-3.3
			c-2.9-2.2-5.4-4.7-7.4-7.8c-0.4-0.6-0.7-1.2-1.2-1.6c-1.7-1.3-2.7-3-3.7-4.8c-0.3-0.6-0.7-1.2-1.1-1.7c-1-1-1.4-2.3-1.7-3.6
			c-0.8-3.7-1.1-7.5-1.1-11.3c0-1.8-0.6-3.2-1.9-4.4c-0.8-0.8-1.9-1.1-2.9-0.6c-1,0.5-1.7,1.3-2,2.4c-0.1,0.4,0.1,0.8,0.4,1.1
			c0.3,0.3,0.7,0.3,1,0c0.3-0.4,0.7-0.7,1.2-0.7c0.8,0,1.4,0.4,1.4,1.1c0,0.6-0.1,1.2-0.1,1.7c-0.2,3.3,0.2,6.6,0.7,9.9
			c0.2,1.3,0.7,2.4,1.2,3.6c0.4,0.7,0.5,1.5,0.3,2.3c-2.3,7.9-6.2,14.8-11.9,20.8c-0.1,0.1-0.3,0.1-0.5,0.2c-0.1,0-0.2-0.1-0.3-0.1
			c-0.1-0.1-0.1-0.2-0.1-0.3c0-1.8,0-3.7,0.2-5.5c0.3-2.3,0.4-4.6,0.4-7c0-1.9,0.2-3.9,0.3-5.8c0.1-1.1,0.2-2.1,0.2-3.2
			c0-5.4,0-10.7,0-16.1c0-2.2,0.2-4.3,0.7-6.4c0.1-0.5,0.1-1,0.4-1.4c0.6-0.8,0.7-1.8,0.8-2.7c0.3-2.7,1.1-5.1,2.5-7.4
			c0.3-0.6,0.8-1.1,1-1.8c0.8-2.2,2.6-3.3,4.4-4.4c0.6-0.4,1.2-0.6,1.9-0.4c2.2,0.4,4.4,0.7,6.2,2.3c1.4,1.2,2.9,2.3,4.3,3.5
			c0.4,0.4,0.9,0.8,1.2,1.2c1.5,2.1,2.9,4.1,4.3,6.2c0.3,0.5,0.6,1,0.8,1.5c0.7,2.4,1.9,4.5,3.1,6.6c0.8,1.4,1.6,2.9,2.2,4.5
			c0.8,2.3,2,4.4,3.3,6.5c0.9,1.6,1.7,3.3,2.4,5c1.4,3.4,3,6.8,4.4,10.2C434.8,478.2,435.3,479.6,435.8,481z"/>
		<path class="st0" d="M310.4,505.7c-2.5,0-5-0.3-7.6,0.2c-1.8,0.4-3.7,0.3-5.5,0.4c-0.2,0-0.6-0.1-0.7-0.3c-0.2-0.4,0-0.7,0.3-1.1
			c0.2-0.3,0.5-0.5,0.9-0.6c3.6-0.9,7-2.1,10.8-2c2.1,0.1,4.2-0.3,6.4-0.5c0.4,0,0.8-0.2,0.9-0.7c0.1-0.6-0.3-0.9-0.7-1.1
			c-0.3-0.2-0.7-0.2-1.1-0.3c-2.2-0.5-4.4-0.9-6.5-1.5c-0.7-0.2-1.5-0.5-2.2-0.8c-0.4-0.1-0.7-0.4-0.6-0.9c0.1-0.4,0.5-0.5,0.9-0.6
			c0.6-0.2,1.1,0,1.7,0c2.6,0.3,5.2,0.6,7.8,0.9c2.8,0.2,5.6,0.4,8.4,0.5c3.5,0.2,6.2-2.4,6.2-5.9c0-1.5,0.2-3.1-0.1-4.7
			c-0.2-1.1,0-2.3,0.2-3.5c0.7-6.4,1.5-12.8,2.1-19.2c0.8-9.1,1.1-18.3,0.3-27.4c-0.2-2.2-0.2-4.5-0.3-6.7c-0.1-1.1-0.2-2.1-0.3-3.2
			c-0.1-0.6-0.2-1.2-0.2-1.7c0-1.5-0.5-3.1,0.2-4.3c0.6-1.2,2.3-1.2,3.5-1.8c1.1-0.6,2.3-1,3.5-1.6c2.4-1.3,5-1.6,7.6-1.9
			c0.9-0.1,1.1,0.1,1.1,1.2c-0.1,1.8-0.2,3.7-0.7,5.5c-0.6,2.7-0.8,5.6-1.8,8.2c-0.4,1.1-0.7,2.2-1.4,3.2c-1,1.6-1.5,3.4-1.5,5.3
			c0,1.7-0.1,3.3,0,5c0.2,4.5-0.6,8.9-0.5,13.4c0,1.8,0,3.5-0.1,5.3c-0.2,5.8-0.2,11.7-0.7,17.5c-0.1,0.9-0.1,1.8,0,2.6
			c0.4,3.6,0,7.2-0.4,10.8c-0.4,3.7,0.9,6.8,3.6,9.1c3,2.6,6.3,4.9,9.5,7.2c0.6,0.5,1.3,0.9,1.5,1.7c0.1,0.4,0,0.8-0.5,0.9
			c-1,0.2-2,0.1-2.9-0.3c-2.1-1-4.4-1.4-6.5-2.5c-1.8-0.9-3.8-1.2-5.9-1c-3.8,0.3-7.2,1.7-10,4.4c-1.5,1.4-3.4,2.2-5.2,3.2
			c-1.1,0.6-2.6,0.6-3.9,0.9c-0.8,0.2-1.5,0.4-2.3,0.4c-2.3,0.2-4.3,1.1-6,2.7c-0.7,0.7-1.7,1-2.7,0.9c-0.3,0-0.5-0.2-0.7-0.4
			c-0.3-0.2-0.1-0.6,0.1-0.8c0.3-0.4,0.6-0.8,1-1.1c2.2-1.7,4.6-3.3,7.4-4c2.2-0.5,4.1-1.8,6.2-2.6c0.6-0.2,0.7-0.9,0.6-1.5
			c-0.2-0.7-0.7-0.9-1.4-0.8c-0.8,0.1-1.5,0.3-2.2,0.7c-2.8,1.7-5.9,2-9.2,2.2c-2.7,0.1-5.4,0.7-8.1,1.2c-0.6,0.1-1.1,0.4-1.7,0.2
			c-0.3-0.1-0.6-0.2-0.7-0.4c-0.3-0.4,0-0.7,0.4-0.9c3.1-1.9,6.2-3.7,9.9-4c2.1-0.2,4.2-0.8,6.4-0.7c0.5,0,1-0.3,1.1-0.8
			c0.2-0.6-0.1-1.1-0.6-1.5c-0.6-0.5-1.3-0.5-1.9-0.5C313.7,505.7,312.1,505.7,310.4,505.7z M335,436.4c-0.2,0-0.4,0-0.6,0
			c-0.5,0.1-0.9,0.3-1.1,0.8c-0.2,0.5-0.1,1,0.3,1.3c1.8,2,3.6,2.2,5.7,0.7c0.5-0.4,0.8-0.9,0.6-1.5c-0.2-0.5-0.5-0.8-1-0.9
			C337.5,436.6,336.2,436.5,335,436.4z"/>
		<path class="st0" d="M391.5,432.2c-0.7-0.3-1.1-0.9-1.5-1.4c-1-1.1-1.7-2.1-0.8-3.8c1-1.8,0.8-4,0.7-6c-0.1-1.2,0.3-2,1.2-2.7
			c2.7-2,5.4-4.2,8-6.2c1.8,1.5,2.5,2.7,3.2,4.4c0.8,2.1,1.5,4.2,3.4,5.7c0.5,0.4,1,0.7,1.6,0.6c2.2-0.2,4.4-0.4,6-2.3
			c0.6-0.7,1.4-1.4,2.2-1.9c4.7-2.6,8.7-6.3,12.7-9.8c1.6-1.4,3.2-2.8,4.8-4.2c2-1.7,4-3.4,5.3-5.8c1.2-2.1,2-4.4,2.8-6.7
			c0.4-1.2,0.4-2.5,0.1-3.8c-1.1-4.1-0.9-8.3-1.6-12.4c-0.3-2.1,0.7-3.9,1.5-5.8c1.9,1.5,2,3.6,1.7,5.4c-0.3,2,0.4,3.1,1.8,4.2
			c1.5,1.2,3.3,1.7,4.9,2.4c0.5,0.2,1.2,0.1,1.7,0.1c2.5-0.2,5-0.6,7.4-1.7c1.2-0.6,2.3-1.4,3.3-2.4c0.5-0.5,0.9-1,1.5-1.7
			c1.9,1.9,2.6,4.2,2.6,6.8c0,1.5-0.7,2.1-2.2,2.1c-1.2,0-2.3-0.2-3.5-0.2c-3.8,0.3-7,2.1-10.1,4.3c-1,0.7-1.6,1.7-1.7,2.9
			c0,0.2,0.1,0.4,0.2,0.5c0.2,0.2,0.5,0.3,0.8,0.2c0.6-0.2,1-0.6,1.3-1.1c1.2-1.6,2.9-2.5,4.7-3.3c2.8-1.2,5.7-1.9,8.8-1.8
			c2.6,0.1,3.4-0.9,3.7-3.4c0.1-0.6,0.1-1.2,0.2-1.7c0.3-1.3-0.1-2.5-1.1-3.4c-0.9-0.8-1.4-1.9-1.7-3c-0.3-1.4-1.4-2.4-1.3-3.8
			c0-0.3,0-0.6,0.4-0.7c0.2,0,0.4,0,0.5,0.1c0.6,0.3,1,0.9,1.3,1.5c1.3,3.3,2.6,6.5,3.8,9.8c0.4,1.1,0.7,2.2,1,3.4
			c0.4,2-0.1,3.9-0.8,5.7c-0.2,0.6-0.7,0.9-1.2,1.2c-2.7,2.2-5.8,3.6-9.1,4.4c-2.2,0.6-4.4,0.8-6.5,1.7c-0.9,0.4-1.8,0.8-2.5,1.4
			c-2.7,2.4-5.5,4.7-7.5,7.8c-1.6,2.4-3.8,4.2-5.4,6.5c-1.1,1.7-2.5,3.2-3.6,4.9c-1.1,1.7-2.6,3.1-3.9,4.7c-0.4,0.4-0.9,0.8-1.2,1.3
			c-1.1,2-2.8,2.4-4.8,2.6c-3.1,0.3-6.2,0.9-9.2,1.3c-0.5,0.1-1,0-1.4,0.3c-1.2,0.7-2.3,0.5-3.5-0.2c-2.5-1.4-5.3-1.8-8-2.4
			c-1.1-0.2-2.2-0.1-3.1,0.5c-1.4,0.8-2.9,1.3-4,2.8C394.4,431.2,392.9,431.7,391.5,432.2z"/>
		<path class="st0" d="M377.2,354.2c-1.4-0.3-2.9-0.5-4.3-0.8c-0.9-0.2-1.3-1.1-1-2.1c0.9-3,3.7-4.5,6.7-4.5c0.4,0,0.8,0.1,1.1,0.2
			c1.9,0.3,1.9,0.3,1.6,2.2c-0.1,0.5-0.2,1-0.2,1.4c-0.1,0.8,0.2,1.8-0.7,2.4C379.5,353.7,378.5,354.3,377.2,354.2z"/>
		<path class="st0" d="M336.4,343.1c0.3-2.3,0.4-4.7,1-6.9c0.5-1.9,1.9-3.2,3.8-3.7c0.9-0.3,1.8-0.8,2.8-0.2
			c0.2,0.1,0.5,0.3,0.4,0.7c0,0.2-0.1,0.4-0.3,0.5c-0.1,0.1-0.3,0.2-0.5,0.2c-3.3,1-5,3.6-6.1,6.6c-0.7,1.9-0.4,4,0.5,6
			c0.5,1,1.8,1.9,3.1,0.8c1-0.8,2-1.1,3.2-1.1c0.5,0,0.9,0.2,1.3,0.5c1.4,0.9,1.5,1.6,0.2,2.6c-0.6,0.5-1.2,1-1.9,1.3
			c-0.7,0.3-1.5,0.5-2.1-0.3c-0.4-0.6-1-0.9-1.6-1.1c-0.6-0.2-1.2-0.6-1.8-1c-1.3-0.9-2.1-2-2-3.6c0-0.4,0-0.8,0-1.2
			C336.6,343.1,336.5,343.1,336.4,343.1z"/>
		<path class="st0" d="M473.1,386.2c-0.1-1.2-0.1-2.5-0.5-3.6c-0.7-1.7-0.1-2.9,0.7-4.3c0.4-0.7,0.7-1.4,1.2-2
			c1.3-1.6,1.1-3.1,0.2-4.8c-0.6-1.1-1.1-2.3-1.7-3.4c-0.6-1.1-0.6-2.2-0.1-3.4c0.1-0.3,0.2-0.6,0.6-0.5c0.2,0,0.4,0.2,0.4,0.3
			c0.5,3,2.2,5.6,3.1,8.4c0.3,0.9,0.3,1.6,0.1,2.5C476.4,379.2,475.2,382.7,473.1,386.2z"/>
		<path class="st0" d="M316.6,325.2c-0.6-0.3-0.8-0.8-0.9-1.4c-0.2-2,0.4-3.8,1-5.7c0.3-1,0.9-1.9,0.8-3.1c-0.1-0.5,0.3-1,0.7-1.2
			c3-1.5,6-3.2,9.6-2.3c0.3,1-0.5,1.6-0.8,2.6c-2.5-0.7-4.5,0.3-6.2,2c-2.2,2.3-3.9,4.8-4.1,8.1
			C316.8,324.6,316.6,324.9,316.6,325.2z"/>
		<path class="st0" d="M322.1,319c0.5,0.7-0.1,1.5,0,2.2c0.1,1.1,0,2.1,0.5,3.1c0.3,0.6,0.6,1.3,1.4,1.4c1.6,0.4,2.6,1.6,3.8,2.5
			c0.5,0.4,1,1,1.3,1.6c0.7,1.2,0.5,1.9-0.7,2.7c-0.6,0.4-1.2,0.7-1.8,1c-0.2,0.1-0.4,0-0.7,0c0-0.7,0-1.5-0.1-2.2
			c-0.2-1.6-0.9-2.7-2.4-3.4c-0.9-0.4-1.8-0.8-2.6-1.3c-1.1-0.6-1.5-1.5-1.3-2.7C319.8,322.1,320.4,320.3,322.1,319L322.1,319z"/>
		<path class="st0" d="M318.2,337.2c0-2.6,0-2.7-1.5-5.1c-0.5-0.8-1-1.6-1.6-2.4c-0.5-0.6-0.7-1.4-0.9-2.1c0-0.2,0.2-0.5,0.4-0.7
			c0.1-0.1,0.4,0,0.5,0.1c0.3,0.2,0.5,0.6,0.8,0.8c0.4,0.3,0.8,0.7,1.3,0.7c1.9,0.1,3.2,1.4,4.8,1.9c0.8,0.3,1.2,0.9,1.3,1.8
			c0,0.8-0.3,1.4-1,1.6c-0.4,0.1-0.8,0.1-1.1,0.2c-1.6,0.3-2.6,1.1-2.6,2.9C318.5,336.9,318.3,337,318.2,337.2z"/>
		<path class="st0" d="M317,363.3c0.1-0.8,0.7-1.1,1.1-1.7c0.4-0.5,0.9-1,1-1.7c0.1-0.5-0.1-1.3,0.7-1.4c0.7-0.1,1.4-0.8,2.2-0.2
			c0.2,0.2,0.5,0.2,0.8,0.2c0.6,0,1.2-0.6,1.1-1.1c-0.1-0.6-0.2-1.1-0.4-1.7c-0.2-0.9-0.3-1.7-0.1-2.6c0.2-0.9,0.6-1.6,1.7-1.8
			c-0.2,1.2-0.5,2.4-0.7,3.6c-0.2,1,0,1.9,0.4,2.8c0.3,0.7,0.8,1.1,1.6,0.9c0.4-0.1,0.5,0.2,0.5,0.3c-0.5,0.5-1.1,1.3-1.8,1.2
			c-0.8-0.1-1.6,0.6-2.4-0.4c-0.9-1-2-0.6-2.3,0.6c-0.2,0.7-0.2,1.3,0,2c0.1,0.4,0.9,0.7,0.3,1.2c-0.3,0.3-0.9,0.3-1.4,0.4
			C318.6,364.1,317.7,363.8,317,363.3z"/>
		<path class="st0" d="M338.6,358.9c-0.6-0.7-1-1.1-1.4-1.5c-0.3-0.3-0.5-0.6-0.2-1c0.7-1.2,0.4-2.6,0.5-4.1c1.9,0.4,3.6,1,5.4,1.1
			c0.1,1.1-1,1.7-0.9,2.7c0,0.2-0.3,0.5-0.6,0.6C340.3,357,339.5,357.8,338.6,358.9z"/>
		<path class="st0" d="M337.6,330.8c-1.1,1.4-1.8,2.5-2.7,3.6c-0.1,0.2-0.6,0.3-0.8,0.2c-0.2-0.1-0.4-0.4-0.4-0.7
			c-0.2-0.7-0.2-1.3,0.6-1.8c0.9-0.6,0.7-1.5,0.2-2.3c-0.4-0.6-0.9-1.2-1.3-1.9c-0.5-0.8-1-1.7-1.3-2.6c-0.4-0.9-0.4-1.9,0.2-2.8
			c0.1-0.1,0.2-0.2,0.2-0.2c0.2,0,0.3,0.1,0.5,0.2c0.1,0.1,0.1,0.2,0.1,0.3c0.2,2.5,1.4,4.6,2.6,6.7
			C335.9,330.4,336.4,330.8,337.6,330.8z"/>
		<path class="st0" d="M336.5,316.5c-1.4,0.4-2.5,0.9-3.2,2.2c-0.3,0.6-0.7,0.9-1.3,1c-2.2,0.5-3,2-3,4.1c0,0.6,0,1.1,0,1.7
			c-0.3,0-0.5,0-0.7-0.1c-2-1.2-2.2-2.2-1-4c1.2-1.7,2.5-3.2,4.7-3.8c1.1-0.3,2.2-0.8,3-1.7C335.5,315.4,335.9,316,336.5,316.5z"/>
		<path class="st0" d="M320.6,353.1c-0.6-1.5-0.6-2.9,1-3.8c0.4-0.2,0.5-0.8,0.3-1.3c-0.2-0.5-0.6-0.8-1.1-0.8
			c-0.6-0.1-1.1,0-1.6,0.4c-0.4,0.3-0.5,1.1-1.3,1c0.1-2,1.6-3.2,2.9-4.4c0.1-0.1,0.6,0,0.8,0.2c0.5,0.4,1,0.9,1.5,1.4
			c1.3,1.6,1.3,2.5-0.3,3.9C321.6,350.6,321.1,351.8,320.6,353.1z"/>
		<path class="st0" d="M349.9,323.7c-0.6,0.2-1-0.6-1.6-0.6c-0.6,0-1.2-0.1-1.7,0c-0.5,0-0.9,0-1.4-0.4c-0.7-0.6-1.5-0.8-2.4-1.1
			c-1.6-0.6-1.8-1.1-1.3-2.6c0.1-0.2,0.2-0.3,0.3-0.5c0.4-0.9,1.4-1.1,1.8-0.3c1,1.8,2.6,2.8,4.5,3.4
			C349.1,321.9,349.2,322.1,349.9,323.7z"/>
		<path class="st0" d="M381.3,312c0.4-3.9,0.4-4.1-1.4-6.7c0.3-0.1,0.6-0.2,0.8-0.2c1.6,0.6,3.2,0.8,4.6-0.6c0.1-0.1,0.4,0,0.5,0.2
			c0.1,0.1,0.2,0.4,0.1,0.5c-0.2,0.3-0.5,0.6-0.8,0.9c-1.1,0.9-1.8,2.1-1.8,3.5C383.5,311.2,382.5,311.5,381.3,312z"/>
		<path class="st0" d="M310.6,363.2c-1.2,0-1.6-0.9-1.1-1.8c0.4-0.7,1-1.1,1.7-1.5c1.5-0.6,3-1.3,4.5-1.9c0.3-0.1,0.6,0,0.7,0.2
			c0.1,0.2,0.3,0.6,0.2,0.8c-0.8,1.2-1.7,2.3-2.6,3.4C312.8,362.3,311.7,363.4,310.6,363.2z"/>
		<path class="st0" d="M326.5,341.9c-1.2-3.2-0.7-4.7,2-6.3c0.4-0.3,0.8-0.5,1.3-0.7c0.3-0.2,0.6-0.7,1-0.3c0.4,0.3,0.5,0.8,0.2,1.3
			c-0.3,0.5-0.6,1-0.9,1.5c-0.6,0.8-1.3,1.4-1.9,2.2C327.6,340.3,327.1,341.1,326.5,341.9z"/>
		<path class="st0" d="M346.6,313.3c0.9-0.1,1.9-0.3,2.5,0.8c0.4,0.8,1.3,1.1,1.9,1.7c0.1,0.8-0.7,1.1-1.1,1.5
			c-0.5,0.5-0.3,2-1.7,1.5c-1.8-0.7-2.6-2-2.2-3.6c0.1-0.5,0.4-0.9,0.6-1.3C346.9,313.7,346.8,313.5,346.6,313.3L346.6,313.3z"/>
		<path class="st0" d="M360.8,297.9c-0.2,1.4-0.6,2.6-2,3.3c-1.1,0.6-2,1.5-3,2.3c-0.4,0.3-0.7,0.9-1.4,0.9
			C355.1,300.5,356.6,298.9,360.8,297.9z"/>
		<path class="st0" d="M366,302.9c-1.5,0.6-3,1.3-4.4,1.9c-1.3,0.6-2.7,1.1-3.6,2.2c-0.2,0.2-0.5,0.2-0.8,0.2
			c-0.2,0-0.4-0.1-0.5-0.2c0,0,0-0.2,0-0.3c1.8-2.5,4-4.4,7.2-4.6C364.6,302.2,365.4,302.2,366,302.9z"/>
		<path class="st0" d="M348.4,304.9c-0.6,0.9-1.1,1.6-1.8,2c-0.4-0.1-0.4-0.3-0.5-0.6c-0.4-2-1-2.5-2.8-2.5c-1.3,0-2.5,0.5-3.6,1.1
			c-0.9,0.5-1.8,1-2.6,1.9c-0.5-0.6,0-0.9,0.3-1.3c0.6-1,1.6-1.3,2.6-1.8c1.8-0.9,3.6-0.3,5.5-0.4
			C346.5,303.3,347.4,304.1,348.4,304.9z"/>
		<path class="st0" d="M316.7,341.2c-2-0.6-2.9-2-3.2-3.8c-0.3-1.6-0.9-3.2-0.7-4.9c0-0.1,0.2-0.3,0.3-0.4c0.2,0,0.4,0,0.5,0.2
			c0.4,0.5,1,1.1,0.8,1.8c-0.4,2.1,0.9,3.5,1.7,5.1C316.4,339.7,317.1,340.1,316.7,341.2z"/>
		<path class="st0" d="M340.7,313.4c-0.3-0.4-0.6-0.8-0.9-1.1c-0.8-0.5-1.1-1.1-1.1-1.9c0-1,0.3-1.9,1.2-2.5c0.8-0.6,1.6-1,2.6-1.3
			c0.5-0.2,1.2,0,1.2,0.4c0.1,0.5-0.4,0.6-0.6,0.8c-1.7,1-2.3,2.5-2.1,4.4C340.9,312.6,341,313.1,340.7,313.4
			C340.6,313.5,340.7,313.4,340.7,313.4z"/>
		<path class="st0" d="M336,308.6c0,1.3,0,2.2,0,3.1c-0.4,0.4-1,0.3-1.4,0.3c-1.3,0-2,0.5-2,1.9c0,1.1-1,1-1.7,1.2
			c-0.3,0.1-0.8,0.3-1-0.1c-0.2-0.4,0.1-0.7,0.3-1.1c0.2-0.5,0.6-0.7,1-1c0.3-0.2,0.8-0.5,0.8-0.7c0.1-0.9,0.8-1.2,1.5-1.6
			C334.4,310.2,335.1,309.6,336,308.6z"/>
		<path class="st0" d="M335.5,321.6c-0.1-1.6,0.2-2.6,2.7-2.6c0.5,0,0.7,0.3,0.6,0.7c-0.1,0.4-0.2,0.7-0.4,1.1
			c-0.7,1.4-1.2,2.8-1.3,4.4c0,0.2,0,0.6-0.5,0.5c-0.3-0.1-0.4-0.3-0.5-0.6C335.7,324,335.4,322.8,335.5,321.6z"/>
		<path class="st0" d="M333.1,338c0.5,1.1,0,1.8,0,2.6c0,0.6-0.4,0.7-0.9,0.8c-1.2,0.2-1.3,0.4-1.4,1.5c-0.1,1.1-0.2,2.1-0.3,3.2
			c0,0.4-0.1,0.8-0.6,1c-1.3-1.4-1-3.1-0.5-4.6C330.1,340.7,331.7,339.5,333.1,338z"/>
		<path class="st0" d="M336.2,363c-1.2,0.1-1.9-0.2-2.6-0.6c-0.8-0.4-1.1-1.3-0.9-2.2c0.2-1,1-1,1.7-1.3c0.3-0.1,0.6,0,0.7,0.3
			c0.5,0.7,1.1,1.4,2,1.6c0.6,0.1,0.7,0.6,0.7,1.1c0,0.6-0.4,0.9-0.9,1C336.6,363,336.2,363,336.2,363z"/>
		<path class="st0" d="M479.1,371.9c-0.7-0.7-1.1-1.4-0.4-2.3c1.1-1.6,1.8-3.4,3.3-4.7c0.2-0.2,0.5-0.3,0.7-0.1
			c0.1,0.1,0.1,0.4,0.1,0.5c0,0.3-0.1,0.6-0.2,0.8C481.5,368.1,480.5,370.1,479.1,371.9z"/>
		<path class="st0" d="M323.8,336.1c-0.2,1.1-0.4,2-0.5,3c-0.1,0.9,0,1.9,0,3c-0.9-0.6-1.5-1.2-1.9-2c-0.5-1-0.5-2.2,0-3.1
			C321.7,336.2,322.8,336.2,323.8,336.1z"/>
		<path class="st0" d="M344.7,341.9c0-0.9,0.2-1.5,1-1.7c0.6-0.1,1.1-0.3,1.5-0.8c0.2-0.2,0.2-0.5,0.3-0.8c0.1,0.1,0.2,0.1,0.2,0.2
			c0.1,0.2,0.4,0.5,0.4,0.8c0,1.4-0.7,2.5-1.2,3.7c-0.2,0.5-1.7,0.1-1.9-0.5C344.8,342.5,344.8,342.1,344.7,341.9z"/>
		<path class="st0" d="M327.6,357.2c-0.8-2.7,0.1-4.8,1.2-7c0.2,0.7,0.3,1.3,0.5,1.8c0.3,0.7,0.6,1.4,0.8,2.2c0.1,0.2,0,0.4-0.1,0.6
			c0,0.1-0.1,0.2-0.1,0.2C329.2,355.6,328.5,356.3,327.6,357.2z"/>
		<path class="st0" d="M332.6,356.4c0.3-1.7,0.3-3.3-0.5-4.8c-0.1-0.2,0-0.6,0.1-0.8c0.2-0.1,0.5,0,0.8,0c1.4,0.5,1.8,1.6,1.9,2.9
			C334.9,355.2,334.4,355.8,332.6,356.4z"/>
		<path class="st0" d="M469.1,374.8c-0.2-1.5-0.3-2.2-0.5-3c-0.1-0.5,0-0.7,0.2-1c0.7-1,1.4-2,2.2-3.2
			C471.9,370.4,470.3,372.2,469.1,374.8z"/>
		<path class="st0" d="M363.6,299.6c-0.1-0.6,0.2-0.9,0.7-1.1c1-0.3,2.1,0.1,3.1-0.3c0.4-0.2,0.7,0.2,0.9,0.6
			c0.4,0.7,0.7,1.5,0.9,2.6c-0.7-0.1-1.2-0.7-1.7-0.9c-0.6-0.3-1.3-0.5-1.9-0.6C364.9,299.7,364.3,299.6,363.6,299.6z"/>
		<path class="st0" d="M348.5,333.7c0-0.5,0-0.8,0.1-1c0.1-0.2,0.3-0.4,0.6-0.6c0.1-0.1,0.4,0.1,0.5,0.2c1.1,1.4,1.8,2.9,1.6,4.8
			c0,0.2-0.2,0.4-0.3,0.4c-0.1,0.1-0.4,0.1-0.5,0c-0.6-0.8-1.3-1.7-1.9-2.6C348.4,334.5,348.5,334,348.5,333.7z"/>
		<path class="st0" d="M336.5,366.5c0,0.5,0,0.9,0,1.3c0,0.4,0,0.9-0.6,0.7c-0.7-0.3-1.3-0.2-2-0.3c-0.7,0-1.3-0.5-1.8-0.9
			c-0.3-0.3-0.7-0.8-0.4-1.3c0.2-0.3,0.7-0.4,1.1-0.2C334,366.2,335.2,366.4,336.5,366.5z"/>
		<path class="st0" d="M472.7,372.3c0.3,0.8,0.4,1.2,0.6,1.5c0.4,0.9,0.3,1.7-0.4,2.4c-0.5,0.6-1,1.2-1.5,1.8
			c-0.1,0.1-0.4,0.1-0.5,0.1c-0.1-0.1-0.3-0.3-0.3-0.4c0-0.5,0-1,0.1-1.4C471.3,375.1,471.9,373.9,472.7,372.3z"/>
		<path class="st0" d="M373.4,311c0.1-0.7,0.1-1,0.1-1.2c0.1-0.4,0.5-0.5,0.9-0.5c0.8,0.1,1.4,0.5,1.8,1.3c0.2,0.6,0.4,1.3,0.6,1.9
			c0.1,0.4-0.3,0.7-0.7,0.6c-0.5-0.2-1-0.5-1.6-0.7C373.6,312.1,373.4,311.5,373.4,311z"/>
		<path class="st0" d="M346.7,313.2c-0.5,0-0.9,0.1-1.4,0.1c-1-0.1-1.6-0.6-1.8-1.6c-0.2-0.9,0.4-1.5,1.3-1.4c0.3,0,0.6,0.1,0.9,0.1
			c1.2,0.2,1.4,0.6,1.1,1.8C346.7,312.6,346.4,312.9,346.7,313.2C346.6,313.3,346.7,313.2,346.7,313.2z"/>
		<path class="st0" d="M362.5,307.7c1.2-1.3,2.4-1.7,4-1c0.5,0.2,0.7,0.6,0.8,1.1c0.1,0.4-0.1,0.9-0.4,0.8
			C365.5,308.3,364.1,308,362.5,307.7z"/>
		<path class="st0" d="M379.8,319.5c-0.7,0.4-1.3,0.8-1.9,1.1c-0.3,0.1-0.6,0-0.7-0.3c-0.6-1.3-0.4-2,0.7-3
			C378.6,317.9,379.4,318.4,379.8,319.5z"/>
		<path class="st0" d="M353.8,321.9c-0.3,0-0.6,0-0.9-0.1c-0.6-0.1-0.8-0.4-1-0.9c-0.1-0.6-0.2-1.2,0.1-1.7c0.1-0.2,0.4-0.5,0.6-0.6
			c0.4-0.1,0.3,0.3,0.3,0.5c-0.1,1.1,0.3,1.6,1.5,1.6c0.3,0,0.8-0.1,0.8,0.5c-0.1,0.4-0.5,0.6-0.9,0.6
			C354.1,322,353.9,322,353.8,321.9C353.8,322,353.8,321.9,353.8,321.9z"/>
		<path class="st0" d="M318,355.2c-1.4-0.5-2.3-1.2-2.3-2.6c0-0.9,0.8-1.3,1.5-1.6C317.5,352.2,317.7,353.5,318,355.2z"/>
		<path class="st0" d="M312.5,345c-0.1,1.4,0.9,2.2,1.5,3.3c0.2,0.3,0.1,0.5-0.1,0.7c-0.1,0.1-0.4,0.2-0.5,0.1
			c-0.6-0.2-1.2-0.5-1.9-0.8c0.6-1.2,0.9-2.2,0.9-3.4c0,0,0.1,0.3,0.1,0.3L312.5,345z"/>
		<path class="st0" d="M374.7,304.8c-0.1,0-0.2,0-0.3,0c-1.9,0.7-3.3-0.3-4.7-1.5c-0.2-0.2-0.3-0.6-0.2-0.8c0.2-0.6,0.5-0.2,0.8,0
			c1.2,0.9,2.5,1.4,4,1.4C374,304.4,374,304.5,374.7,304.8z"/>
		<path class="st0" d="M344.1,356.3c0.8-0.2,1.5-0.3,2.2-0.5c0.4-0.1,0.8-0.1,0.8,0.5c0,0.4-0.1,0.8-0.5,1
			C345.6,357.8,345.1,357.6,344.1,356.3z"/>
		<path class="st0" d="M341.3,360.6c-0.5,0-0.9-0.1-1.1-0.4c-0.2-0.5,0-0.9,0.3-1.3c0.1-0.1,0.2-0.1,0.2-0.2
			c0.8-0.6,1.3-0.7,1.8-0.2c0.2,0.2,0.3,0.5,0.2,0.7C342.6,360.2,342,360.6,341.3,360.6z"/>
		<path class="st0" d="M312.3,344.2c-0.3-0.4-0.6-0.7-1-1.1c-1-1-1.3-2.1-0.7-3.5c1.7,1.1,1.7,2.9,1.9,4.6
			C312.5,343.9,312.4,343.9,312.3,344.2z"/>
		<path class="st0" d="M343.2,324.6c-0.3,0.5-0.4,0.8-0.5,1c-0.2,0.2-0.3,0.5-0.7,0.4c-0.2-0.1-0.4-0.1-0.5-0.2
			c-1.1-0.8-1.7-1.6-1.3-1.9c0.8-0.5,1.4,0.2,2.1,0.3C342.6,324.3,342.8,324.5,343.2,324.6z"/>
		<path class="st0" d="M308.2,350.6c-0.7,1-1.4,2-2.1,3c-0.1,0.1-0.4,0.1-0.5,0.1c-0.2,0-0.4-0.2-0.4-0.4c-0.1-0.3-0.1-0.6,0-0.8
			c0.4-1.4,1.4-2,3.2-2.1c0,0-0.2,0-0.2,0L308.2,350.6z"/>
		<path class="st0" d="M329.9,362.7c-0.2,0.8-0.7,1.2-1.4,1.3c-0.4,0.1-0.8,0.1-1-0.3c-0.3-0.4-0.2-1.2,0.1-1.6
			c0.3-0.3,0.7-0.3,1-0.1c0.2,0.1,0.3,0.2,0.5,0.3C329.4,362.4,329.6,362.6,329.9,362.7z"/>
		<path class="st0" d="M347.1,352c0,0.4,0.1,0.7,0.1,1.1c-0.1,1.2-1,1.6-2,0.9c-0.2-0.2-0.7-0.6-0.1-0.9
			C345.8,352.8,346.1,351.9,347.1,352z"/>
		<path class="st0" d="M342,337.8c1-1.2,2.3-1.5,3.8-1.6c-0.7,1-1,1.1-4,2c0,0,0.2-0.1,0.2-0.1L342,337.8z"/>
		<path class="st0" d="M333.6,345.4c0.4,1,0.8,1.9,1.2,3c-1.8-0.3-1.8-0.3-1.7-1.4C333.2,346.5,333.1,345.9,333.6,345.4z"/>
		<path class="st0" d="M340,343c-0.1-0.5,0-0.9,0.4-1c0.4-0.1,1-0.2,1.4,0c0.5,0.2,0.4,0.8,0.2,1.3c-0.2,0.6-0.9,0.8-1.4,0.8
			C339.9,344,340.1,343.3,340,343z"/>
		<path class="st0" d="M378.6,310.1c-0.8-0.3-0.8-1.3-1.5-1.7c-0.3-0.2-1.2-0.3-0.5-0.9c0.4-0.3,1-0.2,1.4,0.1
			C379,308.2,379,309.1,378.6,310.1z"/>
		<path class="st0" d="M306.9,319.2c-0.1,0.8-0.7,1.3-1.3,1.8c-0.1,0.1-0.4,0.2-0.5,0.2c-0.3-0.1-0.3-0.4-0.2-0.7
			c0.2-0.7,0.4-1.3,1-1.7c0.2-0.2,0.5-0.3,0.7-0.1C306.8,318.8,306.8,319,306.9,319.2z"/>
		<path class="st0" d="M348.2,326.7c0,0.3-0.1,0.5-0.4,0.6c-0.8,0.2-1.4,0.1-1.7-0.5c-0.3-0.6,0.3-0.8,0.7-1
			C347.4,325.5,348.1,326,348.2,326.7z"/>
		<path class="st0" d="M320.9,366.7c0,0.7-0.4,1-0.9,1.3c-0.5,0.3-1.4-0.2-1.4-0.8c0-0.3,0.1-0.6,0.5-0.6
			C319.7,366.6,320.3,366.4,320.9,366.7z"/>
		<path class="st0" d="M316.1,343.9c0.1,0.1,0.4,0.2,0.4,0.3c0.1,0.6-0.2,1-0.6,1.5c0,0-0.2-0.1-0.2-0.1
			C315.3,345.2,315.5,344.2,316.1,343.9z"/>
		<path class="st2" d="M374.7,304.8c-0.7-0.3-0.7-0.4-0.4-0.7c0.8-0.3,1.5-0.1,2.6,0C376.1,304.8,375.5,304.9,374.7,304.8z"/>
		<path class="st0" d="M350,346.5c0.2,0.1,0.3,0.2,0.4,0.4c0.2,0.3,0.6,0.5,0.3,0.9c-0.1,0.1-0.4,0.1-0.5,0.1
			c-0.6-0.1-0.7-0.6-0.6-1.1C349.7,346.5,349.8,346.4,350,346.5z"/>
		<path class="st0" d="M351.1,310.1c-0.2,0.4-0.9,0.7-1.1,0.4c-0.1-0.1-0.1-0.4-0.1-0.5c0.2-0.4,0.5-0.4,0.9-0.4
			C351.1,309.8,351.2,309.9,351.1,310.1z"/>
		<path class="st0" d="M370.7,309c0,0.2,0,0.4,0,0.5c-0.1,0.3-0.4,0.3-0.6,0.2c-0.1-0.1-0.3-0.3-0.3-0.4c0.1-0.4,0.2-0.7,0.4-1
			c0-0.1,0.1-0.1,0.2-0.2c0.2-0.1,0.3,0,0.3,0.3C370.6,308.6,370.7,308.8,370.7,309z"/>
		<path class="st2" d="M312.3,344.2c0.1-0.3,0.1-0.3,0.2,0c0,0.2,0,0.5,0,0.7c0,0-0.1,0.3-0.1,0.3s-0.1-0.3-0.1-0.3
			c-0.1-0.2-0.1-0.3-0.2-0.5C312.2,344.4,312.3,344.3,312.3,344.2z"/>
		<path class="st0" d="M339.9,328.1c-0.1,0.1-0.2,0.2-0.3,0.3c-0.3,0.1-0.5,0-0.6-0.3c0-0.1,0.1-0.2,0.2-0.2
			C339.5,327.7,339.6,327.9,339.9,328.1z"/>
		<path class="st0" d="M303.1,508.2c0.5-0.1,1.1-0.2,1.6-0.2c0.1,0,0.2,0.2,0.3,0.3c0,0-0.1,0.2-0.2,0.2c-0.4,0.1-0.9,0.2-1.3,0.3
			C303.4,508.6,303.3,508.4,303.1,508.2z"/>
		<path class="st2" d="M333.8,336.6c0.1-0.1,0.1-0.2,0.2-0.4C333.9,336.4,333.8,336.5,333.8,336.6
			C333.8,336.6,333.8,336.6,333.8,336.6z"/>
		<path class="st2" d="M342,337.8l0.1,0.2c0,0-0.2,0.1-0.2,0.1C341.9,338,341.7,337.8,342,337.8z"/>
		<path class="st2" d="M333.8,336.6c0,0.2-0.1,0.4-0.1,0.5c0,0.1-0.1,0.2-0.1,0.4c0-0.1-0.1-0.1-0.1-0.2c0-0.1,0-0.2,0.1-0.3
			C333.6,336.9,333.7,336.8,333.8,336.6C333.8,336.6,333.8,336.6,333.8,336.6z"/>
		<path class="st0" d="M433.5,425.8c-0.2,0-0.3-0.1-0.5-0.1C433.2,425.7,433.4,425.7,433.5,425.8
			C433.6,425.7,433.5,425.8,433.5,425.8z"/>
		<path class="st0" d="M340.6,313.5c0.4-0.4,0.7-0.1,0.6,0.3c-0.2,0.4-0.2-0.1-0.3-0.2C340.8,313.5,340.7,313.4,340.6,313.5
			C340.7,313.4,340.6,313.5,340.6,313.5z"/>
		<path class="st2" d="M308.2,350.6l-0.1-0.2c0,0,0.2,0,0.2,0C308.3,350.4,308.3,350.6,308.2,350.6L308.2,350.6z"/>
		<path class="st0" d="M379.6,325.6c-0.2,0.2-0.5,0.2-0.7,0c-0.3-0.3-0.1-0.7,0.2-0.9C379.2,325,379.4,325.3,379.6,325.6z"/>
		<path class="st0" d="M322.1,319.1c0.1-0.1,0.2-0.3,0.3-0.4c0,0.1,0.1,0.3,0.1,0.4C322.4,319.2,322.2,319.2,322.1,319.1
			C322.1,319,322.1,319.1,322.1,319.1z"/>
		<path class="st0" d="M398.5,148c1.1-1.1,2.5-1.7,4-2.1c3.6-0.8,7.3-1.3,10.9-1.8c7.3-0.8,14.6-0.8,21.9-0.4
			c4.9,0.2,9.7,0.6,14.6,1c0.7,0,1.4,0.1,2,0.1c3.7-0.3,7.1,0.8,10.7,1.3c0.8,0.1,1.4,0.6,1.7,1.4c1.9,4.8,0.9,6.1-2.6,8.3
			c-2.4,1.4-5,2-7.7,2.4c-6.8,1-13.6,0.9-20.4,0.7c-5.4-0.2-10.6-0.9-15.8-2.3c-4.1-1.2-8.3-2.3-12.2-4.1c-1.9-0.9-3.8-1.9-5.7-3
			C399.3,149.2,398.7,148.8,398.5,148z"/>
		<path class="st0" d="M520.8,256.1c-3.9,0.2-7.3-1.1-10-3.8c-2-2-3.7-4.2-5.3-6.5c-1.1-1.5-1.8-3.2-1.5-5.2c0.3-1.9,1.6-3,3.4-2.8
			c1.1,0.1,2.4,0.3,3.4,0.9c1.5,0.8,3.1,1.6,4.3,2.9c2.7,2.9,9.6,3.7,13.4,1.3c1.4-0.9,2.8-1.7,4.4-2.2c2-0.7,4-0.3,6,0
			c0.4,0.1,0.7,0.3,0.8,0.7c0.4,1.1,0.6,2.2,0.1,3.4c-1.3,2.5-2.9,4.6-5.3,6.1c-2.8,1.7-5.9,3-8.8,4.5
			C524.1,256.1,522.5,256.2,520.8,256.1z"/>
		<path class="st0" d="M426.7,235.1c0,0.6-0.2,0.9-0.5,1.1c-0.7,0.6-1.5,1.3-2.2,1.9c-4.4,3.2-8.8,6.4-13.3,9.6
			c-1.3,0.9-2.9,1.6-4.4,2.3c-2,0.9-4,0.6-6,0.1c-0.8-0.2-1.3-0.8-1.7-1.5c-0.4-0.9-0.8-1.8-0.9-2.7c-0.4-2.8-0.3-5.6,1-8.3
			c0.9-1.8,2.6-2.8,4.3-3.8c4.9-2.9,10.2-3,15.5-1.6c1.5,0.4,3,0.9,4.4,1.4C424.2,234,425.5,234.5,426.7,235.1z"/>
		<path class="st0" d="M545,220.1c-3.5,0.1-6.5,1.6-9,4.4c-0.2,0.2-0.3,0.5-0.5,0.7c-1.2,1.4-2.7,1.4-3.8-0.1
			c-0.5-0.7-0.4-1.5-0.1-2.2c0.3-0.6,0.7-1.2,1.2-1.6c1.7-1.5,3.4-2.8,5.3-4c1.7-1,3.5-1.6,5.4-2c2.3-0.5,4,0.3,5.4,2
			c0.5,0.6,0.6,1.2,0.2,1.9c-0.7,1.1-1.1,1.4-2,1.3c-0.5-0.1-0.9-0.2-1.4-0.3C545.6,220.1,545.4,220.1,545,220.1z"/>
		<path class="st0" d="M507.4,210.8c3.7,0.5,6.9,1.9,9.3,4.8c0.9,1.1,1.7,2.3,2.5,3.6c0.9,1.4,0.9,2.9,0.3,4.5
			c-0.2,0.5-0.6,1-1.1,1.3c-0.5,0.2-1.4,0-1.4-0.6c-0.3-3.4-2.9-5.2-5.3-6.9c-2.1-1.5-4.5-2.6-7.3-2.5c-1.1,0-1.5-0.8-0.9-1.8
			C504.3,211.8,505.3,210.5,507.4,210.8z"/>
		<path class="st0" d="M579.7,246.7c1.6-0.1,2.6,0.1,3.7,0.3c8.1,2.1,11.2,9.5,11.2,15.2c0,2.4-1.9,4.5-3.9,5.3
			c-0.5,0.2-1,0.2-1.4-0.2c-1.3-1.1-2.7-2.3-3.6-3.8c-0.9-1.4-1.9-2.7-3.5-3.3c-0.3-0.1-0.5-0.3-0.7-0.5c-1.4-1.8-3.2-1.6-5.1-1.2
			c-1.8,0.4-3.6,1-5.1,2c-0.6,0.4-1.3,0.8-2,1.2c-0.4,0.3-0.8,0.5-1.3,0.7c-1.8,0.6-3.7,0.7-4.9-0.6c-1.2-1.2-1.1-3.2-0.2-4.7
			c2.4-4,5.3-7.5,10-8.9C575.2,247.5,577.6,246.4,579.7,246.7z"/>
		<path class="st0" d="M595.2,229.1c2-0.3,3.8,0.6,5.4,2c2.1,1.8,4.1,3.8,5.5,6.3c1.6,2.9,1.4,4.9-0.8,7.4c-0.6,0.7-1.4,1-2.3,1
			c-1.3,0.1-2.5-1.2-2.1-2.4c0.6-1.7,0.7-3.4,0.1-5.1c-0.3-0.9-0.8-1.8-1.5-2.4c-1.9-1.6-3.8-3.1-6.3-3.4c-0.3,0-0.6,0-0.9-0.2
			c-0.5-0.2-0.8-0.7-0.6-1.2c0.5-1.5,0.9-2.2,2.4-2C594.4,229.1,594.7,229.1,595.2,229.1z"/>
		<path class="st1" d="M475.1,530.1c-0.6,0-1.2-0.1-1.7-0.1c-0.7-0.1-1.3-0.7-1-1.1c0.3-0.5,0.9-0.3,1.3-0.2
			c2.1,0.4,3.7-0.3,5.3-1.7c2.2-2,4.5-3.9,6.9-5.8c1.3-1,2.3-2.4,3.5-3.4c1-0.9,1.6-1.6,0.8-2.9c-0.1-0.1,0.1-0.4,0.2-0.5
			c0.1-0.1,0.4-0.1,0.5-0.1c1.1,0.5,1.5,1.3,1.2,2.3c-0.3,0.9-0.9,1.5-1.5,2.1c-1.5,1.5-2.9,3.1-4.4,4.6c-0.6,0.6-1.2,1.2-1.9,1.8
			c-1.3,1.1-2.7,2.2-4.1,3.3C478.7,529.5,477.1,530.4,475.1,530.1z"/>
		<path class="st1" d="M445.9,495.3c-0.1,0.4-0.4,0.6-0.7,0.5c-0.6-0.1-1.1-0.4-1.5-0.8c-2.9-3.1-5.6-6.4-7.5-10.2
			c-0.2-0.3-0.3-0.7-0.3-1.1c0-0.3,0.1-0.6,0.5-0.6c0.2,0,0.4,0,0.5,0.1c0.3,0.4,0.5,0.8,0.7,1.3c2.1,3.9,4.7,7.3,7.9,10.2
			C445.7,494.9,445.8,495.1,445.9,495.3z"/>
		<path class="st1" d="M434.9,501.5c-0.1,0.2-0.2,0.4-0.3,0.5c-0.1,0.1-0.4,0-0.5-0.1c-0.6-0.8-1.2-1.5-1.7-2.3
			c-1.7-2.7-3.5-5.3-5.5-7.8c-0.4-0.5-0.6-1-0.9-1.5c-0.2-0.3-0.3-0.8,0.1-1c0.4-0.3,0.7-0.1,1,0.2c0.1,0.1,0.1,0.1,0.2,0.2
			c2.2,3.3,4.5,6.5,6.7,9.8C434.4,500.1,434.9,500.7,434.9,501.5z"/>
		<path class="st1" d="M440.6,496.1c0,0.2-0.4,0.6-0.6,0.5c-0.6-0.1-1-0.6-1.3-1c-1.2-1.8-2.5-3.7-3.7-5.6c-0.7-1.1-1.5-2.3-2.2-3.4
			c-0.2-0.3-0.3-0.7-0.3-1.1c0-0.1,0.1-0.4,0.3-0.5c0.1-0.1,0.4-0.1,0.5,0c0.2,0.1,0.3,0.2,0.4,0.4c2.2,3.4,4.3,6.9,6.7,10.1
			C440.5,495.7,440.5,495.9,440.6,496.1z"/>
		<path class="st1" d="M430,486.8c0.3-0.1,0.6,0.1,0.8,0.3c0.6,1,1.1,2.1,1.7,3c1.1,1.8,2.3,3.6,3.5,5.3c0.3,0.4,0.5,0.8,0.7,1.3
			c0.1,0.2,0,0.6-0.1,0.8c-0.4,0.4-0.7,0.1-0.9-0.2c-2.1-2.9-4-5.9-5.8-9c-0.2-0.3-0.2-0.7-0.2-1.1
			C429.6,487.1,429.9,486.9,430,486.8z"/>
		<path class="st1" d="M371.2,330.2c0,1.3-0.2,2.8-1.6,3.4c-1.3,0.6-2.4-0.3-3.4-1c-2.9-2.1-3.3-5-1.4-8.1c0.3-0.5,0.7-0.7,1.2-0.7
			c0.7,0,1.4,0,2,0.4C369.7,325.4,371.5,327,371.2,330.2z"/>
		<path class="st1" d="M364.5,317.9c1.6,0,2.8,1.9,2,3.3c-0.2,0.3-0.6,0.6-0.9,0.6c-2.8,0.1-3.5,2.3-4.3,4.4c-0.2,0.4-0.1,1-0.3,1.4
			c-0.2,0.6-0.7,0.9-1.3,0.9c-0.7-0.1-1.1-0.5-1.2-1.1c-0.1-1.1-0.2-2.4,0.1-3.4c0.6-1.6,1.3-3.2,2.5-4.5
			C362.1,318.4,363.2,317.9,364.5,317.9z"/>
		<path class="st1" d="M335,436.4c1.2,0.1,2.5,0.2,3.7,0.4c0.5,0.1,0.9,0.4,1,0.9c0.2,0.6-0.1,1.1-0.6,1.5c-2,1.5-3.9,1.3-5.7-0.7
			c-0.4-0.4-0.5-0.8-0.3-1.3c0.2-0.5,0.6-0.7,1.1-0.8C334.6,436.3,334.8,436.4,335,436.4z"/>
	</g>
</g>
<g id="Layer_2_1_">
	<g>
		<rect x="122" y="563" class="st3" width="565" height="233"/>
		<path d="M164.1,607.8c-3.2-1.8-5.4-4.1-6.6-6.9c-0.2-0.5-0.3-0.9-0.3-1.2c0-0.6,0.2-1.1,0.7-1.6c0.4-0.5,1-0.8,1.8-0.9
			c0.1,0,0.3-0.1,0.6-0.1c0.6,0,1.2,0.2,1.8,0.6c0.6,0.4,1,0.9,1.3,1.5c0.7,1.6,2.1,2.9,4.3,4c2.1,1.1,4.5,1.6,7,1.6
			c3,0,5.5-0.7,7.6-2.1c2.1-1.4,3.1-3.3,3.1-5.7c0-2.3-0.9-4.2-2.6-5.8c-1.8-1.6-4.4-2.6-8-3c-5-0.5-8.9-1.9-11.7-4.4
			c-2.8-2.4-4.3-5.4-4.3-9.1c0-2.6,0.7-4.8,2.2-6.6c1.5-1.9,3.5-3.3,6-4.3s5.4-1.5,8.6-1.5c3.4,0,6.3,0.7,8.7,2.1
			c2.4,1.4,4.4,3.4,6,6c0.5,0.8,0.7,1.5,0.7,2.2c0,0.9-0.4,1.6-1.2,2.2c-0.4,0.3-1,0.4-1.6,0.4s-1.2-0.2-1.7-0.5s-0.9-0.7-1.2-1.2
			c-1.1-1.8-2.4-3.2-4-4.1c-1.6-0.9-3.7-1.4-6.2-1.4c-3,0-5.5,0.6-7.4,1.8s-2.8,2.9-2.8,5.1c0,2.1,0.8,3.8,2.5,5.2s4.7,2.3,9,2.8
			c4.8,0.5,8.5,1.9,11.2,4.3c2.6,2.4,4,5.6,4,9.6c0,2.9-0.8,5.4-2.3,7.4c-1.6,2.1-3.6,3.6-6.2,4.6c-2.6,1-5.4,1.5-8.3,1.5
			C170.8,610.5,167.3,609.6,164.1,607.8z"/>
		<path d="M211.9,607.3c-3.5-2.1-6.3-5-8.4-8.7c-2-3.7-3.1-7.7-3.1-12.2c0-4.4,1-8.4,3.1-12.1s4.8-6.6,8.4-8.7
			c3.5-2.1,7.4-3.2,11.7-3.2c3,0,5.7,0.4,7.9,1.2s4.5,2.1,6.8,4c0.5,0.4,0.8,0.7,1,1.1c0.2,0.4,0.2,0.8,0.2,1.4c0,0.8-0.3,1.5-0.9,2
			c-0.6,0.5-1.3,0.8-2,0.8c-0.8,0-1.5-0.3-2.1-0.8c-1.6-1.4-3.2-2.4-4.8-3s-3.6-0.9-6.1-0.9c-3.1,0-6,0.8-8.6,2.5
			c-2.6,1.6-4.7,3.9-6.2,6.7s-2.3,5.9-2.3,9.2c0,3.4,0.8,6.4,2.3,9.2s3.6,5,6.2,6.7c2.6,1.6,5.5,2.5,8.6,2.5c3.8,0,7.5-1.3,11-4
			c0.7-0.5,1.3-0.7,2-0.7c0.8,0,1.4,0.3,1.9,0.8s0.8,1.3,0.8,2.1s-0.3,1.6-1,2.2c-4.3,3.5-9.2,5.2-14.7,5.2
			C219.4,610.5,215.4,609.4,211.9,607.3z"/>
		<path d="M286.2,606.8c0,0.8-0.3,1.6-0.9,2.2c-0.6,0.6-1.3,0.9-2.2,0.9c-0.6,0-1.2-0.2-1.7-0.5s-0.9-0.8-1.2-1.4l-3.4-8.4h-21.5
			l-3.4,8.4c-0.3,0.6-0.7,1.1-1.2,1.4c-0.5,0.3-1.1,0.5-1.7,0.5c-0.9,0-1.6-0.3-2.2-0.9c-0.6-0.6-0.9-1.4-0.9-2.2
			c0-0.4,0.1-0.9,0.3-1.4l16.9-40.3c0.6-1.4,1.6-2.1,2.9-2.1c1.4,0,2.4,0.7,2.9,2.1l16.9,40.4C286.1,606,286.2,606.4,286.2,606.8z
			 M257.4,594.4h17.3l-8.6-21.4L257.4,594.4z"/>
		<path d="M325.6,607c0,0.8-0.3,1.5-0.8,2s-1.3,0.8-2.2,0.8c-1.2,0-2.1-0.5-2.7-1.5l-10.3-16.6h-1.1h-7.7v14.9
			c0,0.9-0.3,1.6-0.9,2.2c-0.6,0.6-1.3,0.9-2.3,0.9c-0.9,0-1.6-0.3-2.2-0.9c-0.6-0.6-0.9-1.3-0.9-2.2V566c0-0.9,0.3-1.7,0.9-2.3
			s1.3-0.9,2.2-0.9h10.8c3,0,5.6,0.6,8,1.9c2.3,1.2,4.2,3,5.5,5.2s1.9,4.8,1.9,7.7c0,2.8-0.7,5.4-2.2,7.6c-1.4,2.2-3.4,3.9-5.9,5
			l9.2,14.8C325.4,605.7,325.6,606.4,325.6,607z M308.5,586c2.7,0,5-0.8,6.7-2.3c1.8-1.5,2.6-3.5,2.6-6c0-2.6-0.9-4.8-2.6-6.5
			c-1.8-1.7-4-2.5-6.7-2.5h-7.7V586H308.5z"/>
		<path d="M334.9,609c-0.6-0.6-0.9-1.3-0.9-2.2v-40.6c0-0.9,0.3-1.6,0.9-2.2s1.3-0.9,2.2-0.9c0.9,0,1.6,0.3,2.2,0.9
			c0.6,0.6,0.9,1.3,0.9,2.2v37.5h21.7c0.9,0,1.6,0.3,2.2,0.9c0.6,0.6,0.9,1.3,0.9,2.2s-0.3,1.6-0.9,2.2c-0.6,0.6-1.3,0.9-2.2,0.9
			h-24.8C336.2,609.9,335.5,609.6,334.9,609z"/>
		<path d="M375,609c-0.6-0.6-0.9-1.3-0.9-2.2v-40.6c0-0.9,0.3-1.7,0.9-2.3s1.3-0.9,2.2-0.9h27.1c0.9,0,1.7,0.3,2.2,0.8
			c0.6,0.5,0.8,1.3,0.8,2.1s-0.3,1.5-0.8,2c-0.6,0.5-1.3,0.8-2.2,0.8h-24v14.6h17.2c0.9,0,1.6,0.3,2.2,0.8s0.9,1.2,0.9,2.1
			c0,0.8-0.3,1.5-0.9,2.1s-1.3,0.8-2.2,0.8h-17.2v15h24c0.9,0,1.7,0.3,2.2,0.8c0.6,0.5,0.8,1.2,0.8,2c0,0.9-0.3,1.6-0.8,2.1
			c-0.6,0.5-1.3,0.8-2.2,0.8h-27.1C376.3,609.9,375.6,609.6,375,609z"/>
		<path d="M449.6,563.8c0.5,0.5,0.8,1.2,0.8,2.1c0,0.8-0.3,1.5-0.8,2.1s-1.2,0.8-2.1,0.8h-12.9v38c0,0.9-0.3,1.6-0.9,2.2
			c-0.6,0.6-1.3,0.9-2.2,0.9c-0.9,0-1.6-0.3-2.2-0.9c-0.6-0.6-0.9-1.3-0.9-2.2v-38h-13c-0.8,0-1.5-0.3-2.1-0.8s-0.8-1.2-0.8-2.1
			c0-0.8,0.3-1.5,0.8-2.1s1.2-0.8,2.1-0.8h32.1C448.4,563,449.1,563.3,449.6,563.8z"/>
		<path d="M482.3,607.8c-3.2-1.8-5.4-4.1-6.6-6.9c-0.2-0.5-0.3-0.9-0.3-1.2c0-0.6,0.2-1.1,0.7-1.6c0.4-0.5,1-0.8,1.8-0.9
			c0.1,0,0.3-0.1,0.6-0.1c0.6,0,1.2,0.2,1.8,0.6c0.6,0.4,1,0.9,1.3,1.5c0.7,1.6,2.1,2.9,4.3,4c2.1,1.1,4.5,1.6,7,1.6
			c3,0,5.5-0.7,7.6-2.1c2.1-1.4,3.1-3.3,3.1-5.7c0-2.3-0.9-4.2-2.6-5.8c-1.8-1.6-4.4-2.6-8-3c-5-0.5-8.9-1.9-11.7-4.4
			c-2.8-2.4-4.3-5.4-4.3-9.1c0-2.6,0.7-4.8,2.2-6.6c1.5-1.9,3.5-3.3,6-4.3s5.4-1.5,8.5-1.5c3.4,0,6.3,0.7,8.7,2.1
			c2.4,1.4,4.4,3.4,6,6c0.5,0.8,0.7,1.5,0.7,2.2c0,0.9-0.4,1.6-1.2,2.2c-0.4,0.3-1,0.4-1.6,0.4s-1.2-0.2-1.7-0.5s-0.9-0.7-1.2-1.2
			c-1.1-1.8-2.4-3.2-4-4.1s-3.7-1.4-6.2-1.4c-3,0-5.5,0.6-7.4,1.8s-2.8,2.9-2.8,5.1c0,2.1,0.8,3.8,2.5,5.2s4.7,2.3,9,2.8
			c4.8,0.5,8.5,1.9,11.2,4.3c2.6,2.4,4,5.6,4,9.6c0,2.9-0.8,5.4-2.3,7.4c-1.6,2.1-3.6,3.6-6.2,4.6s-5.4,1.5-8.3,1.5
			C489,610.5,485.5,609.6,482.3,607.8z"/>
		<path d="M528,607.4c-3.6-2-6.4-4.9-8.4-8.5s-3-7.8-3-12.5c0-4.6,1-8.8,3-12.4c2-3.6,4.8-6.5,8.4-8.5s7.8-3.1,12.4-3.1
			c4.6,0,8.7,1,12.3,3.1c3.6,2,6.4,4.9,8.5,8.5c2,3.6,3,7.8,3,12.4c0,4.6-1,8.8-3,12.5s-4.8,6.5-8.4,8.5c-3.6,2-7.7,3.1-12.4,3.1
			C535.7,610.5,531.6,609.4,528,607.4z M549.5,602.4c2.7-1.6,4.8-3.8,6.4-6.6c1.5-2.8,2.3-5.9,2.3-9.4c0-3.4-0.8-6.6-2.3-9.4
			c-1.5-2.8-3.6-5-6.3-6.6s-5.8-2.4-9.2-2.4s-6.5,0.8-9.2,2.4c-2.7,1.6-4.8,3.8-6.3,6.6s-2.3,5.9-2.3,9.4c0,3.4,0.8,6.6,2.3,9.4
			c1.5,2.8,3.6,5,6.4,6.6c2.7,1.6,5.8,2.4,9.2,2.4C543.8,604.8,546.8,604,549.5,602.4z"/>
		<path d="M582.3,607.3c-3.5-2.1-6.3-5-8.4-8.7c-2-3.7-3.1-7.7-3.1-12.2c0-4.4,1-8.4,3.1-12.1s4.8-6.6,8.4-8.7
			c3.5-2.1,7.5-3.2,11.7-3.2c3,0,5.7,0.4,7.9,1.2s4.5,2.1,6.8,4c0.5,0.4,0.8,0.7,1,1.1c0.2,0.4,0.2,0.8,0.2,1.4c0,0.8-0.3,1.5-0.9,2
			c-0.6,0.5-1.3,0.8-2,0.8c-0.8,0-1.5-0.3-2.1-0.8c-1.6-1.4-3.2-2.4-4.8-3s-3.6-0.9-6.1-0.9c-3.1,0-6,0.8-8.6,2.5
			c-2.6,1.6-4.7,3.9-6.2,6.7s-2.3,5.9-2.3,9.2c0,3.4,0.8,6.4,2.3,9.2s3.6,5,6.2,6.7c2.6,1.6,5.5,2.5,8.6,2.5c3.8,0,7.5-1.3,11-4
			c0.7-0.5,1.3-0.7,2-0.7c0.8,0,1.4,0.3,1.9,0.8s0.8,1.3,0.8,2.1s-0.3,1.6-1,2.2c-4.3,3.5-9.2,5.2-14.7,5.2
			C589.7,610.5,585.8,609.4,582.3,607.3z"/>
		<path d="M622.1,609c-0.6-0.6-0.9-1.3-0.9-2.2v-40.6c0-0.9,0.3-1.6,0.9-2.2s1.4-0.9,2.2-0.9c0.9,0,1.6,0.3,2.2,0.9
			c0.6,0.6,0.9,1.3,0.9,2.2v18l19.9-19.9c0.5-0.5,0.9-0.8,1.3-1s0.8-0.3,1.3-0.3c0.8,0,1.5,0.3,2,0.8s0.7,1.1,0.7,1.8
			c0,1-0.4,1.9-1.1,2.7l-15.3,15.4l15.6,21.2c0.4,0.6,0.6,1.2,0.6,1.9c0,0.8-0.3,1.5-0.8,2.1s-1.2,0.9-2,0.9c-1.1,0-2-0.4-2.6-1.3
			L631.7,588l-4.3,4.3v14.5c0,0.9-0.3,1.6-0.9,2.2c-0.6,0.6-1.3,0.9-2.2,0.9C623.5,609.9,622.7,609.6,622.1,609z"/>
		<path d="M206.2,673.8c-0.5-0.5-0.8-1.2-0.8-2v-36.6c0-0.8,0.3-1.5,0.8-2s1.2-0.8,2-0.8h24.4c0.8,0,1.5,0.2,2,0.7s0.8,1.1,0.8,1.9
			c0,0.8-0.3,1.4-0.8,1.8c-0.5,0.5-1.2,0.7-2,0.7H211v13.1h15.5c0.8,0,1.4,0.2,2,0.7c0.5,0.5,0.8,1.1,0.8,1.9c0,0.8-0.3,1.4-0.8,1.9
			s-1.2,0.7-2,0.7H211v15.9c0,0.8-0.3,1.5-0.8,2s-1.2,0.8-2,0.8C207.4,674.7,206.7,674.4,206.2,673.8z"/>
		<path d="M251.6,672.4c-3.3-1.8-5.8-4.4-7.6-7.7s-2.7-7-2.7-11.2s0.9-7.9,2.7-11.2s4.3-5.8,7.6-7.7c3.3-1.8,7-2.8,11.2-2.8
			c4.1,0,7.8,0.9,11.1,2.8c3.3,1.8,5.8,4.4,7.6,7.7c1.8,3.3,2.7,7,2.7,11.2s-0.9,7.9-2.7,11.2c-1.8,3.3-4.3,5.9-7.6,7.7
			c-3.2,1.8-6.9,2.8-11.1,2.8S254.9,674.3,251.6,672.4z M271,667.9c2.4-1.5,4.4-3.4,5.7-6c1.4-2.5,2.1-5.3,2.1-8.4
			c0-3.1-0.7-5.9-2.1-8.4s-3.3-4.5-5.7-5.9c-2.4-1.4-5.2-2.2-8.3-2.2c-3.1,0-5.9,0.7-8.3,2.2s-4.3,3.4-5.7,5.9s-2.1,5.3-2.1,8.4
			c0,3.1,0.7,5.9,2.1,8.4c1.4,2.5,3.3,4.5,5.7,6c2.4,1.5,5.2,2.2,8.3,2.2C265.8,670.1,268.6,669.4,271,667.9z"/>
		<path d="M302.3,673.6c-2.7-1.3-4.8-3.1-6.3-5.3c-1.5-2.3-2.2-4.9-2.2-7.8v-25.2c0-0.8,0.3-1.5,0.8-2s1.2-0.8,2-0.8s1.5,0.3,2,0.8
			s0.8,1.2,0.8,2v25.2c0,1.9,0.5,3.6,1.5,5.1s2.4,2.7,4.3,3.5c1.8,0.8,3.9,1.3,6.2,1.3c2.2,0,4.2-0.4,6-1.3c1.8-0.8,3.1-2,4.1-3.5
			s1.5-3.2,1.5-5.1v-25.2c0-0.8,0.3-1.5,0.8-2s1.2-0.8,2-0.8s1.4,0.3,2,0.8c0.5,0.5,0.8,1.2,0.8,2v25.2c0,2.9-0.7,5.5-2.2,7.7
			c-1.5,2.3-3.5,4.1-6.1,5.3c-2.6,1.3-5.6,1.9-8.9,1.9C308,675.5,305,674.9,302.3,673.6z"/>
		<path d="M340.9,673.9c-0.5-0.5-0.8-1.2-0.8-2v-36.6c0-0.8,0.3-1.5,0.8-2s1.2-0.8,2-0.8c0.4,0,0.8,0.1,1.2,0.3
			c0.4,0.2,0.7,0.4,1,0.7l23.5,31.3v-29.5c0-0.8,0.3-1.5,0.8-2s1.2-0.8,2-0.8s1.4,0.3,2,0.8c0.5,0.5,0.8,1.2,0.8,2v36.6
			c0,0.8-0.3,1.5-0.8,2s-1.2,0.8-2,0.8c-0.4,0-0.8-0.1-1.2-0.2c-0.4-0.2-0.7-0.4-0.9-0.7l-23.5-31.3V672c0,0.8-0.3,1.5-0.8,2
			s-1.2,0.8-2,0.8C342.1,674.7,341.5,674.4,340.9,673.9z"/>
		<path d="M386.5,673.8c-0.5-0.5-0.8-1.2-0.8-2v-36.6c0-0.8,0.3-1.5,0.8-2s1.2-0.8,2-0.8h9.8c4.1,0,7.7,0.9,10.9,2.7
			s5.6,4.3,7.4,7.5s2.6,6.8,2.6,10.9c0,4.1-0.9,7.7-2.6,10.9c-1.8,3.2-4.2,5.7-7.4,7.5c-3.2,1.8-6.8,2.7-10.9,2.7h-9.8
			C387.8,674.7,387.1,674.4,386.5,673.8z M398.3,669.7c3,0,5.7-0.7,8-2.1c2.4-1.4,4.2-3.3,5.5-5.8s2-5.2,2-8.3s-0.7-5.9-2-8.3
			c-1.3-2.4-3.2-4.4-5.5-5.7c-2.4-1.4-5-2.1-8-2.1h-7v32.2L398.3,669.7L398.3,669.7z"/>
		<path d="M459.5,671.9c0,0.8-0.3,1.4-0.8,1.9s-1.2,0.8-2,0.8c-0.5,0-1.1-0.2-1.5-0.5c-0.5-0.3-0.8-0.7-1.1-1.3l-3-7.6h-19.4
			l-3.1,7.6c-0.3,0.5-0.6,1-1.1,1.3s-1,0.5-1.5,0.5c-0.8,0-1.4-0.3-2-0.8c-0.5-0.6-0.8-1.2-0.8-2c0-0.4,0.1-0.8,0.3-1.2l15.2-36.2
			c0.5-1.3,1.4-1.9,2.6-1.9c1.3,0,2.2,0.6,2.6,1.9l15.2,36.3C459.4,671.2,459.5,671.6,459.5,671.9z M433.6,660.7h15.6l-7.7-19.2
			L433.6,660.7z"/>
		<path d="M490.8,633.2c0.5,0.5,0.7,1.1,0.7,1.9s-0.2,1.4-0.7,1.9s-1.1,0.7-1.9,0.7h-11.6v34.2c0,0.8-0.3,1.5-0.8,2s-1.2,0.8-2,0.8
			s-1.5-0.3-2-0.8s-0.8-1.2-0.8-2v-34.2H460c-0.8,0-1.4-0.2-1.9-0.7s-0.7-1.1-0.7-1.9s0.2-1.4,0.7-1.9s1.1-0.7,1.9-0.7h29
			C489.7,632.5,490.4,632.7,490.8,633.2z"/>
		<path d="M499.3,673.8c-0.5-0.5-0.8-1.2-0.8-2v-36.6c0-0.8,0.3-1.5,0.8-2s1.2-0.8,2-0.8s1.5,0.3,2,0.8s0.8,1.2,0.8,2v36.6
			c0,0.8-0.3,1.5-0.8,2s-1.2,0.8-2,0.8C500.6,674.7,499.9,674.4,499.3,673.8z"/>
		<path d="M524.1,672.4c-3.3-1.8-5.8-4.4-7.6-7.7s-2.7-7-2.7-11.2s0.9-7.9,2.7-11.2s4.3-5.8,7.6-7.7c3.3-1.8,7-2.8,11.2-2.8
			c4.1,0,7.8,0.9,11.1,2.8c3.3,1.8,5.8,4.4,7.6,7.7s2.7,7,2.7,11.2s-0.9,7.9-2.7,11.2s-4.3,5.9-7.6,7.7c-3.2,1.8-6.9,2.8-11.1,2.8
			S527.3,674.3,524.1,672.4z M543.5,667.9c2.4-1.5,4.4-3.4,5.7-6c1.4-2.5,2.1-5.3,2.1-8.4c0-3.1-0.7-5.9-2.1-8.4
			c-1.4-2.5-3.3-4.5-5.7-5.9s-5.2-2.2-8.3-2.2s-5.9,0.7-8.3,2.2c-2.4,1.4-4.3,3.4-5.7,5.9s-2.1,5.3-2.1,8.4c0,3.1,0.7,5.9,2.1,8.4
			c1.4,2.5,3.3,4.5,5.7,6s5.2,2.2,8.3,2.2S541,669.4,543.5,667.9z"/>
		<path d="M567,673.9c-0.5-0.5-0.8-1.2-0.8-2v-36.6c0-0.8,0.3-1.5,0.8-2s1.2-0.8,2-0.8c0.4,0,0.8,0.1,1.2,0.3s0.7,0.4,1,0.7
			l23.5,31.3v-29.5c0-0.8,0.3-1.5,0.8-2s1.2-0.8,2-0.8s1.4,0.3,2,0.8c0.5,0.5,0.8,1.2,0.8,2v36.6c0,0.8-0.3,1.5-0.8,2
			s-1.2,0.8-2,0.8c-0.4,0-0.8-0.1-1.2-0.2c-0.4-0.2-0.7-0.4-0.9-0.7l-23.5-31.3V672c0,0.8-0.3,1.5-0.8,2s-1.2,0.8-2,0.8
			C568.2,674.7,567.5,674.4,567,673.9z"/>
	</g>
</g>
</svg>
